<svg width="69" height="43" viewBox="0 0 69 43" fill="none" xmlns="http://www.w3.org/2000/svg">
<path d="M17.488 42.58C14.24 42.58 11.34 41.768 8.788 40.144C6.236 38.4813 4.22533 36.084 2.756 32.952C1.28667 29.7813 0.552 26.0307 0.552 21.7C0.552 17.3693 1.28667 13.638 2.756 10.506C4.22533 7.33533 6.236 4.938 8.788 3.314C11.34 1.65133 14.24 0.819998 17.488 0.819998C20.736 0.819998 23.636 1.65133 26.188 3.314C28.7787 4.938 30.8087 7.33533 32.278 10.506C33.7473 13.638 34.482 17.3693 34.482 21.7C34.482 26.0307 33.7473 29.7813 32.278 32.952C30.8087 36.084 28.7787 38.4813 26.188 40.144C23.636 41.768 20.736 42.58 17.488 42.58ZM17.488 36.026C20.388 36.026 22.6693 34.8273 24.332 32.43C26.0333 30.0327 26.884 26.456 26.884 21.7C26.884 16.944 26.0333 13.3673 24.332 10.97C22.6693 8.57267 20.388 7.374 17.488 7.374C14.6267 7.374 12.3453 8.57267 10.644 10.97C8.98133 13.3673 8.15 16.944 8.15 21.7C8.15 26.456 8.98133 30.0327 10.644 32.43C12.3453 34.8273 14.6267 36.026 17.488 36.026ZM68.7002 35.62V42H38.7722V36.954L54.8962 21.642C56.7135 19.902 57.9315 18.394 58.5502 17.118C59.2075 15.8033 59.5362 14.508 59.5362 13.232C59.5362 11.3373 58.8982 9.88733 57.6222 8.882C56.3462 7.87667 54.4709 7.374 51.9962 7.374C47.8589 7.374 44.6882 8.78533 42.4842 11.608L37.2062 7.548C38.7915 5.42133 40.9182 3.778 43.5862 2.618C46.2929 1.41933 49.3089 0.819998 52.6342 0.819998C57.0422 0.819998 60.5609 1.864 63.1902 3.952C65.8195 6.04 67.1342 8.882 67.1342 12.478C67.1342 14.682 66.6702 16.7507 65.7422 18.684C64.8142 20.6173 63.0355 22.8213 60.4062 25.296L49.5602 35.62H68.7002Z" fill="#007210" fill-opacity="0.1"/>
</svg>
