<svg width="68" height="43" viewBox="0 0 68 43" fill="none" xmlns="http://www.w3.org/2000/svg">
<path d="M17.488 42.58C14.24 42.58 11.34 41.768 8.788 40.144C6.236 38.4813 4.22533 36.084 2.756 32.952C1.28667 29.7813 0.552 26.0307 0.552 21.7C0.552 17.3693 1.28667 13.638 2.756 10.506C4.22533 7.33533 6.236 4.938 8.788 3.314C11.34 1.65133 14.24 0.819998 17.488 0.819998C20.736 0.819998 23.636 1.65133 26.188 3.314C28.7787 4.938 30.8087 7.33533 32.278 10.506C33.7473 13.638 34.482 17.3693 34.482 21.7C34.482 26.0307 33.7473 29.7813 32.278 32.952C30.8087 36.084 28.7787 38.4813 26.188 40.144C23.636 41.768 20.736 42.58 17.488 42.58ZM17.488 36.026C20.388 36.026 22.6693 34.8273 24.332 32.43C26.0333 30.0327 26.884 26.456 26.884 21.7C26.884 16.944 26.0333 13.3673 24.332 10.97C22.6693 8.57267 20.388 7.374 17.488 7.374C14.6267 7.374 12.3453 8.57267 10.644 10.97C8.98133 13.3673 8.15 16.944 8.15 21.7C8.15 26.456 8.98133 30.0327 10.644 32.43C12.3453 34.8273 14.6267 36.026 17.488 36.026ZM56.295 18.162C60.0457 18.626 62.907 19.902 64.879 21.99C66.851 24.078 67.837 26.688 67.837 29.82C67.837 32.1787 67.2377 34.3247 66.039 36.258C64.8403 38.1913 63.023 39.738 60.587 40.898C58.1897 42.0193 55.251 42.58 51.771 42.58C48.871 42.58 46.0677 42.174 43.361 41.362C40.693 40.5113 38.4117 39.3513 36.517 37.882L39.765 32.024C41.2343 33.2613 43.013 34.2473 45.101 34.982C47.2277 35.678 49.4123 36.026 51.655 36.026C54.323 36.026 56.411 35.4847 57.919 34.402C59.4657 33.2807 60.239 31.7727 60.239 29.878C60.239 27.9833 59.5043 26.514 58.035 25.47C56.6043 24.3873 54.4003 23.846 51.423 23.846H47.711V18.684L56.933 7.722H38.489V1.4H66.155V6.446L56.295 18.162Z" fill="#007210" fill-opacity="0.1"/>
</svg>
