<svg width="76" height="43" viewBox="0 0 76 43" fill="none" xmlns="http://www.w3.org/2000/svg">
<path d="M17.488 42.58C14.24 42.58 11.34 41.768 8.788 40.144C6.236 38.4813 4.22533 36.084 2.756 32.952C1.28667 29.7813 0.552 26.0307 0.552 21.7C0.552 17.3693 1.28667 13.638 2.756 10.506C4.22533 7.33533 6.236 4.938 8.788 3.314C11.34 1.65133 14.24 0.819998 17.488 0.819998C20.736 0.819998 23.636 1.65133 26.188 3.314C28.7787 4.938 30.8087 7.33533 32.278 10.506C33.7473 13.638 34.482 17.3693 34.482 21.7C34.482 26.0307 33.7473 29.7813 32.278 32.952C30.8087 36.084 28.7787 38.4813 26.188 40.144C23.636 41.768 20.736 42.58 17.488 42.58ZM17.488 36.026C20.388 36.026 22.6693 34.8273 24.332 32.43C26.0333 30.0327 26.884 26.456 26.884 21.7C26.884 16.944 26.0333 13.3673 24.332 10.97C22.6693 8.57267 20.388 7.374 17.488 7.374C14.6267 7.374 12.3453 8.57267 10.644 10.97C8.98133 13.3673 8.15 16.944 8.15 21.7C8.15 26.456 8.98133 30.0327 10.644 32.43C12.3453 34.8273 14.6267 36.026 17.488 36.026ZM75.7694 32.778H68.5774V42H61.2694V32.778H38.9974V27.558L59.0074 1.4H67.0694L48.2194 26.398H61.5014V18.22H68.5774V26.398H75.7694V32.778Z" fill="#007210" fill-opacity="0.1"/>
</svg>
