<svg width="20" height="17" viewBox="0 0 20 17" fill="none" xmlns="http://www.w3.org/2000/svg">
<path fill-rule="evenodd" clip-rule="evenodd" d="M0.205242 4.39267C-0.0931317 7.32435 -0.0798315 10.7055 0.335359 13.6253C0.565093 15.2409 1.81194 16.4794 3.35105 16.6209L4.95956 16.7688C8.31352 17.0771 11.6865 17.0771 15.0404 16.7688L16.6489 16.6209C18.188 16.4794 19.4349 15.2409 19.6646 13.6253C20.0798 10.7055 20.0931 7.32454 19.7948 4.39285C19.7562 4.05297 19.7128 3.71355 19.6646 3.3747C19.4349 1.75913 18.188 0.520586 16.6489 0.379102L15.0404 0.231238C11.6865 -0.0770795 8.31352 -0.0770793 4.95956 0.231238L3.35105 0.379103C1.81194 0.520587 0.565093 1.75913 0.335359 3.3747C0.287183 3.7135 0.243811 4.05286 0.205242 4.39267ZM5.09791 1.91436C8.35981 1.61451 11.6402 1.61451 14.9021 1.91436L16.5106 2.06222C17.314 2.13608 17.9649 2.7826 18.0848 3.62593C18.0972 3.71351 18.1094 3.80113 18.1211 3.88879L12.1982 7.36847C10.8311 8.17166 9.16879 8.17166 7.80166 7.36847L1.87885 3.88883C1.89063 3.80116 1.90275 3.71353 1.91521 3.62593C2.03513 2.7826 2.68599 2.13608 3.4894 2.06222L5.09791 1.91436ZM18.3166 5.70662C18.5232 8.26082 18.4459 10.8343 18.0848 13.3741C17.9649 14.2174 17.314 14.8639 16.5106 14.9378L14.9021 15.0856C11.6402 15.3855 8.35981 15.3855 5.09791 15.0856L3.4894 14.9378C2.68599 14.8639 2.03513 14.2174 1.91521 13.3741C1.55405 10.8343 1.47677 8.26085 1.68336 5.70666L7.02579 8.84534C8.87543 9.932 11.1245 9.932 12.9741 8.84534L18.3166 5.70662Z" fill="#AFAFAF"/>
</svg>
