<svg width="22" height="22" viewBox="0 0 22 22" fill="none" xmlns="http://www.w3.org/2000/svg">
<path d="M13.63 20.2634C8.48087 18.0772 4.3393 14.0444 2.01177 8.97203L2.01082 8.96997L1.38159 7.58505C0.520807 5.69054 1.15647 3.45102 2.88396 2.29203L4.50274 1.20596C5.02543 0.855279 5.72926 0.962181 6.12441 1.45227L9.07557 5.11253C9.50902 5.65014 9.40806 6.44067 8.85343 6.85194L7.32645 7.98421C8.75881 10.8896 11.1163 13.2485 14.02 14.6817L15.1516 13.1538C15.5626 12.5989 16.3527 12.4978 16.89 12.9316L20.548 15.8844C21.0379 16.2798 21.1447 16.9842 20.794 17.5072L19.7154 19.1159C18.5636 20.8336 16.3437 21.4732 14.4553 20.6314L13.63 20.2634Z" stroke="#AFAFAF" stroke-linejoin="round"/>
<path d="M12.6387 7.92631C12.6387 8.16803 12.7347 8.39986 12.9055 8.57079C13.0763 8.74172 13.308 8.83774 13.5496 8.83774H18.1994C18.7024 8.83774 19.1103 8.42968 19.1103 7.92631C19.1103 7.42293 18.7024 7.01487 18.1994 7.01487H15.7487L19.5854 3.17588C19.9412 2.81995 19.9412 2.24286 19.5854 1.88692C19.2297 1.53098 18.653 1.53098 18.2972 1.88692L14.4605 5.7259V3.27381C14.4605 2.77044 14.0527 2.36238 13.5496 2.36238C13.0465 2.36238 12.6387 2.77044 12.6387 3.27381V7.92631Z" stroke="#AFAFAF" stroke-linejoin="round"/>
</svg>
