<svg width="22" height="22" viewBox="0 0 22 22" fill="none" xmlns="http://www.w3.org/2000/svg">
<path d="M12.084 1.25757C11.4379 0.91777 10.5503 0.912667 9.89966 1.25126C7.12028 2.69759 4.60168 4.3547 2.39643 6.19076C2.10236 6.4356 1.90776 6.77828 1.91109 7.16996C1.91441 7.56031 2.11343 7.89917 2.40653 8.14065C4.59403 9.94286 7.11547 11.6019 9.84433 13.037C10.4905 13.3768 11.378 13.3819 12.0287 13.0433C14.8081 11.597 17.3267 9.93987 19.5319 8.1038C19.826 7.85896 20.0206 7.51629 20.0173 7.1246C20.014 6.73426 19.8149 6.39539 19.5218 6.15392C17.3343 4.3517 14.8129 2.69264 12.084 1.25757Z" stroke="#AFAFAF"/>
<path d="M20.6196 12.2804C20.9983 12.0421 21.1137 11.5397 20.8772 11.1581C20.6408 10.7765 20.1421 10.6603 19.7634 10.8985L13.1807 15.0394C12.5943 15.4083 11.7977 15.614 10.964 15.614C10.1303 15.6141 9.33359 15.4085 8.74708 15.0397L2.2365 10.9456C1.85775 10.7074 1.35908 10.8237 1.12271 11.2053C0.886329 11.587 1.00175 12.0894 1.3805 12.3276L7.89108 16.4217C8.78447 16.9835 9.89277 17.2432 10.9641 17.2431C12.0354 17.243 13.1437 16.9832 14.0369 16.4213L20.6196 12.2804Z" stroke="#AFAFAF"/>
<path d="M20.6197 16.3581C20.9984 16.1198 21.1137 15.6173 20.8772 15.2358C20.6407 14.8542 20.142 14.738 19.7633 14.9763L14.0627 18.5634C13.2296 19.0875 12.1153 19.3709 10.9639 19.3709C9.81259 19.371 8.69817 19.0878 7.86498 18.5637L2.23658 15.0234C1.85786 14.7852 1.35918 14.9014 1.12276 15.283C0.886335 15.6646 1.00169 16.1671 1.38042 16.4053L7.00881 19.9456C8.14894 20.6628 9.575 21.0001 10.964 21C12.3531 20.9999 13.7791 20.6624 14.919 19.9451L20.6197 16.3581Z" stroke="#AFAFAF"/>
</svg>
