<svg width="18" height="18" viewBox="0 0 18 18" fill="none" xmlns="http://www.w3.org/2000/svg">
<path d="M6.75337 2.84389L6.26887 2.72036L6.10989 3.34389H6.75337V2.84389ZM11.2389 2.84389V3.34389H11.8824L11.7234 2.72036L11.2389 2.84389ZM12.5062 2.84389L12.0104 2.90809L12.0668 3.34389H12.5062V2.84389ZM17.3337 6.05906L17.8326 6.09233L17.8337 6.07572V6.05906H17.3337ZM17.267 7.85399L17.7669 7.86408L17.7669 7.86197L17.267 7.85399ZM17.1594 8.06665L17.4565 8.46884L17.4576 8.46797L17.1594 8.06665ZM16.3582 8.62445L16.1324 8.17833L16.1051 8.19215L16.0797 8.2092L16.3582 8.62445ZM11.6525 10.5308L11.5593 10.0395L11.5561 10.0401L11.6525 10.5308ZM11.374 10.3949L11.8085 10.1475L11.8071 10.145L11.374 10.3949ZM6.60246 10.3898L6.1725 10.1346L6.17139 10.1365L6.60246 10.3898ZM6.32565 10.5232L6.23152 11.0142L6.2322 11.0144L6.32565 10.5232ZM1.64248 8.63289L1.35682 9.04341L1.36616 9.0496L1.64248 8.63289ZM0.84208 8.07593L1.12767 7.66552L1.11866 7.65925L1.10938 7.65338L0.84208 8.07593ZM0.733692 7.8734H1.23369V7.85888L1.23285 7.84439L0.733692 7.8734ZM0.666992 6.05906H0.166992V6.06659L0.167219 6.07412L0.666992 6.05906ZM5.48607 2.84389V3.34389H5.92551L5.98193 2.90809L5.48607 2.84389ZM17.0168 9.69626L16.7911 9.25014L16.7636 9.26402L16.7381 9.28115L17.0168 9.69626ZM17.0502 9.67938L16.8244 9.23326L16.8244 9.23326L17.0502 9.67938ZM11.1806 11.8903L11.2502 12.3855L11.2532 12.385L11.1806 11.8903ZM10.4969 11.4346L10.0136 11.5628L10.0147 11.567L10.4969 11.4346ZM7.50374 11.4346L7.98593 11.567L7.98705 11.5628L7.50374 11.4346ZM6.82007 11.8903L6.74742 12.385L6.75046 12.3855L6.82007 11.8903ZM0.983817 9.69626L0.62813 10.0477L0.663417 10.0834L0.705102 10.1114L0.983817 9.69626ZM0.825405 9.67938L1.07047 10.1152L1.08176 10.1089L1.09271 10.1019L0.825405 9.67938ZM0.750367 9.82284H0.250321L0.250413 9.82962L0.750367 9.82284ZM0.80873 14.1266H1.30878L1.30868 14.1198L0.80873 14.1266ZM17.1836 14.1266L16.6836 14.1189V14.1266H17.1836ZM17.2503 9.82284L17.7503 9.83059V9.82284H17.2503ZM17.1752 9.67938L16.9157 10.1067L16.9229 10.1111L16.9302 10.1152L17.1752 9.67938ZM7.23787 2.96742C7.31664 2.65846 7.59795 2.4325 7.92062 2.4325V1.4325C7.12606 1.4325 6.45689 1.98291 6.26887 2.72036L7.23787 2.96742ZM11.2389 2.34389H6.75337V3.34389H11.2389V2.34389ZM10.0717 2.4325C10.3944 2.4325 10.6757 2.65846 10.7544 2.96742L11.7234 2.72036C11.5354 1.98291 10.8663 1.4325 10.0717 1.4325V2.4325ZM7.92062 2.4325H10.0717V1.4325H7.92062V2.4325ZM14.1571 2.34389H12.5062V3.34389H14.1571V2.34389ZM17.8337 6.05906C17.8337 4.01649 16.1898 2.34389 14.1571 2.34389V3.34389C15.6261 3.34389 16.8337 4.55736 16.8337 6.05906H17.8337ZM17.7669 7.86197C17.7751 7.34552 17.7916 6.90187 17.806 6.58767C17.8132 6.43062 17.8199 6.30608 17.8248 6.22113C17.8272 6.17865 17.8292 6.14609 17.8305 6.12433C17.8312 6.11345 17.8317 6.10526 17.8321 6.0999C17.8322 6.09721 17.8324 6.09523 17.8324 6.09396C17.8325 6.09333 17.8325 6.09288 17.8325 6.0926C17.8325 6.09247 17.8326 6.09238 17.8326 6.09233C17.8326 6.09231 17.8326 6.0923 17.8326 6.0923V6.09231C17.8326 6.09232 17.8326 6.09233 17.3337 6.05906C16.8348 6.0258 16.8348 6.02582 16.8348 6.02584C16.8348 6.02585 16.8348 6.02588 16.8348 6.0259C16.8348 6.02595 16.8348 6.026 16.8347 6.02607C16.8347 6.02621 16.8347 6.02639 16.8347 6.02662C16.8347 6.02708 16.8346 6.02772 16.8346 6.02853C16.8345 6.03017 16.8343 6.03253 16.8341 6.0356C16.8337 6.04172 16.8332 6.05068 16.8324 6.06235C16.831 6.0857 16.8289 6.11991 16.8264 6.16409C16.8213 6.25245 16.8145 6.38075 16.8071 6.54185C16.7923 6.86393 16.7755 7.31774 16.767 7.84601L17.7669 7.86197ZM17.4576 8.46797C17.6537 8.3223 17.7622 8.09364 17.7669 7.86408L16.7671 7.8439C16.7684 7.77974 16.7969 7.71311 16.8612 7.66533L17.4576 8.46797ZM16.5839 9.07058C16.6248 9.04989 16.6845 9.01021 16.7166 8.98907C16.765 8.95708 16.8291 8.91389 16.904 8.86241C17.0539 8.75943 17.2506 8.62087 17.4565 8.46884L16.8624 7.66446C16.6672 7.80863 16.4799 7.94053 16.3378 8.03819C16.2667 8.08703 16.2078 8.12669 16.1655 8.15459C16.1068 8.19334 16.1082 8.19058 16.1324 8.17833L16.5839 9.07058ZM11.7456 11.022C13.5226 10.6851 15.1944 10.007 16.6367 9.0397L16.0797 8.2092C14.7539 9.0984 13.2091 9.72669 11.5593 10.0395L11.7456 11.022ZM10.9395 10.6423C11.0885 10.904 11.3998 11.0899 11.7488 11.0214L11.5561 10.0401C11.6817 10.0155 11.7729 10.0849 11.8085 10.1475L10.9395 10.6423ZM8.99616 9.52108C9.81372 9.52108 10.5479 9.96377 10.941 10.6448L11.8071 10.145C11.2397 9.16192 10.1796 8.52108 8.99616 8.52108V9.52108ZM7.03242 10.6451C7.43912 9.95992 8.18339 9.52108 8.99616 9.52108V8.52108C7.82126 8.52108 6.75463 9.15396 6.1725 10.1346L7.03242 10.6451ZM6.2322 11.0144C6.57586 11.0797 6.88259 10.9 7.03353 10.6432L6.17139 10.1365C6.20727 10.0754 6.29723 10.0088 6.41911 10.032L6.2322 11.0144ZM1.36616 9.0496C2.79896 9.99971 4.46957 10.6765 6.23152 11.0142L6.41979 10.0321C4.78337 9.71841 3.23737 9.09054 1.9188 8.21618L1.36616 9.0496ZM0.556493 8.48635L1.35689 9.04331L1.92807 8.22248L1.12767 7.66552L0.556493 8.48635ZM0.233692 7.8734C0.233692 8.12224 0.357405 8.36098 0.574777 8.49848L1.10938 7.65338C1.19335 7.7065 1.23369 7.79334 1.23369 7.8734H0.233692ZM0.666992 6.05906C0.167219 6.07412 0.167219 6.07413 0.167219 6.07414C0.16722 6.07415 0.16722 6.07417 0.167221 6.07419C0.167222 6.07424 0.167224 6.0743 0.167227 6.07439C0.167232 6.07456 0.16724 6.07482 0.16725 6.07516C0.167271 6.07584 0.167301 6.07684 0.167341 6.07817C0.167422 6.08083 0.167541 6.08476 0.167697 6.08991C0.16801 6.1002 0.168472 6.11533 0.169068 6.13473C0.17026 6.17353 0.171991 6.2294 0.174145 6.29778C0.178452 6.43451 0.184458 6.62137 0.191249 6.82178C0.204732 7.21962 0.221603 7.6799 0.234534 7.90241L1.23285 7.84439C1.22077 7.63652 1.20429 7.18964 1.19068 6.78791C1.18392 6.58852 1.17794 6.4025 1.17365 6.26629C1.1715 6.1982 1.16978 6.14259 1.1686 6.10401C1.168 6.08473 1.16755 6.06971 1.16724 6.05951C1.16708 6.05442 1.16696 6.05053 1.16688 6.04792C1.16684 6.04662 1.16681 6.04564 1.16679 6.04498C1.16678 6.04465 1.16678 6.04441 1.16677 6.04425C1.16677 6.04416 1.16677 6.0441 1.16677 6.04407C1.16677 6.04405 1.16677 6.04403 1.16677 6.04402C1.16677 6.04401 1.16677 6.04401 0.666992 6.05906ZM3.84358 2.34389C1.81089 2.34389 0.166992 4.01649 0.166992 6.05906H1.16699C1.16699 4.55736 2.37452 3.34389 3.84358 3.34389V2.34389ZM5.48607 2.34389H3.84358V3.34389H5.48607V2.34389ZM7.92062 0.166687C6.40595 0.166687 5.17923 1.31966 4.99021 2.7797L5.98193 2.90809C6.10974 1.92088 6.93404 1.16669 7.92062 1.16669V0.166687ZM10.0717 0.166687H7.92062V1.16669H10.0717V0.166687ZM13.0021 2.7797C12.8131 1.31965 11.5864 0.166687 10.0717 0.166687V1.16669C11.0583 1.16669 11.8826 1.92088 12.0104 2.90809L13.0021 2.7797ZM17.2426 10.1424L17.276 10.1255L16.8244 9.23326L16.7911 9.25014L17.2426 10.1424ZM11.2532 12.385C13.446 12.063 15.5439 11.2875 17.2955 10.1114L16.7381 9.28115C15.1215 10.3666 13.1672 11.0932 11.1079 11.3956L11.2532 12.385ZM10.0147 11.567C10.1642 12.1115 10.6992 12.4629 11.2502 12.3855L11.111 11.3952C11.0893 11.3983 11.061 11.3935 11.033 11.375C11.0056 11.3569 10.987 11.3311 10.9791 11.3023L10.0147 11.567ZM9.01283 10.787C9.49321 10.787 9.8879 11.0886 10.0136 11.5628L10.9802 11.3065C10.7391 10.3968 9.94983 9.78697 9.01283 9.78697V10.787ZM9.00449 10.787H9.01283V9.78697H9.00449V10.787ZM8.98782 10.787H9.00449V9.78697H8.98782V10.787ZM7.98705 11.5628C8.11275 11.0886 8.50744 10.787 8.98782 10.787V9.78697C8.05082 9.78697 7.26159 10.3968 7.02043 11.3065L7.98705 11.5628ZM6.75046 12.3855C7.30141 12.4629 7.83648 12.1115 7.98591 11.567L7.02157 11.3023C7.01367 11.3311 6.99503 11.3569 6.96764 11.375C6.9397 11.3935 6.91135 11.3983 6.88967 11.3952L6.75046 12.3855ZM0.705102 10.1114C2.4568 11.2875 4.5546 12.063 6.74742 12.385L6.89272 11.3956C4.83341 11.0932 2.87919 10.3666 1.26253 9.28115L0.705102 10.1114ZM1.09271 10.1019C0.959143 10.1864 0.832627 10.1617 0.792033 10.1504C0.767467 10.1436 0.747819 10.1349 0.732235 10.1267C0.724164 10.1224 0.714205 10.1168 0.702617 10.1091C0.700936 10.108 0.666033 10.086 0.62813 10.0477L1.3395 9.34486C1.2796 9.28422 1.2136 9.24998 1.19762 9.24158C1.16197 9.22283 1.11575 9.20255 1.06096 9.18725C0.95992 9.15904 0.758367 9.13015 0.558105 9.25683L1.09271 10.1019ZM0.750367 9.82284C1.25037 9.82284 1.25037 9.82302 1.25037 9.8232C1.25037 9.82326 1.25037 9.82344 1.25037 9.82356C1.25037 9.8238 1.25037 9.82404 1.25037 9.82428C1.25036 9.82476 1.25036 9.82523 1.25036 9.8257C1.25035 9.82664 1.25035 9.82757 1.25033 9.82849C1.25031 9.83032 1.25028 9.83212 1.25024 9.83387C1.25015 9.83738 1.25002 9.84077 1.24985 9.84407C1.24952 9.85061 1.249 9.85713 1.24824 9.86372C1.24683 9.87594 1.24407 9.89299 1.23778 9.91351C1.22756 9.94686 1.18894 10.0486 1.07047 10.1152L0.580337 9.24356C0.38683 9.35237 0.310697 9.52584 0.281714 9.62036C0.266042 9.67147 0.258597 9.71648 0.254841 9.749C0.252907 9.76575 0.251802 9.78051 0.251173 9.79274C0.250857 9.79889 0.250656 9.80451 0.250534 9.80952C0.250473 9.81203 0.250431 9.81439 0.250405 9.81662C0.250392 9.81773 0.250382 9.8188 0.250376 9.81984C0.250373 9.82036 0.250371 9.82087 0.250369 9.82137C0.250369 9.82162 0.250368 9.82187 0.250368 9.82211C0.250368 9.82224 0.250367 9.82242 0.250367 9.82248C0.250367 9.82266 0.250367 9.82284 0.750367 9.82284ZM1.30868 14.1198L1.25032 9.81606L0.250413 9.82962L0.308776 14.1334L1.30868 14.1198ZM3.97698 16.8334C2.50792 16.8334 1.30873 15.6283 1.30873 14.1266H0.30873C0.30873 16.1692 1.94429 17.8334 3.97698 17.8334V16.8334ZM14.0153 16.8334H3.97698V17.8334H14.0153V16.8334ZM16.6836 14.1266C16.6836 15.6283 15.4844 16.8334 14.0153 16.8334V17.8334C16.048 17.8334 17.6836 16.1692 17.6836 14.1266H16.6836ZM16.7503 9.81509L16.6836 14.1189L17.6835 14.1344L17.7502 9.83059L16.7503 9.81509ZM16.9302 10.1152C16.8117 10.0486 16.7731 9.94686 16.7629 9.91351C16.7566 9.89299 16.7538 9.87594 16.7524 9.86372C16.7517 9.85713 16.7511 9.85061 16.7508 9.84408C16.7506 9.84077 16.7505 9.83738 16.7504 9.83387C16.7504 9.83212 16.7503 9.83032 16.7503 9.82849C16.7503 9.82757 16.7503 9.82664 16.7503 9.8257C16.7503 9.82523 16.7503 9.82476 16.7503 9.82428C16.7503 9.82404 16.7503 9.8238 16.7503 9.82356C16.7503 9.82344 16.7503 9.82326 16.7503 9.8232C16.7503 9.82302 16.7503 9.82284 17.2503 9.82284C17.7503 9.82284 17.7503 9.82266 17.7503 9.82248C17.7503 9.82242 17.7503 9.82224 17.7503 9.82211C17.7503 9.82187 17.7503 9.82162 17.7503 9.82137C17.7503 9.82087 17.7503 9.82036 17.7503 9.81984C17.7503 9.8188 17.7503 9.81773 17.7502 9.81662C17.7502 9.81439 17.7502 9.81203 17.7501 9.80952C17.75 9.80451 17.7498 9.79889 17.7495 9.79274C17.7488 9.78051 17.7477 9.76575 17.7458 9.749C17.7421 9.71648 17.7346 9.67147 17.7189 9.62036C17.69 9.52583 17.6138 9.35237 17.4203 9.24356L16.9302 10.1152ZM17.276 10.1255C17.2368 10.1453 17.1893 10.1603 17.1337 10.163C17.075 10.1658 16.9951 10.155 16.9157 10.1067L17.4348 9.25202C17.1933 9.10539 16.9483 9.17056 16.8244 9.23326L17.276 10.1255ZM8.99616 14.3481C9.62815 14.3481 10.1215 13.8401 10.1215 13.2152H9.12147C9.12147 13.2603 9.10497 13.2924 9.08445 13.3132C9.0641 13.3338 9.03516 13.3481 8.99616 13.3481V14.3481ZM7.87084 13.2152C7.87084 13.8445 8.37683 14.3481 8.99616 14.3481V13.3481C8.93181 13.3481 8.87084 13.2949 8.87084 13.2152H7.87084ZM7.87084 12.1266V13.2152H8.87084V12.1266H7.87084ZM8.99616 10.9937C8.3725 10.9937 7.87084 11.5102 7.87084 12.1266H8.87084C8.87084 12.0923 8.88472 12.0584 8.91099 12.0318C8.93721 12.0053 8.96794 11.9937 8.99616 11.9937V10.9937ZM10.1215 12.1266C10.1215 11.5146 9.63246 10.9937 8.99616 10.9937V11.9937C9.06021 11.9937 9.12147 12.0467 9.12147 12.1266H10.1215ZM10.1215 13.2152V12.1266H9.12147V13.2152H10.1215Z" fill="#AFAFAF"/>
</svg>
