<svg width="17" height="17" viewBox="0 0 17 17" fill="none" xmlns="http://www.w3.org/2000/svg">
<path d="M8.1 0C5.95175 0 3.89148 0.853391 2.37244 2.37244C0.853391 3.89148 0 5.95175 0 8.1C0 10.2483 0.853391 12.3085 2.37244 13.8276C3.89148 15.3466 5.95175 16.2 8.1 16.2C10.2483 16.2 12.3085 15.3466 13.8276 13.8276C15.3466 12.3085 16.2 10.2483 16.2 8.1C16.2 5.95175 15.3466 3.89148 13.8276 2.37244C12.3085 0.853391 10.2483 0 8.1 0V0ZM0.999 8.712H3.258C3.294 9.531 3.4083 10.3446 3.6 11.142H1.656C1.29348 10.3778 1.07096 9.55476 0.999 8.712ZM8.712 3.852V1.071C9.57931 1.4006 10.292 2.04266 10.71 2.871C10.8945 3.1833 11.0574 3.5082 11.196 3.843L8.712 3.852ZM11.61 5.067C11.8188 5.8617 11.943 6.6762 11.979 7.497H8.712V5.067H11.61ZM7.488 1.071V3.852H5.004C5.14284 3.51693 5.30524 3.19211 5.49 2.88C5.90622 2.04827 6.61913 1.40279 7.488 1.071ZM7.488 5.067V7.497H4.23C4.266 6.6762 4.3902 5.8617 4.599 5.067H7.488ZM3.258 7.488H0.999C1.07096 6.64524 1.29348 5.82221 1.656 5.058H3.6C3.40793 5.85508 3.2934 6.66887 3.258 7.488ZM4.23 8.712H7.488V11.142H4.599C4.39023 10.3474 4.26654 9.53279 4.23 8.712ZM7.497 12.312V15.093C6.62969 14.7634 5.917 14.1213 5.499 13.293C5.31424 12.9809 5.15184 12.6561 5.013 12.321L7.497 12.312ZM8.712 15.093V12.357H11.196C11.0572 12.6921 10.8948 13.0169 10.71 13.329C10.292 14.1573 9.57931 14.7994 8.712 15.129V15.093ZM8.712 11.097V8.667H11.97C11.9335 9.48779 11.8098 10.3024 11.601 11.097H8.712ZM12.951 8.667H15.21C15.138 9.50976 14.9155 10.3328 14.553 11.097H12.6C12.789 10.314 12.9033 9.5157 12.942 8.712L12.951 8.667ZM12.951 7.452C12.9098 6.64768 12.7923 5.84909 12.6 5.067H14.544C14.9067 5.832 15.129 6.6546 15.201 7.497L12.951 7.452ZM13.851 3.852H12.24C11.9485 3.03327 11.526 2.2673 10.989 1.584C12.1089 2.08672 13.0818 2.86745 13.815 3.852H13.851ZM5.211 1.584C4.67399 2.2673 4.25149 3.03327 3.96 3.852H2.385C3.11825 2.86745 4.09106 2.08672 5.211 1.584ZM2.376 12.384H3.96C4.25149 13.2027 4.67399 13.9687 5.211 14.652C4.08796 14.1417 3.11485 13.3515 2.385 12.357L2.376 12.384ZM10.98 14.652C11.517 13.9687 11.9395 13.2027 12.231 12.384H13.815C13.0773 13.3554 12.1049 14.1234 10.989 14.616L10.98 14.652Z" fill="#AFAFAF"/>
</svg>
