<svg width="16" height="18" viewBox="0 0 16 18" fill="none" xmlns="http://www.w3.org/2000/svg">
<path d="M13.2249 12.843L13.6228 13.1457L13.6229 13.1457L13.2249 12.843ZM8.60744 17.127L8.33556 16.7074L8.3337 16.7086L8.60744 17.127ZM7.39237 17.127L7.12157 17.5474L7.1225 17.548L7.39237 17.127ZM2.77574 12.843L3.17492 12.5419L3.17358 12.5401L2.77574 12.843ZM7.99486 0.166687C3.85583 0.166687 0.416992 3.47719 0.416992 7.59815H1.41699C1.41699 4.05267 4.38463 1.16669 7.99486 1.16669V0.166687ZM15.5837 7.59815C15.5837 3.4767 12.1443 0.166687 7.99486 0.166687V1.16669C11.6165 1.16669 14.5837 4.05316 14.5837 7.59815H15.5837ZM13.6229 13.1457C14.8348 11.5526 15.5837 9.6553 15.5837 7.59815H14.5837C14.5837 9.40423 13.9275 11.0935 12.827 12.5403L13.6229 13.1457ZM8.87933 17.5467C10.6977 16.3685 12.3125 14.868 13.6228 13.1457L12.827 12.5403C11.5862 14.1712 10.0565 15.5924 8.33556 16.7074L8.87933 17.5467ZM7.1225 17.548C7.4019 17.7271 7.69948 17.8373 8.02104 17.8332C8.34171 17.8292 8.62635 17.7122 8.88119 17.5454L8.3337 16.7086C8.18352 16.8069 8.08287 16.8324 8.00839 16.8333C7.9348 16.8343 7.82735 16.812 7.66223 16.7061L7.1225 17.548ZM2.37657 13.1441C3.67676 14.8678 5.29246 16.3689 7.12157 17.5474L7.66316 16.7067C5.93275 15.5919 4.40404 14.1714 3.17492 12.5419L2.37657 13.1441ZM0.416992 7.59815C0.416992 9.65518 1.16493 11.5525 2.3779 13.1459L3.17358 12.5401C2.07236 11.0936 1.41699 9.40435 1.41699 7.59815H0.416992ZM7.99486 9.60808C6.97534 9.60808 6.16218 8.81124 6.16218 7.81398H5.16218C5.16218 9.38497 6.44474 10.6081 7.99486 10.6081V9.60808ZM9.83847 7.81398C9.83847 8.80836 9.01819 9.60808 7.99486 9.60808V10.6081C9.54287 10.6081 10.8385 9.38786 10.8385 7.81398H9.83847ZM7.99486 5.98071C9.00565 5.98071 9.83847 6.81726 9.83847 7.81398H10.8385C10.8385 6.26244 9.5554 4.98071 7.99486 4.98071V5.98071ZM6.16218 7.81398C6.16218 6.81434 6.98783 5.98071 7.99486 5.98071V4.98071C6.43225 4.98071 5.16218 6.26536 5.16218 7.81398H6.16218Z" fill="#AFAFAF"/>
</svg>
