<svg width="161" height="52" viewBox="0 0 161 52" fill="none" xmlns="http://www.w3.org/2000/svg">
<path d="M17.6145 28.8591V31.3941C15.8368 29.7321 13.5401 28.7271 11.0286 28.7271C5.39115 28.7271 0.82455 33.7851 0.82455 40.0251C0.82455 46.2621 5.39115 51.32 11.0286 51.32C13.5401 51.32 15.8368 50.318 17.6145 48.653V51.32H23.1565V28.8591H17.6145ZM12.168 45.9021C9.08978 45.9021 6.59619 43.2711 6.59619 40.0251C6.59619 36.7761 9.08978 34.1451 12.168 34.1451C14.8465 34.1451 17.0806 36.1401 17.6145 38.7981C17.695 39.1941 17.7368 39.6051 17.7368 40.0251C17.7368 40.4451 17.695 40.8561 17.6145 41.2521C17.0806 43.91 14.8435 45.9021 12.168 45.9021Z" fill="#0253A3"/>
<path d="M41.1902 45.4039V51.3199H26.5538V28.8589H32.4388V45.4039H41.1902Z" fill="#0253A3"/>
<path d="M65.6966 28.8589H58.6215L51.8655 37.2469H50.0281V28.8589H44.1461V51.3229H50.0281V42.9349H52.0266H52.1578L58.0249 51.3229H65.3983L56.7602 39.6739L65.6966 28.8589Z" fill="#0253A3"/>
<path d="M81.2785 28.9279V31.4629C79.5008 29.8009 77.204 28.7959 74.6926 28.7959C69.0551 28.7959 64.4885 33.8539 64.4885 40.0939C64.4885 46.3309 69.0551 51.3889 74.6926 51.3889C77.204 51.3889 79.5008 50.3869 81.2785 48.7219V51.3889H86.8205V28.9279H81.2785ZM75.832 45.9709C72.7538 45.9709 70.2602 43.3399 70.2602 40.0939C70.2602 36.8449 72.7538 34.2139 75.832 34.2139C78.5105 34.2139 80.7446 36.2089 81.2785 38.8669C81.359 39.2629 81.4008 39.6739 81.4008 40.0939C81.4008 40.5139 81.359 40.9249 81.2785 41.3209C80.7446 43.9789 78.5075 45.9709 75.832 45.9709Z" fill="#0253A3"/>
<path d="M104.422 45.4039V51.3199H89.839V28.8589H95.724V45.4039H104.422Z" fill="#0253A3"/>
<path d="M112.779 28.8589H106.897V51.3199H112.779V28.8589Z" fill="#0253A3"/>
<path d="M135.967 36.581V51.32H130.085V38.372C130.085 36.593 128.94 34.961 127.225 34.517C127.129 34.493 127.031 34.472 126.933 34.454C125.856 34.259 124.785 34.508 123.863 35.087C122.473 35.963 121.689 37.547 121.689 39.194V51.317H115.807V28.856H121.689V31.4C123.177 29.726 125.379 28.667 127.833 28.667C132.075 28.667 135.562 31.829 135.932 35.861C135.958 36.098 135.967 36.338 135.967 36.581Z" fill="#0253A3"/>
<path d="M160.175 39.995C160.175 39.299 160.116 38.618 160.002 37.955C159.093 32.672 154.717 28.667 149.455 28.667C144.197 28.667 139.821 32.672 138.911 37.955C138.798 38.618 138.738 39.299 138.738 39.995C138.738 40.697 138.798 41.387 138.914 42.053C139.463 45.215 141.256 47.915 143.734 49.574C143.931 49.703 144.131 49.829 144.337 49.946C145.858 50.822 147.6 51.32 149.455 51.32C149.587 51.32 149.715 51.317 149.837 51.311C149.998 51.317 150.159 51.32 150.323 51.32C153.804 51.32 156.954 50.039 159.227 47.963L155.642 44.357C154.287 45.506 152.402 46.22 150.323 46.22C149.333 46.22 148.388 46.058 147.523 45.764C146.171 45.095 145.107 43.739 144.62 42.053H159.996C160.119 41.387 160.175 40.697 160.175 39.995ZM144.617 37.955C145.309 35.519 147.209 33.767 149.438 33.767C151.666 33.767 153.566 35.519 154.258 37.955H144.617Z" fill="#0253A3"/>
<path d="M52.4591 10.5531C52.9572 10.4871 53.2913 10.2771 53.4583 9.92312C53.5538 9.72812 53.6015 9.44912 53.6015 9.08612C53.6015 8.34212 53.339 7.80212 52.811 7.46612C52.2861 7.13012 51.5314 6.96212 50.5501 6.96212C49.4167 6.96212 48.6143 7.26812 48.14 7.88312C47.8746 8.22212 47.7016 8.72912 47.621 9.39812H45.5958C45.6345 7.79912 46.1535 6.68312 47.1438 6.05912C48.1371 5.43212 49.2884 5.12012 50.5978 5.12012C52.1161 5.12012 53.3509 5.41112 54.2994 5.99312C55.239 6.57512 55.7103 7.48112 55.7103 8.70812V16.1901C55.7103 16.4151 55.755 16.5981 55.8475 16.7361C55.94 16.8741 56.1338 16.9431 56.4321 16.9431C56.5276 16.9431 56.6379 16.9371 56.7572 16.9251C56.8765 16.9131 57.0048 16.8951 57.142 16.8711V18.4851C56.805 18.5811 56.5484 18.6441 56.3695 18.6681C56.1935 18.6921 55.9519 18.7041 55.6476 18.7041C54.899 18.7041 54.3591 18.4371 54.0191 17.9031C53.8431 17.6211 53.7178 17.2191 53.6462 16.7031C53.2048 17.2851 52.5694 17.7891 51.7402 18.2181C50.914 18.6471 50.0013 18.8601 49.005 18.8601C47.806 18.8601 46.8306 18.4941 46.07 17.7621C45.3094 17.0301 44.9306 16.1151 44.9306 15.0171C44.9306 13.8141 45.3034 12.8781 46.0521 12.2181C46.8008 11.5551 47.7791 11.1471 48.9931 10.9941L52.4591 10.5531ZM47.8895 16.4571C48.3488 16.8201 48.8887 17.0031 49.5181 17.0031C50.2817 17.0031 51.0214 16.8261 51.7373 16.4691C52.9423 15.8781 53.5448 14.9121 53.5448 13.5711V11.8131C53.2793 11.9841 52.9393 12.1251 52.5187 12.2361C52.0982 12.3471 51.6925 12.4311 51.2898 12.4791L49.9774 12.6501C49.19 12.7551 48.5994 12.9201 48.2057 13.1481C47.5375 13.5291 47.2064 14.1351 47.2064 14.9661C47.2035 15.5961 47.4331 16.0941 47.8895 16.4571Z" fill="#A4D60A"/>
<path d="M67.3639 6.12799C68.3035 6.83899 68.8702 8.06299 69.0611 9.80299H66.8837C66.7525 9.00199 66.4482 8.33899 65.9769 7.80799C65.5057 7.27999 64.7451 7.01299 63.7011 7.01299C62.2753 7.01299 61.2552 7.69099 60.6408 9.04999C60.2441 9.93199 60.0442 11.018 60.0442 12.311C60.0442 13.613 60.3246 14.708 60.8884 15.596C61.4521 16.484 62.338 16.931 63.549 16.931C64.4766 16.931 65.2134 16.655 65.7562 16.1C66.2991 15.548 66.6749 14.789 66.8807 13.826H69.0581C68.8106 15.548 68.1872 16.808 67.1939 17.603C66.2007 18.398 64.927 18.797 63.376 18.797C61.6341 18.797 60.2471 18.176 59.2091 16.937C58.1741 15.695 57.6551 14.147 57.6551 12.287C57.6551 10.007 58.2218 8.23399 59.3582 6.96499C60.4946 5.69599 61.9413 5.06299 63.6981 5.06299C65.2044 5.06299 66.4244 5.41699 67.3639 6.12799Z" fill="#A4D60A"/>
<path d="M71.501 1.81396H73.6933V5.43797H76.0527V7.21997H73.6933V15.695C73.6933 16.148 73.8455 16.451 74.1527 16.604C74.3227 16.694 74.6031 16.736 74.9968 16.736C75.1012 16.736 75.2145 16.733 75.3339 16.73C75.4532 16.727 75.5963 16.715 75.7544 16.7V18.422C75.5039 18.494 75.2474 18.548 74.9759 18.581C74.7075 18.614 74.4152 18.629 74.102 18.629C73.0908 18.629 72.4018 18.368 72.0409 17.846C71.68 17.324 71.498 16.649 71.498 15.815V7.21997H69.4131V5.43797H71.498V1.81396H71.501Z" fill="#A4D60A"/>
<path d="M77.8722 0.611084H80.0794V3.38308H77.8722V0.611084ZM77.8722 5.49808H80.0794V18.4221H77.8722V5.49808Z" fill="#A4D60A"/>
<path d="M83.3515 5.43799L86.7996 16.01L90.4028 5.43799H92.777L87.9062 18.422H85.5916L80.8311 5.43799H83.3515Z" fill="#A4D60A"/>
<path d="M110.808 10.76V5.43797H108.747V10.76H104.472C104.27 9.31097 103.742 8.08997 102.883 7.09697C101.755 5.79497 100.285 5.14697 98.4711 5.14697C97.5524 5.14697 96.6666 5.36297 95.8045 5.79497C94.9455 6.22697 94.2923 6.78497 93.8419 7.47197C93.4064 8.12897 93.1171 8.89097 92.9739 9.76397C92.9172 10.028 92.8725 10.358 92.8397 10.76C92.8009 11.27 92.78 11.894 92.78 12.626V12.797H102.232C102.176 14.036 101.866 15.038 101.314 15.797C100.735 16.592 99.8402 16.991 98.6262 16.991C97.4928 16.991 96.589 16.616 95.9149 15.863C95.5271 15.428 95.2557 14.921 95.0946 14.348H92.962C93.0157 14.825 93.2036 15.356 93.5227 15.941C93.8389 16.529 94.1939 17.006 94.5876 17.378C95.2468 18.026 96.064 18.461 97.0364 18.689C97.5584 18.818 98.149 18.881 98.8082 18.881C100.416 18.881 101.776 18.293 102.895 17.117C103.9 16.058 104.452 14.618 104.55 12.797H108.747V18.107H110.808V12.797H116.063V10.76H110.808ZM95.0261 10.76C95.1185 9.87497 95.3184 9.16397 95.6256 8.62397C96.2191 7.57397 97.2124 7.04897 98.6024 7.04897C99.5986 7.04897 100.434 7.41197 101.111 8.13497C101.758 8.82797 102.113 9.70397 102.173 10.76H95.0261Z" fill="#A4D60A"/>
</svg>
