<svg width="48" height="76" viewBox="0 0 48 76" fill="none" xmlns="http://www.w3.org/2000/svg">
<path d="M26.416 29.264H21.584V24.802C21.584 23.468 22.666 22.386 24 22.386C25.334 22.386 26.416 23.468 26.416 24.802V29.264Z" fill="#7E8595"/>
<path d="M45.3343 15.468L24.0023 22.524L2.6683 15.468C2.4363 15.392 2.3263 15.128 2.4343 14.912L9.3203 1.02002C9.3883 0.884021 9.5263 0.796021 9.6783 0.796021H38.3223C38.4743 0.796021 38.6143 0.884021 38.6803 1.02002L45.5663 14.912C45.6743 15.128 45.5643 15.392 45.3343 15.468Z" fill="#FF2A01"/>
<path d="M32.5688 0.796021L39.5328 17.386L24.0008 22.524L8.46875 17.386L15.4328 0.796021H32.5688Z" fill="#FF6050"/>
<path d="M24.8019 5.80407H23.1959C22.9759 5.80407 22.7959 5.62407 22.7959 5.40407V3.79807C22.7959 3.57807 22.9759 3.39807 23.1959 3.39807H24.8019C25.0219 3.39807 25.2019 3.57807 25.2019 3.79807V5.40407C25.2019 5.62407 25.0219 5.80407 24.8019 5.80407Z" fill="#FFB3A9"/>
<path d="M24.8019 11.8041H23.1959C22.9759 11.8041 22.7959 11.6241 22.7959 11.4041V9.79807C22.7959 9.57807 22.9759 9.39807 23.1959 9.39807H24.8019C25.0219 9.39807 25.2019 9.57807 25.2019 9.79807V11.4041C25.2019 11.6241 25.0219 11.8041 24.8019 11.8041Z" fill="#FFB3A9"/>
<path d="M24.8019 17.8041H23.1959C22.9759 17.8041 22.7959 17.6241 22.7959 17.4041V15.7981C22.7959 15.5781 22.9759 15.3981 23.1959 15.3981H24.8019C25.0219 15.3981 25.2019 15.5781 25.2019 15.7981V17.4041C25.2019 17.6241 25.0219 17.8041 24.8019 17.8041Z" fill="#FFB3A9"/>
<path d="M24.0003 27.204C17.3723 27.204 11.3723 29.89 7.03027 34.234L24.0003 51.204V27.204Z" fill="#9095A9"/>
<path d="M48 51.204C48 44.576 45.314 38.576 40.97 34.234L24 51.204H48Z" fill="#9095A9"/>
<path d="M40.97 34.234C36.626 29.89 30.626 27.204 24 27.204V51.204L40.97 34.234Z" fill="#CCD1E0"/>
<path d="M7.03 34.234C2.686 38.576 0 44.576 0 51.204H24L7.03 34.234Z" fill="#CCD1E0"/>
<path d="M7.03027 68.174C11.3743 72.518 17.3743 75.204 24.0003 75.204V51.204L7.03027 68.174Z" fill="#CCD1E0"/>
<path d="M48 51.204H24L40.97 68.174C45.314 63.832 48 57.832 48 51.204Z" fill="#CCD1E0"/>
<path d="M24 75.204C30.628 75.204 36.628 72.518 40.97 68.174L24 51.204V75.204Z" fill="#9095A9"/>
<path d="M0 51.204C0 57.832 2.686 63.832 7.03 68.174L24 51.204H0Z" fill="#9095A9"/>
<path d="M24 69.204C33.9411 69.204 42 61.1451 42 51.204C42 41.2629 33.9411 33.204 24 33.204C14.0589 33.204 6 41.2629 6 51.204C6 61.1451 14.0589 69.204 24 69.204Z" fill="#F1F5FB"/>
<path d="M34.8084 58.4001L24.0004 62.0001L13.1924 58.4001V54.8761L24.0004 58.4761L34.8084 54.8761V58.4001Z" fill="#9095A9"/>
<path d="M34.8084 56.0001L24.0004 59.6001L13.1924 56.0001V52.4761L24.0004 56.0761L34.8084 52.4761V56.0001Z" fill="#CCD1E0"/>
<path d="M34.8084 47.6L24.0004 51.2L13.1924 47.6V44.076L24.0004 47.676L34.8084 44.076V47.6Z" fill="#9095A9"/>
<path d="M34.8084 45.2L24.0004 48.8L13.1924 45.2V41.676L24.0004 45.276L34.8084 41.676V45.2Z" fill="#CCD1E0"/>
</svg>
