<svg width="9" height="10" viewBox="0 0 9 10" fill="none" xmlns="http://www.w3.org/2000/svg">
<path d="M6.48083 4.44292C6.75402 4.00161 6.90424 3.49527 6.91592 2.97638C6.92761 2.45748 6.80034 1.94489 6.5473 1.49173C6.29426 1.03856 5.92466 0.661291 5.47677 0.399008C5.02889 0.136725 4.51903 -0.00103328 4 5.83527e-06H1.08333C0.86232 5.83527e-06 0.650358 0.0878032 0.494078 0.244084C0.337797 0.400364 0.25 0.612325 0.25 0.833339V9.16667C0.25 9.38769 0.337797 9.59965 0.494078 9.75593C0.650358 9.91221 0.86232 10 1.08333 10H5.25C5.91393 10.0007 6.55819 9.77468 7.07615 9.35934C7.59412 8.944 7.95473 8.36424 8.0983 7.71602C8.24188 7.06781 8.1598 6.39 7.86566 5.79478C7.57153 5.19957 7.08296 4.72264 6.48083 4.44292ZM1.91667 1.66667H4C4.33152 1.66667 4.64946 1.79837 4.88388 2.03279C5.1183 2.26721 5.25 2.58515 5.25 2.91667C5.25 3.24819 5.1183 3.56614 4.88388 3.80056C4.64946 4.03498 4.33152 4.16667 4 4.16667H1.91667V1.66667ZM5.25 8.33334H1.91667V5.83334H5.25C5.58152 5.83334 5.89946 5.96503 6.13388 6.19946C6.3683 6.43388 6.5 6.75182 6.5 7.08334C6.5 7.41486 6.3683 7.7328 6.13388 7.96722C5.89946 8.20164 5.58152 8.33334 5.25 8.33334Z" fill="#374957"/>
</svg>
