<svg width="60" height="60" viewBox="0 0 60 60" fill="none" xmlns="http://www.w3.org/2000/svg">
<rect width="60" height="60" rx="12.8" fill="#FF2A01"/>
<g clip-path="url(#clip0_2209_3041)">
<path d="M46.8174 16.8089C46.6673 16.7011 46.4719 16.6794 46.3018 16.7515L17.2837 28.4619L13.8462 29.8884L24.2331 34.0936H24.2446V34.0993L27.0232 43.7987C27.0792 43.994 27.2344 44.145 27.4311 44.1957C27.6279 44.2464 27.8367 44.189 27.98 44.0451L33.7665 38.1269L41.5753 41.1977C41.8971 41.3293 42.2615 41.3055 42.5636 41.1333C42.8656 40.961 43.0716 40.6594 43.1222 40.3155L47.0639 17.4046C47.1145 17.174 47.0162 16.9363 46.8174 16.8089ZM29.9909 36.5915L30.0024 36.5514L30.0196 36.5571L29.9909 36.5915Z" fill="white"/>
<path d="M33.7664 38.1269L27.98 44.0451C28.0474 43.9717 28.0965 43.8833 28.1232 43.7873L29.9909 36.5915L30.0195 36.5571L32.506 37.5998L33.6175 38.0696L33.7664 38.1269Z" fill="white"/>
<path d="M46.8597 16.8396L30.0195 36.557L30.0023 36.5513L29.9908 36.5914L28.1231 43.7872C28.0965 43.8832 28.0474 43.9715 27.9799 44.0449C27.8366 44.1889 27.6277 44.2462 27.431 44.1956C27.2343 44.145 27.0791 43.9939 27.0231 43.7986L24.2445 34.0992V34.0934H24.2388V34.0877L46.8597 16.8396Z" fill="#FFEAE6"/>
</g>
<defs>
<clipPath id="clip0_2209_3041">
<rect width="33.2308" height="33.2308" fill="white" transform="translate(13.8462 13.8462)"/>
</clipPath>
</defs>
</svg>
