<svg width="10" height="10" viewBox="0 0 10 10" fill="none" xmlns="http://www.w3.org/2000/svg">
<g clip-path="url(#clip0_2472_826)">
<path d="M0.625 2.5H9.375C9.54076 2.5 9.69973 2.43415 9.81694 2.31694C9.93415 2.19973 10 2.04076 10 1.875C10 1.70924 9.93415 1.55027 9.81694 1.43306C9.69973 1.31585 9.54076 1.25 9.375 1.25H0.625C0.45924 1.25 0.300269 1.31585 0.183058 1.43306C0.065848 1.55027 0 1.70924 0 1.875C0 2.04076 0.065848 2.19973 0.183058 2.31694C0.300269 2.43415 0.45924 2.5 0.625 2.5Z" fill="#374957"/>
<path d="M2.29199 3.33337C2.12623 3.33337 1.96726 3.39922 1.85005 3.51643C1.73284 3.63364 1.66699 3.79261 1.66699 3.95837C1.66699 4.12413 1.73284 4.28311 1.85005 4.40032C1.96726 4.51753 2.12623 4.58337 2.29199 4.58337H7.70866C7.87442 4.58337 8.03339 4.51753 8.1506 4.40032C8.26781 4.28311 8.33366 4.12413 8.33366 3.95837C8.33366 3.79261 8.26781 3.63364 8.1506 3.51643C8.03339 3.39922 7.87442 3.33337 7.70866 3.33337H2.29199Z" fill="#374957"/>
<path d="M7.70866 7.5H2.29199C2.12623 7.5 1.96726 7.56585 1.85005 7.68306C1.73284 7.80027 1.66699 7.95924 1.66699 8.125C1.66699 8.29076 1.73284 8.44973 1.85005 8.56694C1.96726 8.68415 2.12623 8.75 2.29199 8.75H7.70866C7.87442 8.75 8.03339 8.68415 8.1506 8.56694C8.26781 8.44973 8.33366 8.29076 8.33366 8.125C8.33366 7.95924 8.26781 7.80027 8.1506 7.68306C8.03339 7.56585 7.87442 7.5 7.70866 7.5Z" fill="#374957"/>
<path d="M9.375 5.41663H0.625C0.45924 5.41663 0.300269 5.48247 0.183058 5.59968C0.065848 5.71689 0 5.87587 0 6.04163C0 6.20739 0.065848 6.36636 0.183058 6.48357C0.300269 6.60078 0.45924 6.66663 0.625 6.66663H9.375C9.54076 6.66663 9.69973 6.60078 9.81694 6.48357C9.93415 6.36636 10 6.20739 10 6.04163C10 5.87587 9.93415 5.71689 9.81694 5.59968C9.69973 5.48247 9.54076 5.41663 9.375 5.41663Z" fill="#374957"/>
</g>
<defs>
<clipPath id="clip0_2472_826">
<rect width="10" height="10" fill="white"/>
</clipPath>
</defs>
</svg>
