<svg width="20" height="20" viewBox="0 0 20 20" fill="none" xmlns="http://www.w3.org/2000/svg">
<path fill-rule="evenodd" clip-rule="evenodd" d="M15.8926 15.8915C13.3458 18.4386 9.57465 18.9889 6.48852 17.5616C6.03293 17.3782 5.65941 17.23 5.30431 17.23C4.31524 17.2358 3.08414 18.1948 2.4443 17.5558C1.80447 16.9159 2.76422 15.6838 2.76422 14.6888C2.76422 14.3336 2.62185 13.9668 2.43844 13.5103C1.01053 10.4246 1.56159 6.6522 4.10839 4.10596C7.3595 0.853653 12.6415 0.853653 15.8926 4.10513C19.1496 7.36246 19.1438 12.64 15.8926 15.8915Z" stroke="#FF2A01" stroke-width="1.8" stroke-linecap="round" stroke-linejoin="round"/>
<path d="M13.2825 10.3442H13.29" stroke="#FF2A01" stroke-width="2" stroke-linecap="round" stroke-linejoin="round"/>
<path d="M9.94173 10.3442H9.94923" stroke="#FF2A01" stroke-width="2" stroke-linecap="round" stroke-linejoin="round"/>
<path d="M6.60091 10.3442H6.60841" stroke="#FF2A01" stroke-width="2" stroke-linecap="round" stroke-linejoin="round"/>
</svg>
