<svg width="19" height="19" viewBox="0 0 19 19" fill="none" xmlns="http://www.w3.org/2000/svg">
<mask id="mask0_1448_338" style="mask-type:alpha" maskUnits="userSpaceOnUse" x="0" y="0" width="19" height="19">
<path fill-rule="evenodd" clip-rule="evenodd" d="M0.833008 0.833984H18.7438V18.7455H0.833008V0.833984Z" fill="white" stroke="white" stroke-width="0.4"/>
</mask>
<g mask="url(#mask0_1448_338)">
<path fill-rule="evenodd" clip-rule="evenodd" d="M5.09004 16.3965C5.57337 16.3965 6.02921 16.5798 6.51171 16.774C9.46754 18.1406 12.9634 17.519 15.2409 15.2423C18.2459 12.2357 18.2459 7.34482 15.2409 4.33982C13.7859 2.88482 11.8509 2.08398 9.79087 2.08398C7.73004 2.08398 5.79421 2.88565 4.34004 4.34065C2.06171 6.61732 1.44171 10.1131 2.79587 13.0406C2.99087 13.5231 3.17921 13.9931 3.17921 14.4815C3.17921 14.969 3.01171 15.4598 2.86421 15.8931C2.74254 16.2498 2.55837 16.7881 2.67671 16.9065C2.79254 17.0265 3.33421 16.8373 3.69171 16.7148C4.12087 16.5681 4.60754 16.3998 5.09004 16.3965ZM9.77004 18.7456C8.49671 18.7456 7.21504 18.4765 6.01587 17.9215C5.66254 17.7798 5.33171 17.6465 5.09421 17.6465C4.82087 17.6481 4.45337 17.7748 4.09837 17.8973C3.37004 18.1473 2.46337 18.459 1.79254 17.7906C1.12421 17.1215 1.43254 16.2173 1.68087 15.4898C1.80337 15.1315 1.92921 14.7615 1.92921 14.4815C1.92921 14.2515 1.81837 13.9581 1.64837 13.5356C0.0875387 10.1648 0.809205 6.10232 3.45671 3.45648C5.14671 1.76565 7.39587 0.833984 9.79004 0.833984C12.1842 0.833984 14.4342 1.76482 16.1242 3.45565C19.6175 6.94898 19.6175 12.6323 16.1242 16.1256C14.4117 17.839 12.1059 18.7456 9.77004 18.7456Z" fill="#595959"/>
<path d="M6.51171 16.774L6.59575 16.5922L6.58637 16.5884L6.51171 16.774ZM15.2409 15.2423L15.3823 15.3838L15.3823 15.3837L15.2409 15.2423ZM15.2409 4.33982L15.0995 4.48124L15.2409 4.33982ZM4.34004 4.34065L4.48141 4.48212L4.4815 4.48203L4.34004 4.34065ZM2.79587 13.0406L2.98153 12.9656L2.97739 12.9567L2.79587 13.0406ZM2.86421 15.8931L3.0535 15.9577L3.05354 15.9576L2.86421 15.8931ZM2.67671 16.9065L2.82063 16.7676L2.81813 16.7651L2.67671 16.9065ZM3.69171 16.7148L3.62703 16.5256L3.62687 16.5256L3.69171 16.7148ZM6.01587 17.9215L6.09999 17.7397L6.0903 17.7358L6.01587 17.9215ZM5.09421 17.6465V17.4465L5.09299 17.4465L5.09421 17.6465ZM4.09837 17.8973L4.1633 18.0865L4.16361 18.0864L4.09837 17.8973ZM1.79254 17.7906L1.65103 17.932L1.65138 17.9323L1.79254 17.7906ZM1.68087 15.4898L1.49163 15.4251L1.4916 15.4252L1.68087 15.4898ZM1.64837 13.5356L1.83416 13.4609L1.82986 13.4516L1.64837 13.5356ZM3.45671 3.45648L3.59808 3.59795L3.59816 3.59787L3.45671 3.45648ZM16.1242 3.45565L15.9828 3.59704L15.9828 3.59707L16.1242 3.45565ZM16.1242 16.1256L15.9828 15.9842L15.9828 15.9843L16.1242 16.1256ZM5.09004 16.5965C5.52781 16.5965 5.94701 16.7623 6.43704 16.9595L6.58637 16.5884C6.11141 16.3973 5.61893 16.1965 5.09004 16.1965V16.5965ZM6.42777 16.9555C9.45919 18.3571 13.0451 17.7201 15.3823 15.3838L15.0995 15.1009C12.8817 17.3179 9.47589 17.9242 6.59564 16.5924L6.42777 16.9555ZM15.3823 15.3837C18.4654 12.299 18.4654 7.28152 15.3823 4.1984L15.0995 4.48124C18.0263 7.40811 18.0264 12.1723 15.0994 15.1009L15.3823 15.3837ZM15.3823 4.1984C13.8897 2.70583 11.9038 1.88398 9.79087 1.88398V2.28398C11.7979 2.28398 13.682 3.0638 15.0995 4.48124L15.3823 4.1984ZM9.79087 1.88398C7.67706 1.88398 5.69031 2.70668 4.19858 4.19927L4.4815 4.48203C5.8981 3.06462 7.78302 2.28398 9.79087 2.28398V1.88398ZM4.19867 4.19918C1.86086 6.53528 1.22506 10.1212 2.61435 13.1246L2.97739 12.9567C1.65836 10.1051 2.26255 6.69935 4.48141 4.48212L4.19867 4.19918ZM2.61044 13.1156C2.80839 13.6054 2.97921 14.0388 2.97921 14.4815H3.37921C3.37921 13.9475 3.17335 13.4409 2.9813 12.9657L2.61044 13.1156ZM2.97921 14.4815C2.97921 14.9301 2.82452 15.3891 2.67487 15.8287L3.05354 15.9576C3.19889 15.5306 3.37921 15.0079 3.37921 14.4815H2.97921ZM2.67492 15.8286C2.61485 16.0047 2.53502 16.2378 2.48596 16.4426C2.46158 16.5444 2.4423 16.649 2.43909 16.7414C2.43748 16.7878 2.43958 16.8384 2.45073 16.8877C2.4617 16.9362 2.48461 16.9972 2.53528 17.0479L2.81813 16.7651C2.83921 16.7861 2.842 16.8045 2.84086 16.7995C2.83992 16.7953 2.83793 16.7817 2.83885 16.7553C2.84069 16.7024 2.85287 16.628 2.87495 16.5358C2.91881 16.3527 2.99189 16.1383 3.0535 15.9577L2.67492 15.8286ZM2.53281 17.0454C2.58353 17.0979 2.64545 17.1215 2.69439 17.1327C2.74407 17.1441 2.79512 17.146 2.84152 17.1442C2.93415 17.1407 3.03913 17.1208 3.14111 17.0959C3.34635 17.0456 3.58062 16.9643 3.75654 16.904L3.62687 16.5256C3.44529 16.5878 3.22998 16.6623 3.04605 16.7073C2.95344 16.73 2.87895 16.7425 2.82626 16.7445C2.80001 16.7455 2.78694 16.7435 2.78343 16.7427C2.77918 16.7418 2.79884 16.745 2.8206 16.7676L2.53281 17.0454ZM3.75638 16.9041C4.19237 16.7551 4.64734 16.5995 5.09142 16.5965L5.08866 16.1965C4.56774 16.2001 4.04937 16.3812 3.62703 16.5256L3.75638 16.9041ZM9.77004 18.5456C8.52491 18.5456 7.27199 18.2825 6.09988 17.74L5.93187 18.103C7.15809 18.6705 8.4685 18.9456 9.77004 18.9456V18.5456ZM6.0903 17.7358C5.91539 17.6657 5.73773 17.5942 5.57359 17.5407C5.41179 17.488 5.24534 17.4465 5.09421 17.4465V17.8465C5.18057 17.8465 5.29829 17.8717 5.44961 17.921C5.5986 17.9696 5.76302 18.0356 5.94144 18.1071L6.0903 17.7358ZM5.09299 17.4465C4.92978 17.4475 4.74942 17.4851 4.57354 17.5338C4.39604 17.583 4.20937 17.6474 4.03313 17.7083L4.16361 18.0864C4.34237 18.0247 4.51695 17.9646 4.68028 17.9193C4.84524 17.8737 4.9853 17.8472 5.09543 17.8465L5.09299 17.4465ZM4.03344 17.7081C3.66412 17.8349 3.2812 17.9652 2.91116 17.9888C2.5511 18.0117 2.21852 17.9327 1.9337 17.649L1.65138 17.9323C2.03739 18.3169 2.49357 18.4162 2.93663 18.388C3.36971 18.3603 3.80429 18.2097 4.1633 18.0865L4.03344 17.7081ZM1.93405 17.6493C1.65019 17.3651 1.57055 17.0334 1.59258 16.6744C1.61523 16.3053 1.74425 15.9233 1.87015 15.5544L1.4916 15.4252C1.36916 15.7839 1.21985 16.2176 1.19333 16.6499C1.1662 17.0921 1.26655 17.547 1.65103 17.932L1.93405 17.6493ZM1.87012 15.5545C1.93097 15.3765 1.99524 15.1883 2.04399 15.0087C2.09235 14.8305 2.12921 14.6479 2.12921 14.4815H1.72921C1.72921 14.595 1.70315 14.7374 1.65796 14.9039C1.61317 15.0689 1.55328 15.2448 1.49163 15.4251L1.87012 15.5545ZM2.12921 14.4815C2.12921 14.3365 2.0946 14.183 2.04324 14.0205C1.99164 13.8572 1.91862 13.6715 1.83392 13.461L1.46283 13.6103C1.54812 13.8223 1.61552 13.9945 1.66184 14.141C1.70839 14.2883 1.72921 14.3965 1.72921 14.4815H2.12921ZM1.82986 13.4516C0.304419 10.1572 1.0097 6.1847 3.59808 3.59795L3.31533 3.31502C0.608709 6.01993 -0.129341 10.1724 1.46688 13.6197L1.82986 13.4516ZM3.59816 3.59787C5.25061 1.94461 7.44887 1.03398 9.79004 1.03398V0.633984C7.34287 0.633984 5.0428 1.58669 3.31525 3.3151L3.59816 3.59787ZM9.79004 1.03398C12.1313 1.03398 14.3303 1.94382 15.9828 3.59704L16.2657 3.31426C14.5381 1.58581 12.2371 0.633984 9.79004 0.633984V1.03398ZM15.9828 3.59707C19.398 7.0123 19.398 12.569 15.9828 15.9842L16.2656 16.2671C19.8371 12.6956 19.8371 6.88567 16.2656 3.31423L15.9828 3.59707ZM15.9828 15.9843C14.309 17.6588 12.0546 18.5456 9.77004 18.5456V18.9456C12.1572 18.9456 14.5144 18.0191 16.2657 16.267L15.9828 15.9843Z" fill="#595959"/>
</g>
<path fill-rule="evenodd" clip-rule="evenodd" d="M13.0798 10.9694C12.6198 10.9694 12.2432 10.5969 12.2432 10.1361C12.2432 9.67523 12.6123 9.30273 13.0723 9.30273H13.0798C13.5398 9.30273 13.9132 9.67523 13.9132 10.1361C13.9132 10.5969 13.5398 10.9694 13.0798 10.9694Z" fill="#595959"/>
<path d="M13.0798 10.9694C12.6198 10.9694 12.2432 10.5969 12.2432 10.1361C12.2432 9.67523 12.6123 9.30273 13.0723 9.30273H13.0798C13.5398 9.30273 13.9132 9.67523 13.9132 10.1361C13.9132 10.5969 13.5398 10.9694 13.0798 10.9694" stroke="#595959" stroke-width="0.4"/>
<path fill-rule="evenodd" clip-rule="evenodd" d="M9.73901 10.9694C9.27901 10.9694 8.90234 10.5969 8.90234 10.1361C8.90234 9.67523 9.27068 9.30273 9.73151 9.30273H9.73901C10.199 9.30273 10.5723 9.67523 10.5723 10.1361C10.5723 10.5969 10.199 10.9694 9.73901 10.9694Z" fill="#595959"/>
<path d="M9.73901 10.9694C9.27901 10.9694 8.90234 10.5969 8.90234 10.1361C8.90234 9.67523 9.27068 9.30273 9.73151 9.30273H9.73901C10.199 9.30273 10.5723 9.67523 10.5723 10.1361C10.5723 10.5969 10.199 10.9694 9.73901 10.9694" stroke="#595959" stroke-width="0.4"/>
<path fill-rule="evenodd" clip-rule="evenodd" d="M6.39819 10.9694C5.93819 10.9694 5.56152 10.5969 5.56152 10.1361C5.56152 9.67523 5.93069 9.30273 6.39069 9.30273H6.39819C6.85819 9.30273 7.23152 9.67523 7.23152 10.1361C7.23152 10.5969 6.85819 10.9694 6.39819 10.9694Z" fill="#595959"/>
<path d="M6.39819 10.9694C5.93819 10.9694 5.56152 10.5969 5.56152 10.1361C5.56152 9.67523 5.93069 9.30273 6.39069 9.30273H6.39819C6.85819 9.30273 7.23152 9.67523 7.23152 10.1361C7.23152 10.5969 6.85819 10.9694 6.39819 10.9694" stroke="#595959" stroke-width="0.4"/>
</svg>
