<svg width="410" height="465" viewBox="0 0 410 465" fill="none" xmlns="http://www.w3.org/2000/svg">
<path d="M9.73353 288.5L9.7333 288.499C-0.518529 271.178 11.997 249.297 32.384 249.173L133.304 248.558C153.69 248.434 166.476 270.16 156.442 287.616C156.442 287.616 156.442 287.616 156.441 287.616L106.52 374.416C96.457 391.913 71.0052 392.068 60.7269 374.694L58.5752 375.967L60.7269 374.694L49.8609 356.327C49.8608 356.327 49.8607 356.327 49.8606 356.327C46.794 351.141 41.1726 347.984 35.1252 348.018L35.1241 348.018L6.62244 348.19L20.7035 323.705L20.7039 323.704C23.7065 318.478 23.6736 312.057 20.5998 306.867C20.5996 306.867 20.5994 306.866 20.5991 306.866L9.73353 288.5Z" stroke="#EBEEF1" stroke-width="5"/>
<path d="M103.932 93.2463L103.932 93.2465L154.93 179.436C165.178 196.758 152.666 218.639 132.28 218.763L31.36 219.378C10.9726 219.502 -1.81147 197.775 8.22192 180.33L8.22207 180.33L18.8583 161.831L18.8587 161.831C21.8615 156.605 21.8284 150.183 18.7539 144.993L4.36888 120.686L32.8686 120.513L32.8699 120.513C38.9179 120.474 44.4997 117.248 47.5027 112.022L58.1385 93.5249C58.1385 93.5248 58.1386 93.5248 58.1386 93.5247C68.2021 76.0278 93.6537 75.8725 103.932 93.2463Z" stroke="#EBEEF1" stroke-width="5"/>
<path d="M231.506 37.6414L231.507 37.6414L253.009 37.5106C273.397 37.3864 286.181 59.1138 276.148 76.5588L226.226 163.359C216.163 180.856 190.711 181.006 180.443 163.638L180.442 163.637L129.444 77.4524L129.444 77.4522C119.192 60.1306 131.708 38.2499 152.095 38.1257L173.597 37.995L173.598 37.995C179.646 37.9553 185.228 34.7304 188.231 29.5047C188.231 29.5045 188.231 29.5042 188.231 29.504L202.345 4.96137L216.766 29.3329L216.766 29.334C219.837 34.5185 225.458 37.6754 231.506 37.6414Z" stroke="#EBEEF1" stroke-width="5"/>
<path d="M399.466 176.5L399.466 176.501C409.718 193.822 397.203 215.703 376.816 215.827L275.896 216.442C255.51 216.567 242.724 194.84 252.758 177.384L302.679 90.5846C312.743 73.0874 338.195 72.932 348.473 90.3059L350.625 89.033L348.473 90.3059L359.339 108.673C359.339 108.673 359.339 108.673 359.339 108.673C362.406 113.86 368.027 117.016 374.075 116.982L374.076 116.982L402.577 116.81L388.496 141.296L388.496 141.296C385.493 146.522 385.526 152.944 388.601 158.134L399.466 176.5Z" stroke="#EBEEF1" stroke-width="5"/>
<path d="M404.831 344.31L376.331 344.482L376.33 344.482C370.282 344.522 364.701 347.747 361.698 352.972C361.698 352.973 361.697 352.973 361.697 352.973L351.062 371.47C340.998 388.968 315.546 389.123 305.268 371.749L305.268 371.749L254.27 285.564C254.27 285.564 254.27 285.564 254.27 285.564C244.022 268.242 256.534 246.362 276.92 246.233C276.92 246.233 276.921 246.233 276.921 246.233L377.84 245.617C398.227 245.493 411.011 267.221 400.978 284.666L400.978 284.666L390.342 303.164L390.341 303.165C387.339 308.391 387.372 314.812 390.446 320.003L404.831 344.31Z" stroke="#EBEEF1" stroke-width="5"/>
<path d="M177.694 427.359L177.693 427.359L156.191 427.489C135.803 427.614 123.019 405.886 133.052 388.441L130.89 387.198L133.052 388.441L182.974 301.641C193.037 284.145 218.489 283.993 228.767 301.363C228.767 301.363 228.767 301.363 228.767 301.363L279.756 387.547L279.756 387.548C290.008 404.869 277.492 426.75 257.105 426.874L235.603 427.005L235.602 427.005C229.554 427.045 223.972 430.27 220.969 435.496L206.855 460.039L192.434 435.667L192.434 435.666C189.363 430.481 183.742 427.325 177.694 427.359Z" stroke="#EBEEF1" stroke-width="5"/>
</svg>
