<svg width="640" height="725" viewBox="0 0 640 725" fill="none" xmlns="http://www.w3.org/2000/svg">
<g opacity="0.4">
<path d="M13.1483 451.031L13.1482 451.03C-3.84978 422.4 16.9255 386.302 50.6349 386.098L208.476 385.139C242.185 384.934 263.406 420.777 246.77 449.627C246.769 449.627 246.769 449.627 246.769 449.627L168.691 584.96C152.032 613.835 109.918 614.091 92.9033 585.42L75.9083 556.783C75.9083 556.783 75.9082 556.783 75.9081 556.782C71.5521 549.438 63.5595 544.959 54.9504 545.007H54.9498L6.18119 545.301L30.2907 503.507L30.291 503.507C34.5571 496.105 34.5089 487.015 30.1431 479.667L13.1483 451.031Z" stroke="#FF2A01" stroke-width="3"/>
<path d="M51.3928 185.499H51.3936C60.003 185.443 67.9389 180.867 72.2048 173.466L88.84 144.625C88.84 144.625 88.84 144.625 88.84 144.625C105.499 115.75 147.613 115.494 164.628 144.165L165.918 143.399L164.628 144.165L244.391 278.547C244.391 278.547 244.391 278.547 244.391 278.547C261.381 307.178 240.613 343.275 206.904 343.48L49.0627 344.439C15.3529 344.644 -5.86665 308.8 10.7691 279.966L10.7692 279.966L27.4046 251.124L27.4048 251.124C31.671 243.723 31.6228 234.632 27.257 227.285L2.62551 185.793L51.3928 185.499Z" stroke="#FF2A01" stroke-width="3"/>
<path d="M362.068 56.2904L362.068 56.2904L395.699 56.0864C429.409 55.8818 450.628 91.7254 433.993 120.56L355.914 255.893C339.255 284.768 297.141 285.016 280.142 256.353L280.142 256.353L200.379 121.978L200.379 121.978C183.381 93.3481 204.156 57.2502 237.866 57.0456L271.496 56.8417L271.497 56.8416C280.106 56.7853 288.042 52.209 292.308 44.8084C292.308 44.8082 292.308 44.8081 292.308 44.8079L316.443 2.96988L341.103 44.5149L341.103 44.5155C345.466 51.8588 353.458 56.3386 362.068 56.2904Z" stroke="#FF2A01" stroke-width="3"/>
<path d="M626.852 273.97L626.852 273.97C643.85 302.6 623.075 338.698 589.365 338.903L431.524 339.862C397.815 340.067 376.595 304.223 393.231 275.373L471.309 140.04C487.968 111.166 530.082 110.91 547.097 139.58L564.092 168.218C564.092 168.218 564.092 168.218 564.092 168.218C568.448 175.562 576.441 180.042 585.05 179.994L585.051 179.994L633.819 179.7L609.71 221.493L609.709 221.494C605.443 228.895 605.491 237.986 609.857 245.333L626.852 273.97Z" stroke="#FF2A01" stroke-width="3"/>
<path d="M637.375 539.2L588.607 539.494H588.607C579.997 539.55 572.061 544.126 567.795 551.527L551.16 580.368C534.501 609.243 492.387 609.499 475.372 580.828L475.372 580.828L395.61 446.454C395.61 446.454 395.61 446.454 395.61 446.454C378.619 417.823 399.387 381.725 433.096 381.513C433.096 381.513 433.096 381.513 433.097 381.513L590.937 380.554C624.647 380.35 645.867 416.193 629.231 445.027L629.231 445.027L612.595 473.869L612.595 473.869C608.329 481.27 608.377 490.361 612.743 497.708L637.375 539.2Z" stroke="#FF2A01" stroke-width="3"/>
<path d="M277.933 668.71H277.932L244.301 668.913C210.591 669.118 189.372 633.275 206.008 604.44L204.708 603.691L206.008 604.44L284.086 469.107C300.745 440.233 342.859 439.983 359.874 468.647L439.621 603.021L439.622 603.022C456.619 631.652 435.844 667.75 402.135 667.954L368.504 668.158H368.503C359.894 668.215 351.958 672.791 347.692 680.192L323.557 722.03L298.898 680.485L298.897 680.484C294.534 673.141 286.542 668.661 277.933 668.71Z" stroke="#FF2A01" stroke-width="3"/>
</g>
</svg>
