<svg width="535" height="599" viewBox="0 0 535 599" fill="none" xmlns="http://www.w3.org/2000/svg">
<path d="M174.265 325.961L42.3197 326.776C13.2019 326.955 -4.80632 358.673 9.91256 383.871L24.1195 408.203C27.5368 414.049 27.5752 421.28 24.2347 427.171L2.98828 464.606L45.9418 464.342C52.6997 464.304 58.9648 467.878 62.3758 473.724L76.5827 498.056C91.2952 523.254 127.696 523.029 142.101 497.651L207.37 382.665C221.775 357.274 203.383 325.781 174.265 325.961Z" fill="#EBEEF1"/>
<path d="M205.373 236.018L138.697 121.84C123.984 96.6417 87.5838 96.8663 73.1785 122.244L59.2723 146.75C55.9318 152.64 49.7115 156.291 42.9536 156.336L0 156.599L21.7072 193.764C25.1245 199.61 25.1629 206.842 21.8224 212.732L7.9162 237.237C-6.48911 262.615 11.9031 294.108 41.0209 293.929L172.966 293.114C202.084 292.934 220.086 261.217 205.373 236.018Z" fill="#EBEEF1"/>
<path d="M298.609 218.058L363.877 103.071C378.283 77.6931 359.89 46.2 330.773 46.3797L302.659 46.553C295.902 46.5915 289.636 43.0174 286.219 37.1718L264.512 0L243.266 37.4349C239.925 43.3254 233.705 46.9765 226.947 47.0214L198.834 47.1946C169.716 47.3743 151.708 79.0919 166.427 104.29L233.103 218.462C247.803 243.654 284.203 243.436 298.609 218.058Z" fill="#EBEEF1"/>
<path d="M360.734 290.04L492.68 289.225C521.797 289.046 539.806 257.328 525.087 232.13L510.88 207.798C507.462 201.952 507.424 194.72 510.765 188.83L532.011 151.395L489.057 151.658C482.3 151.697 476.034 148.123 472.624 142.277L458.417 117.945C443.704 92.7467 407.304 92.9713 392.898 118.349L327.63 233.336C313.224 258.727 331.617 290.22 360.734 290.04Z" fill="#EBEEF1"/>
<path d="M329.626 379.982L396.303 494.154C411.015 519.352 447.416 519.128 461.821 493.75L475.727 469.245C479.068 463.354 485.288 459.703 492.046 459.658L534.999 459.395L513.292 422.23C509.875 416.384 509.836 409.153 513.177 403.262L527.083 378.757C541.488 353.379 523.096 321.886 493.978 322.066L362.033 322.881C332.915 323.067 314.914 354.784 329.626 379.982Z" fill="#EBEEF1"/>
<path d="M236.392 397.942L171.123 512.929C156.718 538.307 175.11 569.8 204.228 569.62L232.341 569.447C239.099 569.409 245.364 572.983 248.781 578.828L270.488 616L291.735 578.565C295.075 572.675 301.296 569.024 308.053 568.979L336.166 568.805C365.284 568.626 383.293 536.908 368.574 511.71L301.91 397.538C287.197 372.346 250.797 372.564 236.392 397.942Z" fill="#EBEEF1"/>
</svg>
