<svg width="18" height="18" viewBox="0 0 18 18" fill="none" xmlns="http://www.w3.org/2000/svg">
<path fill-rule="evenodd" clip-rule="evenodd" d="M4.20768 1.91699C1.91602 1.91699 1.91602 2.09033 1.91602 4.20866V4.22949C1.91602 5.15199 1.91602 5.81866 2.14185 6.10033C2.36268 6.37366 3.01852 6.50033 4.20768 6.50033C5.39685 6.50033 6.05268 6.37283 6.27352 6.09949C6.49935 5.81866 6.49935 5.15199 6.49935 4.22866C6.49935 2.09033 6.49935 1.91699 4.20768 1.91699ZM4.20768 7.75033C2.80268 7.75033 1.74852 7.60283 1.16935 6.88366C0.666016 6.25949 0.666016 5.40783 0.666016 4.22949L1.29102 4.20866H0.666016C0.666016 1.81699 0.816849 0.666992 4.20768 0.666992C7.59852 0.666992 7.74935 1.81699 7.74935 4.20866C7.74935 5.40699 7.74935 6.25949 7.24602 6.88366C6.66685 7.60283 5.61268 7.75033 4.20768 7.75033Z" fill="#595959"/>
<path d="M2.14185 6.10033L1.98581 6.22543L1.98628 6.22602L2.14185 6.10033ZM6.27352 6.09949L6.42909 6.22518L6.42937 6.22483L6.27352 6.09949ZM1.16935 6.88366L1.32512 6.75821L1.32503 6.75811L1.16935 6.88366ZM0.666016 4.22949L0.659353 4.0296L0.466016 4.03605V4.22949H0.666016ZM1.29102 4.20866L1.29768 4.40855L1.29102 4.00866V4.20866ZM0.666016 4.20866H0.466016V4.40866H0.666016V4.20866ZM7.24602 6.88366L7.09033 6.75811L7.09025 6.75821L7.24602 6.88366ZM4.20768 1.71699C3.63634 1.71699 3.19202 1.72749 2.85254 1.77948C2.51274 1.83151 2.24443 1.92959 2.056 2.13227C1.86879 2.33364 1.79049 2.60633 1.75311 2.93426C1.71571 3.26237 1.71602 3.68381 1.71602 4.20866H2.11602C2.11602 3.67434 2.11632 3.27974 2.15054 2.97956C2.18477 2.67922 2.2497 2.51139 2.34895 2.40463C2.44698 2.29919 2.60835 2.22153 2.91309 2.17487C3.21814 2.12816 3.63319 2.11699 4.20768 2.11699V1.71699ZM1.71602 4.20866V4.22949H2.11602V4.20866H1.71602ZM1.71602 4.22949C1.71602 4.6875 1.71584 5.09493 1.74503 5.42295C1.77334 5.74104 1.83192 6.03349 1.98581 6.22543L2.29789 5.97522C2.22595 5.88549 2.17161 5.70378 2.14346 5.38749C2.11619 5.08114 2.11602 4.69398 2.11602 4.22949H1.71602ZM1.98628 6.22602C2.1437 6.42086 2.42454 6.53163 2.77364 6.59918C3.13231 6.66859 3.6083 6.70033 4.20768 6.70033V6.30033C3.6179 6.30033 3.17139 6.26873 2.84964 6.20647C2.51832 6.14236 2.36083 6.05313 2.29742 5.97464L1.98628 6.22602ZM4.20768 6.70033C4.80712 6.70033 5.28314 6.66837 5.64184 6.59874C5.991 6.53096 6.27173 6.41995 6.42909 6.22518L6.11795 5.9738C6.05447 6.05237 5.89686 6.14177 5.56561 6.20607C5.24389 6.26853 4.79741 6.30033 4.20768 6.30033V6.70033ZM6.42937 6.22483C6.58347 6.0332 6.64203 5.74075 6.67033 5.42274C6.69953 5.09472 6.69935 4.68708 6.69935 4.22866H6.29935C6.29935 4.69357 6.29917 5.08093 6.27191 5.38728C6.24375 5.70366 6.1894 5.88495 6.11766 5.97416L6.42937 6.22483ZM6.69935 4.22866C6.69935 3.69877 6.69965 3.27369 6.66228 2.9429C6.62494 2.61242 6.5468 2.33801 6.35992 2.13536C6.17154 1.9311 5.90308 1.83222 5.56301 1.77982C5.22342 1.72749 4.77898 1.71699 4.20768 1.71699V2.11699C4.78222 2.11699 5.19716 2.12816 5.50209 2.17515C5.80656 2.22207 5.96778 2.30018 6.06587 2.40654C6.16544 2.51452 6.23053 2.68438 6.26481 2.9878C6.29905 3.29091 6.29935 3.68938 6.29935 4.22866H6.69935ZM4.20768 7.55033C3.50904 7.55033 2.91411 7.51328 2.42694 7.39255C1.94284 7.27259 1.57897 7.07344 1.32512 6.75821L1.01358 7.0091C1.33889 7.41305 1.79169 7.64723 2.33072 7.78081C2.86667 7.91362 3.50132 7.95033 4.20768 7.95033V7.55033ZM1.32503 6.75811C1.1034 6.48327 0.986716 6.15258 0.926902 5.73597C0.866439 5.31483 0.866016 4.82304 0.866016 4.22949H0.466016C0.466016 4.81427 0.465592 5.33749 0.530962 5.79281C0.596982 6.25265 0.731964 6.65988 1.01366 7.00921L1.32503 6.75811ZM0.672679 4.42938L1.29768 4.40855L1.28435 4.00877L0.659353 4.0296L0.672679 4.42938ZM1.29102 4.00866H0.666016V4.40866H1.29102V4.00866ZM0.866016 4.20866C0.866016 3.6097 0.875737 3.10351 0.94032 2.67618C1.00465 2.25054 1.12117 1.92039 1.32245 1.66464C1.72117 1.15804 2.5168 0.866992 4.20768 0.866992V0.466992C2.50774 0.466992 1.53253 0.750948 1.00812 1.41726C0.747844 1.74797 0.614729 2.15376 0.544811 2.6164C0.475148 3.07735 0.466016 3.61178 0.466016 4.20866H0.866016ZM4.20768 0.866992C5.89857 0.866992 6.6942 1.15804 7.09292 1.66464C7.2942 1.92039 7.41072 2.25054 7.47504 2.67618C7.53963 3.10351 7.54935 3.6097 7.54935 4.20866H7.94935C7.94935 3.61178 7.94022 3.07735 7.87055 2.6164C7.80064 2.15376 7.66752 1.74797 7.40724 1.41726C6.88283 0.750948 5.90763 0.466992 4.20768 0.466992V0.866992ZM7.54935 4.20866C7.54935 4.81225 7.54893 5.30929 7.48844 5.73322C7.4286 6.15257 7.31189 6.48337 7.09033 6.75811L7.4017 7.00921C7.68348 6.65978 7.81843 6.25225 7.88443 5.78972C7.94977 5.33178 7.94935 4.8034 7.94935 4.20866H7.54935ZM7.09025 6.75821C6.83639 7.07344 6.47252 7.27259 5.98843 7.39255C5.50125 7.51328 4.90632 7.55033 4.20768 7.55033V7.95033C4.91404 7.95033 5.5487 7.91362 6.08464 7.78081C6.62367 7.64723 7.07647 7.41305 7.40178 7.0091L7.09025 6.75821Z" fill="#595959"/>
<path fill-rule="evenodd" clip-rule="evenodd" d="M13.3737 1.91699C11.082 1.91699 11.082 2.09033 11.082 4.20866V4.22949C11.082 5.15199 11.082 5.81866 11.3079 6.10033C11.5287 6.37366 12.1845 6.50033 13.3737 6.50033C14.5629 6.50033 15.2187 6.37283 15.4395 6.09949C15.6654 5.81866 15.6654 5.15199 15.6654 4.22866C15.6654 2.09033 15.6654 1.91699 13.3737 1.91699ZM13.3737 7.75033C11.9687 7.75033 10.9145 7.60283 10.3354 6.88366C9.83203 6.25949 9.83203 5.40783 9.83203 4.22949L10.457 4.20866H9.83203C9.83203 1.81699 9.98286 0.666992 13.3737 0.666992C16.7645 0.666992 16.9154 1.81699 16.9154 4.20866C16.9154 5.40699 16.9154 6.25949 16.412 6.88366C15.8329 7.60283 14.7787 7.75033 13.3737 7.75033Z" fill="#595959"/>
<path d="M11.3079 6.10033L11.1518 6.22543L11.1523 6.22602L11.3079 6.10033ZM15.4395 6.09949L15.5951 6.22518L15.5954 6.22483L15.4395 6.09949ZM10.3354 6.88366L10.4911 6.75821L10.4911 6.75811L10.3354 6.88366ZM9.83203 4.22949L9.82537 4.0296L9.63203 4.03605V4.22949H9.83203ZM10.457 4.20866L10.4637 4.40855L10.457 4.00866V4.20866ZM9.83203 4.20866H9.63203V4.40866H9.83203V4.20866ZM16.412 6.88366L16.2563 6.75811L16.2563 6.75821L16.412 6.88366ZM13.3737 1.71699C12.8024 1.71699 12.358 1.72749 12.0186 1.77948C11.6788 1.83151 11.4104 1.92959 11.222 2.13227C11.0348 2.33364 10.9565 2.60633 10.9191 2.93426C10.8817 3.26237 10.882 3.68381 10.882 4.20866H11.282C11.282 3.67434 11.2823 3.27974 11.3166 2.97956C11.3508 2.67922 11.4157 2.51139 11.515 2.40463C11.613 2.29919 11.7744 2.22153 12.0791 2.17487C12.3842 2.12816 12.7992 2.11699 13.3737 2.11699V1.71699ZM10.882 4.20866V4.22949H11.282V4.20866H10.882ZM10.882 4.22949C10.882 4.6875 10.8819 5.09493 10.911 5.42295C10.9394 5.74104 10.9979 6.03349 11.1518 6.22543L11.4639 5.97522C11.392 5.88549 11.3376 5.70378 11.3095 5.38749C11.2822 5.08114 11.282 4.69398 11.282 4.22949H10.882ZM11.1523 6.22602C11.3097 6.42086 11.5906 6.53163 11.9397 6.59918C12.2983 6.66859 12.7743 6.70033 13.3737 6.70033V6.30033C12.7839 6.30033 12.3374 6.26873 12.0157 6.20647C11.6843 6.14236 11.5268 6.05313 11.4634 5.97464L11.1523 6.22602ZM13.3737 6.70033C13.9731 6.70033 14.4492 6.66837 14.8079 6.59874C15.157 6.53096 15.4377 6.41995 15.5951 6.22518L15.284 5.9738C15.2205 6.05237 15.0629 6.14177 14.7316 6.20607C14.4099 6.26853 13.9634 6.30033 13.3737 6.30033V6.70033ZM15.5954 6.22483C15.7495 6.0332 15.808 5.74075 15.8363 5.42274C15.8655 5.09472 15.8654 4.68708 15.8654 4.22866H15.4654C15.4654 4.69357 15.4652 5.08093 15.4379 5.38728C15.4098 5.70366 15.3554 5.88495 15.2837 5.97416L15.5954 6.22483ZM15.8654 4.22866C15.8654 3.69877 15.8657 3.27369 15.8283 2.9429C15.791 2.61242 15.7128 2.33801 15.5259 2.13536C15.3376 1.9311 15.0691 1.83222 14.729 1.77982C14.3894 1.72749 13.945 1.71699 13.3737 1.71699V2.11699C13.9482 2.11699 14.3632 2.12816 14.6681 2.17515C14.9726 2.22207 15.1338 2.30018 15.2319 2.40654C15.3315 2.51452 15.3965 2.68438 15.4308 2.9878C15.4651 3.29091 15.4654 3.68938 15.4654 4.22866H15.8654ZM13.3737 7.55033C12.6751 7.55033 12.0801 7.51328 11.593 7.39255C11.1089 7.27259 10.745 7.07344 10.4911 6.75821L10.1796 7.0091C10.5049 7.41305 10.9577 7.64723 11.4967 7.78081C12.0327 7.91362 12.6673 7.95033 13.3737 7.95033V7.55033ZM10.4911 6.75811C10.2694 6.48327 10.1527 6.15258 10.0929 5.73597C10.0325 5.31483 10.032 4.82304 10.032 4.22949H9.63203C9.63203 4.81427 9.63161 5.33749 9.69698 5.79281C9.763 6.25265 9.89798 6.65988 10.1797 7.00921L10.4911 6.75811ZM9.83869 4.42938L10.4637 4.40855L10.4504 4.00877L9.82537 4.0296L9.83869 4.42938ZM10.457 4.00866H9.83203V4.40866H10.457V4.00866ZM10.032 4.20866C10.032 3.6097 10.0418 3.10351 10.1063 2.67618C10.1707 2.25054 10.2872 1.92039 10.4885 1.66464C10.8872 1.15804 11.6828 0.866992 13.3737 0.866992V0.466992C11.6738 0.466992 10.6985 0.750948 10.1741 1.41726C9.91386 1.74797 9.78074 2.15376 9.71083 2.6164C9.64116 3.07735 9.63203 3.61178 9.63203 4.20866H10.032ZM13.3737 0.866992C15.0646 0.866992 15.8602 1.15804 16.2589 1.66464C16.4602 1.92039 16.5767 2.25054 16.6411 2.67618C16.7056 3.10351 16.7154 3.6097 16.7154 4.20866H17.1154C17.1154 3.61178 17.1062 3.07735 17.0366 2.6164C16.9667 2.15376 16.8335 1.74797 16.5733 1.41726C16.0488 0.750948 15.0736 0.466992 13.3737 0.466992V0.866992ZM16.7154 4.20866C16.7154 4.81225 16.7149 5.30929 16.6545 5.73322C16.5946 6.15257 16.4779 6.48337 16.2563 6.75811L16.5677 7.00921C16.8495 6.65978 16.9844 6.25225 17.0504 5.78972C17.1158 5.33178 17.1154 4.8034 17.1154 4.20866H16.7154ZM16.2563 6.75821C16.0024 7.07344 15.6385 7.27259 15.1544 7.39255C14.6673 7.51328 14.0723 7.55033 13.3737 7.55033V7.95033C14.0801 7.95033 14.7147 7.91362 15.2507 7.78081C15.7897 7.64723 16.2425 7.41305 16.5678 7.0091L16.2563 6.75821Z" fill="#595959"/>
<path fill-rule="evenodd" clip-rule="evenodd" d="M4.20768 11.084C1.91602 11.084 1.91602 11.2573 1.91602 13.3757V13.3965C1.91602 14.319 1.91602 14.9856 2.14185 15.2673C2.36268 15.5406 3.01852 15.6673 4.20768 15.6673C5.39685 15.6673 6.05268 15.5398 6.27352 15.2665C6.49935 14.9857 6.49935 14.319 6.49935 13.3957C6.49935 11.2573 6.49935 11.084 4.20768 11.084ZM4.20768 16.9173C2.80268 16.9173 1.74852 16.7698 1.16935 16.0507C0.666016 15.4265 0.666016 14.5748 0.666016 13.3965L1.29102 13.3757H0.666016C0.666016 10.984 0.816849 9.83398 4.20768 9.83398C7.59852 9.83398 7.74935 10.984 7.74935 13.3757C7.74935 14.574 7.74935 15.4265 7.24602 16.0507C6.66685 16.7698 5.61268 16.9173 4.20768 16.9173Z" fill="#595959"/>
<path d="M2.14185 15.2673L1.98581 15.3924L1.98628 15.393L2.14185 15.2673ZM6.27352 15.2665L6.42909 15.3922L6.42937 15.3918L6.27352 15.2665ZM1.16935 16.0507L1.32512 15.9252L1.32503 15.9251L1.16935 16.0507ZM0.666016 13.3965L0.659353 13.1966L0.466016 13.203V13.3965H0.666016ZM1.29102 13.3757L1.29768 13.5755L1.29102 13.1757V13.3757ZM0.666016 13.3757H0.466016V13.5757H0.666016V13.3757ZM7.24602 16.0507L7.09033 15.9251L7.09025 15.9252L7.24602 16.0507ZM4.20768 10.884C3.63634 10.884 3.19202 10.8945 2.85254 10.9465C2.51274 10.9985 2.24443 11.0966 2.056 11.2993C1.86879 11.5006 1.79049 11.7733 1.75311 12.1013C1.71571 12.4294 1.71602 12.8508 1.71602 13.3757H2.11602C2.11602 12.8413 2.11632 12.4467 2.15054 12.1466C2.18477 11.8462 2.2497 11.6784 2.34895 11.5716C2.44698 11.4662 2.60835 11.3885 2.91309 11.3419C3.21814 11.2951 3.63319 11.284 4.20768 11.284V10.884ZM1.71602 13.3757V13.3965H2.11602V13.3757H1.71602ZM1.71602 13.3965C1.71602 13.8545 1.71584 14.2619 1.74503 14.5899C1.77334 14.908 1.83192 15.2005 1.98581 15.3924L2.29789 15.1422C2.22595 15.0525 2.17161 14.8708 2.14346 14.5545C2.11619 14.2481 2.11602 13.861 2.11602 13.3965H1.71602ZM1.98628 15.393C2.1437 15.5879 2.42454 15.6986 2.77364 15.7662C3.13231 15.8356 3.6083 15.8673 4.20768 15.8673V15.4673C3.6179 15.4673 3.17139 15.4357 2.84964 15.3735C2.51832 15.3093 2.36083 15.2201 2.29742 15.1416L1.98628 15.393ZM4.20768 15.8673C4.80712 15.8673 5.28314 15.8354 5.64184 15.7657C5.991 15.698 6.27173 15.5869 6.42909 15.3922L6.11795 15.1408C6.05447 15.2194 5.89686 15.3088 5.56561 15.3731C5.24389 15.4355 4.79741 15.4673 4.20768 15.4673V15.8673ZM6.42937 15.3918C6.58347 15.2002 6.64203 14.9077 6.67033 14.5897C6.69953 14.2617 6.69935 13.8541 6.69935 13.3957H6.29935C6.29935 13.8606 6.29917 14.2479 6.27191 14.5543C6.24375 14.8706 6.1894 15.0519 6.11766 15.1411L6.42937 15.3918ZM6.69935 13.3957C6.69935 12.8658 6.69965 12.4407 6.66228 12.1099C6.62494 11.7794 6.5468 11.505 6.35992 11.3024C6.17154 11.0981 5.90308 10.9992 5.56301 10.9468C5.22342 10.8945 4.77898 10.884 4.20768 10.884V11.284C4.78222 11.284 5.19716 11.2952 5.50209 11.3421C5.80656 11.3891 5.96778 11.4672 6.06587 11.5735C6.16544 11.6815 6.23053 11.8514 6.26481 12.1548C6.29905 12.4579 6.29935 12.8564 6.29935 13.3957H6.69935ZM4.20768 16.7173C3.50904 16.7173 2.91411 16.6803 2.42694 16.5595C1.94284 16.4396 1.57897 16.2404 1.32512 15.9252L1.01358 16.1761C1.33889 16.58 1.79169 16.8142 2.33072 16.9478C2.86667 17.0806 3.50132 17.1173 4.20768 17.1173V16.7173ZM1.32503 15.9251C1.1034 15.6503 0.986716 15.3196 0.926902 14.903C0.866439 14.4818 0.866016 13.99 0.866016 13.3965H0.466016C0.466016 13.9813 0.465592 14.5045 0.530962 14.9598C0.596982 15.4196 0.731964 15.8269 1.01366 16.1762L1.32503 15.9251ZM0.672679 13.5964L1.29768 13.5755L1.28435 13.1758L0.659353 13.1966L0.672679 13.5964ZM1.29102 13.1757H0.666016V13.5757H1.29102V13.1757ZM0.866016 13.3757C0.866016 12.7767 0.875737 12.2705 0.94032 11.8432C1.00465 11.4175 1.12117 11.0874 1.32245 10.8316C1.72117 10.325 2.5168 10.034 4.20768 10.034V9.63398C2.50774 9.63398 1.53253 9.91794 1.00812 10.5843C0.747844 10.915 0.614729 11.3208 0.544811 11.7834C0.475148 12.2443 0.466016 12.7788 0.466016 13.3757H0.866016ZM4.20768 10.034C5.89857 10.034 6.6942 10.325 7.09292 10.8316C7.2942 11.0874 7.41072 11.4175 7.47504 11.8432C7.53963 12.2705 7.54935 12.7767 7.54935 13.3757H7.94935C7.94935 12.7788 7.94022 12.2443 7.87055 11.7834C7.80064 11.3208 7.66752 10.915 7.40724 10.5843C6.88283 9.91794 5.90763 9.63398 4.20768 9.63398V10.034ZM7.54935 13.3757C7.54935 13.9792 7.54893 14.4763 7.48844 14.9002C7.4286 15.3196 7.31189 15.6504 7.09033 15.9251L7.4017 16.1762C7.68348 15.8268 7.81843 15.4192 7.88443 14.9567C7.94977 14.4988 7.94935 13.9704 7.94935 13.3757H7.54935ZM7.09025 15.9252C6.83639 16.2404 6.47252 16.4396 5.98843 16.5595C5.50125 16.6803 4.90632 16.7173 4.20768 16.7173V17.1173C4.91404 17.1173 5.5487 17.0806 6.08464 16.9478C6.62367 16.8142 7.07647 16.58 7.40178 16.1761L7.09025 15.9252Z" fill="#595959"/>
<path fill-rule="evenodd" clip-rule="evenodd" d="M13.3737 11.084C11.082 11.084 11.082 11.2573 11.082 13.3757V13.3965C11.082 14.319 11.082 14.9856 11.3079 15.2673C11.5287 15.5406 12.1845 15.6673 13.3737 15.6673C14.5629 15.6673 15.2187 15.5398 15.4395 15.2665C15.6654 14.9857 15.6654 14.319 15.6654 13.3957C15.6654 11.2573 15.6654 11.084 13.3737 11.084ZM13.3737 16.9173C11.9687 16.9173 10.9145 16.7698 10.3354 16.0507C9.83203 15.4265 9.83203 14.5748 9.83203 13.3965L10.457 13.3757H9.83203C9.83203 10.984 9.98286 9.83398 13.3737 9.83398C16.7645 9.83398 16.9154 10.984 16.9154 13.3757C16.9154 14.574 16.9154 15.4265 16.412 16.0507C15.8329 16.7698 14.7787 16.9173 13.3737 16.9173Z" fill="#595959"/>
<path d="M11.3079 15.2673L11.1518 15.3924L11.1523 15.393L11.3079 15.2673ZM15.4395 15.2665L15.5951 15.3922L15.5954 15.3918L15.4395 15.2665ZM10.3354 16.0507L10.4911 15.9252L10.4911 15.9251L10.3354 16.0507ZM9.83203 13.3965L9.82537 13.1966L9.63203 13.203V13.3965H9.83203ZM10.457 13.3757L10.4637 13.5755L10.457 13.1757V13.3757ZM9.83203 13.3757H9.63203V13.5757H9.83203V13.3757ZM16.412 16.0507L16.2563 15.9251L16.2563 15.9252L16.412 16.0507ZM13.3737 10.884C12.8024 10.884 12.358 10.8945 12.0186 10.9465C11.6788 10.9985 11.4104 11.0966 11.222 11.2993C11.0348 11.5006 10.9565 11.7733 10.9191 12.1013C10.8817 12.4294 10.882 12.8508 10.882 13.3757H11.282C11.282 12.8413 11.2823 12.4467 11.3166 12.1466C11.3508 11.8462 11.4157 11.6784 11.515 11.5716C11.613 11.4662 11.7744 11.3885 12.0791 11.3419C12.3842 11.2951 12.7992 11.284 13.3737 11.284V10.884ZM10.882 13.3757V13.3965H11.282V13.3757H10.882ZM10.882 13.3965C10.882 13.8545 10.8819 14.2619 10.911 14.5899C10.9394 14.908 10.9979 15.2005 11.1518 15.3924L11.4639 15.1422C11.392 15.0525 11.3376 14.8708 11.3095 14.5545C11.2822 14.2481 11.282 13.861 11.282 13.3965H10.882ZM11.1523 15.393C11.3097 15.5879 11.5906 15.6986 11.9397 15.7662C12.2983 15.8356 12.7743 15.8673 13.3737 15.8673V15.4673C12.7839 15.4673 12.3374 15.4357 12.0157 15.3735C11.6843 15.3093 11.5268 15.2201 11.4634 15.1416L11.1523 15.393ZM13.3737 15.8673C13.9731 15.8673 14.4492 15.8354 14.8079 15.7657C15.157 15.698 15.4377 15.5869 15.5951 15.3922L15.284 15.1408C15.2205 15.2194 15.0629 15.3088 14.7316 15.3731C14.4099 15.4355 13.9634 15.4673 13.3737 15.4673V15.8673ZM15.5954 15.3918C15.7495 15.2002 15.808 14.9077 15.8363 14.5897C15.8655 14.2617 15.8654 13.8541 15.8654 13.3957H15.4654C15.4654 13.8606 15.4652 14.2479 15.4379 14.5543C15.4098 14.8706 15.3554 15.0519 15.2837 15.1411L15.5954 15.3918ZM15.8654 13.3957C15.8654 12.8658 15.8657 12.4407 15.8283 12.1099C15.791 11.7794 15.7128 11.505 15.5259 11.3024C15.3376 11.0981 15.0691 10.9992 14.729 10.9468C14.3894 10.8945 13.945 10.884 13.3737 10.884V11.284C13.9482 11.284 14.3632 11.2952 14.6681 11.3421C14.9726 11.3891 15.1338 11.4672 15.2319 11.5735C15.3315 11.6815 15.3965 11.8514 15.4308 12.1548C15.4651 12.4579 15.4654 12.8564 15.4654 13.3957H15.8654ZM13.3737 16.7173C12.6751 16.7173 12.0801 16.6803 11.593 16.5595C11.1089 16.4396 10.745 16.2404 10.4911 15.9252L10.1796 16.1761C10.5049 16.58 10.9577 16.8142 11.4967 16.9478C12.0327 17.0806 12.6673 17.1173 13.3737 17.1173V16.7173ZM10.4911 15.9251C10.2694 15.6503 10.1527 15.3196 10.0929 14.903C10.0325 14.4818 10.032 13.99 10.032 13.3965H9.63203C9.63203 13.9813 9.63161 14.5045 9.69698 14.9598C9.763 15.4196 9.89798 15.8269 10.1797 16.1762L10.4911 15.9251ZM9.83869 13.5964L10.4637 13.5755L10.4504 13.1758L9.82537 13.1966L9.83869 13.5964ZM10.457 13.1757H9.83203V13.5757H10.457V13.1757ZM10.032 13.3757C10.032 12.7767 10.0418 12.2705 10.1063 11.8432C10.1707 11.4175 10.2872 11.0874 10.4885 10.8316C10.8872 10.325 11.6828 10.034 13.3737 10.034V9.63398C11.6738 9.63398 10.6985 9.91794 10.1741 10.5843C9.91386 10.915 9.78074 11.3208 9.71083 11.7834C9.64116 12.2443 9.63203 12.7788 9.63203 13.3757H10.032ZM13.3737 10.034C15.0646 10.034 15.8602 10.325 16.2589 10.8316C16.4602 11.0874 16.5767 11.4175 16.6411 11.8432C16.7056 12.2705 16.7154 12.7767 16.7154 13.3757H17.1154C17.1154 12.7788 17.1062 12.2443 17.0366 11.7834C16.9667 11.3208 16.8335 10.915 16.5733 10.5843C16.0488 9.91794 15.0736 9.63398 13.3737 9.63398V10.034ZM16.7154 13.3757C16.7154 13.9792 16.7149 14.4763 16.6545 14.9002C16.5946 15.3196 16.4779 15.6504 16.2563 15.9251L16.5677 16.1762C16.8495 15.8268 16.9844 15.4192 17.0504 14.9567C17.1158 14.4988 17.1154 13.9704 17.1154 13.3757H16.7154ZM16.2563 15.9252C16.0024 16.2404 15.6385 16.4396 15.1544 16.5595C14.6673 16.6803 14.0723 16.7173 13.3737 16.7173V17.1173C14.0801 17.1173 14.7147 17.0806 15.2507 16.9478C15.7897 16.8142 16.2425 16.58 16.5678 16.1761L16.2563 15.9252Z" fill="#595959"/>
</svg>
