<svg width="14" height="14" viewBox="0 0 14 14" fill="none" xmlns="http://www.w3.org/2000/svg">
<path d="M11.8835 5.31213C11.8835 5.31213 11.5215 9.80213 11.3115 11.6935C11.2115 12.5968 10.6535 13.1261 9.73952 13.1428C8.00019 13.1741 6.25885 13.1761 4.52018 13.1395C3.64085 13.1215 3.09218 12.5855 2.99418 11.6981C2.78285 9.79013 2.42285 5.31213 2.42285 5.31213" stroke="#595959" stroke-width="1.5" stroke-linecap="round" stroke-linejoin="round"/>
<path d="M12.8053 3.15975H1.5" stroke="#595959" stroke-width="1.5" stroke-linecap="round" stroke-linejoin="round"/>
<path d="M10.6274 3.15974C10.104 3.15974 9.65338 2.78974 9.55071 2.27707L9.38871 1.46641C9.28871 1.09241 8.95004 0.83374 8.56404 0.83374H5.74204C5.35604 0.83374 5.01738 1.09241 4.91738 1.46641L4.75538 2.27707C4.65271 2.78974 4.20204 3.15974 3.67871 3.15974" stroke="#595959" stroke-width="1.5" stroke-linecap="round" stroke-linejoin="round"/>
</svg>
