<svg width="15" height="15" viewBox="0 0 15 15" fill="none" xmlns="http://www.w3.org/2000/svg">
<path d="M10.2978 6.99985L14.5 2.79326C14.7729 2.48317 14.9174 2.08082 14.9042 1.668C14.891 1.25517 14.7211 0.862861 14.4291 0.570803C14.137 0.278745 13.7447 0.10886 13.3319 0.0956793C12.9191 0.082499 12.5167 0.227013 12.2066 0.499846L8.00002 4.7021L3.78586 0.486846C3.63491 0.335902 3.45572 0.216168 3.2585 0.134478C3.06128 0.0527875 2.84991 0.0107422 2.63644 0.0107422C2.42297 0.0107422 2.2116 0.0527875 2.01438 0.134478C1.81716 0.216168 1.63797 0.335902 1.48702 0.486846C1.33608 0.637789 1.21634 0.816986 1.13465 1.0142C1.05296 1.21142 1.01092 1.4228 1.01092 1.63626C1.01092 1.84973 1.05296 2.0611 1.13465 2.25832C1.21634 2.45554 1.33608 2.63474 1.48702 2.78568L5.70227 6.99985L1.50002 11.2053C1.33522 11.3527 1.2022 11.5321 1.10912 11.7326C1.01603 11.9331 0.964828 12.1504 0.958644 12.3714C0.95246 12.5924 0.991423 12.8123 1.07315 13.0177C1.15488 13.223 1.27765 13.4096 1.43396 13.5659C1.59027 13.7222 1.77682 13.845 1.98221 13.9267C2.1876 14.0084 2.4075 14.0474 2.62847 14.0412C2.84943 14.035 3.06681 13.9838 3.26731 13.8908C3.46781 13.7977 3.6472 13.6647 3.79452 13.4998L8.00002 9.2976L12.2012 13.4998C12.506 13.8047 12.9195 13.9759 13.3506 13.9759C13.7817 13.9759 14.1952 13.8047 14.5 13.4998C14.8049 13.195 14.9761 12.7815 14.9761 12.3504C14.9761 11.9193 14.8049 11.5059 14.5 11.201L10.2978 6.99985Z" fill="#374957"/>
</svg>
