<svg width="80" height="80" viewBox="0 0 80 80" fill="none" xmlns="http://www.w3.org/2000/svg">
<g clip-path="url(#clip0_3592_1845)">
<path d="M69.5644 31.3047L39.9992 50.4352L10.434 31.3047V1.73953C10.429 1.50978 10.4706 1.2814 10.5562 1.06814C10.6419 0.85489 10.7698 0.661179 10.9323 0.498683C11.0948 0.336186 11.2885 0.208266 11.5017 0.122631C11.715 0.0369955 11.9434 -0.00458305 12.1731 0.000400416H67.8253C68.055 -0.00458305 68.2834 0.0369955 68.4967 0.122631C68.7099 0.208266 68.9036 0.336186 69.0661 0.498683C69.2286 0.661179 69.3566 0.85489 69.4422 1.06814C69.5278 1.2814 69.5694 1.50978 69.5644 1.73953V31.3047Z" fill="#F1F2F2"/>
<path d="M10.4348 22.4532V31.3054L0 24.3488L10.4348 13.9141V22.4532Z" fill="#D62503"/>
<path d="M80.0012 24.3488L69.5664 31.3054V22.5228V13.9141L80.0012 24.3488Z" fill="#F6B445"/>
<path d="M69.5644 31.1484L79.9992 24.3484V73.044C79.9959 74.8886 79.2646 76.6574 77.9644 77.9658L66.0861 66.0875L46.9557 46.9571L46.4688 46.2093L69.5644 31.1484Z" fill="#FF2A01"/>
<path d="M66.0873 66.0877L77.9656 77.966C76.6572 79.2662 74.8884 79.9975 73.0438 80.0008H6.95689C5.1123 79.9975 3.34356 79.2662 2.03516 77.966L13.9134 66.0877L33.0438 46.9573L33.5308 46.2095L40.0004 50.4356L46.4699 46.2095L46.9569 46.9573L66.0873 66.0877Z" fill="#D62503"/>
<path d="M33.5304 46.2093L33.0435 46.9571L13.913 66.0875L2.03478 77.9658C0.734541 76.6574 0.00329423 74.8886 0 73.044V24.3484L33.5304 46.2093Z" fill="#FF2A01"/>
<path d="M59.1313 41.7391C70.6572 41.7391 80.0009 32.3955 80.0009 20.8696C80.0009 9.34362 70.6572 0 59.1313 0C47.6053 0 38.2617 9.34362 38.2617 20.8696C38.2617 32.3955 47.6053 41.7391 59.1313 41.7391Z" fill="#0BC565"/>
<path d="M52.6841 30.7948C53.0102 31.1208 53.4525 31.304 53.9137 31.304C54.3748 31.304 54.8171 31.1208 55.1432 30.7948L70.7954 15.1426C71.1122 14.8146 71.2875 14.3753 71.2835 13.9193C71.2796 13.4633 71.0967 13.0271 70.7742 12.7047C70.4518 12.3822 70.0156 12.1993 69.5596 12.1954C69.1036 12.1914 68.6643 12.3667 68.3363 12.6835L53.9137 27.1061L49.9258 23.1183C49.5978 22.8015 49.1585 22.6262 48.7025 22.6302C48.2465 22.6341 47.8103 22.817 47.4879 23.1395C47.1654 23.4619 46.9825 23.8981 46.9786 24.3541C46.9746 24.8101 47.1499 25.2494 47.4667 25.5774L52.6841 30.7948Z" fill="#F1F2F2"/>
</g>
<defs>
<clipPath id="clip0_3592_1845">
<rect width="80" height="80" fill="white"/>
</clipPath>
</defs>
</svg>
