<svg width="21" height="16" viewBox="0 0 21 16" fill="none" xmlns="http://www.w3.org/2000/svg">
<path d="M9.97576 15.39C5.56576 15.39 2.37576 12.16 0.865757 10.24C-0.324243 8.72 -0.284252 6.63 0.965748 5.15C2.94575 2.8 6.13575 0 10.0257 0C13.9157 0 17.1057 2.81 19.0757 5.18C20.3057 6.66 20.3258 8.82 19.1158 10.31C17.2358 12.63 14.1258 15.4 9.98575 15.4L9.97576 15.39ZM10.0257 2C6.90575 2 4.20575 4.42 2.49575 6.44C1.86575 7.19 1.84574 8.24 2.44574 9.01C3.73574 10.65 6.42575 13.4 9.98575 13.4C13.3458 13.4 15.9658 11.04 17.5658 9.05C18.1858 8.29 18.1758 7.22 17.5358 6.46C16.1458 4.8 13.3357 2 10.0257 2Z" fill="#595959"/>
<path d="M10.0156 11.69C7.80562 11.69 6.01562 9.9 6.01562 7.69C6.01562 5.48 7.80562 3.69 10.0156 3.69C12.2256 3.69 14.0156 5.48 14.0156 7.69C14.0156 9.9 12.2256 11.69 10.0156 11.69ZM10.0156 5.69C8.91563 5.69 8.01562 6.59 8.01562 7.69C8.01562 8.79 8.91563 9.69 10.0156 9.69C11.1156 9.69 12.0156 8.79 12.0156 7.69C12.0156 6.59 11.1156 5.69 10.0156 5.69Z" fill="#595959"/>
</svg>
