<svg width="30" height="30" viewBox="0 0 30 30" fill="none" xmlns="http://www.w3.org/2000/svg">
<rect x="0.5" y="0.5" width="29" height="29" rx="14.5" stroke="#5E6168"/>
<path d="M13.7787 21C13.7767 20.9495 13.7733 20.8989 13.7733 20.8484C13.7733 19.1304 13.7733 17.4124 13.7733 15.6944V15.5295H12V13.3957H13.7729V13.2449C13.7752 12.6866 13.7617 12.1276 13.7841 11.5698C13.8108 10.8976 14.0027 10.2813 14.46 9.77917C14.8083 9.39739 15.2428 9.18124 15.7334 9.07256C16.1319 8.98433 16.5351 8.99476 16.9375 9.0108C17.2648 9.02363 17.5914 9.05291 17.9184 9.07577C17.9458 9.07916 17.9731 9.08425 18 9.09101V10.9931H17.882C17.4792 10.9995 17.0756 10.9931 16.6736 11.0147C16.1981 11.0404 15.9292 11.3139 15.9095 11.81C15.889 12.3245 15.9025 12.8402 15.9013 13.3556C15.9042 13.3676 15.9085 13.3791 15.9141 13.39H17.9334C17.8445 14.1071 17.757 14.8089 17.6684 15.5231H15.9079C15.904 15.5688 15.8986 15.6033 15.8986 15.6358C15.8986 17.3966 15.8986 19.1575 15.8986 20.9186C15.8986 20.9459 15.9025 20.9731 15.9044 20.9988L13.7787 21Z" fill="#5E6168"/>
</svg>
