<svg width="30" height="30" viewBox="0 0 30 30" fill="none" xmlns="http://www.w3.org/2000/svg">
<g id="Iconly/Bold/Paper Negative">
<g id="Paper Negative">
<path id="Paper Negative_2" fill-rule="evenodd" clip-rule="evenodd" d="M25.0681 11.275C24.7803 11.275 24.4635 11.2787 24.1726 11.282L24.1724 11.282C23.9255 11.2849 23.6972 11.2875 23.521 11.2875C23.272 11.2875 22.9897 11.2851 22.6723 11.2824H22.6721C22.264 11.279 21.7976 11.275 21.2686 11.275C19.0037 11.2625 17.1349 9.3875 17.1349 7.1V3.075C17.1349 2.7625 16.8874 2.5 16.5656 2.5H9.95668C6.875 2.5 4.375 5.0375 4.375 8.1375V21.6125C4.375 24.8625 6.99876 27.5 10.2166 27.5H20.0557C23.1374 27.5 25.625 24.9875 25.625 21.8875V11.8375C25.625 11.525 25.3775 11.275 25.0681 11.275ZM18.77 16.3811L14.4859 20.7691C14.3326 20.9261 14.1342 21 13.9267 21C13.7283 21 13.5299 20.9261 13.3765 20.7691L11.23 18.5797C10.9233 18.2564 10.9233 17.7483 11.23 17.4342C11.5366 17.1201 12.0417 17.1201 12.3484 17.4342L13.9267 19.0508L17.6516 15.2356C17.9583 14.9215 18.4634 14.9215 18.77 15.2356C19.0767 15.5589 19.0767 16.067 18.77 16.3811ZM24.5125 9.45775C23.4952 9.4615 22.2959 9.45775 21.4333 9.449C20.0645 9.449 18.937 8.31025 18.937 6.92775V3.63275C18.937 3.094 19.5843 2.8265 19.9543 3.21525C20.6239 3.91844 21.544 4.88495 22.46 5.84713C23.3741 6.80743 24.2842 7.76342 24.937 8.449C25.2984 8.82775 25.0335 9.4565 24.5125 9.45775Z" fill="#01AC46"/>
</g>
</g>
</svg>
