<svg width="1368" height="1022" viewBox="0 0 1368 1022" fill="none" xmlns="http://www.w3.org/2000/svg">
<path d="M849.581 978.44L1026.47 1286.15C1060.14 1344.77 1144.4 1344.77 1178.07 1286.15L1214.26 1223.24C1222.44 1209.18 1236.84 1199.99 1252.99 1199.02L1367.61 1191.01L1317.21 1087.26C1310.2 1072.61 1310.78 1055.42 1318.76 1041.35L1354.96 978.44C1388.62 919.828 1346.59 846.563 1279.06 846.563L925.086 846.563C857.949 846.563 815.915 919.828 849.581 978.44Z" fill="#ECEEF0"/>
<path d="M516.212 609.578L339.32 301.669C305.654 243.057 221.392 243.057 187.726 301.669L151.531 364.579C143.358 378.646 128.957 387.829 112.805 388.806L-1.81445 396.816L48.5871 500.559C55.5927 515.212 55.0089 532.405 47.0303 546.472L10.8346 609.383C-22.8313 667.995 19.2024 741.26 86.7288 741.26L440.707 741.26C507.844 741.455 549.878 668.19 516.212 609.578Z" fill="#ECEEF0"/>
<path d="M440.522 846.561L86.5433 846.561C19.2114 846.561 -23.0169 919.826 10.649 978.438L46.8447 1041.35C55.018 1055.41 55.6018 1072.61 48.4016 1087.26L-2 1191L112.62 1199.01C128.772 1200.19 143.367 1209.17 151.345 1223.24L187.541 1286.15C221.207 1344.76 305.469 1344.76 339.135 1286.15L516.027 978.438C549.887 919.826 507.854 846.561 440.522 846.561Z" fill="#ECEEF0"/>
<path d="M925.479 741.442L1279.46 741.442C1346.79 741.442 1389.02 668.176 1355.35 609.564L1319.16 546.654C1310.98 532.587 1310.4 515.394 1317.6 500.741L1368 396.998L1253.38 388.987C1237.23 387.815 1222.63 378.828 1214.66 364.761L1178.46 301.851C1144.79 243.239 1060.53 243.239 1026.87 301.851L849.974 609.564C815.919 668.176 857.952 741.442 925.479 741.442Z" fill="#ECEEF0"/>
<path d="M607.118 1031.18L430.031 1338.9C396.365 1397.51 438.399 1470.78 505.925 1470.78L578.317 1470.78C594.468 1470.78 609.647 1478.79 618.599 1492.27L682.817 1588L747.035 1492.27C755.987 1478.79 771.166 1470.78 787.318 1470.78L859.709 1470.78C927.041 1470.78 969.269 1397.51 935.603 1338.9L758.517 1031.18C725.045 972.573 640.783 972.573 607.118 1031.18Z" fill="#ECEEF0"/>
<path d="M758.673 556.815L935.759 249.101C969.425 190.489 927.391 117.224 859.865 117.224L787.474 117.224C771.322 117.224 756.143 109.214 747.191 95.7331L682.973 2.49811e-07L618.755 95.7331C609.803 109.214 594.624 117.224 578.472 117.224L506.081 117.224C438.749 117.224 396.521 190.489 430.187 249.101L607.273 556.815C640.745 615.427 725.007 615.427 758.673 556.815Z" fill="#ECEEF0"/>
</svg>
