<?xml version="1.0" encoding="utf-8"?>
<!-- Generator: Adobe Illustrator 25.3.1, SVG Export Plug-In . SVG Version: 6.00 Build 0)  -->
<svg version="1.1" id="Layer_1" xmlns="http://www.w3.org/2000/svg" xmlns:xlink="http://www.w3.org/1999/xlink" x="0px" y="0px"
	 viewBox="0 0 640 720" style="enable-background:new 0 0 640 720;" xml:space="preserve">
<style type="text/css">
	.st0{fill:none;stroke:#ED2600;stroke-width:3;stroke-miterlimit:10;}
</style>
<g>
	<g>
		<g>
			<path class="st0" d="M390.43,437.67l74.78,129.54c14.24,24.67,49.85,24.67,64.1,0l15.31-26.51c3.42-5.92,9.56-9.76,16.38-10.23
				l48.44-3.36l-21.31-43.63c-3-6.14-2.75-13.38,0.67-19.3l15.31-26.51c14.24-24.67-3.56-55.51-32.05-55.51l-149.58,0.01
				C393.99,382.16,376.19,413,390.43,437.67z"/>
			<path class="st0" d="M249.57,282.33l-74.78-129.54c-14.24-24.67-49.85-24.67-64.1,0L95.39,179.3
				c-3.42,5.92-9.56,9.76-16.38,10.23l-48.44,3.36l21.31,43.63c3,6.15,2.75,13.38-0.67,19.3L35.9,282.34
				c-14.24,24.67,3.56,55.51,32.05,55.51l149.58-0.01C246.01,337.84,263.81,307,249.57,282.33z"/>
		</g>
	</g>
	<g>
		<g>
			<path class="st0" d="M217.52,382.16l-149.58-0.01c-28.49,0-46.3,30.84-32.05,55.51l15.31,26.51c3.42,5.92,3.67,13.16,0.67,19.3
				l-21.31,43.63L79,530.47c6.82,0.47,12.96,4.31,16.38,10.23l15.31,26.51c14.24,24.67,49.86,24.67,64.1,0l74.78-129.54
				C263.81,413,246.01,382.16,217.52,382.16z"/>
			<path class="st0" d="M422.48,337.84l149.58,0.01c28.49,0,46.3-30.84,32.05-55.51l-15.31-26.51c-3.42-5.92-3.67-13.16-0.67-19.3
				l21.31-43.63L561,189.53c-6.82-0.47-12.96-4.31-16.38-10.23l-15.31-26.51c-14.24-24.67-49.86-24.67-64.1,0l-74.78,129.54
				C376.19,307,393.99,337.84,422.48,337.84z"/>
		</g>
	</g>
	<g>
		<g>
			<path class="st0" d="M287.95,459.83l-74.8,129.53c-14.25,24.67,3.56,55.51,32.05,55.51h30.62c6.84,0,13.23,3.4,17.05,9.07
				L320,694.21l27.13-40.27c3.82-5.67,10.21-9.07,17.05-9.07h30.62c28.49,0,46.29-30.84,32.05-55.51l-74.8-129.53
				C337.8,435.16,302.2,435.16,287.95,459.83z"/>
			<path class="st0" d="M352.05,260.17l74.8-129.53c14.25-24.67-3.56-55.51-32.05-55.51h-30.62c-6.84,0-13.23-3.4-17.05-9.07
				L320,25.79l-27.13,40.27c-3.82,5.67-10.21,9.07-17.05,9.07H245.2c-28.49,0-46.29,30.84-32.05,55.51l74.8,129.53
				C302.2,284.84,337.8,284.84,352.05,260.17z"/>
		</g>
	</g>
</g>
<g>
	<g>
		<g>
			<path class="st0" d="M404.43,429.67l74.78,129.54c14.24,24.67,49.85,24.67,64.1,0l15.31-26.51c3.42-5.92,9.56-9.76,16.38-10.23
				l48.44-3.36l-21.31-43.63c-3-6.14-2.75-13.38,0.67-19.3l15.31-26.51c14.24-24.67-3.56-55.51-32.05-55.51l-149.58,0.01
				C407.99,374.16,390.19,405,404.43,429.67z"/>
			<path class="st0" d="M263.57,274.33l-74.78-129.54c-14.24-24.67-49.85-24.67-64.1,0l-15.31,26.51
				c-3.42,5.92-9.56,9.76-16.38,10.23l-48.44,3.36l21.31,43.63c3,6.15,2.75,13.38-0.67,19.3L49.9,274.34
				c-14.24,24.67,3.56,55.51,32.05,55.51l149.58-0.01C260.01,329.84,277.81,299,263.57,274.33z"/>
		</g>
	</g>
	<g>
		<g>
			<path class="st0" d="M231.52,374.16l-149.58-0.01c-28.49,0-46.3,30.84-32.05,55.51l15.31,26.51c3.42,5.92,3.67,13.16,0.67,19.3
				l-21.31,43.63L93,522.47c6.82,0.47,12.96,4.31,16.38,10.23l15.31,26.51c14.24,24.67,49.86,24.67,64.1,0l74.78-129.54
				C277.81,405,260.01,374.16,231.52,374.16z"/>
			<path class="st0" d="M436.48,329.84l149.58,0.01c28.49,0,46.3-30.84,32.05-55.51l-15.31-26.51c-3.42-5.92-3.67-13.16-0.67-19.3
				l21.31-43.63L575,181.53c-6.82-0.47-12.96-4.31-16.38-10.23l-15.31-26.51c-14.24-24.67-49.86-24.67-64.1,0l-74.78,129.54
				C390.19,299,407.99,329.84,436.48,329.84z"/>
		</g>
	</g>
	<g>
		<g>
			<path class="st0" d="M301.95,451.83l-74.8,129.53c-14.25,24.67,3.56,55.51,32.05,55.51h30.62c6.84,0,13.23,3.4,17.05,9.07
				L334,686.21l27.13-40.27c3.82-5.67,10.21-9.07,17.05-9.07h30.62c28.49,0,46.29-30.84,32.05-55.51l-74.8-129.53
				C351.8,427.16,316.2,427.16,301.95,451.83z"/>
			<path class="st0" d="M366.05,252.17l74.8-129.53c14.25-24.67-3.56-55.51-32.05-55.51h-30.62c-6.84,0-13.23-3.4-17.05-9.07
				L334,17.79l-27.13,40.27c-3.82,5.67-10.21,9.07-17.05,9.07H259.2c-28.49,0-46.29,30.84-32.05,55.51l74.8,129.53
				C316.2,276.84,351.8,276.84,366.05,252.17z"/>
		</g>
	</g>
</g>
<g>
	<g>
		<g>
			<path class="st0" d="M391.43,423.67l74.78,129.54c14.24,24.67,49.85,24.67,64.1,0l15.31-26.51c3.42-5.92,9.56-9.76,16.38-10.23
				l48.44-3.36l-21.31-43.63c-3-6.14-2.75-13.38,0.67-19.3l15.31-26.51c14.24-24.67-3.56-55.51-32.05-55.51l-149.58,0.01
				C394.99,368.16,377.19,399,391.43,423.67z"/>
			<path class="st0" d="M250.57,268.33l-74.78-129.54c-14.24-24.67-49.85-24.67-64.1,0L96.39,165.3
				c-3.42,5.92-9.56,9.76-16.38,10.23l-48.44,3.36l21.31,43.63c3,6.15,2.75,13.38-0.67,19.3L36.9,268.34
				c-14.24,24.67,3.56,55.51,32.05,55.51l149.58-0.01C247.01,323.84,264.81,293,250.57,268.33z"/>
		</g>
	</g>
	<g>
		<g>
			<path class="st0" d="M218.52,368.16l-149.58-0.01c-28.49,0-46.3,30.84-32.05,55.51l15.31,26.51c3.42,5.92,3.67,13.16,0.67,19.3
				l-21.31,43.63L80,516.47c6.82,0.47,12.96,4.31,16.38,10.23l15.31,26.51c14.24,24.67,49.86,24.67,64.1,0l74.78-129.54
				C264.81,399,247.01,368.16,218.52,368.16z"/>
			<path class="st0" d="M423.48,323.84l149.58,0.01c28.49,0,46.3-30.84,32.05-55.51l-15.31-26.51c-3.42-5.92-3.67-13.16-0.67-19.3
				l21.31-43.63L562,175.53c-6.82-0.47-12.96-4.31-16.38-10.23l-15.31-26.51c-14.24-24.67-49.86-24.67-64.1,0l-74.78,129.54
				C377.19,293,394.99,323.84,423.48,323.84z"/>
		</g>
	</g>
	<g>
		<g>
			<path class="st0" d="M288.95,445.83l-74.8,129.53c-14.25,24.67,3.56,55.51,32.05,55.51h30.62c6.84,0,13.23,3.4,17.05,9.07
				L321,680.21l27.13-40.27c3.82-5.67,10.21-9.07,17.05-9.07h30.62c28.49,0,46.29-30.84,32.05-55.51l-74.8-129.53
				C338.8,421.16,303.2,421.16,288.95,445.83z"/>
			<path class="st0" d="M353.05,246.17l74.8-129.53c14.25-24.67-3.56-55.51-32.05-55.51h-30.62c-6.84,0-13.23-3.4-17.05-9.07
				L321,11.79l-27.13,40.27c-3.82,5.67-10.21,9.07-17.05,9.07H246.2c-28.49,0-46.29,30.84-32.05,55.51l74.8,129.53
				C303.2,270.84,338.8,270.84,353.05,246.17z"/>
		</g>
	</g>
</g>
</svg>
