<svg width="97" height="80" viewBox="0 0 97 80" fill="none" xmlns="http://www.w3.org/2000/svg">
<g clip-path="url(#clip0_690_3453)">
<path d="M4.1855 0.890826H92.5166C92.9499 0.887843 93.3796 0.969223 93.781 1.13032C94.1825 1.29142 94.5479 1.52908 94.8565 1.82974C95.165 2.13039 95.4105 2.48815 95.5791 2.88258C95.7477 3.27701 95.836 3.7004 95.839 4.12856V75.072C95.837 75.934 95.4896 76.7603 94.8726 77.3699C94.2557 77.9794 93.4196 78.3228 92.5472 78.3248H4.1855C3.31429 78.3189 2.48047 77.9742 1.86442 77.3655C1.24836 76.7568 0.899614 75.9328 0.893612 75.072V4.1512C0.897612 3.28902 1.24548 2.46317 1.86175 1.8528C2.47801 1.24243 3.31298 0.896777 4.1855 0.890826Z" fill="url(#paint0_radial_690_3453)"/>
<path d="M95.419 26.8905V72.6716C95.419 74.2792 95.5717 76.4452 94.4414 77.4415C93.4637 78.2943 91.3022 78.1509 89.8587 78.1509H5.59087C4.12421 78.1449 2.71968 77.565 1.68474 76.5381C0.64979 75.5112 0.0687283 74.1209 0.0687408 72.6716V26.6792L47.4231 76.4905L95.419 26.8905Z" fill="url(#paint1_linear_690_3453)"/>
<path d="M4.18551 0H92.5166C93.0683 0.00326626 93.6138 0.115063 94.1213 0.328867C94.6288 0.542672 95.0881 0.854202 95.4725 1.24528C95.8632 1.62606 96.1737 2.07956 96.386 2.57957C96.5984 3.07959 96.7084 3.61622 96.7098 4.15849V75.0566C96.7084 75.5989 96.5984 76.1355 96.386 76.6355C96.1737 77.1355 95.8632 77.589 95.4725 77.9698C95.0871 78.3559 94.6282 78.6627 94.1221 78.8726C93.6161 79.0824 93.073 79.1911 92.5243 79.1924H4.18551C3.63673 79.1911 3.09366 79.0824 2.58764 78.8726C2.08161 78.6627 1.62268 78.3559 1.23732 77.9698C0.846605 77.589 0.536095 77.1355 0.323724 76.6355C0.111353 76.1355 0.00132695 75.5989 0 75.0566L0 4.15094C0.00431643 3.60708 0.117945 3.06949 0.334287 2.56938C0.550629 2.06928 0.865372 1.61663 1.26024 1.23774C1.64161 0.851614 2.09627 0.543557 2.59821 0.331177C3.10015 0.118797 3.63953 0.00626027 4.18551 0V0ZM1.84835 26.1887L47.5758 74.0981L94.9302 24.7849V4.15094C94.9309 3.52601 94.681 2.92626 94.2351 2.48302C94.0157 2.25977 93.7533 2.08204 93.4635 1.96022C93.1737 1.8384 92.8621 1.77495 92.5472 1.77358H4.18551C3.5503 1.78134 2.9438 2.03625 2.49756 2.48302C2.04543 2.92396 1.78746 3.52327 1.77961 4.15094V26.2264L1.84835 26.1887ZM94.9225 27.4717L48.2021 75.9472L47.5529 76.6113L46.9037 75.9472L1.84071 28.6792V75.049C1.84856 75.6767 2.10653 76.276 2.55866 76.717C3.0049 77.1637 3.6114 77.4186 4.24661 77.4264H92.5166C92.8316 77.425 93.1431 77.3616 93.4329 77.2398C93.7228 77.118 93.9851 76.9402 94.2046 76.717C94.6504 76.2737 94.9003 75.674 94.8996 75.049L94.9225 27.4717Z" fill="#FEFEFE"/>
<path d="M38.9528 52.5131C38.5613 51.9511 38.2042 51.3664 37.8835 50.7622H37.8376C37.3488 51.0113 36.8294 51.2603 36.4552 51.4565L36.249 51.5622C36.9742 51.948 37.7434 52.247 38.5403 52.4528L38.9451 52.5282L38.9528 52.5131Z" fill="#ED3A3A"/>
<path d="M23.4557 41.5094C24.4467 42.0926 25.5788 42.4003 26.7323 42.3999C26.9875 42.399 27.2425 42.3839 27.4961 42.3547C27.4354 42.1821 27.4019 42.0014 27.3968 41.8188C27.4072 41.4452 27.5163 41.0808 27.7132 40.7618C27.9102 40.4427 28.1881 40.1801 28.5195 39.9999C28.9544 39.7798 29.4363 39.6659 29.9249 39.6679V39.5999C29.9414 39.397 29.9993 39.1994 30.0951 39.0191C30.1909 38.8388 30.3227 38.6795 30.4824 38.5509C30.7647 38.115 31.187 37.7854 31.6816 37.615C32.196 37.4339 32.7395 37.3469 33.2855 37.3584C34.0855 37.373 34.8807 37.4845 35.6532 37.6905C35.5845 37.5924 35.5157 37.4867 35.4546 37.3811C34.732 36.173 34.3252 34.8061 34.2708 33.4037C34.2114 32.7981 34.377 32.1919 34.7367 31.6981C34.8193 31.6127 34.8841 31.5122 34.9274 31.4021C34.9706 31.292 34.9915 31.1746 34.9887 31.0565C34.8045 30.1493 34.3433 29.3196 33.6674 28.6792C32.6149 27.5073 31.4927 26.3984 30.3068 25.3584C27.6717 22.9433 24.3951 20.1962 21.9816 17.5094C19.1632 14.3396 16.406 8.30183 15.2221 5.10938C14.4657 6.14087 14.0763 7.39084 14.1146 8.66409C14.1146 11.8188 16.0088 15.6226 18.0787 18.7924C19.5729 21.0507 21.2134 23.2112 22.9898 25.2603L23.1578 25.4641C23.1602 25.4841 23.1602 25.5044 23.1578 25.5245C23.1625 25.5494 23.1625 25.575 23.1578 25.5999C23.1585 25.6467 23.1422 25.6922 23.112 25.7282C23.0927 25.7495 23.0692 25.7665 23.0429 25.7782C23.0166 25.7899 22.9881 25.796 22.9592 25.7962C22.9267 25.8048 22.8924 25.8048 22.8599 25.7962L22.7988 25.7433L22.585 25.5396L21.7143 24.6867C20.9505 23.932 19.6673 22.7018 17.8495 20.9811C16.6957 19.9501 15.8169 18.654 15.2909 17.2075C15.0688 16.5528 14.9303 15.8734 14.8784 15.1848C14.3971 15.9466 14.1332 16.8228 14.1146 17.7207C14.1443 18.7694 14.4582 19.7911 15.0235 20.6792C15.6462 21.6671 16.3845 22.5791 17.2232 23.3962C18.957 25.132 20.9887 26.6867 22.1191 28.0377L22.2871 28.2339L22.0503 28.3471C22.0051 28.3574 21.9581 28.3574 21.9128 28.3471C21.8419 28.357 21.7699 28.357 21.699 28.3471L21.4469 28.249C21.256 28.166 21.0268 28.0528 20.7672 27.9094C20.2402 27.6226 19.5833 27.2226 18.8959 26.7547C17.4859 25.8294 16.2024 24.7285 15.077 23.4792C14.8138 23.1734 14.5906 22.8362 14.4125 22.4754C14.4051 22.6061 14.4051 22.7372 14.4125 22.8679C14.4125 24.6565 15.7873 26.6415 17.5364 28.2943C19.0159 29.7758 20.7549 30.9802 22.669 31.849L22.5926 32.2415C21.4362 32.1533 20.2989 31.899 19.2167 31.4867C18.1519 31.1419 17.1998 30.5217 16.4594 29.6905C16.5728 30.4178 16.8638 31.1069 17.3072 31.6981C17.9238 32.4965 18.6852 33.1748 19.5528 33.6981C21.3321 34.7256 23.2296 35.539 25.2047 36.1207V36.5056C25.0856 36.5212 24.9649 36.5212 24.8457 36.5056C23.9881 36.433 23.1449 36.2425 22.3405 35.9396C21.4025 35.6263 20.482 35.2635 19.5833 34.8528C19.316 34.732 19.0792 34.6113 18.8883 34.5056C19.321 35.6706 20.0815 36.6892 21.0803 37.4415C22.2833 38.4109 23.6409 39.1761 25.0978 39.7056C25.8293 39.9941 26.6029 40.1648 27.3891 40.2113V40.6113H26.8927C25.1894 40.5608 23.5202 40.1272 22.0121 39.3433C22.0633 39.7959 22.224 40.2297 22.4805 40.608C22.7371 40.9863 23.082 41.2981 23.4862 41.5169" fill="#ED3A3A"/>
<path d="M36.2642 47.5471L36.0962 47.1848L36.0428 47.064V47.0263C35.6914 46.2716 35.3859 45.5169 35.1415 44.9735C34.6909 43.9169 33.8049 43.381 33.0793 42.3848H32.4301C31.9917 42.3932 31.5567 42.3082 31.1546 42.1357L27.8168 42.264L27.7634 42.5206L27.8245 42.6565C27.4143 42.9354 26.938 43.1044 26.442 43.1471C25.9158 43.2202 25.3848 43.2556 24.8534 43.2527H24.6701C25.9474 44.1304 27.4678 44.5969 29.0236 44.5886C29.7213 44.5931 30.4151 44.486 31.0782 44.2716L31.2462 44.6339C30.9571 44.7768 30.6521 44.8857 30.3373 44.9584C29.9631 45.0565 29.5277 45.1471 29.0924 45.2225C28.3286 45.3584 27.5648 45.464 27.1065 45.5244C27.4796 45.7929 27.8988 45.9924 28.3439 46.1131C29.1034 46.3302 29.8903 46.4395 30.681 46.4376C31.1719 46.442 31.6616 46.3888 32.1398 46.2791L32.285 46.6489H32.2391C32.0128 46.7452 31.7735 46.8088 31.5288 46.8376C31.2233 46.8829 30.8796 46.9131 30.5283 46.9357C30.0784 46.9442 29.6295 46.9795 29.184 47.0414C30.0625 47.7007 31.136 48.0561 32.2391 48.0527C32.9435 48.0531 33.6421 47.9278 34.3013 47.6829L34.6527 47.5546L34.5763 47.9169C34.5292 48.1106 34.4256 48.2864 34.2784 48.4225C34.1376 48.5573 33.9782 48.6716 33.8049 48.7622C33.5734 48.8822 33.3334 48.9856 33.0869 49.0716C33.4849 49.3937 33.9339 49.6487 34.4159 49.8263C35.1663 50.1151 35.9631 50.2685 36.7683 50.2791C37.0244 50.277 37.2798 50.2543 37.5321 50.2112C37.0739 49.298 36.6614 48.4376 36.2642 47.5471Z" fill="#ED3A3A"/>
<path d="M72.0855 60.6567C68.9098 60.7554 65.745 60.2427 62.7674 59.1473C59.4831 57.819 57.3446 55.8492 54.9921 52.6115L53.1591 50.453L53.4569 50.2039C53.6194 50.42 53.8299 50.5963 54.0723 50.7193C54.3146 50.8423 54.5823 50.9087 54.8546 50.9134C55.6661 50.8344 56.4247 50.4796 57.0009 49.9096L53.9457 49.7209V49.3435C55.0319 49.279 56.1077 49.0968 57.1536 48.8001C57.5243 48.6867 57.8711 48.5077 58.1771 48.2718L53.2354 47.4567V47.0794C54.5882 47.0786 55.9398 47.0005 57.2835 46.8454C58.1575 46.7738 59.0153 46.5702 59.8269 46.2417C60.0183 46.1552 60.1938 46.0379 60.3462 45.8945L53.5409 45.6077V45.2228C55.1799 45.2384 56.8181 45.1451 58.4444 44.9435C59.8357 44.8069 61.17 44.3267 62.3244 43.5473C60.8503 43.6379 58.7728 43.8643 57.314 43.8643C57.0028 43.8673 56.6916 43.8522 56.3822 43.819C56.1542 43.8023 55.9314 43.7434 55.7254 43.6454L55.7865 43.2907C56.9398 43.0718 58.7423 42.9134 60.4531 42.4454C61.9426 42.124 63.2841 41.3286 64.272 40.1813C61.8978 40.7397 59.4894 41.1456 57.062 41.3964L56.9856 41.0266C58.8874 40.4303 61.1253 39.8567 63.0958 39.0794C64.6955 38.5665 66.1204 37.6261 67.2126 36.3624C64.8067 37.0341 59.7352 38.136 57.9403 38.4303L57.8563 38.0605C61.7363 37.0115 65.6392 35.3511 67.7167 33.5322C68.1651 33.1622 68.5539 32.7271 68.87 32.2417C66.0146 33.5692 63.0756 34.7137 60.0713 35.6681C59.3683 35.908 58.6449 36.0849 57.9098 36.1964L57.8105 35.8341C59.8192 34.853 61.912 34.0983 63.7909 33.1473C65.5356 32.3808 67.07 31.2139 68.2666 29.7435C68.9255 28.8335 69.343 27.7749 69.481 26.6643C65.9829 28.9888 62.7063 31.7058 58.5819 33.1096L58.3986 32.7775C58.5208 32.6794 58.8034 32.4983 59.0936 32.302C59.3839 32.1058 59.6741 31.9171 59.7734 31.8417C62.1418 30.4681 64.3498 28.8406 66.3572 26.9888C67.5547 25.8289 68.6108 24.5346 69.5039 23.1322C70.1298 22.2286 70.5399 21.1964 70.7031 20.1133C67.6844 23.0587 64.4748 25.8066 61.0947 28.3398C60.1725 29.068 59.142 29.6509 58.0396 30.0681L57.8639 29.7435C63.2104 25.1247 68.6561 21.3964 71.0162 17.4039C71.7801 16.1611 72.1892 14.7372 72.2001 13.2832V13.0794C71.8717 13.4718 71.4363 13.9926 70.8406 14.5888C70.0768 15.4417 69.0533 16.4756 67.9611 17.6077C65.7843 19.7964 63.2409 22.2341 61.2093 24.0303C60.2298 24.9331 59.1717 25.7489 58.0472 26.4681L57.8028 26.1813C58.7881 25.019 60.9878 22.9586 63.3555 20.5435C65.7625 18.1758 67.9434 15.5938 69.8706 12.8303C70.9628 11.1549 71.6502 9.58505 71.6502 8.30203C71.6519 8.04765 71.6211 7.79407 71.5585 7.54731C70.9704 8.42279 69.6949 10.1737 68.1062 12.1964C66.1965 14.6603 64.1569 17.0233 61.996 19.2756C60.91 20.4563 59.6723 21.4915 58.3146 22.3549L58.0472 22.0983C61.4231 18.4832 66.6932 12.7398 69.1068 8.30203C69.8228 7.15857 70.262 5.86715 70.3899 4.52845C70.4062 4.23 70.3565 3.93163 70.2444 3.65404C70.1323 3.37645 69.9604 3.12629 69.7407 2.9209L69.6567 3.01901C69.5326 3.14673 69.4177 3.28291 69.313 3.42656C69.038 3.78882 68.6714 4.32467 68.2437 4.93599C67.373 6.24165 66.2197 8.03033 64.822 9.93977C62.0265 13.7134 58.284 18.1058 53.9305 20.1586C51.3328 21.9915 48.8931 24.0337 46.6364 26.2643C44.7651 28.2567 43.6347 30.2115 43.6347 32.2492V32.702C43.7058 33.1885 43.8182 33.6682 43.9708 34.136C44.6643 34.5191 45.1854 35.1474 45.4296 35.8945C45.7375 36.752 45.89 37.6564 45.8802 38.5662C45.8852 39.1884 45.816 39.809 45.674 40.4152C45.5735 40.8976 45.3647 41.3515 45.063 41.7435V41.7888L45.3456 42.3926H45.0172C44.6755 42.378 44.3357 42.3351 44.0013 42.2643C43.2153 42.0879 42.4591 41.8007 41.7558 41.4115C42.2342 41.8306 42.7626 42.1905 43.3292 42.4832C43.6398 42.6492 43.9733 42.8077 44.3298 42.9586L44.2305 43.3209C43.7734 43.2672 43.3195 43.1891 42.8709 43.0869C42.3821 42.976 41.9022 42.8297 41.435 42.6492C41.6666 42.9019 41.9224 43.132 42.1988 43.336C42.5194 43.5698 42.8592 43.7768 43.2146 43.9549L43.0924 44.3096C42.5888 44.2143 42.0934 44.0805 41.6107 43.9096C41.1957 43.7635 40.7944 43.5817 40.4116 43.3662C40.6026 43.6359 40.8173 43.8884 41.0531 44.1209C41.2365 44.302 41.4274 44.4832 41.6336 44.6643L41.4885 44.9964C41.122 44.9633 40.7635 44.8716 40.4268 44.7247C40.1375 44.598 39.8612 44.4438 39.602 44.2643L39.9991 44.936L40.6636 46.0681L40.4345 46.3398C39.9518 46.1658 39.4886 45.9432 39.052 45.6756C38.7884 45.5127 38.5334 45.3363 38.2883 45.1473L38.5556 46.0379L38.8611 47.102L38.4563 46.9058C38.22 46.8219 37.9923 46.7157 37.7765 46.5888C37.4211 46.3804 37.095 46.1266 36.8065 45.8341V46.0379C36.8072 46.423 36.6782 46.7973 36.4399 47.102L36.5698 47.3888C37.3144 49.0162 38.1692 50.5921 39.1284 52.1058L39.1972 51.9624L39.3957 52.2266C40.0755 53.1398 40.6789 54.053 41.3587 54.8001C41.7607 55.2879 42.2375 55.7107 42.7717 56.053C43.0125 56.1848 43.2691 56.2862 43.5354 56.3549C43.6872 55.9886 43.8148 55.6129 43.9173 55.2303L44.2916 55.3058C44.2309 55.6406 44.1388 55.969 44.0166 56.2869C43.9922 56.3464 43.9642 56.4044 43.9326 56.4605L43.8715 56.7398L43.6576 57.1398V57.1926C42.6844 59.0157 41.3914 60.6537 39.8387 62.0303H42.0079L41.8551 63.5398L43.4743 62.5964V63.7888L44.2839 62.4756L44.6964 63.585L45.5289 62.0303L45.9337 62.785L46.3996 61.4115H46.7662L46.9648 61.9322L47.6675 60.1586H48.0341L48.141 60.6643L48.9048 59.1549L49.2638 59.1926C49.3561 59.642 49.4838 60.0836 49.6457 60.5134C49.8901 61.0718 50.2185 61.736 50.6004 62.4303C51.3152 63.8086 52.2003 65.0939 53.2354 66.2567C53.6349 66.7998 54.2266 67.1743 54.8928 67.3058C55.0478 67.3077 55.1996 67.2629 55.3282 67.1775L53.3729 61.8945L53.7166 61.7209C54.194 62.5376 54.5929 63.3967 54.9081 64.2869C55.1975 65.1663 55.6226 65.9962 56.1683 66.7473C56.2949 66.9211 56.4595 67.0643 56.65 67.1662C56.8405 67.2682 57.0518 67.3262 57.2682 67.336C57.4273 67.33 57.5845 67.2994 57.7341 67.2454L55.7559 62.2266L56.1072 62.0605C56.5579 62.8681 56.955 63.8039 57.3904 64.6643C57.7268 65.4432 58.2088 66.1524 58.811 66.7549C59.1442 67.0592 59.5794 67.2312 60.0331 67.2379C60.2943 67.2356 60.553 67.187 60.7968 67.0945L57.7417 62.4832L58.0396 62.2417C58.5884 62.8989 59.0985 63.5868 59.5672 64.302C60.1395 65.1674 60.8339 65.9476 61.6294 66.619C62.0571 66.9814 62.5942 67.1937 63.1569 67.2228C63.5098 67.2281 63.8569 67.1338 64.1575 66.9511L59.7123 62.4228L59.9491 62.1209C60.8849 62.7294 61.735 63.4577 62.4772 64.2869C63.1999 65.0933 64.0208 65.8081 64.9213 66.4152C65.4882 66.7639 66.1401 66.9543 66.8078 66.9662C67.3361 66.9522 67.856 66.8315 68.3354 66.6115L62.3702 61.8869L62.5994 61.5775C63.7603 62.3322 65.1428 63.336 66.6321 64.1511C68.0418 65.0085 69.646 65.504 71.2988 65.5926C72.3635 65.5994 73.4061 65.2919 74.2928 64.7096L67.0446 62.7398C66.1815 62.5435 65.349 62.3171 64.5852 62.0756L64.6921 61.7058L67.1362 62.3624C68.9052 62.7859 70.7163 63.0137 72.5361 63.0417C73.9053 63.0759 75.2686 62.8531 76.5536 62.3851C77.5682 62.0129 78.4283 61.3171 78.9977 60.4077C76.9279 60.4832 74.5602 60.6794 72.0855 60.6794" fill="#ED3A3A"/>
<path d="M36.0046 58.7244V58.9282L35.9435 59.4339L36.7072 59.0263L36.9975 59.2603L36.776 60.015L37.5398 59.5245L37.7918 59.7584L37.5474 60.2112L38.1202 59.7961L38.4334 60.0075L38.189 60.8527L39.2888 60.015L39.602 60.2565L38.9986 61.5395C39.2628 61.4108 39.518 61.2645 39.7624 61.1018C40.1901 60.8301 40.5872 60.5282 40.8469 60.3471C41.8264 59.244 42.6746 58.0336 43.375 56.7395C42.4789 56.3906 41.6857 55.8249 41.0684 55.0943C40.4315 54.3459 39.835 53.565 39.2812 52.7546L38.8458 53.5848H39.3881L39.5256 53.9471L38.8687 54.4452H39.1437L39.2735 54.815L38.2806 55.449L38.7007 55.5244V55.9094L37.8071 56.2565L38.1813 56.2943V56.6867L37.2724 56.9433L37.6238 56.9886V57.3584L36.6843 57.4641L36.8371 57.5169L36.776 57.9094H35.9893V58.2716L35.0269 58.4603C35.2721 58.6087 35.5498 58.6967 35.8365 58.7169L36.0046 58.7244Z" fill="#ED3A3A"/>
<path d="M35.5998 64.1508C35.5056 63.8869 35.3827 63.6338 35.2332 63.3961C34.9811 62.9659 34.668 62.5584 34.4694 62.2565L34.3701 62.181L36.9364 60.6716L37.3183 59.9546L36.4246 60.5131L36.2719 60.3999L36.585 59.3584L35.8213 59.7584C34.9495 60.5103 33.8979 61.0298 32.7661 61.2678L29.0236 60.3773C28.863 60.3264 28.6958 60.2984 28.5272 60.2942C28.4323 60.2986 28.3402 60.3272 28.2598 60.3773C28.2331 60.3959 28.2114 60.4209 28.1967 60.4498C28.182 60.4788 28.1749 60.5109 28.1758 60.5433C28.1758 60.7018 28.3744 60.9584 28.8098 61.0037L31.7045 61.4942V61.6905L28.6494 61.5546H28.4126C28.3399 61.5451 28.2659 61.5498 28.1951 61.5686C28.1242 61.5873 28.0577 61.6197 27.9996 61.6639C27.9414 61.7081 27.8926 61.7631 27.856 61.826C27.8194 61.8888 27.7957 61.9582 27.7863 62.0301C27.7863 62.0839 27.7987 62.137 27.8225 62.1854C27.8463 62.2338 27.8809 62.2761 27.9238 62.3093C28.0581 62.4073 28.2231 62.4554 28.3897 62.4452L32.621 62.2791V62.4754C31.8572 62.5659 31.0935 62.6263 30.4443 62.6942C30.0089 62.7115 29.5811 62.8114 29.184 62.9886C29.0734 63.0286 28.9721 63.0902 28.8861 63.1697C28.8452 63.2069 28.8206 63.2583 28.8174 63.3131C28.8273 63.3656 28.8498 63.4149 28.883 63.4569C28.9162 63.499 28.9592 63.5325 29.0083 63.5546C29.1546 63.6384 29.3205 63.6826 29.4895 63.6829H29.5735C31.0396 63.5625 32.4872 63.279 33.8889 62.8376C34.1535 62.9391 34.3784 63.1216 34.5305 63.3584C34.6503 63.5496 34.7452 63.755 34.8131 63.9697L35.5998 64.1508Z" fill="#ED3A3A"/>
<path d="M41.5267 63.4645L41.6107 62.2947H40.5338C39.5844 63.2852 38.4268 64.058 37.1426 64.5588L33.3695 64.023C33.239 63.9948 33.1059 63.9796 32.9724 63.9777C32.8338 63.9684 32.6956 64 32.5752 64.0683C32.5317 64.0849 32.4952 64.1155 32.4716 64.1553C32.448 64.195 32.4388 64.2415 32.4453 64.2871C32.4506 64.3421 32.4684 64.3951 32.4975 64.4422C32.5267 64.4893 32.5663 64.5292 32.6134 64.5588C32.7633 64.6626 32.9421 64.718 33.1251 64.7173L36.0504 64.9513V65.1475L32.9953 65.2758H32.8425C32.3919 65.2758 32.1857 65.5475 32.178 65.7815C32.1778 65.8327 32.1886 65.8834 32.2096 65.9303C32.2307 65.9771 32.2616 66.019 32.3002 66.0532C32.4193 66.146 32.569 66.1917 32.7203 66.1815H32.8425L37.028 65.6607V65.8569C36.2642 66.0154 35.5005 66.1437 34.8742 66.272C34.4421 66.3261 34.0246 66.4619 33.6445 66.672C33.5435 66.72 33.4528 66.7866 33.3772 66.8683C33.3375 66.9063 33.3131 66.9572 33.3084 67.0117C33.3147 67.0585 33.3336 67.1028 33.3632 67.14C33.3928 67.1772 33.4319 67.2058 33.4765 67.223C33.6296 67.3003 33.8014 67.3343 33.9729 67.3211H34.1409C35.5882 67.0748 37.0026 66.6672 38.357 66.106C38.6111 66.201 38.8398 66.3526 39.0252 66.5489C39.2106 66.7452 39.3478 66.981 39.4263 67.2381C39.5389 67.6363 39.7673 67.9932 40.0831 68.2645C40.2214 68.1227 40.2982 67.9331 40.297 67.7362C40.2414 67.2804 40.053 66.8504 39.7547 66.4985C39.4492 66.0758 39.0826 65.6758 38.8382 65.3739L38.7694 65.2909L41.5267 63.4645Z" fill="#ED3A3A"/>
<path d="M33.2626 37.653C32.7432 37.638 32.2255 37.7173 31.735 37.887C31.3049 38.0373 30.937 38.3239 30.6887 38.7021C30.429 38.913 30.2576 39.2114 30.2075 39.5398C30.3863 39.7341 30.6254 39.8642 30.8872 39.9096H31.124C31.2462 39.917 31.3686 39.9 31.484 39.8598C31.5995 39.8197 31.7056 39.757 31.7961 39.6757C31.8954 39.6002 31.9565 39.4568 32.1704 39.3813C32.4487 39.2901 32.7402 39.2442 33.0335 39.2455C33.2014 39.236 33.3697 39.236 33.5376 39.2455V39.3738C33.3722 39.3644 33.2065 39.3644 33.0411 39.3738C32.7588 39.3695 32.4777 39.4102 32.2086 39.4945H32.1475C32.2458 39.4922 32.3414 39.5266 32.4151 39.591C32.4887 39.6554 32.535 39.745 32.5446 39.8417C32.5412 39.9133 32.5138 39.9818 32.4668 40.0364C32.4199 40.091 32.3559 40.1287 32.285 40.1436C32.1097 40.1993 31.9267 40.2273 31.7427 40.2266C31.4591 40.2281 31.1782 40.1716 30.9178 40.0606V40.0002C30.6636 39.9585 30.4287 39.8398 30.2457 39.6606C30.3832 40.0078 30.7421 40.4153 30.9102 40.8078C30.9711 40.9854 31.0046 41.1712 31.0094 41.3587C31.0172 41.5046 31.0428 41.6491 31.0858 41.7889C31.505 42.0133 31.9764 42.1252 32.453 42.1134C32.6869 42.1318 32.9218 42.1318 33.1557 42.1134H33.2091L33.255 42.1738C33.9424 43.1549 34.8895 43.6832 35.3935 44.8681C35.6303 45.4115 35.9129 46.0681 36.2337 46.7851C36.3793 46.5601 36.4538 46.2974 36.4476 46.0304C36.4525 45.955 36.4525 45.8794 36.4476 45.804C36.416 45.5814 36.357 45.3634 36.2719 45.1549L36.501 45.0342H36.5621C36.9355 45.5617 37.4136 46.0085 37.9675 46.3474L38.2424 46.4908L38.189 46.1738L37.8071 44.7172L38.0209 44.5813H38.0821C38.4549 44.9019 38.8533 45.1922 39.2735 45.4493C39.5198 45.5999 39.7748 45.7359 40.0373 45.8568L39.6631 45.2228L38.7618 43.7134L38.9528 43.5474L39.0062 43.5021C39.4584 43.9205 39.9737 44.2668 40.5338 44.5285C40.6331 44.5738 40.7324 44.5964 40.8317 44.6342L40.7247 44.5285C40.2742 44.0989 39.9135 43.586 39.6631 43.0191L39.8617 42.8681H39.9151C40.4453 43.2519 41.0294 43.557 41.6489 43.7738L41.8017 43.8191C41.3021 43.4553 40.8705 43.0084 40.5261 42.4983L40.6942 42.3096V42.2644C41.3468 42.5945 42.0364 42.8478 42.7487 43.0191C41.8398 42.5584 41.0545 41.891 40.4574 41.0719L40.6407 40.8908L40.6865 40.8455C41.6429 41.4925 42.7086 41.9654 43.8333 42.2417C44.0277 42.2816 44.224 42.3119 44.4214 42.3323L44.2916 42.053L43.9784 41.7511C43.2852 41.6083 42.6198 41.356 42.0079 41.004C40.2705 39.961 38.458 39.0453 36.585 38.2644C35.5158 37.8819 34.3916 37.6704 33.255 37.6379" fill="#F1FAFF"/>
<path d="M39.3194 62.4377H40.1901C39.311 63.2844 38.2733 63.9534 37.135 64.4075L35.8365 64.2264C35.7407 63.9029 35.602 63.5933 35.4241 63.3056C35.1873 62.9056 34.9124 62.5509 34.7138 62.2415L36.9517 60.9509L37.1044 61.0792L37.9293 60.4906L37.7078 61.3736L38.0286 61.5773L38.9528 60.8755L38.3265 62.2189L38.7313 62.1207C39.0531 62.0308 39.3613 61.8988 39.6478 61.7283L39.2201 62.1358L39.3194 62.4377ZM31.7274 39.9245C31.7181 39.9719 31.7181 40.0206 31.7274 40.0679C31.7421 40.0993 31.7628 40.1275 31.7885 40.1509H31.7121C31.5278 40.1476 31.345 40.1171 31.1698 40.0604C31.3645 40.064 31.5567 40.0171 31.7274 39.9245ZM31.8572 39.766H31.9031C31.9031 39.766 31.9718 39.766 32.0024 39.8566V39.9622C32.0034 39.9914 31.9985 40.0204 31.988 40.0476C31.9775 40.0748 31.9616 40.0997 31.9413 40.1207H31.8954C31.8954 40.1207 31.8267 40.1207 31.7961 40.0302V39.9245C31.7951 39.8954 31.8 39.8664 31.8105 39.8392C31.821 39.812 31.8369 39.7871 31.8572 39.766ZM32.094 39.6075C32.176 39.5968 32.259 39.6185 32.3248 39.668C32.3906 39.7175 32.434 39.7907 32.4454 39.8717C32.4454 39.9623 32.3919 40.0453 32.2391 40.0981H32.0787C32.1125 40.0463 32.131 39.9862 32.1322 39.9245C32.1417 39.8772 32.1417 39.8285 32.1322 39.7811C32.1102 39.7284 32.0694 39.6855 32.0176 39.6604L32.094 39.6075ZM27.6641 42.1207V42.2189C27.6222 42.0816 27.5991 41.9395 27.5954 41.7962C27.609 41.4554 27.711 41.1237 27.8915 40.833C28.0721 40.5423 28.3251 40.3022 28.6265 40.1358C29.0439 39.9304 29.5043 39.8244 29.9707 39.8264C30.3235 40.2749 30.5831 40.7879 30.7345 41.3358L27.962 41.8566L27.7099 42.0755L27.6641 42.1207ZM28.0154 42.1207L28.0613 42.0755L30.7116 41.5849V41.7132C30.7624 41.831 30.8349 41.9385 30.9254 42.0302L28.0154 42.1207ZM42.0079 41.0264C42.6586 41.344 43.358 41.5531 44.0777 41.6453L44.5589 41.7056L44.6887 41.9849C44.4913 41.9645 44.295 41.9343 44.1006 41.8943C42.9758 41.6181 41.9101 41.1453 40.9539 40.4981L40.908 40.5434L40.7247 40.7245C41.3216 41.5438 42.1069 42.2112 43.0161 42.6717C42.2893 42.5335 41.5817 42.3105 40.908 42.0075V42.0528L40.74 42.2415C41.0844 42.7516 41.516 43.1985 42.0155 43.5623L41.8628 43.517C41.2437 43.3024 40.6597 42.9999 40.129 42.6189H40.0755L39.8769 42.7698C40.1272 43.3369 40.4879 43.8497 40.9386 44.2792L41.0379 44.3698L40.74 44.2641C40.1798 44.0027 39.6644 43.6564 39.2124 43.2377L39.159 43.283L38.9604 43.449L39.8617 44.9585L40.2359 45.5924C39.9734 45.4716 39.7184 45.3355 39.4721 45.1849C39.023 44.9561 38.5939 44.6911 38.189 44.3924H38.1279L37.7995 44.6641L38.1813 46.1736L38.2577 46.4377L37.9828 46.2943C37.4289 45.9554 36.9507 45.5086 36.5774 44.9811H36.5087L36.2795 45.1019C36.3642 45.3105 36.4231 45.5284 36.4552 45.7509C36.4598 45.8263 36.4598 45.9019 36.4552 45.9773C36.4614 46.2443 36.387 46.5071 36.2413 46.7321C35.9206 45.9773 35.6303 45.3585 35.4012 44.8151C34.8971 43.6453 33.95 43.1094 33.2626 42.1207H33.1328C32.8883 42.1207 32.6592 42.1207 32.4301 42.1207C31.9535 42.1325 31.4821 42.0206 31.0629 41.7962C31.0195 41.6565 30.9938 41.512 30.9865 41.366C30.9815 41.1785 30.948 40.9928 30.8872 40.8151C30.7192 40.4 30.3602 40.0151 30.2228 39.6679C30.4038 39.8458 30.6357 39.9643 30.8872 40.0075V40.0604C31.1524 40.1849 31.4415 40.2518 31.735 40.2566C31.9191 40.2572 32.1021 40.2291 32.2773 40.1736C32.3483 40.1587 32.4122 40.1209 32.4592 40.0663C32.5062 40.0117 32.5335 39.9433 32.537 39.8717C32.5274 39.775 32.4811 39.6854 32.4074 39.621C32.3338 39.5566 32.2382 39.5221 32.1398 39.5245H32.2009C32.4646 39.423 32.7432 39.3644 33.0258 39.3509C33.1912 39.3415 33.3569 39.3415 33.5223 39.3509V39.2679C33.3544 39.2586 33.1861 39.2586 33.0182 39.2679C32.7254 39.2642 32.4339 39.3075 32.1551 39.3962C31.9336 39.4717 31.8725 39.6151 31.7809 39.6906C31.6903 39.7719 31.5842 39.8345 31.4688 39.8747C31.3533 39.9149 31.2309 39.9318 31.1087 39.9245H30.872C30.6102 39.8791 30.371 39.749 30.1922 39.5547C30.2423 39.2263 30.4137 38.9278 30.6734 38.717C30.9191 38.3108 31.2997 38.0014 31.7503 37.8415C32.2407 37.6718 32.7585 37.5925 33.2779 37.6075C34.4145 37.64 35.5387 37.8515 36.608 38.2339C38.4549 39.0209 40.2417 39.939 41.9544 40.9811L42.0079 41.0264ZM26.885 40.7019H27.3815V40.3019C26.5953 40.2554 25.8217 40.0847 25.0902 39.7962C23.6333 39.2665 22.2757 38.5014 21.0727 37.5321C20.0742 36.7795 19.3137 35.761 18.8806 34.5962L19.5757 34.9434C20.4746 35.3538 21.3949 35.7166 22.3329 36.0302C23.1374 36.3327 23.9805 36.5233 24.8381 36.5962C24.9573 36.6116 25.0779 36.6116 25.1971 36.5962V36.2113C23.2222 35.6124 21.3272 34.7812 19.5528 33.7358C18.6817 33.2015 17.92 32.5103 17.3072 31.6981C16.8638 31.1069 16.5728 30.4179 16.4594 29.6906C17.1996 30.522 18.1517 31.1422 19.2167 31.4868C20.2989 31.899 21.4362 32.1532 22.5926 32.2415L22.669 31.849C20.7409 31.0158 18.9813 29.8448 17.4753 28.3924C15.7262 26.7472 14.3438 24.7547 14.3514 22.966C14.3441 22.8353 14.3441 22.7043 14.3514 22.5736C14.5404 22.9059 14.7686 23.215 15.0312 23.4943C16.1568 24.7434 17.4403 25.8442 18.8501 26.7698C19.5451 27.2377 20.202 27.6377 20.7213 27.9245C20.981 28.0679 21.2102 28.1811 21.4011 28.2641L21.6531 28.3623C21.7241 28.3722 21.7961 28.3722 21.867 28.3623C21.9122 28.3726 21.9593 28.3726 22.0045 28.3623L22.2413 28.249L22.1496 28.0604C20.9963 26.6792 18.9876 25.117 17.2767 23.3736C16.4365 22.5494 15.6981 21.6298 15.077 20.6339C14.5101 19.7591 14.1885 18.7511 14.1452 17.7132C14.1642 16.8154 14.428 15.9393 14.909 15.1773C14.9515 15.8411 15.0746 16.4974 15.2756 17.1321C15.8019 18.5785 16.6807 19.8745 17.8343 20.9056C19.652 22.6264 20.8894 23.8339 21.699 24.6113L22.5697 25.4641L22.7835 25.6679L22.8446 25.7207C22.8772 25.729 22.9114 25.729 22.9439 25.7207C22.9728 25.7206 23.0013 25.7145 23.0276 25.7028C23.0539 25.6911 23.0775 25.6741 23.0967 25.6528C23.127 25.6168 23.1432 25.5713 23.1425 25.5245C23.1471 25.4996 23.1471 25.474 23.1425 25.449C23.1447 25.429 23.1447 25.4087 23.1425 25.3887L22.9745 25.1849C21.1982 23.1357 19.5577 20.9752 18.0634 18.717C16.0088 15.6226 14.1146 11.8189 14.1146 8.66414C14.0779 7.38993 14.4701 6.13971 15.2298 5.10942C16.406 8.30187 19.1632 14.3396 21.9816 17.4943C24.3951 20.1811 27.6717 22.9358 30.3373 25.3509C31.5233 26.3909 32.6455 27.4998 33.698 28.6717C34.3818 29.3184 34.8438 30.1602 35.0193 31.0792C35.022 31.1973 35.0012 31.3147 34.9579 31.4248C34.9147 31.5349 34.8499 31.6354 34.7672 31.7207C34.3867 32.2092 34.2018 32.8192 34.2479 33.4339C34.3022 34.8363 34.7091 36.2032 35.4317 37.4113C35.4928 37.517 35.5616 37.6151 35.6303 37.7207C34.8578 37.5146 34.0626 37.4031 33.2626 37.3887C32.7166 37.3773 32.1731 37.4642 31.6587 37.6453C31.1827 37.815 30.7753 38.1328 30.4977 38.5509C30.338 38.6796 30.2062 38.8389 30.1104 39.0191C30.0146 39.1994 29.9567 39.397 29.9402 39.6V39.6679C29.4518 39.6677 28.9703 39.7815 28.5348 40C28.2078 40.1775 27.9326 40.4354 27.7359 40.7488C27.5392 41.0621 27.4277 41.4203 27.412 41.7887C27.4171 41.9713 27.4506 42.152 27.5113 42.3245C27.2578 42.354 27.0028 42.3691 26.7476 42.3698C25.5969 42.3793 24.465 42.082 23.4709 41.5094C23.0668 41.2946 22.7207 40.9871 22.4616 40.6129C22.2025 40.2387 22.0379 39.8085 21.9816 39.3585C23.486 40.1578 25.1553 40.607 26.8621 40.6717L26.885 40.7019ZM34.4159 49.8113C33.9338 49.634 33.4847 49.3789 33.0869 49.0566C33.3335 48.9706 33.5734 48.8672 33.8049 48.7472C33.9783 48.6568 34.1377 48.5424 34.2784 48.4075C34.4256 48.2714 34.5292 48.0956 34.5763 47.9019L34.6527 47.5396L34.3013 47.6679C33.6345 47.9269 32.9251 48.0625 32.2086 48.0679C31.1055 48.0713 30.0319 47.7159 29.1535 47.0566C29.5201 47.0113 30.0165 46.9887 30.4977 46.9509C30.8332 46.9429 31.1677 46.9101 31.4983 46.8528C31.7429 46.8236 31.9821 46.7601 32.2086 46.6641H32.2544L32.0787 46.3094C31.6005 46.4188 31.1108 46.472 30.6199 46.4679C29.846 46.4756 29.0748 46.3765 28.3286 46.1736C27.8831 46.0414 27.4662 45.8291 27.0989 45.5472C27.5572 45.4943 28.3209 45.3887 29.0847 45.2453C29.5201 45.1698 29.9554 45.0792 30.3297 44.9811C30.6415 44.9104 30.944 44.804 31.2309 44.6641L31.0706 44.3019C30.4075 44.5163 29.7137 44.6234 29.016 44.6189C27.4525 44.6237 25.9261 44.149 24.6472 43.2604H24.8076C25.3466 43.2643 25.8853 43.229 26.4191 43.1547C26.9151 43.112 27.3914 42.943 27.8016 42.6641L27.7405 42.5283L27.7939 42.2717L31.1317 42.1736C31.5473 42.3437 31.9959 42.421 32.4454 42.4H33.0946C33.8583 43.3962 34.7061 43.9094 35.1568 44.9887C35.4012 45.5698 35.7067 46.2717 36.058 47.0415V47.0792L36.1115 47.2L36.2795 47.5623C36.6691 48.4075 37.1197 49.3056 37.6085 50.1962C37.3564 50.2421 37.101 50.2673 36.8447 50.2717C36.0164 50.2691 35.1956 50.1156 34.4235 49.8189L34.4159 49.8113ZM36.2643 51.5698L36.4705 51.4641C36.8447 51.2755 37.3641 51.0264 37.8529 50.7698H37.8987C38.2348 51.366 38.5938 51.9547 38.968 52.5207L38.5632 52.4453C37.765 52.2498 36.9932 51.961 36.2643 51.5849V51.5698ZM35.9511 58.2339V57.8717H36.8065L36.8676 57.4792L36.7149 57.4264L37.6925 57.3585V56.9585L37.3412 56.9132L38.2501 56.6038V56.2113L37.8758 56.1736L38.7618 55.849V55.4641L38.3417 55.3887L39.3346 54.7547L39.2048 54.3849H38.9298L39.5867 53.8868L39.4492 53.5245H38.9069L39.3423 52.6717C39.8998 53.4943 40.4803 54.3396 41.0913 55.0189C41.6952 55.7751 42.4837 56.3672 43.3827 56.7396C42.6885 58.0273 41.848 59.2325 40.8775 60.3321C40.5304 60.6033 40.1683 60.8552 39.7929 61.0868C39.5485 61.2495 39.2934 61.3957 39.0291 61.5245L39.6325 60.2415L39.2965 60.0151L38.189 60.8755L38.4028 60.0302L38.0897 59.8189L37.5168 60.2339L37.7613 59.7585L37.471 59.4943L36.7072 59.9849L36.9287 59.2302L36.6538 59.0038L35.89 59.4113L35.9511 58.9056V58.7019H35.7449C35.4581 58.6819 35.1803 58.5939 34.9353 58.4453L35.9511 58.2339ZM33.9118 62.9132C32.5102 63.3547 31.0625 63.6382 29.5965 63.7585H29.5124C29.3434 63.7582 29.1775 63.7139 29.0313 63.6302C28.9821 63.608 28.9391 63.5745 28.9059 63.5325C28.8727 63.4904 28.8502 63.4411 28.8403 63.3887C28.8435 63.3339 28.8682 63.2824 28.9091 63.2453C28.9949 63.1656 29.0963 63.104 29.2069 63.0641C29.5894 62.8902 30.0011 62.7879 30.4213 62.7622C31.04 62.6868 31.8038 62.6339 32.5981 62.5434V62.3472L28.3668 62.5132C28.2001 62.5234 28.0352 62.4753 27.9009 62.3773C27.858 62.3441 27.8234 62.3018 27.7996 62.2534C27.7757 62.205 27.7634 62.1519 27.7634 62.0981C27.7788 61.9531 27.8518 61.82 27.9663 61.728C28.0808 61.6361 28.2276 61.5927 28.3744 61.6075H28.6035L31.6587 61.7434V61.5472L28.7639 61.0566C28.3362 61.0038 28.13 60.7547 28.13 60.5962C28.129 60.5638 28.1362 60.5317 28.1509 60.5028C28.1655 60.4738 28.1872 60.4488 28.214 60.4302C28.3119 60.369 28.4268 60.34 28.5424 60.3472C28.7111 60.3513 28.8783 60.3793 29.0389 60.4302L32.7432 61.2905C33.8749 61.0522 34.9264 60.5327 35.7983 59.7811L36.5621 59.3811L36.249 60.4226L36.4017 60.5358L37.2877 59.9547L36.9058 60.6717L34.3395 62.1811L34.4006 62.2717C34.6069 62.5811 34.9124 62.9887 35.1644 63.4113C35.3141 63.6489 35.437 63.902 35.531 64.166L34.7672 64.0528C34.6996 63.838 34.6047 63.6326 34.4846 63.4415C34.3494 63.2181 34.15 63.0395 33.9118 62.9283V62.9132ZM38.8687 65.2453L38.9375 65.3283C39.1819 65.6302 39.5485 66.0302 39.854 66.4528C40.1519 66.805 40.3403 67.2349 40.3963 67.6906C40.3975 67.8875 40.3208 68.0771 40.1824 68.2188C39.8628 67.9415 39.6341 67.5762 39.5256 67.1698C39.4477 66.9125 39.3106 66.6764 39.1251 66.48C38.9396 66.2836 38.7107 66.1323 38.4563 66.0377C37.0805 66.6089 35.6428 67.0217 34.1715 67.2679H33.9729C33.816 67.2714 33.6609 67.235 33.5223 67.1622C33.4077 67.0943 33.3466 67.0113 33.3542 66.9509C33.3589 66.8965 33.3833 66.8456 33.423 66.8075C33.4986 66.7259 33.5894 66.6593 33.6903 66.6113C34.0682 66.4023 34.4829 66.2665 34.9124 66.2113C35.5234 66.083 36.2795 65.9622 37.0662 65.7962V65.6604L32.8425 66.1736H32.7432C32.5919 66.1838 32.4422 66.1381 32.3231 66.0453C32.2845 66.0111 32.2536 65.9692 32.2325 65.9224C32.2115 65.8755 32.2007 65.8248 32.2009 65.7736C32.2009 65.5396 32.4072 65.2679 32.8654 65.2679H33.0029L36.058 65.1396V64.9056L33.1328 64.6717C32.9497 64.6724 32.7709 64.617 32.621 64.5132C32.5677 64.4887 32.5212 64.4519 32.4853 64.406C32.4494 64.36 32.4252 64.3062 32.4148 64.249C32.4149 64.2141 32.4241 64.1798 32.4415 64.1494C32.4589 64.119 32.4839 64.0936 32.5141 64.0755C32.6345 64.0072 32.7727 63.9756 32.9113 63.9849C33.0449 63.9865 33.178 64.0017 33.3084 64.0302L37.0815 64.566C38.3658 64.0654 39.5234 63.2925 40.4727 62.3019H41.5496L41.435 63.4717L38.8687 65.2453ZM76.5613 62.3396C75.2762 62.8077 73.9129 63.0305 72.5438 62.9962C70.7239 62.9682 68.9128 62.7404 67.1439 62.317L64.6998 61.6604L64.5928 62.0302C65.3566 62.2717 66.1891 62.4905 67.0522 62.6943L74.3234 64.649C73.4366 65.2314 72.3941 65.5389 71.3294 65.5321C69.6765 65.4434 68.0723 64.9479 66.6627 64.0905C65.1351 63.2679 63.7832 62.2641 62.6299 61.517L62.4008 61.8264L68.4041 66.6038C67.9247 66.8238 67.4049 66.9445 66.8765 66.9585C66.2095 66.9492 65.5576 66.7614 64.99 66.4151C64.0515 65.8129 63.1942 65.0952 62.439 64.2792C61.6851 63.4474 60.822 62.719 59.8727 62.1132L59.6359 62.4151L64.0811 66.9434C63.7982 67.1154 63.4738 67.2092 63.1417 67.2151C62.579 67.186 62.0418 66.9737 61.6141 66.6113C60.8262 65.936 60.1395 65.1533 59.5748 64.2868C59.1061 63.5716 58.5961 62.8836 58.0472 62.2264L57.7494 62.4679L60.8045 67.0792C60.5606 67.1718 60.3019 67.2203 60.0407 67.2226C59.587 67.2159 59.1519 67.0439 58.8187 66.7396C58.2026 66.1405 57.7075 65.431 57.3598 64.649C56.9245 63.7887 56.5197 62.8528 56.0767 62.0453L55.7254 62.2113L57.7417 67.2302C57.5922 67.2842 57.435 67.3147 57.2758 67.3207C57.0594 67.3109 56.8481 67.2529 56.6576 67.151C56.4672 67.049 56.3025 66.9058 56.176 66.7321C55.6448 65.9833 55.2327 65.1587 54.9539 64.2868C54.6428 63.3732 54.2438 62.4912 53.7624 61.6528L53.4187 61.8264L55.374 67.1094C55.2454 67.1948 55.0936 67.2396 54.9387 67.2377C54.2755 67.1176 53.6816 66.7569 53.2736 66.2264C52.2386 65.0635 51.3535 63.7782 50.6386 62.4C50.2643 61.7056 49.9359 61.0415 49.6839 60.483C49.4909 60.0731 49.3301 59.6492 49.2027 59.2151L48.8437 59.1773L48.0799 60.6868L47.973 60.1811H47.6064L46.9572 61.8868L46.7586 61.366H46.392L45.9032 62.7396L45.4984 61.9849L44.6658 63.5396L44.2992 62.4981L43.4896 63.8113V62.6415L41.8169 63.5547L41.9697 61.9773L39.7853 62.0453C41.338 60.6688 42.631 59.0308 43.6042 57.2075V57.1321L43.8944 56.7396L44.0013 56.5283C44.0329 56.4722 44.061 56.4142 44.0854 56.3547C44.2076 56.0368 44.2996 55.7083 44.3603 55.3736L43.9861 55.2981C43.8861 55.6599 43.7637 56.0153 43.6195 56.3622C43.3531 56.2936 43.0965 56.1922 42.8557 56.0604C42.3129 55.7297 41.8258 55.3172 41.4121 54.8377C40.74 54.083 40.1366 53.1773 39.4492 52.2641L39.2506 52L39.1819 52.1434C38.2357 50.6286 37.3937 49.0527 36.6614 47.4264L36.5316 47.1396C36.7671 46.8208 36.8857 46.4321 36.8676 46.0377C36.8713 45.9673 36.8713 45.8968 36.8676 45.8264C37.1584 46.1194 37.4872 46.3732 37.8453 46.5811C38.0611 46.7081 38.2887 46.8142 38.525 46.8981L38.9146 47.0868L38.5556 46.0377L38.3035 45.1547C38.5487 45.3438 38.8036 45.5201 39.0673 45.683C39.5015 45.9502 39.9621 46.1727 40.4421 46.3472L40.6713 46.0755L40.0068 44.9434L39.6096 44.2717C39.8689 44.4511 40.1451 44.6053 40.4345 44.7321C40.7711 44.8789 41.1297 44.9707 41.4961 45.0038L41.6413 44.6717C41.435 44.4906 41.2365 44.3094 41.0608 44.1283C40.8249 43.8958 40.6102 43.6433 40.4192 43.3736C40.8006 43.5784 41.1993 43.7501 41.6107 43.8868C42.0717 44.0467 42.544 44.1729 43.0237 44.2641L43.1459 43.9094C42.7905 43.7314 42.4507 43.5244 42.1301 43.2906C41.8537 43.0865 41.5979 42.8565 41.3663 42.6038C41.8334 42.7842 42.3134 42.9305 42.8022 43.0415C43.2508 43.1436 43.7046 43.2217 44.1617 43.2755L44.261 42.9132C43.9046 42.7623 43.5711 42.6038 43.2605 42.4377C42.6938 42.1452 42.1654 41.7853 41.6871 41.366C42.3878 41.771 43.1441 42.0735 43.9326 42.2641C44.2736 42.3464 44.6211 42.3994 44.9713 42.4226H45.2845L45.0019 41.8189V41.7736C45.3086 41.378 45.5202 40.9186 45.6206 40.4302C45.7642 39.8166 45.8334 39.1883 45.8268 38.5585C45.8422 37.647 45.6948 36.7401 45.3914 35.8792C45.1579 35.1275 44.6449 34.491 43.9555 34.0981C43.803 33.6303 43.6906 33.1506 43.6195 32.6641C43.6195 32.5132 43.6195 32.3623 43.6195 32.2113C43.6195 30.1736 44.7498 28.2113 46.6211 26.2264C48.878 23.996 51.3177 21.9538 53.9152 20.1207C58.284 18.1132 62.0265 13.7207 64.822 9.94716C66.2197 8.03018 67.373 6.24904 68.2437 4.94338C68.5655 4.41713 68.9227 3.91285 69.313 3.43395C69.4175 3.28771 69.5323 3.14899 69.6567 3.01886L69.7407 2.95093C69.9564 3.15294 70.126 3.39819 70.2379 3.67024C70.3499 3.94228 70.4017 4.23484 70.3899 4.52829C70.2617 5.86694 69.8226 7.1583 69.1068 8.30187C66.6932 12.7019 61.4232 18.4453 58.1084 22.1207L58.3451 22.4151C59.7029 21.5518 60.9406 20.5165 62.0265 19.3358C64.1874 17.0835 66.227 14.7205 68.1368 12.2566C69.7254 10.2415 70.9933 8.48301 71.5891 7.60753C71.6517 7.85429 71.6825 8.10787 71.6807 8.36225C71.6807 9.60753 70.9933 11.1773 69.9011 12.8906C67.9626 15.6447 65.7715 18.2166 63.3555 20.5736C60.9878 22.9887 58.7728 25.049 57.8028 26.2113L58.0472 26.4981C59.1732 25.7669 60.2314 24.9385 61.2093 24.0226C63.2486 22.2264 65.792 19.7887 67.9611 17.6C69.0457 16.5056 70.0462 15.4792 70.8406 14.5811C71.4058 13.9698 71.8717 13.449 72.2001 13.0717V13.2755C72.1721 14.7319 71.7445 16.1536 70.9628 17.3887C68.6027 21.3132 63.134 25.0415 57.8028 29.6604L57.9785 29.9849C59.0809 29.5678 60.1114 28.9848 61.0336 28.2566C64.4091 25.7451 67.616 23.0199 70.6343 20.0981C70.4711 21.1811 70.0611 22.2134 69.4352 23.117C68.5444 24.5189 67.4909 25.8132 66.2961 26.9736C64.2938 28.8271 62.091 30.457 59.7276 31.834C59.6283 31.9094 59.3304 32.1056 59.0478 32.2943C58.7652 32.483 58.475 32.6717 58.3528 32.7698L58.5361 33.1019C62.6299 31.6981 65.9447 28.9811 69.4352 26.6566C69.2972 27.7672 68.8797 28.8258 68.2208 29.7358C67.0292 31.2068 65.5002 32.3762 63.7603 33.1472C61.8814 34.0981 59.7887 34.8528 57.7876 35.8641L57.8869 36.2264C58.622 36.1149 59.3454 35.9381 60.0484 35.6981C63.0527 34.7438 65.9916 33.5992 68.8471 32.2717C68.531 32.7571 68.1422 33.1923 67.6938 33.5623C65.6163 35.3585 61.7134 37.0189 57.8334 38.0906L57.9174 38.4604C59.7123 38.166 64.7914 37.0717 67.1897 36.3924C66.1079 37.6504 64.697 38.5903 63.1111 39.1094C61.1558 39.8641 58.918 40.4604 57.0009 41.0566L57.0773 41.4264C59.5046 41.1756 61.913 40.7697 64.2873 40.2113C63.2994 41.3586 61.9578 42.154 60.4684 42.4755C58.7499 42.9434 56.955 43.1094 55.8017 43.3207L55.7406 43.6755C55.9467 43.7735 56.1695 43.8323 56.3975 43.849C56.7069 43.8822 57.0181 43.8974 57.3293 43.8943C58.7805 43.8943 60.8656 43.6679 62.3397 43.5773C61.1689 44.3532 59.8183 44.8232 58.4139 44.9434C56.7852 45.1478 55.1445 45.2437 53.5028 45.2302V45.6151L60.308 45.9019C60.1556 46.0453 59.9801 46.1626 59.7887 46.249C58.9771 46.5777 58.1193 46.7814 57.2453 46.8528C56.1378 46.9887 54.7783 47.0566 53.2202 47.0868V47.4641L58.1542 48.3019C57.8481 48.5376 57.5013 48.7165 57.1307 48.8302C56.0848 49.1268 55.009 49.309 53.9228 49.3736V49.7509L56.978 49.9396C56.4017 50.5097 55.6432 50.8644 54.8317 50.9434C54.562 50.9307 54.2987 50.8575 54.0619 50.7293C53.825 50.6012 53.6207 50.4215 53.4646 50.2038L53.1667 50.4528L54.9921 52.6113C57.3522 55.8641 59.4832 57.8189 62.775 59.1472C65.7527 60.2425 68.9175 60.7552 72.0932 60.6566C74.5678 60.6566 76.9355 60.4604 79.0054 60.3849C78.4422 61.2908 77.5906 61.9863 76.5842 62.3622L76.5613 62.3396ZM79.3338 59.9698C77.1723 60.0377 74.6824 60.2566 72.0855 60.2566C68.9603 60.3446 65.8475 59.832 62.9202 58.7472C59.7046 57.449 57.6501 55.5698 55.2824 52.3396L54.3047 51.2075C54.4786 51.2568 54.6585 51.2822 54.8394 51.283C55.8999 51.1683 56.8783 50.6647 57.5813 49.8717L57.8945 49.5698L55.9698 49.449C56.4136 49.3965 56.8528 49.3107 57.2835 49.1924C57.8299 49.0142 58.325 48.7088 58.727 48.3019L59.002 48.0377L55.1831 47.4189C56.2484 47.3774 57.3098 47.2665 58.3604 47.0868C58.9158 46.9963 59.4573 46.8365 59.972 46.6113C60.3462 46.4645 60.6605 46.199 60.8656 45.8566L60.9954 45.5924L57.8181 45.4038L58.4979 45.3132C60.2469 45.049 61.9272 44.5585 62.9889 43.449L62.8361 43.1396C61.3086 43.1924 58.9103 43.4868 57.3064 43.4868H57.0238C58.2128 43.3345 59.3913 43.1102 60.5524 42.8151C62.3091 42.3321 64.02 41.5396 64.8983 40.0075L65.1198 39.6226L64.6845 39.7283C63.1569 40.1056 61.026 40.483 59.2235 40.7924C60.5601 40.4 61.9578 39.9773 63.241 39.4641C65.2268 38.7094 66.9606 37.6679 67.8236 36.1585L67.5945 35.8868C66.2961 36.2868 63.5617 36.9283 61.2322 37.3962C62.626 36.8914 63.9813 36.2886 65.2879 35.5924C66.2458 35.1011 67.1472 34.509 67.9764 33.8264C68.6369 33.3085 69.161 32.6404 69.5039 31.8792L69.229 31.6453C67.2598 32.611 65.2378 33.4677 63.1722 34.2113C62.0265 34.6339 60.8809 35.0189 59.972 35.3132L59.6894 35.3962C61.753 34.5503 63.7562 33.5669 65.685 32.4528C66.7848 31.7973 67.7468 30.9389 68.5187 29.9245C69.2888 28.852 69.7458 27.591 69.84 26.2792V25.8868L69.5039 26.1056C66.3266 28.1887 63.3937 30.6339 59.9261 32.1434C62.3059 30.761 64.5241 29.1234 66.5405 27.2604C67.7561 26.0771 68.8276 24.7575 69.7331 23.3283C70.4475 22.3359 70.8944 21.1801 71.0315 19.9698C71.0405 19.8542 71.0405 19.7382 71.0315 19.6226L70.9704 19.2302L70.6954 19.5245C70.0004 20.2792 67.4799 22.6415 64.7838 24.9132C63.4395 26.0528 62.0495 27.1773 60.8274 28.0377C60.2667 28.4439 59.6855 28.8218 59.086 29.1698C62.2939 26.4604 65.4865 24.0377 67.9611 21.6226C69.2462 20.4311 70.3683 19.0788 71.2988 17.6C72.1037 16.3045 72.5392 14.8181 72.5591 13.2981C72.5594 13.0461 72.5466 12.7941 72.5209 12.5434L72.139 12.4453C71.3643 13.416 70.5383 14.3456 69.6643 15.2302C67.8389 17.1472 65.349 19.6075 63.0806 21.7283C61.9425 22.7849 60.8656 23.7585 59.9491 24.5283L59.4297 24.9585C59.9796 24.4 60.6212 23.766 61.3239 23.0717C63.767 20.7196 66.0844 18.2433 68.2666 15.6528C69.2743 14.4458 70.1715 13.1526 70.9475 11.7887C71.5831 10.744 71.955 9.56367 72.0321 8.34716C72.0377 7.92308 71.9572 7.50219 71.7953 7.10942L71.6731 6.79244L71.4745 7.10942C71.2072 7.54716 70.4816 8.57357 69.4887 9.89433C67.9764 11.849 65.9142 14.4981 63.8214 16.8604C62.4985 18.3913 61.0584 19.8194 59.5137 21.1321C61.5759 18.8679 64.0964 16.0226 66.2273 13.2453C67.4183 11.7317 68.4931 10.1322 69.4428 8.46036C70.1875 7.26883 70.6424 5.92288 70.7718 4.52829C70.7877 4.17932 70.7278 3.83103 70.5961 3.50687C70.4643 3.1827 70.2638 2.8902 70.008 2.64904C69.9882 2.61679 69.9623 2.5886 69.9317 2.56603C69.8828 2.53116 69.8239 2.51265 69.7636 2.5132C69.6899 2.51684 69.6186 2.54032 69.5574 2.58112C69.4305 2.67027 69.3174 2.77703 69.2213 2.8981C68.7631 3.4264 68.068 4.5132 67.1362 5.91697C64.3561 10.0981 59.5748 17.1019 53.7472 19.8189C51.127 21.6696 48.6668 23.732 46.392 25.9849C44.4978 28.0075 43.2834 30.0453 43.2834 32.2264V32.717C43.3609 33.2501 43.4862 33.7755 43.6576 34.2868V34.3622H43.734C44.0503 34.5268 44.3306 34.7516 44.5587 35.0236C44.7868 35.2956 44.9581 35.6095 45.063 35.9472C45.3452 36.7654 45.4797 37.6263 45.4602 38.4906C45.4644 39.0824 45.3977 39.6727 45.2616 40.249C45.1764 40.6465 45.0129 41.0235 44.7804 41.3585H44.3603V41.4038H44.0548C43.3633 41.3094 42.6923 41.1029 42.069 40.7924C41.1906 40.3321 40.2894 39.8038 39.3728 39.283C39.3343 39.2402 39.2907 39.2022 39.243 39.1698C39.181 39.1306 39.1102 39.1072 39.0368 39.1019C38.2742 38.6782 37.4801 38.3124 36.6614 38.0075L36.2948 37.8717C35.3271 36.5769 34.7714 35.0268 34.6985 33.4189C34.6554 32.9049 34.8019 32.3929 35.1109 31.9773C35.3368 31.732 35.4597 31.4109 35.4546 31.0792C35.4546 30.3245 34.8971 29.4189 34.034 28.4075C32.314 26.5569 30.4827 24.8103 28.5501 23.1773C26.3665 21.3039 24.286 19.3161 22.3176 17.2226C19.4917 14.0528 16.5511 7.68301 15.5124 4.66414L15.3978 4.33206L15.1687 4.59621C14.2022 5.74372 13.6966 7.20232 13.748 8.69433C13.748 12.2943 16.0394 16.5132 18.3307 19.8717C19.1403 21.0566 19.9423 22.1358 20.622 23.0339C19.9499 22.3849 19.0945 21.6 18.1245 20.649C17.0184 19.6544 16.1787 18.4047 15.6804 17.0113C15.4305 16.213 15.2867 15.3859 15.2527 14.5509L14.9166 14.4755C14.1901 15.4139 13.7812 16.5547 13.748 17.7358C13.7764 18.8561 14.1088 19.9482 14.7104 20.8981C15.7172 22.4248 16.9358 23.8043 18.3307 24.9962C19.4306 26.0151 20.5151 26.9509 21.3324 27.8038C21.1491 27.7132 20.9352 27.6 20.6984 27.4641C18.7131 26.354 16.9103 24.9518 15.352 23.3056C14.9426 22.8948 14.6752 22.3664 14.5882 21.7962C14.5853 21.7585 14.5853 21.7207 14.5882 21.683C14.6433 21.5483 14.7071 21.4172 14.7791 21.2906L14.4507 21.0566C14.3213 21.202 14.2342 21.3794 14.1987 21.5698C14.0259 22.0049 13.9377 22.4684 13.939 22.9358C13.939 24.9283 15.4054 26.966 17.185 28.649C18.4243 29.8279 19.8132 30.8427 21.3171 31.6679C20.655 31.5252 20.0061 31.3283 19.3771 31.0792C18.0863 30.6038 16.8719 29.849 16.4136 28.8151L16.0241 28.8906V29.0415C16.0246 30.083 16.3648 31.0966 16.9941 31.9321C18.0165 33.1855 19.3253 34.1814 20.813 34.8377C21.4974 35.1786 22.1983 35.4859 22.9134 35.7585C22.1496 35.5245 21.2789 35.2075 20.5304 34.8981C20.0874 34.717 19.6826 34.5283 19.3542 34.3698C19.1098 34.2576 18.8748 34.1264 18.6515 33.9773L18.3307 34.1736C18.6286 35.9924 20.2478 37.5924 22.0885 38.7623C22.6518 39.1178 23.2387 39.4355 23.8452 39.7132C23.2113 39.4717 22.562 39.1849 21.8441 38.8679L21.5691 38.7472V39.1321C21.5824 39.6959 21.7462 40.2462 22.044 40.7273C22.3417 41.2084 22.7629 41.6032 23.2647 41.8717C24.1948 42.4092 25.2434 42.7148 26.3198 42.7622C25.8135 42.8283 25.303 42.8585 24.7923 42.8528H24.0285L23.8681 43.1924C25.0714 44.2435 26.5896 44.8769 28.1911 44.9962L27.8703 45.049L27.1065 45.1396L26.6865 45.1849H26.3046L26.5261 45.4943C26.9822 46.0045 27.5884 46.3607 28.2598 46.5132C28.5111 46.5866 28.766 46.6471 29.0236 46.6943L28.6723 46.7622L28.3133 46.8528L28.5806 47.1019C29.5819 48.0057 30.8907 48.5041 32.2468 48.4981C32.7995 48.497 33.3495 48.4208 33.8813 48.2717C33.6862 48.404 33.476 48.5129 33.255 48.5962L32.9036 48.7245C32.8166 48.7522 32.7322 48.7876 32.6516 48.8302L32.4606 48.966L32.6134 49.1396C33.0834 49.6135 33.6587 49.9727 34.2937 50.1887C35.0907 50.4936 35.9367 50.6546 36.7913 50.6641H37.1731L36.2643 51.117C36.0689 51.21 35.8801 51.3159 35.6991 51.4339L35.4394 51.6226L35.7296 51.7736C36.583 52.2352 37.4913 52.5901 38.4334 52.8302L38.7389 52.883L38.189 54.0302L38.7694 53.9924L38.0897 54.5056L38.2272 54.8604H38.3876L37.6238 55.3434L37.7002 55.7056H37.9217L36.944 56.0905L36.9975 56.4755H37.1579L36.2795 56.7396V57.0566L35.7983 57.1094V57.4566H35.0346L34.9582 57.8415L35.2102 57.9472L34.0493 58.249L34.3777 58.5207C34.7122 58.8191 35.1253 59.0179 35.5692 59.0943L35.4699 59.9094C34.663 60.5052 33.7356 60.9222 32.7509 61.1321L29.1 60.3019C28.922 60.2458 28.7368 60.2153 28.5501 60.2113C28.3908 60.2041 28.2332 60.2463 28.0994 60.3321V60.3773C27.0149 60.166 26.5719 60.8604 27.1065 61.7132C26.8698 60.6717 27.16 60.4755 28.0078 60.8226C28.0789 60.9646 28.1873 61.085 28.3217 61.1713C28.4561 61.2576 28.6114 61.3066 28.7716 61.3132L30.0471 61.5321L28.6265 61.449H28.3897C28.1688 61.442 27.9534 61.5174 27.7863 61.6604C27.6927 61.7436 27.624 61.8506 27.5877 61.9698C26.4955 62.0226 26.2435 62.7773 26.9691 63.5321C26.4802 62.5585 26.7476 62.2943 27.6794 62.4604C27.7022 62.5016 27.7304 62.5397 27.7634 62.5736C27.9342 62.7014 28.1452 62.7656 28.3591 62.7547L29.7874 62.6943C29.5206 62.7213 29.2614 62.7981 29.0236 62.9207C28.8872 62.9709 28.7625 63.048 28.657 63.1472C28.6111 63.1969 28.5771 63.2562 28.5577 63.3207C27.4655 63.3207 27.2975 64.2113 28.0307 64.9283C27.5572 63.9773 27.8627 63.6604 28.7487 63.7962L28.825 63.849C29.004 63.9501 29.207 64.0022 29.4131 64H29.5124C30.9805 63.8808 32.4305 63.5998 33.8354 63.1622C34.0462 63.2511 34.2247 63.4011 34.3472 63.5924C34.4415 63.7392 34.5184 63.8962 34.5763 64.0604L33.3772 63.8868C33.2339 63.8576 33.0881 63.8424 32.9418 63.8415C32.7621 63.8324 32.5837 63.8771 32.4301 63.9698C32.3772 64.0051 32.3329 64.0515 32.3002 64.1056C31.2539 64.0302 30.9025 64.7472 31.5365 65.5245C31.2004 64.5056 31.4677 64.2868 32.3461 64.5585C32.4354 64.6747 32.551 64.7687 32.6836 64.8329C32.8162 64.8971 32.9622 64.9298 33.1098 64.9283L34.4006 65.0339H32.8731C32.6416 65.0265 32.4156 65.1045 32.2391 65.2528C32.1381 65.3436 32.0664 65.4617 32.0329 65.5924C30.9483 65.7283 30.7803 66.5585 31.5746 67.2C31.0018 66.2868 31.2233 65.9924 32.1322 66.0679C32.1538 66.1034 32.1794 66.1363 32.2086 66.166C32.363 66.2914 32.5589 66.3559 32.7585 66.3472H32.8807L34.3701 66.1736C34.1168 66.2271 33.8759 66.3269 33.6598 66.4679C33.5359 66.5272 33.4244 66.6092 33.3313 66.7094C33.2885 66.7601 33.2573 66.8193 33.2397 66.883C32.1551 67.0264 32.0787 67.8868 32.8425 68.5283C32.2926 67.6528 32.5294 67.2981 33.3619 67.3283L33.423 67.366C33.5914 67.4574 33.7808 67.5042 33.9729 67.5019H34.1791C35.6284 67.2571 37.0452 66.852 38.4028 66.2943C38.6151 66.3893 38.8037 66.5291 38.9554 66.7038C39.1071 66.8785 39.2183 67.0839 39.2812 67.3056C39.4075 67.6929 39.6218 68.0466 39.9075 68.3396C40.1672 68.9736 39.9075 69.2981 38.8382 69.2C39.6554 69.5472 40.3657 69.2 40.2588 68.4C40.3488 68.3107 40.4201 68.2047 40.4686 68.0882C40.5171 67.9716 40.5418 67.8468 40.5414 67.7207C40.487 67.2214 40.2852 66.749 39.9609 66.3622C39.6707 65.9622 39.3423 65.6075 39.1055 65.3132L41.3969 63.8038L41.351 64.2943L43.0543 63.2981V64.4905L43.4132 64.5887L44.1694 63.3962L44.5436 64.5358L45.4831 62.8151L45.9719 63.7509L46.5906 62.0226L46.7739 62.5132H47.1328L47.7515 60.8905L47.8355 61.3132L48.1945 61.3585L48.9583 59.8038C49.1442 60.3022 49.3558 60.7908 49.5922 61.2679C50.2728 62.7056 51.0831 64.0797 52.0134 65.3736C52.4349 65.959 52.9217 66.4957 53.4646 66.9736C53.8577 67.3573 54.3732 67.5947 54.9234 67.6453C55.2039 67.6397 55.4737 67.5384 55.6872 67.3585L55.8552 67.3056L55.5421 66.4604C55.6591 66.6591 55.7919 66.8484 55.9392 67.0264C56.0981 67.2478 56.3058 67.4307 56.5466 67.5615C56.7873 67.6922 57.0549 67.7673 57.3293 67.7811C57.593 67.7734 57.8525 67.7144 58.0931 67.6075L58.2687 67.5321L57.6883 65.9094C57.9443 66.3341 58.2636 66.7182 58.6354 67.049C59.0368 67.4109 59.5585 67.615 60.1018 67.6226C60.4877 67.616 60.8678 67.5286 61.2169 67.366L61.4232 67.2755L60.835 66.4151C61.1302 66.7033 61.4583 66.9566 61.8127 67.1698C62.2146 67.4245 62.6796 67.5655 63.1569 67.5773C63.645 67.5889 64.1239 67.4461 64.5241 67.1698L64.7074 67.0415L63.5617 65.8641C63.9419 66.2035 64.3537 66.5067 64.7914 66.7698C65.4162 67.1524 66.134 67.361 66.8689 67.3736C67.5684 67.36 68.2545 67.1814 68.87 66.8528L69.1068 66.7245L65.7614 64.0377L66.4641 64.4377C67.9294 65.3357 69.6 65.8548 71.3217 65.9472C72.5984 65.9423 73.8381 65.5234 74.8504 64.7547L75.1712 64.5207L70.7107 63.3056C71.3141 63.3585 71.9175 63.3962 72.5132 63.3962C73.9318 63.4327 75.3444 63.2021 76.6758 62.717C77.8875 62.2741 78.8874 61.399 79.4789 60.2641L79.624 59.9773L79.3338 59.9698Z" fill="#2A3C77"/>
<path d="M50.8143 57.4944C51.1155 57.7601 51.4431 57.9952 51.7919 58.1963L51.5398 58.4001L50.8143 57.4944ZM61.2246 60.3095L59.2311 56.8755L58.7576 57.1472L60.0942 59.4114C58.7854 59.0624 57.6123 58.3343 56.7259 57.3208L56.2982 57.6529L58.0472 59.9623C56.3767 59.7833 54.8319 59.0012 53.709 57.7661L53.6632 57.7133L53.2584 58.0755L53.3118 58.1284L55.7559 60.7246C54.6866 60.6718 53.5486 59.5774 52.5251 58.5963L52.2883 58.3699C52.5667 58.4808 52.8678 58.5248 53.1667 58.4982H53.3653L52.0592 56.1284C53.1118 57.1953 54.5085 57.8653 56.008 58.0227H56.2982L54.8165 56.0755C55.7334 56.7582 56.7687 57.2697 57.8716 57.585L58.1313 57.668L56.787 54.2869L56.5426 54.385L57.6883 57.2529C56.1943 56.8137 54.8654 55.947 53.8694 54.7623L53.6632 54.9208L55.7559 57.7133C54.8864 57.5722 54.0554 57.2563 53.3144 56.785C52.5735 56.3138 51.9383 55.6973 51.4482 54.9737L51.1732 55.0944L52.8612 58.234C51.7537 58.1812 50.4171 56.8152 49.4929 55.7661L49.2867 55.9321L51.4329 58.7246C50.6691 59.0793 49.3936 58.5661 47.5606 57.2152L47.4002 57.4265C48.9277 58.5586 50.0658 59.117 50.9059 59.117C51.1775 59.1178 51.4433 59.039 51.6697 58.8906H51.7155L53.1361 61.1321C52.3265 61.2453 50.9517 60.5736 49.2103 59.1925L48.8819 59.6227C50.6233 61.0038 51.9981 61.6906 52.9758 61.6906C53.2244 61.6949 53.4705 61.6406 53.6937 61.5321L53.961 61.3963L53.0674 59.9246C54.0909 60.8152 55.1907 61.5246 56.3211 61.2152L56.7488 61.0944L55.6032 59.8491C56.5465 60.2943 57.5749 60.5362 58.6201 60.5585H59.1853L58.1313 59.185C58.9042 59.6003 59.7283 59.9149 60.583 60.1208L61.2246 60.3095Z" fill="#F1FAFF"/>
</g>
<defs>
<radialGradient id="paint0_radial_690_3453" cx="0" cy="0" r="1" gradientUnits="userSpaceOnUse" gradientTransform="translate(48.3625 39.5927) scale(43.5202 43.0038)">
<stop stop-color="#FFF200"/>
<stop offset="0.96" stop-color="#FBB040"/>
</radialGradient>
<linearGradient id="paint1_linear_690_3453" x1="47.7439" y1="84.8528" x2="47.7439" y2="48.966" gradientUnits="userSpaceOnUse">
<stop stop-color="#7F3F98"/>
<stop offset="1" stop-color="#23306C"/>
</linearGradient>
<clipPath id="clip0_690_3453">
<rect width="97" height="80" fill="white"/>
</clipPath>
</defs>
</svg>
