<svg width="900" height="650" viewBox="0 0 900 650" fill="none" xmlns="http://www.w3.org/2000/svg">
<path d="M896.646 576.198L824.326 581.231C824.322 581.232 824.319 581.232 824.316 581.232C813.017 581.916 802.97 588.313 797.278 598.069L797.274 598.077L773.495 639.234L773.495 639.235C752.148 676.246 698.718 676.246 677.372 639.235L677.371 639.234L561.164 437.923C539.812 400.903 566.477 354.646 609.034 354.646H841.576C884.397 354.646 911.05 400.91 889.702 437.923L865.924 479.079L865.918 479.09C860.35 488.865 859.945 500.807 864.83 510.982L864.836 510.993L896.646 576.198Z" stroke="#ED2600" stroke-width="4"/>
<path d="M222.499 -2.83687L222.499 -2.83672L338.706 198.603C360.06 235.625 333.391 281.876 290.842 281.752H290.836H58.2938C15.4738 281.752 -11.1799 235.488 10.1684 198.475L33.9461 157.319L33.9522 157.309C39.52 147.533 39.925 135.591 35.04 125.416L35.0345 125.405L3.22439 60.2001L75.5447 55.1667C75.5477 55.1665 75.5507 55.1664 75.5537 55.1662C86.8524 54.4826 96.9001 48.0852 102.592 38.3289L102.597 38.3215L126.375 -2.8356L126.376 -2.83687C147.723 -39.8477 201.152 -39.8477 222.499 -2.83687Z" stroke="#ED2600" stroke-width="4"/>
<path d="M3.09817 576.199L34.9044 511.002C34.9049 511.001 34.9054 511 34.906 510.999C39.9296 500.815 39.524 488.859 33.8179 479.076C33.8171 479.075 33.8163 479.073 33.8156 479.072L10.0421 437.924L3.09817 576.199ZM3.09817 576.199L75.4372 581.233L75.4425 581.234C86.6939 582.047 96.8891 588.283 102.473 598.081C102.474 598.083 102.475 598.086 102.477 598.088L126.249 639.234L126.25 639.236C147.596 676.246 201.026 676.246 222.373 639.236L222.373 639.235L338.58 437.923L338.583 437.919C360.055 400.905 333.399 354.646 290.71 354.646H58.1676C15.4721 354.646 -11.3036 400.913 10.0414 437.922L3.09817 576.199Z" stroke="#ED2600" stroke-width="4"/>
<path d="M896.902 60.328L865.096 125.525C865.095 125.527 865.094 125.528 865.093 125.53C860.071 135.712 860.476 147.665 866.18 157.447L866.185 157.455L896.902 60.328ZM896.902 60.328L824.563 55.2935L824.558 55.2931C813.305 54.4798 803.109 48.2424 797.526 38.4425" stroke="#ED2600" stroke-width="4"/>
<path d="M401.875 474.432L401.874 474.434L285.539 675.744C264.191 712.758 290.845 759.022 333.665 759.022H381.222C392.487 759.022 403.087 764.584 409.346 773.968C409.347 773.969 409.348 773.971 409.349 773.972L449.872 834.132L490.396 773.972C490.397 773.97 490.399 773.968 490.4 773.965L490.401 773.964L492.06 775.082C497.94 766.262 507.912 761.022 518.523 761.022H566.08C610.313 761.022 638.054 713.09 615.938 674.745L401.875 474.432ZM401.875 474.432C423.224 437.418 476.649 437.427 497.867 474.428L497.871 474.434M401.875 474.432L497.871 474.434M497.871 474.434L614.205 675.744L497.871 474.434Z" stroke="#ED2600" stroke-width="4"/>
<path d="M497.997 162.094L497.998 162.092L614.332 -39.2182L497.997 162.094ZM497.997 162.094C476.648 199.109 423.222 199.099 402.004 162.098L402.001 162.092L285.667 -39.2182L497.997 162.094ZM450 -197.606L490.523 -137.446C490.524 -137.445 490.524 -137.444 490.525 -137.443C496.784 -128.058 507.385 -122.496 518.65 -122.496H566.207C609.026 -122.496 635.68 -76.2325 614.333 -39.2196L450 -197.606ZM450 -197.606L409.476 -137.446C409.475 -137.444 409.474 -137.442 409.472 -137.44C403.213 -128.057 392.613 -122.496 381.349 -122.496H333.792C291.097 -122.496 264.321 -76.2292 285.666 -39.2196L450 -197.606Z" stroke="#ED2600" stroke-width="4"/>
</svg>
