<svg width="916" height="650" viewBox="0 0 916 650" fill="none" xmlns="http://www.w3.org/2000/svg">
<path d="M896.646 576.198L824.326 581.231C824.322 581.232 824.319 581.232 824.316 581.232C813.017 581.916 802.97 588.313 797.278 598.069L797.274 598.077L773.495 639.234L773.495 639.235C752.148 676.246 698.718 676.246 677.372 639.235L677.371 639.234L561.164 437.923C539.812 400.903 566.477 354.646 609.034 354.646H841.576C884.397 354.646 911.05 400.91 889.702 437.923L865.924 479.079L865.918 479.09C860.35 488.865 859.945 500.807 864.83 510.982L864.836 510.993L896.646 576.198Z" stroke="#ED2600" stroke-width="4"/>
<path d="M222.499 -2.83672L222.499 -2.83687C201.152 -39.8477 147.723 -39.8477 126.376 -2.83687L126.375 -2.8356L102.597 38.3215L102.592 38.3289C96.9001 48.0852 86.8524 54.4826 75.5537 55.1662C75.5507 55.1664 75.5477 55.1665 75.5447 55.1667L3.22439 60.2001L35.0345 125.405L35.04 125.416C39.925 135.591 39.52 147.533 33.9522 157.309L33.9461 157.319L10.1684 198.475L222.499 -2.83672ZM222.499 -2.83672L338.706 198.603C360.06 235.625 333.391 281.876 290.842 281.752H290.836M222.499 -2.83672L290.836 281.752M290.836 281.752H58.2938C15.4743 281.752 -11.1793 235.489 10.1676 198.476L290.836 281.752Z" stroke="#ED2600" stroke-width="4"/>
<path d="M3.09817 576.199L34.9043 511.002C34.905 511.001 34.9057 510.999 34.9063 510.998C39.9296 500.814 39.5238 488.859 33.8179 479.076C33.8171 479.075 33.8163 479.073 33.8156 479.072L10.0421 437.924L3.09817 576.199ZM3.09817 576.199L75.4372 581.233L75.4425 581.234C86.6947 582.047 96.8905 588.284 102.474 598.083C102.475 598.085 102.476 598.086 102.477 598.088L126.249 639.234L126.25 639.236C147.596 676.246 201.026 676.246 222.373 639.236L222.373 639.235L338.58 437.923L338.583 437.919C360.055 400.905 333.399 354.646 290.71 354.646H58.1676C15.4721 354.646 -11.3036 400.913 10.0414 437.922L3.09817 576.199Z" stroke="#ED2600" stroke-width="4"/>
<path d="M896.902 60.328L865.096 125.525C865.095 125.527 865.094 125.528 865.093 125.53C860.07 135.714 860.477 147.669 866.183 157.452C866.184 157.453 866.184 157.454 866.185 157.455L889.958 198.603C911.304 235.613 884.529 281.88 841.832 281.88H609.29C566.468 281.88 539.823 235.62 561.415 198.612L561.42 198.604L677.627 -2.70831L677.627 -2.70893C698.974 -39.7197 752.404 -39.7197 773.751 -2.70893L773.751 -2.70766L797.524 38.4388C797.525 38.4408 797.526 38.4429 797.527 38.445C803.111 48.2434 813.306 54.4799 824.558 55.2931L824.563 55.2935L896.902 60.328Z" stroke="#ED2600" stroke-width="4"/>
<path d="M401.875 474.432L401.874 474.434L285.539 675.744L401.875 474.432ZM401.875 474.432C423.224 437.418 476.649 437.427 497.867 474.428L497.871 474.434L614.205 675.744L401.875 474.432ZM449.872 834.132L409.349 773.972C409.347 773.97 409.346 773.968 409.344 773.965L409.343 773.964L449.872 834.132ZM449.872 834.132L490.396 773.972C490.397 773.97 490.399 773.968 490.4 773.965L490.401 773.964L449.872 834.132Z" stroke="#ED2600" stroke-width="4"/>
<path d="M497.997 162.094L497.998 162.092L614.332 -39.2182L497.997 162.094ZM497.997 162.094C476.648 199.108 423.222 199.099 402.004 162.098L402.001 162.092L285.667 -39.2182L497.997 162.094ZM450 -197.606L490.523 -137.446C490.524 -137.444 490.525 -137.442 490.527 -137.44C496.786 -128.057 507.386 -122.496 518.65 -122.496H566.207C609.026 -122.496 635.68 -76.2325 614.333 -39.2196L450 -197.606ZM450 -197.606L409.476 -137.446C409.475 -137.444 409.474 -137.442 409.472 -137.44C403.213 -128.057 392.613 -122.496 381.349 -122.496H333.792C291.097 -122.496 264.321 -76.2292 285.666 -39.2196L450 -197.606Z" stroke="#ED2600" stroke-width="4"/>
<path d="M912.646 590.198L840.326 595.231C840.322 595.232 840.319 595.232 840.316 595.232C829.017 595.916 818.97 602.313 813.278 612.069L813.274 612.077L789.495 653.234L789.495 653.235C768.148 690.246 714.718 690.246 693.372 653.235L693.371 653.234L577.164 451.923C555.812 414.903 582.477 368.646 625.034 368.646H857.576C900.397 368.646 927.05 414.91 905.702 451.923L881.924 493.079L881.918 493.09C876.35 502.865 875.945 514.807 880.83 524.982L880.836 524.993L912.646 590.198Z" stroke="#ED2600" stroke-width="4"/>
<path d="M238.499 11.1633L238.499 11.1631C217.152 -25.8477 163.723 -25.8477 142.376 11.1631L142.375 11.1644L118.597 52.3215L118.592 52.3289C112.9 62.0852 102.852 68.4826 91.5537 69.1662C91.5507 69.1664 91.5477 69.1665 91.5447 69.1667L19.2244 74.2001L51.0345 139.405L51.04 139.416C55.925 149.591 55.52 161.533 49.9522 171.309L49.9461 171.319L26.1684 212.475L238.499 11.1633ZM238.499 11.1633L354.706 212.603C376.06 249.625 349.391 295.876 306.842 295.752H306.836M238.499 11.1633L306.836 295.752M306.836 295.752H74.2938C31.4743 295.752 4.82074 249.489 26.1676 212.476L306.836 295.752Z" stroke="#ED2600" stroke-width="4"/>
<path d="M19.0982 590.199L50.9043 525.002C50.905 525.001 50.9057 524.999 50.9063 524.998C55.9296 514.814 55.5238 502.859 49.8179 493.076C49.8171 493.075 49.8163 493.073 49.8156 493.072L26.0421 451.924L19.0982 590.199ZM19.0982 590.199L91.4372 595.233L91.4425 595.234C102.695 596.047 112.891 602.284 118.474 612.083C118.475 612.085 118.476 612.086 118.477 612.088L142.249 653.234L142.25 653.236C163.596 690.246 217.026 690.246 238.373 653.236L238.373 653.235L354.58 451.923L354.583 451.919C376.055 414.905 349.399 368.646 306.71 368.646H74.1676C31.4721 368.646 4.69643 414.913 26.0414 451.922L19.0982 590.199Z" stroke="#ED2600" stroke-width="4"/>
<path d="M912.902 74.328L881.096 139.525C881.095 139.527 881.094 139.528 881.093 139.53C876.07 149.714 876.477 161.669 882.183 171.452C882.184 171.453 882.184 171.454 882.185 171.455L905.958 212.603C927.304 249.613 900.529 295.88 857.832 295.88H625.29C582.468 295.88 555.823 249.62 577.415 212.612L577.42 212.604L693.627 11.2917L693.627 11.2911C714.974 -25.7197 768.404 -25.7197 789.751 11.2911L789.751 11.2923L813.524 52.4388C813.525 52.4408 813.526 52.4429 813.527 52.445C819.111 62.2434 829.306 68.4799 840.558 69.2931L840.563 69.2935L912.902 74.328Z" stroke="#ED2600" stroke-width="4"/>
<path d="M417.875 488.432L417.874 488.434L301.539 689.744L417.875 488.432ZM417.875 488.432C439.224 451.418 492.649 451.427 513.867 488.428L513.871 488.434L630.205 689.744L417.875 488.432ZM465.872 848.132L425.349 787.972C425.347 787.97 425.346 787.968 425.344 787.965L425.343 787.964L465.872 848.132ZM465.872 848.132L506.396 787.972C506.397 787.97 506.399 787.968 506.4 787.965L506.401 787.964L465.872 848.132Z" stroke="#ED2600" stroke-width="4"/>
<path d="M513.997 176.094L513.998 176.092L630.332 -25.2182L513.997 176.094ZM513.997 176.094C492.648 213.108 439.222 213.099 418.004 176.098L418.001 176.092L301.667 -25.2182L513.997 176.094ZM466 -183.606L506.523 -123.446C506.524 -123.444 506.525 -123.442 506.527 -123.44C512.786 -114.057 523.386 -108.496 534.65 -108.496H582.207C625.026 -108.496 651.68 -62.2325 630.333 -25.2196L466 -183.606ZM466 -183.606L425.476 -123.446C425.475 -123.444 425.474 -123.442 425.472 -123.44C419.213 -114.057 408.613 -108.496 397.349 -108.496H349.792C307.097 -108.496 280.321 -62.2292 301.666 -25.2196L466 -183.606Z" stroke="#ED2600" stroke-width="4"/>
<path d="M901.646 601.198L829.326 606.231C829.322 606.232 829.319 606.232 829.316 606.232C818.017 606.916 807.97 613.313 802.278 623.069L802.274 623.077L778.495 664.234L778.495 664.235C757.148 701.246 703.718 701.246 682.372 664.235L682.371 664.234L566.164 462.923C544.812 425.903 571.477 379.646 614.034 379.646H846.576C889.397 379.646 916.05 425.91 894.702 462.923L870.924 504.079L870.918 504.09C865.35 513.865 864.945 525.807 869.83 535.982L869.836 535.993L901.646 601.198Z" stroke="#ED2600" stroke-width="4"/>
<path d="M227.499 22.1631L227.499 22.1633L343.706 223.603C365.06 260.625 338.391 306.876 295.842 306.752H295.836H63.2938C20.4738 306.752 -6.17987 260.488 15.1684 223.475L38.9461 182.319L38.9522 182.309C44.52 172.533 44.925 160.591 40.04 150.416L40.0345 150.405L8.22439 85.2001L80.5447 80.1667C80.5477 80.1665 80.5507 80.1664 80.5537 80.1662C91.8524 79.4826 101.9 73.0852 107.592 63.3289L107.597 63.3215L131.375 22.1644L131.376 22.1631C152.723 -14.8477 206.152 -14.8477 227.499 22.1631Z" stroke="#ED2600" stroke-width="4"/>
<path d="M8.09817 601.199L39.9044 536.002C39.9049 536.001 39.9054 536 39.906 535.999C44.9296 525.815 44.524 513.859 38.8179 504.076C38.8171 504.075 38.8163 504.073 38.8156 504.072L15.0421 462.924L8.09817 601.199ZM8.09817 601.199L80.4372 606.233L80.4425 606.234C91.6939 607.047 101.889 613.283 107.473 623.081C107.474 623.083 107.475 623.086 107.477 623.088L131.249 664.234L131.25 664.236C152.596 701.246 206.026 701.246 227.373 664.236L227.373 664.235L343.58 462.923L343.583 462.919C365.055 425.905 338.399 379.646 295.71 379.646H63.1676C20.4721 379.646 -6.30357 425.913 15.0414 462.922L8.09817 601.199Z" stroke="#ED2600" stroke-width="4"/>
<path d="M901.902 85.328L870.096 150.525C870.095 150.527 870.094 150.528 870.093 150.53C865.071 160.712 865.476 172.665 871.18 182.447L871.185 182.455L901.902 85.328ZM901.902 85.328L829.563 80.2935L829.558 80.2931C818.305 79.4798 808.109 73.2424 802.526 63.4425" stroke="#ED2600" stroke-width="4"/>
<path d="M406.875 499.432L406.874 499.434L290.539 700.744C269.191 737.758 295.845 784.022 338.665 784.022H386.222C397.487 784.022 408.087 789.584 414.346 798.968C414.347 798.969 414.348 798.971 414.349 798.972L454.872 859.132L495.396 798.972C495.397 798.97 495.399 798.968 495.4 798.965L495.401 798.964L497.06 800.082C502.94 791.262 512.912 786.022 523.523 786.022H571.08C615.313 786.022 643.054 738.09 620.938 699.745L406.875 499.432ZM406.875 499.432C428.224 462.418 481.649 462.427 502.867 499.428L502.871 499.434M406.875 499.432L502.871 499.434M502.871 499.434L619.205 700.744L502.871 499.434Z" stroke="#ED2600" stroke-width="4"/>
<path d="M502.997 187.094L502.998 187.092L619.332 -14.2182L502.997 187.094ZM502.997 187.094C481.648 224.109 428.222 224.099 407.004 187.098L407.001 187.092L290.667 -14.2182L502.997 187.094ZM455 -172.606L495.523 -112.446C495.524 -112.445 495.524 -112.444 495.525 -112.443C501.784 -103.058 512.385 -97.4955 523.65 -97.4955H571.207C614.026 -97.4955 640.68 -51.2325 619.333 -14.2196L455 -172.606ZM455 -172.606L414.476 -112.446C414.475 -112.444 414.474 -112.442 414.472 -112.44C408.213 -103.057 397.613 -97.4955 386.349 -97.4955H338.792C296.097 -97.4955 269.321 -51.2292 290.666 -14.2196L455 -172.606Z" stroke="#ED2600" stroke-width="4"/>
</svg>
