<svg width="16" height="16" viewBox="0 0 16 16" fill="none" xmlns="http://www.w3.org/2000/svg">
<g clip-path="url(#clip0_3659_2504)">
<path d="M7.94919 1.381C9.99823 1.381 10.2409 1.38999 11.0467 1.42594C11.7956 1.45889 12.2001 1.58471 12.4697 1.68956C12.8261 1.82736 13.0838 1.99512 13.3504 2.26173C13.62 2.53134 13.7848 2.78597 13.9226 3.14246C14.0274 3.41207 14.1532 3.81948 14.1862 4.5654C14.2221 5.37423 14.2311 5.61688 14.2311 7.66293C14.2311 9.71197 14.2221 9.95462 14.1862 10.7605C14.1532 11.5094 14.0274 11.9138 13.9226 12.1834C13.7848 12.5399 13.617 12.7975 13.3504 13.0641C13.0808 13.3337 12.8261 13.4985 12.4697 13.6363C12.2001 13.7411 11.7926 13.867 11.0467 13.8999C10.2379 13.9359 9.99524 13.9449 7.94919 13.9449C5.90015 13.9449 5.6575 13.9359 4.85167 13.8999C4.10275 13.867 3.69833 13.7411 3.42872 13.6363C3.07224 13.4985 2.81461 13.3307 2.548 13.0641C2.27839 12.7945 2.11362 12.5399 1.97582 12.1834C1.87098 11.9138 1.74516 11.5064 1.7122 10.7605C1.67626 9.95162 1.66727 9.70897 1.66727 7.66293C1.66727 5.61389 1.67626 5.37124 1.7122 4.5654C1.74516 3.81649 1.87098 3.41207 1.97582 3.14246C2.11362 2.78597 2.28138 2.52835 2.548 2.26173C2.81761 1.99212 3.07224 1.82736 3.42872 1.68956C3.69833 1.58471 4.10575 1.45889 4.85167 1.42594C5.6575 1.38999 5.90015 1.381 7.94919 1.381ZM7.94919 0C5.8672 0 5.60658 0.00898701 4.78876 0.0449351C3.97394 0.0808831 3.41375 0.212693 2.92845 0.40142C2.42218 0.599134 1.9938 0.859758 1.56841 1.28814C1.14003 1.71352 0.879408 2.14191 0.681693 2.64518C0.492966 3.13347 0.361157 3.69067 0.325209 4.50549C0.28926 5.3263 0.280273 5.58693 0.280273 7.66892C0.280273 9.75091 0.28926 10.0115 0.325209 10.8294C0.361157 11.6442 0.492966 12.2044 0.681693 12.6897C0.879408 13.1959 1.14003 13.6243 1.56841 14.0497C1.9938 14.4751 2.42218 14.7387 2.92545 14.9334C3.41375 15.1221 3.97094 15.254 4.78576 15.2899C5.60358 15.3259 5.86421 15.3348 7.9462 15.3348C10.0282 15.3348 10.2888 15.3259 11.1066 15.2899C11.9215 15.254 12.4816 15.1221 12.9669 14.9334C13.4702 14.7387 13.8986 14.4751 14.324 14.0497C14.7494 13.6243 15.013 13.1959 15.2077 12.6927C15.3964 12.2044 15.5282 11.6472 15.5642 10.8323C15.6001 10.0145 15.6091 9.75391 15.6091 7.67192C15.6091 5.58992 15.6001 5.3293 15.5642 4.51148C15.5282 3.69666 15.3964 3.13647 15.2077 2.65117C15.019 2.14191 14.7584 1.71352 14.33 1.28814C13.9046 0.862753 13.4762 0.599134 12.9729 0.404416C12.4846 0.215688 11.9274 0.0838788 11.1126 0.0479307C10.2918 0.00898702 10.0312 0 7.94919 0Z" fill="#AFAFAF"/>
<path d="M7.94907 3.72961C5.77422 3.72961 4.00977 5.49406 4.00977 7.66892C4.00977 9.84378 5.77422 11.6082 7.94907 11.6082C10.1239 11.6082 11.8884 9.84378 11.8884 7.66892C11.8884 5.49406 10.1239 3.72961 7.94907 3.72961ZM7.94907 10.2242C6.53811 10.2242 5.39377 9.07988 5.39377 7.66892C5.39377 6.25796 6.53811 5.11361 7.94907 5.11361C9.36003 5.11361 10.5044 6.25796 10.5044 7.66892C10.5044 9.07988 9.36003 10.2242 7.94907 10.2242Z" fill="#AFAFAF"/>
<path d="M12.9643 3.57385C12.9643 4.08311 12.5509 4.49352 12.0447 4.49352C11.5354 4.49352 11.125 4.08012 11.125 3.57385C11.125 3.06458 11.5384 2.65417 12.0447 2.65417C12.5509 2.65417 12.9643 3.06758 12.9643 3.57385Z" fill="#AFAFAF"/>
</g>
<defs>
<clipPath id="clip0_3659_2504">
<rect width="15.3378" height="15.3378" fill="white" transform="translate(0.280273)"/>
</clipPath>
</defs>
</svg>
