<svg width="30" height="30" viewBox="0 0 30 30" fill="none" xmlns="http://www.w3.org/2000/svg">
<path fill-rule="evenodd" clip-rule="evenodd" d="M18.4222 3.45225H10.1059C7.50591 3.44225 5.37466 5.51475 5.31341 8.1135V21.5048C5.25591 24.146 7.34966 26.3348 9.99091 26.3935C10.0297 26.3935 10.0672 26.3948 10.1059 26.3935H20.0922C22.7097 26.2873 24.7722 24.1248 24.7534 21.5048V10.0473L18.4222 3.45225Z" stroke="#595959" stroke-width="1.5" stroke-linecap="round" stroke-linejoin="round"/>
<path d="M18.0938 3.4375V7.07375C18.0938 8.84875 19.5288 10.2875 21.3037 10.2925H24.7475" stroke="#595959" stroke-width="1.5" stroke-linecap="round" stroke-linejoin="round"/>
<rect x="3" y="14" width="24" height="8" rx="1" fill="#01AC46"/>
<path d="M9.72424 15.83V18.836C9.72424 19.208 9.61024 19.502 9.38224 19.718C9.15824 19.934 8.86224 20.042 8.49424 20.042C8.12624 20.042 7.82824 19.934 7.60024 19.718C7.37624 19.502 7.26424 19.208 7.26424 18.836H7.95424C7.95824 19.02 8.00424 19.166 8.09224 19.274C8.18424 19.382 8.31824 19.436 8.49424 19.436C8.67024 19.436 8.80424 19.382 8.89624 19.274C8.98824 19.162 9.03424 19.016 9.03424 18.836V15.83H9.72424ZM14.353 17.072C14.353 17.284 14.303 17.484 14.203 17.672C14.103 17.86 13.943 18.014 13.723 18.134C13.503 18.25 13.221 18.308 12.877 18.308H12.121V20H11.437V15.83H12.877C13.197 15.83 13.467 15.886 13.687 15.998C13.911 16.106 14.077 16.254 14.185 16.442C14.297 16.63 14.353 16.84 14.353 17.072ZM12.877 17.75C13.137 17.75 13.331 17.692 13.459 17.576C13.587 17.456 13.651 17.288 13.651 17.072C13.651 16.616 13.393 16.388 12.877 16.388H12.121V17.75H12.877ZM16.2893 16.382V17.606H17.7293V18.164H16.2893V19.442H17.9093V20H15.6053V15.824H17.9093V16.382H16.2893ZM22.3698 17.03C22.2618 16.822 22.1118 16.666 21.9198 16.562C21.7278 16.454 21.5058 16.4 21.2538 16.4C20.9778 16.4 20.7318 16.462 20.5158 16.586C20.2998 16.71 20.1298 16.886 20.0058 17.114C19.8858 17.342 19.8258 17.606 19.8258 17.906C19.8258 18.206 19.8858 18.472 20.0058 18.704C20.1298 18.932 20.2998 19.108 20.5158 19.232C20.7318 19.356 20.9778 19.418 21.2538 19.418C21.6258 19.418 21.9278 19.314 22.1598 19.106C22.3918 18.898 22.5338 18.616 22.5858 18.26H21.0198V17.714H23.3178V18.248C23.2738 18.572 23.1578 18.87 22.9698 19.142C22.7858 19.414 22.5438 19.632 22.2438 19.796C21.9478 19.956 21.6178 20.036 21.2538 20.036C20.8618 20.036 20.5038 19.946 20.1798 19.766C19.8558 19.582 19.5978 19.328 19.4058 19.004C19.2178 18.68 19.1238 18.314 19.1238 17.906C19.1238 17.498 19.2178 17.132 19.4058 16.808C19.5978 16.484 19.8558 16.232 20.1798 16.052C20.5078 15.868 20.8658 15.776 21.2538 15.776C21.6978 15.776 22.0918 15.886 22.4358 16.106C22.7838 16.322 23.0358 16.63 23.1918 17.03H22.3698Z" fill="white"/>
</svg>
