<svg width="20" height="24" viewBox="0 0 20 24" fill="none" xmlns="http://www.w3.org/2000/svg">
<path d="M16.581 2.14073L10.316 0.0517291C10.1109 -0.016592 9.88913 -0.016592 9.684 0.0517291L3.419 2.14073C2.42291 2.47161 1.55642 3.10799 0.942645 3.95944C0.328874 4.81089 -0.000961674 5.83412 2.10612e-06 6.88373V12.0007C2.10612e-06 19.5637 9.2 23.7407 9.594 23.9147C9.72182 23.9715 9.86014 24.0009 10 24.0009C10.1399 24.0009 10.2782 23.9715 10.406 23.9147C10.8 23.7407 20 19.5637 20 12.0007V6.88373C20.001 5.83412 19.6711 4.81089 19.0574 3.95944C18.4436 3.10799 17.5771 2.47161 16.581 2.14073ZM14.718 9.71773L10.446 13.9897C10.2712 14.1657 10.0632 14.3052 9.83398 14.4002C9.6048 14.4951 9.35906 14.5435 9.111 14.5427H9.078C8.82489 14.5389 8.5752 14.4837 8.34402 14.3806C8.11284 14.2774 7.90498 14.1285 7.733 13.9427L5.427 11.5427C5.32713 11.4501 5.24725 11.338 5.19226 11.2133C5.13726 11.0887 5.10831 10.9542 5.10718 10.8179C5.10606 10.6817 5.13278 10.5467 5.1857 10.4211C5.23863 10.2956 5.31665 10.1822 5.41497 10.0879C5.51329 9.99363 5.62985 9.92042 5.75748 9.87278C5.88511 9.82515 6.02113 9.80409 6.15719 9.81091C6.29325 9.81773 6.42648 9.85227 6.54872 9.91243C6.67095 9.97258 6.7796 10.0571 6.868 10.1607L9.112 12.5007L13.3 8.30073C13.4886 8.11857 13.7412 8.01778 14.0034 8.02006C14.2656 8.02234 14.5164 8.1275 14.7018 8.31291C14.8872 8.49832 14.9924 8.74913 14.9947 9.01133C14.997 9.27353 14.8962 9.52613 14.714 9.71473L14.718 9.71773Z" fill="#5E6168"/>
</svg>
