<svg width="30" height="36" viewBox="0 0 30 36" fill="none" xmlns="http://www.w3.org/2000/svg">
<path d="M18.767 21.9648L22.5848 28.5798C23.3114 29.8398 25.13 29.8398 25.8566 28.5798L26.6378 27.2274C26.8142 26.925 27.125 26.7276 27.4736 26.7066L29.9474 26.5344L28.8596 24.3042C28.7084 23.9892 28.721 23.6196 28.8932 23.3172L29.6744 21.9648C30.401 20.7048 29.4938 19.1298 28.0364 19.1298H20.3966C18.9476 19.1298 18.0404 20.7048 18.767 21.9648Z" fill="#FF2A01"/>
<path d="M11.5724 14.0352L7.75457 7.41601C7.02797 6.15601 5.20937 6.15601 4.48277 7.41601L3.70157 8.76841C3.52517 9.07081 3.21437 9.26821 2.86577 9.28921L0.391968 9.46141L1.47977 11.6916C1.63097 12.0066 1.61837 12.3762 1.44617 12.6786L0.664968 14.031C-0.0616324 15.291 0.845567 16.866 2.30297 16.866H9.94277C11.3918 16.8702 12.299 15.2952 11.5724 14.0352Z" fill="#FF2A01"/>
<path d="M9.93862 19.1298H2.29882C0.845617 19.1298 -0.0657829 20.7048 0.660817 21.9648L1.44202 23.3172C1.61842 23.6196 1.63102 23.9892 1.47562 24.3042L0.387817 26.5344L2.86162 26.7066C3.21022 26.7318 3.52522 26.925 3.69742 27.2274L4.47862 28.5798C5.20522 29.8398 7.02382 29.8398 7.75042 28.5798L11.5682 21.9648C12.299 20.7048 11.3918 19.1298 9.93862 19.1298Z" fill="#FF2A01"/>
<path d="M20.405 16.8702H28.0448C29.498 16.8702 30.4094 15.2952 29.6828 14.0352L28.9016 12.6828C28.7252 12.3804 28.7126 12.0108 28.868 11.6958L29.9558 9.46562L27.482 9.29342C27.1334 9.26822 26.8184 9.07502 26.6462 8.77262L25.865 7.42022C25.1384 6.16022 23.3198 6.16022 22.5932 7.42022L18.7754 14.0352C18.0404 15.2952 18.9476 16.8702 20.405 16.8702Z" fill="#FF2A01"/>
<path d="M13.5338 23.0988L9.71182 29.7138C8.98522 30.9738 9.89242 32.5488 11.3498 32.5488H12.9122C13.2608 32.5488 13.5884 32.721 13.7816 33.0108L15.1676 35.0688L16.5536 33.0108C16.7468 32.721 17.0744 32.5488 17.423 32.5488H18.9854C20.4386 32.5488 21.35 30.9738 20.6234 29.7138L16.8014 23.0988C16.079 21.8388 14.2604 21.8388 13.5338 23.0988Z" fill="#FF2A01"/>
<path d="M16.8056 12.9012L20.6276 6.28621C21.3542 5.02621 20.447 3.45121 18.9896 3.45121H17.4272C17.0786 3.45121 16.751 3.27901 16.5578 2.98921L15.1718 0.931213L13.7858 2.98921C13.5926 3.27901 13.265 3.45121 12.9164 3.45121H11.354C9.90082 3.45121 8.98942 5.02621 9.71602 6.28621L13.538 12.9012C14.2604 14.1612 16.079 14.1612 16.8056 12.9012Z" fill="#FF2A01"/>
</svg>
