<svg width="34" height="34" viewBox="0 0 34 34" fill="none" xmlns="http://www.w3.org/2000/svg">
<circle cx="17" cy="17" r="17" fill="#303030"/>
<path d="M23 13.1113H10.5556C9.69645 13.1113 9 13.8078 9 14.6669V22.4447C9 23.3038 9.69645 24.0002 10.5556 24.0002H23C23.8591 24.0002 24.5556 23.3038 24.5556 22.4447V14.6669C24.5556 13.8078 23.8591 13.1113 23 13.1113Z" stroke="white" stroke-linecap="round" stroke-linejoin="round"/>
<path d="M19.8902 24V11.5556C19.8902 11.143 19.7263 10.7473 19.4346 10.4556C19.1429 10.1639 18.7472 10 18.3346 10H15.2235C14.811 10 14.4153 10.1639 14.1236 10.4556C13.8319 10.7473 13.668 11.143 13.668 11.5556V24" stroke="white" stroke-linecap="round" stroke-linejoin="round"/>
</svg>
