<svg width="30" height="30" viewBox="0 0 30 30" fill="none" xmlns="http://www.w3.org/2000/svg">
<path fill-rule="evenodd" clip-rule="evenodd" d="M18.4222 3.45225H10.1059C7.50591 3.44225 5.37466 5.51475 5.31341 8.1135V21.5047C5.25591 24.146 7.34966 26.3347 9.99091 26.3935C10.0297 26.3935 10.0672 26.3947 10.1059 26.3935H20.0922C22.7097 26.2872 24.7722 24.1247 24.7534 21.5047V10.0472L18.4222 3.45225Z" stroke="#595959" stroke-width="1.5" stroke-linecap="round" stroke-linejoin="round"/>
<path d="M18.0938 3.4375V7.07375C18.0938 8.84875 19.5288 10.2875 21.3037 10.2925H24.7475" stroke="#595959" stroke-width="1.5" stroke-linecap="round" stroke-linejoin="round"/>
<rect x="3" y="14" width="24" height="8" rx="1" fill="#EC2424"/>
<path d="M11.366 17.072C11.366 17.284 11.316 17.484 11.216 17.672C11.116 17.86 10.956 18.014 10.736 18.134C10.516 18.25 10.234 18.308 9.89 18.308H9.134V20H8.45V15.83H9.89C10.21 15.83 10.48 15.886 10.7 15.998C10.924 16.106 11.09 16.254 11.198 16.442C11.31 16.63 11.366 16.84 11.366 17.072ZM9.89 17.75C10.15 17.75 10.344 17.692 10.472 17.576C10.6 17.456 10.664 17.288 10.664 17.072C10.664 16.616 10.406 16.388 9.89 16.388H9.134V17.75H9.89ZM15.1804 15.83C15.6244 15.83 16.0124 15.916 16.3444 16.088C16.6804 16.256 16.9384 16.5 17.1184 16.82C17.3024 17.136 17.3944 17.506 17.3944 17.93C17.3944 18.354 17.3024 18.722 17.1184 19.034C16.9384 19.346 16.6804 19.586 16.3444 19.754C16.0124 19.918 15.6244 20 15.1804 20H13.8184V15.83H15.1804ZM15.1804 19.442C15.6684 19.442 16.0424 19.31 16.3024 19.046C16.5624 18.782 16.6924 18.41 16.6924 17.93C16.6924 17.446 16.5624 17.068 16.3024 16.796C16.0424 16.524 15.6684 16.388 15.1804 16.388H14.5024V19.442H15.1804ZM22.3263 15.83V16.388H20.5563V17.618H21.9363V18.176H20.5563V20H19.8723V15.83H22.3263Z" fill="white"/>
</svg>
