<svg width="24" height="24" viewBox="0 0 24 24" fill="none" xmlns="http://www.w3.org/2000/svg">
<path d="M15.8252 2.38909C12.6364 1.8703 9.36362 1.8703 6.17479 2.38909C5.0098 2.57862 4.08204 3.44653 3.84845 4.57187C2.77834 9.72731 2.71995 15.0324 3.67635 20.2088L4.06573 22.3163C4.1858 22.9661 5.00218 23.2259 5.49542 22.7712L10.1955 18.4382C10.6463 18.0226 11.3537 18.0226 11.8045 18.4382L16.5046 22.7712C16.9978 23.2259 17.8142 22.9661 17.9343 22.3163L18.3237 20.2088C19.2801 15.0324 19.2217 9.7273 18.1516 4.57187C17.918 3.44653 16.9902 2.57862 15.8252 2.38909Z" fill="#D8D8D8"/>
<path d="M9 10.25H13.5" stroke="white" stroke-width="1.5" stroke-linecap="round"/>
</svg>
