<svg width="12" height="14" viewBox="0 0 12 14" fill="none" xmlns="http://www.w3.org/2000/svg">
<path d="M10.2732 5.52319C10.2732 5.52319 9.95645 9.45194 9.7727 11.1069C9.6852 11.8973 9.19695 12.3604 8.3972 12.375C6.87528 12.4024 5.35162 12.4042 3.83028 12.3721C3.06087 12.3564 2.58078 11.8874 2.49503 11.1109C2.31012 9.44144 1.99512 5.52319 1.99512 5.52319" stroke="#595959" stroke-width="1.5" stroke-linecap="round" stroke-linejoin="round"/>
<path d="M11.0797 3.63981H1.1875" stroke="#595959" stroke-width="1.5" stroke-linecap="round" stroke-linejoin="round"/>
<path d="M9.17383 3.63986C8.71592 3.63986 8.32158 3.31611 8.23175 2.86753L8.09 2.1582C8.0025 1.83095 7.70617 1.60461 7.36842 1.60461H4.89917C4.56142 1.60461 4.26508 1.83095 4.17758 2.1582L4.03583 2.86753C3.946 3.31611 3.55167 3.63986 3.09375 3.63986" stroke="#595959" stroke-width="1.5" stroke-linecap="round" stroke-linejoin="round"/>
</svg>
