<svg width="10" height="18" viewBox="0 0 10 18" fill="none" xmlns="http://www.w3.org/2000/svg">
<path d="M7.21675 0C6.00825 0 4.84925 0.4806 3.99471 1.33607C3.14017 2.19155 2.6601 3.35182 2.6601 4.56164V7.10137H0.221675C0.0992471 7.10137 0 7.20073 0 7.32329V10.6767C0 10.7993 0.0992472 10.8986 0.221675 10.8986H2.6601V17.7781C2.6601 17.9006 2.75935 18 2.88177 18H6.23153C6.35395 18 6.4532 17.9006 6.4532 17.7781V10.8986H8.91322C9.01494 10.8986 9.10361 10.8293 9.12828 10.7305L9.96572 7.37711C10.0007 7.23705 9.89488 7.10137 9.75066 7.10137H6.4532V4.56164C6.4532 4.35892 6.53365 4.16449 6.67684 4.02114C6.82003 3.87779 7.01424 3.79726 7.21675 3.79726H9.77832C9.90075 3.79726 10 3.6979 10 3.57534V0.221918C10 0.0993561 9.90075 0 9.77832 0H7.21675Z" fill="#1967D3"/>
</svg>
