<svg width="30" height="30" viewBox="0 0 30 30" fill="none" xmlns="http://www.w3.org/2000/svg">
<rect x="0.5" y="0.5" width="29" height="29" rx="14.5" stroke="#5E6168"/>
<path d="M21 11.7674V18.2337C20.9523 18.4582 20.9248 18.6885 20.8532 18.9053C20.4445 20.1659 19.3123 20.9934 17.9802 20.996C15.9924 21.0013 14.0046 21.0013 12.0169 20.996C11.3785 20.996 10.79 20.8184 10.2731 20.4407C9.41861 19.8171 9 18.9673 9 17.9099C9 15.9781 9.00061 14.0456 9.00184 12.1121C8.99926 11.9132 9.01424 11.7143 9.04659 11.518C9.24838 10.4095 9.87795 9.63637 10.9177 9.2131C11.1848 9.10307 11.4812 9.06895 11.7645 9H18.2344C18.3185 9.01467 18.4028 9.02898 18.4865 9.04475C19.5871 9.25235 20.3576 9.87624 20.7835 10.9087C20.894 11.1813 20.9296 11.4813 21 11.7674ZM19.9918 15.0009H19.9962C19.9962 14.0249 19.9962 13.0489 19.9962 12.0725C19.9962 11.76 19.9548 11.456 19.8153 11.175C19.4367 10.4121 18.8192 10.0094 17.9655 10.0064C15.9843 9.99948 14.0057 10.0039 12.0257 10.0064C11.9086 10.0077 11.7918 10.0169 11.676 10.034C10.7676 10.162 10.0152 10.9836 10.0089 11.9045C9.99572 13.9464 10.0034 15.9883 10.0027 18.0298C9.99897 18.3043 10.0594 18.5758 10.1792 18.8228C10.5629 19.6 11.1921 19.9965 12.0602 19.9965C14.0169 19.9994 15.9736 19.9994 17.9303 19.9965C18.0628 19.996 18.1952 19.9867 18.3265 19.9686C19.2177 19.8461 19.9757 19.015 19.9878 18.1171C20.0035 17.078 19.9918 16.0393 19.9918 15.0009Z" fill="#5E6168"/>
<path d="M17.9996 15.0145C17.9839 16.6752 16.6231 18.0195 14.9795 17.9982C13.3201 17.9766 11.9853 16.6265 12.0011 14.9848C12.0169 13.3236 13.3762 11.9804 15.0209 12.0017C16.6807 12.0234 18.0151 13.3731 17.9996 15.0145ZM15.0022 13.0038C14.607 13.0033 14.2206 13.1201 13.8918 13.3393C13.563 13.5585 13.3067 13.8703 13.1552 14.2352C13.0038 14.6001 12.964 15.0017 13.0409 15.3893C13.1179 15.7768 13.3081 16.1328 13.5874 16.4122C13.8668 16.6916 14.2229 16.8819 14.6104 16.9589C14.998 17.036 15.3998 16.9964 15.7649 16.8451C16.1299 16.6938 16.4419 16.4376 16.6613 16.109C16.8807 15.7804 16.9976 15.3941 16.9973 14.9991C16.9976 14.737 16.9461 14.4775 16.846 14.2354C16.7458 13.9932 16.5989 13.7732 16.4136 13.5879C16.2283 13.4026 16.0082 13.2556 15.7661 13.1554C15.5239 13.0551 15.2643 13.0036 15.0022 13.0038Z" fill="#5E6168"/>
<path d="M18.256 12.4975C18.0577 12.4989 17.867 12.4216 17.7257 12.2824C17.5845 12.1433 17.5043 11.9537 17.5028 11.7555C17.5014 11.5572 17.5787 11.3665 17.7179 11.2253C17.8571 11.0841 18.0467 11.0039 18.245 11.0025C18.3432 11.0017 18.4406 11.0204 18.5316 11.0573C18.6226 11.0942 18.7054 11.1486 18.7754 11.2175C18.8453 11.2864 18.901 11.3684 18.9392 11.4588C18.9775 11.5492 18.9975 11.6463 18.9982 11.7445C18.999 11.8426 18.9803 11.94 18.9434 12.0309C18.9065 12.1219 18.8521 12.2047 18.7831 12.2746C18.7142 12.3446 18.6322 12.4002 18.5418 12.4385C18.4513 12.4767 18.3542 12.4967 18.256 12.4975Z" fill="#5E6168"/>
</svg>
