<svg width="30" height="30" viewBox="0 0 30 30" fill="none" xmlns="http://www.w3.org/2000/svg">
<path fill-rule="evenodd" clip-rule="evenodd" d="M20.3783 3.43726H9.56326C5.79826 3.43726 3.43701 6.10476 3.43701 9.87976V20.0623C3.43701 23.8373 5.78826 26.5048 9.56326 26.5048H20.372C24.1533 26.5048 26.5033 23.8373 26.5033 20.0623V9.87976C26.5083 6.10476 24.157 3.43726 20.3783 3.43726Z" stroke="#FF2A01" stroke-width="2" stroke-linecap="round" stroke-linejoin="round"/>
<path d="M26.5088 18.6888C25.355 17.5013 23.1363 15.1025 20.7238 15.1025C18.31 15.1025 16.9187 20.3938 14.5975 20.3938C12.2762 20.3938 10.1675 18.0013 8.3075 19.535C6.4475 21.0675 4.6875 24.2013 4.6875 24.2013" stroke="#FF2A01" stroke-width="2" stroke-linecap="round" stroke-linejoin="round"/>
<path d="M12.9986 8.4517V13.5344" stroke="#FF2A01" stroke-width="1.5" stroke-linecap="round" stroke-linejoin="round"/>
<path d="M15.543 10.9938L10.4556 10.9933" stroke="#FF2A01" stroke-width="1.5" stroke-linecap="round" stroke-linejoin="round"/>
</svg>
