<svg width="20" height="21" viewBox="0 0 20 21" fill="none" xmlns="http://www.w3.org/2000/svg">
<path d="M10 0C7.32765 0 5.16129 2.13954 5.16129 4.77879C5.16129 7.41805 7.32765 9.55759 10 9.55759C12.6723 9.55759 14.8387 7.41805 14.8387 4.77879C14.8387 2.13954 12.6723 0 10 0Z" fill="#FF2A01"/>
<path d="M4.83871 12.1063C2.16636 12.1063 0 14.2458 0 16.8851V18.3994C0 19.3592 0.704366 20.1777 1.66358 20.3323C7.18464 21.2226 12.8154 21.2226 18.3364 20.3323C19.2956 20.1777 20 19.3592 20 18.3994V16.8851C20 14.2458 17.8336 12.1063 15.1613 12.1063H14.7215C14.4834 12.1063 14.2468 12.1435 14.0206 12.2164L12.9038 12.5766C11.0169 13.1851 8.98306 13.1851 7.09624 12.5766L5.97945 12.2164C5.75315 12.1435 5.51659 12.1063 5.27854 12.1063H4.83871Z" fill="#FF2A01"/>
</svg>
