<svg width="22" height="26" viewBox="0 0 22 26" fill="none" xmlns="http://www.w3.org/2000/svg">
<path fill-rule="evenodd" clip-rule="evenodd" d="M21.0681 9.275C20.7803 9.275 20.4635 9.27866 20.1726 9.28202L20.1724 9.28202C19.9255 9.28487 19.6972 9.2875 19.521 9.2875C19.272 9.2875 18.9897 9.28511 18.6723 9.28242H18.6721C18.264 9.27896 17.7976 9.275 17.2686 9.275C15.0037 9.2625 13.1349 7.3875 13.1349 5.1V1.075C13.1349 0.7625 12.8874 0.5 12.5656 0.5H5.95668C2.875 0.5 0.375 3.0375 0.375 6.1375V19.6125C0.375 22.8625 2.99876 25.5 6.21659 25.5H16.0557C19.1374 25.5 21.625 22.9875 21.625 19.8875V9.8375C21.625 9.525 21.3775 9.275 21.0681 9.275ZM14.77 14.3811L10.4859 18.7691C10.3326 18.9261 10.1342 19 9.92672 19C9.7283 19 9.52988 18.9261 9.37655 18.7691L7.22999 16.5797C6.92334 16.2564 6.92334 15.7483 7.22999 15.4342C7.53664 15.1201 8.04171 15.1201 8.34837 15.4342L9.92672 17.0508L13.6516 13.2356C13.9583 12.9215 14.4634 12.9215 14.77 13.2356C15.0767 13.5589 15.0767 14.067 14.77 14.3811ZM20.5125 7.45775C19.4952 7.4615 18.2959 7.45775 17.4333 7.449C16.0645 7.449 14.937 6.31025 14.937 4.92775V1.63275C14.937 1.094 15.5843 0.8265 15.9543 1.21525C16.6239 1.91844 17.544 2.88495 18.46 3.84713C19.3741 4.80743 20.2842 5.76342 20.937 6.449C21.2984 6.82775 21.0335 7.4565 20.5125 7.45775Z" fill="#01AC46"/>
</svg>
