<svg width="26" height="26" viewBox="0 0 26 26" fill="none" xmlns="http://www.w3.org/2000/svg">
<path fill-rule="evenodd" clip-rule="evenodd" d="M18.3788 1.43726H7.56375C3.79875 1.43726 1.4375 4.10476 1.4375 7.87976V18.0623C1.4375 21.8373 3.78875 24.5048 7.56375 24.5048H18.3725C22.1538 24.5048 24.5037 21.8373 24.5037 18.0623V7.87976C24.5087 4.10476 22.1575 1.43726 18.3788 1.43726Z" stroke="#FF2A01" stroke-width="2" stroke-linecap="round" stroke-linejoin="round"/>
<path fill-rule="evenodd" clip-rule="evenodd" d="M11.3796 8.98121C11.3796 10.2562 10.3471 11.2887 9.07215 11.2887C7.7984 11.2887 6.76465 10.2562 6.76465 8.98121C6.76465 7.70621 7.7984 6.67371 9.07215 6.67371C10.3459 6.67496 11.3784 7.70746 11.3796 8.98121Z" stroke="#FF2A01" stroke-width="2" stroke-linecap="round" stroke-linejoin="round"/>
<path d="M24.5088 16.6888C23.355 15.5013 21.1363 13.1025 18.7238 13.1025C16.31 13.1025 14.9187 18.3938 12.5975 18.3938C10.2762 18.3938 8.1675 16.0013 6.3075 17.535C4.4475 19.0675 2.6875 22.2013 2.6875 22.2013" stroke="#FF2A01" stroke-width="2" stroke-linecap="round" stroke-linejoin="round"/>
</svg>
