<svg width="32" height="30" viewBox="0 0 32 30" fill="none" xmlns="http://www.w3.org/2000/svg">
<rect x="0.5" y="0.5" width="29" height="29" rx="14.5" stroke="#FF2A01"/>
<path d="M16.5465 19.8459C15.7369 19.8459 14.9425 19.8459 14.1367 19.8459C14.1367 17.2186 14.1367 14.5914 14.1367 11.9525C14.8969 11.9525 15.6609 11.9525 16.4477 11.9525C16.4477 12.3041 16.4477 12.6519 16.4477 13.0034C16.6149 12.8064 16.7556 12.6055 16.9266 12.4394C17.3523 12.0298 17.873 11.8212 18.4508 11.7671C18.9487 11.7207 19.4466 11.7555 19.9293 11.91C20.7313 12.165 21.2064 12.7369 21.4421 13.5405C21.5979 14.0698 21.655 14.6184 21.6588 15.1671C21.6702 16.697 21.6664 18.2232 21.6664 19.7532C21.6664 19.7725 21.6626 19.7918 21.6588 19.8227C20.8606 19.8227 20.0624 19.8227 19.2452 19.8227C19.2452 19.7647 19.2452 19.7107 19.2452 19.6527C19.2452 18.3468 19.249 17.0409 19.2414 15.735C19.2414 15.4607 19.2148 15.1864 19.1653 14.9159C19.0171 14.1046 18.5002 13.8225 17.7514 13.9153C17.0786 14.0003 16.7099 14.4021 16.6073 15.1477C16.5693 15.4182 16.5541 15.6964 16.5503 15.9668C16.5427 17.1993 16.5465 18.4357 16.5465 19.6682C16.5465 19.7261 16.5465 19.7802 16.5465 19.8459Z" fill="#FF2A01"/>
<path d="M12.6035 19.8459C11.8015 19.8459 11.0071 19.8459 10.2051 19.8459C10.2051 17.2148 10.2051 14.5837 10.2051 11.9487C11.0071 11.9487 11.8015 11.9487 12.6035 11.9487C12.6035 14.5798 12.6035 17.2032 12.6035 19.8459Z" fill="#FF2A01"/>
<path d="M12.7975 9.41801C12.8013 10.2023 12.1741 10.8553 11.4101 10.8591C10.6424 10.863 10 10.21 10 9.42187C10 8.64529 10.6272 8.00393 11.3911 8.00007C12.1627 7.99234 12.7937 8.62984 12.7975 9.41801Z" fill="#FF2A01"/>
</svg>
