<svg width="22" height="22" viewBox="0 0 22 22" fill="none" xmlns="http://www.w3.org/2000/svg">
<path d="M15.3601 15.6372H6.69526" stroke="#595959" stroke-width="1.5" stroke-linecap="round" stroke-linejoin="round"/>
<path d="M15.3601 11.0892H6.69526" stroke="#595959" stroke-width="1.5" stroke-linecap="round" stroke-linejoin="round"/>
<path d="M10.0016 6.55165H6.69526" stroke="#595959" stroke-width="1.5" stroke-linecap="round" stroke-linejoin="round"/>
<path fill-rule="evenodd" clip-rule="evenodd" d="M15.5982 1C15.5935 0.999999 15.5939 0.999999 15.5891 1C15.4376 1.00007 6.37762 1.00435 6.36334 1.00435C3.051 1.02281 1 2.99565 1 6.00489V15.9951C1 19.0179 3.06439 20.9979 6.40237 21C6.40591 21 6.40529 21 6.40882 21C6.52301 21 15.62 20.9967 15.6355 20.9967C18.9478 20.9783 21 19.0043 21 15.9951V6.00489C21 2.98261 18.9351 1.00283 15.5982 1Z" stroke="#595959" stroke-width="1.5" stroke-linecap="round" stroke-linejoin="round"/>
</svg>
