<svg width="10" height="10" viewBox="0 0 10 10" fill="none" xmlns="http://www.w3.org/2000/svg">
<path d="M8.75 0H2.5C2.33424 0 2.17527 0.065848 2.05806 0.183058C1.94085 0.300269 1.875 0.45924 1.875 0.625C1.875 0.79076 1.94085 0.949731 2.05806 1.06694C2.17527 1.18415 2.33424 1.25 2.5 1.25H4.88042L3.85792 8.75H1.25C1.08424 8.75 0.925269 8.81585 0.808058 8.93306C0.690848 9.05027 0.625 9.20924 0.625 9.375C0.625 9.54076 0.690848 9.69973 0.808058 9.81694C0.925269 9.93415 1.08424 10 1.25 10H7.5C7.66576 10 7.82473 9.93415 7.94194 9.81694C8.05915 9.69973 8.125 9.54076 8.125 9.375C8.125 9.20924 8.05915 9.05027 7.94194 8.93306C7.82473 8.81585 7.66576 8.75 7.5 8.75H5.11958L6.14208 1.25H8.75C8.91576 1.25 9.07473 1.18415 9.19194 1.06694C9.30915 0.949731 9.375 0.79076 9.375 0.625C9.375 0.45924 9.30915 0.300269 9.19194 0.183058C9.07473 0.065848 8.91576 0 8.75 0V0Z" fill="#374957"/>
</svg>
