<svg width="10" height="10" viewBox="0 0 10 10" fill="none" xmlns="http://www.w3.org/2000/svg">
<g clip-path="url(#clip0_2472_828)">
<path d="M0.625 2.5H9.375C9.54076 2.5 9.69973 2.43415 9.81694 2.31694C9.93415 2.19973 10 2.04076 10 1.875C10 1.70924 9.93415 1.55027 9.81694 1.43306C9.69973 1.31585 9.54076 1.25 9.375 1.25H0.625C0.45924 1.25 0.300269 1.31585 0.183058 1.43306C0.065848 1.55027 0 1.70924 0 1.875C0 2.04076 0.065848 2.19973 0.183058 2.31694C0.300269 2.43415 0.45924 2.5 0.625 2.5Z" fill="#374957"/>
<path d="M0.625 4.58337H6.04167C6.20743 4.58337 6.3664 4.51753 6.48361 4.40032C6.60082 4.28311 6.66667 4.12413 6.66667 3.95837C6.66667 3.79261 6.60082 3.63364 6.48361 3.51643C6.3664 3.39922 6.20743 3.33337 6.04167 3.33337H0.625C0.45924 3.33337 0.300269 3.39922 0.183058 3.51643C0.065848 3.63364 0 3.79261 0 3.95837C0 4.12413 0.065848 4.28311 0.183058 4.40032C0.300269 4.51753 0.45924 4.58337 0.625 4.58337Z" fill="#374957"/>
<path d="M6.04167 7.5H0.625C0.45924 7.5 0.300269 7.56585 0.183058 7.68306C0.065848 7.80027 0 7.95924 0 8.125C0 8.29076 0.065848 8.44973 0.183058 8.56694C0.300269 8.68415 0.45924 8.75 0.625 8.75H6.04167C6.20743 8.75 6.3664 8.68415 6.48361 8.56694C6.60082 8.44973 6.66667 8.29076 6.66667 8.125C6.66667 7.95924 6.60082 7.80027 6.48361 7.68306C6.3664 7.56585 6.20743 7.5 6.04167 7.5Z" fill="#374957"/>
<path d="M9.375 5.41663H0.625C0.45924 5.41663 0.300269 5.48247 0.183058 5.59968C0.065848 5.71689 0 5.87587 0 6.04163C0 6.20739 0.065848 6.36636 0.183058 6.48357C0.300269 6.60078 0.45924 6.66663 0.625 6.66663H9.375C9.54076 6.66663 9.69973 6.60078 9.81694 6.48357C9.93415 6.36636 10 6.20739 10 6.04163C10 5.87587 9.93415 5.71689 9.81694 5.59968C9.69973 5.48247 9.54076 5.41663 9.375 5.41663Z" fill="#374957"/>
</g>
<defs>
<clipPath id="clip0_2472_828">
<rect width="10" height="10" fill="white"/>
</clipPath>
</defs>
</svg>
