<svg width="10" height="10" viewBox="0 0 10 10" fill="none" xmlns="http://www.w3.org/2000/svg">
<g clip-path="url(#clip0_2472_833)">
<path d="M3.33301 2.91675H9.37467C9.54043 2.91675 9.69941 2.8509 9.81662 2.73369C9.93383 2.61648 9.99967 2.45751 9.99967 2.29175C9.99967 2.12599 9.93383 1.96702 9.81662 1.84981C9.69941 1.7326 9.54043 1.66675 9.37467 1.66675H3.33301C3.16725 1.66675 3.00828 1.7326 2.89107 1.84981C2.77386 1.96702 2.70801 2.12599 2.70801 2.29175C2.70801 2.45751 2.77386 2.61648 2.89107 2.73369C3.00828 2.8509 3.16725 2.91675 3.33301 2.91675Z" fill="#374957"/>
<path d="M9.37467 4.58325H3.33301C3.16725 4.58325 3.00828 4.6491 2.89107 4.76631C2.77386 4.88352 2.70801 5.04249 2.70801 5.20825C2.70801 5.37401 2.77386 5.53298 2.89107 5.65019C3.00828 5.7674 3.16725 5.83325 3.33301 5.83325H9.37467C9.54043 5.83325 9.69941 5.7674 9.81662 5.65019C9.93383 5.53298 9.99967 5.37401 9.99967 5.20825C9.99967 5.04249 9.93383 4.88352 9.81662 4.76631C9.69941 4.6491 9.54043 4.58325 9.37467 4.58325Z" fill="#374957"/>
<path d="M9.37467 7.5H3.33301C3.16725 7.5 3.00828 7.56585 2.89107 7.68306C2.77386 7.80027 2.70801 7.95924 2.70801 8.125C2.70801 8.29076 2.77386 8.44973 2.89107 8.56694C3.00828 8.68415 3.16725 8.75 3.33301 8.75H9.37467C9.54043 8.75 9.69941 8.68415 9.81662 8.56694C9.93383 8.44973 9.99967 8.29076 9.99967 8.125C9.99967 7.95924 9.93383 7.80027 9.81662 7.68306C9.69941 7.56585 9.54043 7.5 9.37467 7.5Z" fill="#374957"/>
<path d="M1.04167 3.33333C1.61696 3.33333 2.08333 2.86696 2.08333 2.29167C2.08333 1.71637 1.61696 1.25 1.04167 1.25C0.46637 1.25 0 1.71637 0 2.29167C0 2.86696 0.46637 3.33333 1.04167 3.33333Z" fill="#374957"/>
<path d="M1.04167 6.04158C1.61696 6.04158 2.08333 5.57521 2.08333 4.99992C2.08333 4.42462 1.61696 3.95825 1.04167 3.95825C0.46637 3.95825 0 4.42462 0 4.99992C0 5.57521 0.46637 6.04158 1.04167 6.04158Z" fill="#374957"/>
<path d="M1.04167 8.95833C1.61696 8.95833 2.08333 8.49196 2.08333 7.91666C2.08333 7.34137 1.61696 6.875 1.04167 6.875C0.46637 6.875 0 7.34137 0 7.91666C0 8.49196 0.46637 8.95833 1.04167 8.95833Z" fill="#374957"/>
</g>
<defs>
<clipPath id="clip0_2472_833">
<rect width="10" height="10" fill="white"/>
</clipPath>
</defs>
</svg>
