<svg width="16" height="16" viewBox="0 0 16 16" fill="none" xmlns="http://www.w3.org/2000/svg">
<path d="M14.7681 0H1.69473C1.39444 0 1.10646 0.119288 0.894123 0.331623C0.681788 0.543957 0.5625 0.831945 0.5625 1.13223V14.2056C0.5625 14.5059 0.681788 14.7939 0.894123 15.0062C1.10646 15.2186 1.39444 15.3378 1.69473 15.3378H14.7681C15.0684 15.3378 15.3564 15.2186 15.5687 15.0062C15.7811 14.7939 15.9003 14.5059 15.9003 14.2056V1.13223C15.9003 0.831945 15.7811 0.543957 15.5687 0.331623C15.3564 0.119288 15.0684 0 14.7681 0ZM5.13403 13.0659H2.82803V5.74104H5.13403V13.0659ZM3.97943 4.72597C3.71785 4.7245 3.46258 4.64557 3.24581 4.49916C3.02905 4.35274 2.86052 4.14539 2.76148 3.90328C2.66245 3.66117 2.63736 3.39515 2.68937 3.1388C2.74138 2.88244 2.86816 2.64723 3.05372 2.46286C3.23928 2.27849 3.47529 2.15322 3.73198 2.10286C3.98867 2.05249 4.25452 2.0793 4.49599 2.17988C4.73745 2.28047 4.94371 2.45033 5.08874 2.66802C5.23376 2.88572 5.31105 3.1415 5.31084 3.40308C5.31331 3.57821 5.28049 3.75204 5.21435 3.91422C5.1482 4.07639 5.05008 4.22359 4.92584 4.34704C4.8016 4.47049 4.65377 4.56766 4.49117 4.63276C4.32858 4.69786 4.15454 4.72956 3.97943 4.72597ZM13.6337 13.0723H11.3288V9.07063C11.3288 7.89047 10.8271 7.52619 10.1795 7.52619C9.49573 7.52619 8.8247 8.04171 8.8247 9.10045V13.0723H6.51869V5.74636H8.73629V6.76143H8.76611C8.98873 6.31088 9.7684 5.54079 10.9581 5.54079C12.2448 5.54079 13.6348 6.30449 13.6348 8.54126L13.6337 13.0723Z" fill="#AFAFAF"/>
</svg>
