<svg width="32" height="31" viewBox="0 0 32 31" fill="none" xmlns="http://www.w3.org/2000/svg">
<rect x="1.5" y="1.49658" width="29" height="29" rx="14.5" stroke="#5E6168"/>
<path d="M16.5452 21.8459C15.7356 21.8459 14.9412 21.8459 14.1354 21.8459C14.1354 19.2186 14.1354 16.5914 14.1354 13.9525C14.8956 13.9525 15.6596 13.9525 16.4464 13.9525C16.4464 14.3041 16.4464 14.6519 16.4464 15.0034C16.6136 14.8064 16.7542 14.6055 16.9253 14.4394C17.351 14.0298 17.8717 13.8212 18.4495 13.7671C18.9474 13.7207 19.4453 13.7555 19.928 13.91C20.73 14.165 21.2051 14.7369 21.4408 15.5405C21.5966 16.0698 21.6536 16.6184 21.6574 17.1671C21.6688 18.697 21.665 20.2232 21.665 21.7532C21.665 21.7725 21.6612 21.7918 21.6574 21.8227C20.8592 21.8227 20.0611 21.8227 19.2439 21.8227C19.2439 21.7647 19.2439 21.7107 19.2439 21.6527C19.2439 20.3468 19.2477 19.0409 19.2401 17.735C19.2401 17.4607 19.2134 17.1864 19.164 16.9159C19.0158 16.1046 18.4989 15.8225 17.7501 15.9153C17.0773 16.0003 16.7086 16.4021 16.606 17.1477C16.568 17.4182 16.5528 17.6964 16.549 17.9668C16.5414 19.1993 16.5452 20.4357 16.5452 21.6682C16.5452 21.7261 16.5452 21.7802 16.5452 21.8459Z" fill="#5E6168"/>
<path d="M12.6036 21.8459C11.8017 21.8459 11.0073 21.8459 10.2053 21.8459C10.2053 19.2148 10.2053 16.5837 10.2053 13.9487C11.0073 13.9487 11.8017 13.9487 12.6036 13.9487C12.6036 16.5798 12.6036 19.2032 12.6036 21.8459Z" fill="#5E6168"/>
<path d="M12.7975 11.418C12.8013 12.2023 12.1741 12.8553 11.4101 12.8591C10.6424 12.863 10 12.21 10 11.4219C10 10.6453 10.6272 10.0039 11.3911 10.0001C12.1627 9.99234 12.7937 10.6298 12.7975 11.418Z" fill="#5E6168"/>
</svg>
