<svg width="210" height="34" viewBox="0 0 210 34" fill="none" xmlns="http://www.w3.org/2000/svg">
<path d="M53.3109 21.5547L58.4192 22.599C57.5502 26.4849 53.8661 28.9991 49.5223 28.9991C44.3094 28.9991 40 25.5053 40 20.3138C40 15.1546 44.3094 11.6284 49.5223 11.6284C53.7627 11.6284 57.4456 14.0778 58.4192 17.9302L53.2063 19.1063C52.7201 17.1148 51.2947 16.2 49.5223 16.2C47.0199 16.2 45.352 17.9302 45.352 20.3148C45.352 22.7308 47.0199 24.4285 49.5223 24.4285C51.2959 24.4285 52.7201 23.5462 53.3109 21.5547Z" fill="#5E6168"/>
<path d="M59.9147 28.5094V5H65.4747V28.5094H59.9147Z" fill="#5E6168"/>
<path d="M68.3943 28.5098V12.1187H73.9544V28.5098H68.3943Z" fill="#5E6168"/>
<path d="M89.0368 21.5547L94.145 22.599C93.276 26.4849 89.592 28.9991 85.2481 28.9991C80.0352 28.9991 75.7258 25.5053 75.7258 20.3138C75.7258 15.1546 80.0352 11.6284 85.2481 11.6284C89.4874 11.6284 93.1715 14.0778 94.145 17.9302L88.9322 19.1063C88.4459 17.1148 87.0206 16.2 85.2481 16.2C82.7457 16.2 81.0778 17.9302 81.0778 20.3148C81.0778 22.7308 82.7457 24.4285 85.2481 24.4285C87.0217 24.4285 88.4459 23.5462 89.0368 21.5547Z" fill="#5E6168"/>
<path d="M107.873 28.5094L102.209 22.5996H101.2V28.5094H95.6404V5H101.2V17.7018H101.965L107.49 12.1182H114.198L106.552 19.9223L114.998 28.5094H107.873Z" fill="#5E6168"/>
<path d="M132.479 28.5098H126.918V26.9427C125.597 28.2495 123.755 29.0001 121.566 29.0001C117.5 29.0001 114.79 26.2903 114.79 22.1756V12.1187H120.315V21.0653C120.315 22.992 121.531 24.2978 123.304 24.2978C125.493 24.2978 126.918 22.8938 126.918 19.7262V12.1187H132.479V28.5098Z" fill="#5E6168"/>
<path d="M139.257 23.1876C139.501 24.5916 140.856 25.1143 142.35 25.1143C143.81 25.1143 144.609 24.5268 144.609 23.8086C144.609 23.2535 144.157 22.829 142.871 22.6001L139.326 21.9467C136.094 21.3916 134.252 19.7586 134.252 17.1796C134.252 13.8165 137.346 11.6284 141.759 11.6284C146.102 11.6284 148.988 13.4893 149.682 16.3307L144.608 17.2779C144.435 16.2659 143.392 15.3512 141.688 15.3512C140.194 15.3512 139.708 16.0369 139.708 16.6245C139.708 17.0813 139.916 17.5392 141.029 17.7671L145.13 18.5501C148.431 19.2035 149.96 21.0644 149.96 23.4803C149.96 27.1048 146.624 28.998 142.037 28.998C137.935 28.998 134.426 27.594 133.835 24.2309L139.257 23.1876Z" fill="#5E6168"/>
<path d="M172.859 20.3133C172.859 25.5048 168.967 28.9986 164.345 28.9986C162.086 28.9986 160.279 28.3452 158.924 27.2026V28.5083H153.364V5H158.924V13.424C160.279 12.2813 162.086 11.6279 164.345 11.6279C168.966 11.6279 172.859 15.1541 172.859 20.3133ZM167.402 20.3133C167.402 17.799 165.63 16.0678 163.198 16.0678C160.939 16.0678 158.923 17.799 158.923 20.3133C158.923 22.8599 160.939 24.5577 163.198 24.5577C165.63 24.5587 167.402 22.861 167.402 20.3133Z" fill="#5E6168"/>
<path d="M189.193 28.5098H172.304V24.9837L180.332 17.8978C181.86 16.5597 183.459 15.2529 183.459 13.2614C183.459 11.6943 182.278 10.6489 180.575 10.6489C178.664 10.6489 177.448 11.7267 177.24 14.1751L171.922 13.2279C172.166 8.82045 175.606 6.14209 180.541 6.14209C185.476 6.14209 188.95 8.88527 188.95 13.2279C188.95 16.2649 187.178 18.1581 184.05 20.9337L180.714 23.8065H189.194V28.5098H189.193Z" fill="#5E6168"/>
<path d="M210 20.3133C210 25.5048 206.108 28.9986 201.486 28.9986C199.227 28.9986 197.42 28.3452 196.065 27.2026V28.5083H190.505V5H196.065V13.424C197.42 12.2813 199.227 11.6279 201.486 11.6279C206.107 11.6279 210 15.1541 210 20.3133ZM204.543 20.3133C204.543 17.799 202.771 16.0678 200.339 16.0678C198.08 16.0678 196.064 17.799 196.064 20.3133C196.064 22.8599 198.08 24.5577 200.339 24.5577C202.771 24.5587 204.543 22.861 204.543 20.3133Z" fill="#5E6168"/>
<path d="M9.77224 17.9913L2.37305 18.0356C0.740688 18.0458 -0.269602 19.7969 0.555218 21.1875L1.35239 22.5303C1.54362 22.8533 1.54592 23.2524 1.3593 23.5776L0.168152 25.6436L2.57695 25.6288C2.95595 25.6265 3.30731 25.8244 3.49854 26.1461L4.29571 27.489C5.12053 28.8796 7.16185 28.8671 7.96939 27.4663L11.6292 21.1193C12.4368 19.7196 11.4058 17.981 9.77224 17.9913Z" fill="#5E6168"/>
<path d="M11.5164 13.0266L7.77819 6.72394C6.95337 5.33333 4.91206 5.34584 4.10452 6.74668L3.32462 8.09863C3.13685 8.42382 2.7878 8.62508 2.40995 8.62735L0 8.64213L1.21765 10.6934C1.40888 11.0163 1.41118 11.4154 1.22456 11.7406L0.444666 13.0925C-0.364027 14.4945 0.66815 16.233 2.30051 16.2228L9.6997 16.1785C11.3321 16.1682 12.3424 14.4172 11.5164 13.0266Z" fill="#5E6168"/>
<path d="M16.7453 12.0356L20.4051 5.68863C21.2127 4.28779 20.1816 2.54925 18.5481 2.55949L16.9711 2.56858C16.5921 2.57086 16.2407 2.37301 16.0495 2.05123L14.8318 0L13.6407 2.06601C13.4529 2.3912 13.1038 2.59246 12.726 2.59474L11.1489 2.60383C9.51657 2.61407 8.50628 4.36511 9.3311 5.75572L13.0693 12.0572C13.8964 13.449 15.9366 13.4365 16.7453 12.0356Z" fill="#5E6168"/>
<path d="M20.2288 16.0083L27.628 15.9639C29.2604 15.9537 30.2707 14.2027 29.4458 12.8121L28.6487 11.4692C28.4574 11.1463 28.4551 10.7472 28.6418 10.422L29.8329 8.35598L27.4241 8.37077C27.0451 8.37304 26.6938 8.17519 26.5025 7.85341L25.7053 6.51056C24.8805 5.11996 22.8392 5.13246 22.0317 6.5333L18.3718 12.8803C17.5643 14.28 18.5953 16.0185 20.2288 16.0083Z" fill="#5E6168"/>
<path d="M18.4847 20.9726L22.2229 27.2741C23.0478 28.6648 25.0891 28.6522 25.8966 27.2514L26.6765 25.8995C26.8643 25.5743 27.2133 25.373 27.5912 25.3707L30 25.356L28.7823 23.3047C28.5911 22.9818 28.5888 22.5827 28.7754 22.2575L29.5553 20.9056C30.3629 19.5047 29.3318 17.7662 27.6983 17.7764L20.2991 17.8208C18.6691 17.831 17.6588 19.582 18.4847 20.9726Z" fill="#5E6168"/>
<path d="M13.2559 21.9648L9.59601 28.3118C8.78846 29.7126 9.81949 31.4512 11.453 31.4409L13.0301 31.4318C13.4091 31.4296 13.7604 31.6274 13.9517 31.9492L15.1693 34.0004L16.3605 31.9344C16.5482 31.6092 16.8973 31.408 17.2751 31.4057L18.8522 31.3966C20.4846 31.3863 21.4949 29.6353 20.67 28.2447L16.9318 21.9432C16.1047 20.5515 14.0634 20.564 13.2559 21.9648Z" fill="#5E6168"/>
</svg>
