<?xml version="1.0" encoding="utf-8"?>
<!-- Generator: Adobe Illustrator 25.3.1, SVG Export Plug-In . SVG Version: 6.00 Build 0)  -->
<svg version="1.1" id="Layer_1" xmlns="http://www.w3.org/2000/svg" xmlns:xlink="http://www.w3.org/1999/xlink" x="0px" y="0px"
	 viewBox="0 0 530 90" style="enable-background:new 0 0 530 90;" xml:space="preserve">
<style type="text/css">
	.st0{fill:#FF2A01;}
</style>
<g>
	<g>
		<path d="M132.65,56.96l12.6,2.74c-2.14,10.2-11.23,16.8-21.94,16.8c-12.86,0-23.48-9.17-23.48-22.8c0-13.54,10.63-22.8,23.48-22.8
			c10.46,0,19.54,6.43,21.94,16.54l-12.86,3.09c-1.2-5.23-4.71-7.63-9.09-7.63c-6.17,0-10.28,4.54-10.28,10.8
			c0,6.34,4.11,10.8,10.28,10.8C127.67,64.5,131.19,62.19,132.65,56.96z"/>
		<path d="M148.93,75.21V13.5h13.71v61.71H148.93z"/>
		<path d="M169.84,75.21V32.19h13.71v43.03H169.84z"/>
		<path d="M220.76,56.96l12.6,2.74c-2.14,10.2-11.23,16.8-21.94,16.8c-12.86,0-23.48-9.17-23.48-22.8c0-13.54,10.63-22.8,23.48-22.8
			c10.46,0,19.54,6.43,21.94,16.54l-12.86,3.09c-1.2-5.23-4.71-7.63-9.08-7.63c-6.17,0-10.29,4.54-10.29,10.8
			c0,6.34,4.11,10.8,10.29,10.8C215.78,64.5,219.3,62.19,220.76,56.96z"/>
		<path d="M267.21,75.21L253.24,59.7h-2.49v15.51h-13.71V13.5h13.71v33.34h1.89l13.63-14.66h16.54l-18.86,20.48l20.83,22.54H267.21z
			"/>
		<path d="M327.9,75.21h-13.71V71.1c-3.26,3.43-7.8,5.4-13.2,5.4c-10.03,0-16.71-7.11-16.71-17.91v-26.4h13.63v23.48
			c0,5.06,3,8.49,7.37,8.49c5.4,0,8.91-3.69,8.91-12V32.19h13.71V75.21z"/>
		<path d="M344.61,61.24c0.6,3.68,3.94,5.06,7.63,5.06c3.6,0,5.57-1.54,5.57-3.43c0-1.46-1.11-2.57-4.29-3.17l-8.74-1.71
			c-7.97-1.46-12.51-5.74-12.51-12.51c0-8.83,7.63-14.57,18.51-14.57c10.71,0,17.83,4.89,19.54,12.34l-12.51,2.49
			c-0.43-2.66-3-5.06-7.2-5.06c-3.69,0-4.89,1.8-4.89,3.34c0,1.2,0.51,2.4,3.26,3l10.11,2.06c8.14,1.71,11.91,6.6,11.91,12.94
			c0,9.51-8.23,14.48-19.54,14.48c-10.11,0-18.77-3.68-20.23-12.51L344.61,61.24z"/>
		<g>
			<path d="M419.25,46.06c5.33,0.43,11.09,4.56,11.09,13.24c0,9.55-6.45,16.17-19.01,16.17h-29.93V17.85h29.84
				c10.58,0,17.46,6.28,17.46,15.74c0,7.91-5.59,11.7-9.46,12.12V46.06z M395.6,41.67h12.38c4.21,0,6.97-2.58,6.97-6.45
				c0-3.61-2.84-5.93-6.45-5.93h-12.9V41.67z M408.85,64.03c4.56,0,7.05-2.49,7.05-6.45c0-3.78-2.75-6.19-6.79-6.19h-13.5v12.64
				H408.85z"/>
			<path d="M473.7,75.47h-41.79v-9.29l19.87-18.66c3.78-3.53,7.74-6.97,7.74-12.21c0-4.13-2.92-6.88-7.14-6.88
				c-4.73,0-7.74,2.84-8.26,9.29l-13.16-2.49c0.6-11.61,9.12-18.66,21.33-18.66s20.81,7.22,20.81,18.66c0,8-4.39,12.98-12.13,20.29
				l-8.26,7.57h20.98V75.47z"/>
			<path d="M514.64,46.06c5.33,0.43,11.09,4.56,11.09,13.24c0,9.55-6.45,16.17-19.01,16.17H476.8V17.85h29.84
				c10.58,0,17.46,6.28,17.46,15.74c0,7.91-5.59,11.7-9.46,12.12V46.06z M490.99,41.67h12.38c4.21,0,6.97-2.58,6.97-6.45
				c0-3.61-2.84-5.93-6.45-5.93h-12.9V41.67z M504.23,64.03c4.56,0,7.05-2.49,7.05-6.45c0-3.78-2.75-6.19-6.79-6.19h-13.5v12.64
				H504.23z"/>
		</g>
	</g>
	<g>
		<g>
			<g>
				<path class="st0" d="M48.03,54.44l9.09,15.75c1.73,3,6.06,3,7.79,0l1.86-3.22c0.42-0.72,1.16-1.19,1.99-1.24l5.89-0.41
					l-2.59-5.31c-0.36-0.75-0.33-1.63,0.08-2.35l1.86-3.22c1.73-3-0.43-6.75-3.9-6.75l-18.19,0C48.46,47.69,46.29,51.44,48.03,54.44
					z"/>
				<path class="st0" d="M30.9,35.56L21.81,19.8c-1.73-3-6.06-3-7.79,0l-1.86,3.22c-0.42,0.72-1.16,1.19-1.99,1.24l-5.89,0.41
					l2.59,5.31c0.36,0.75,0.33,1.63-0.08,2.35l-1.86,3.22c-1.73,3,0.43,6.75,3.9,6.75l18.19,0C30.47,42.31,32.63,38.56,30.9,35.56z"
					/>
			</g>
		</g>
		<g>
			<g>
				<path class="st0" d="M27,47.69l-18.19,0c-3.46,0-5.63,3.75-3.9,6.75l1.86,3.22c0.42,0.72,0.45,1.6,0.08,2.35l-2.59,5.31
					l5.89,0.41c0.83,0.06,1.58,0.52,1.99,1.24l1.86,3.22c1.73,3,6.06,3,7.79,0l9.09-15.75C32.63,51.44,30.47,47.69,27,47.69z"/>
				<path class="st0" d="M51.92,42.31l18.19,0c3.46,0,5.63-3.75,3.9-6.75l-1.86-3.22c-0.42-0.72-0.45-1.6-0.08-2.35l2.59-5.31
					l-5.89-0.41c-0.83-0.06-1.58-0.52-1.99-1.24l-1.86-3.22c-1.73-3-6.06-3-7.79,0l-9.09,15.75C46.29,38.56,48.46,42.31,51.92,42.31
					z"/>
			</g>
		</g>
		<g>
			<g>
				<path class="st0" d="M35.57,57.14l-9.1,15.75c-1.73,3,0.43,6.75,3.9,6.75h3.72c0.83,0,1.61,0.41,2.07,1.1l3.3,4.9l3.3-4.9
					c0.46-0.69,1.24-1.1,2.07-1.1h3.72c3.46,0,5.63-3.75,3.9-6.75l-9.1-15.75C41.63,54.14,37.3,54.14,35.57,57.14z"/>
				<path class="st0" d="M43.36,32.86l9.1-15.75c1.73-3-0.43-6.75-3.9-6.75h-3.72c-0.83,0-1.61-0.41-2.07-1.1l-3.3-4.9l-3.3,4.9
					c-0.46,0.69-1.24,1.1-2.07,1.1h-3.72c-3.46,0-5.63,3.75-3.9,6.75l9.1,15.75C37.3,35.86,41.63,35.86,43.36,32.86z"/>
			</g>
		</g>
	</g>
</g>
</svg>
