<svg width="32" height="37" viewBox="0 0 32 37" fill="none" xmlns="http://www.w3.org/2000/svg">
<path d="M19.8434 22.5905L23.7881 29.4155C24.5389 30.7155 26.4179 30.7155 27.1687 29.4155L27.9759 28.0202C28.1581 27.7082 28.4793 27.5045 28.8394 27.4829L31.3955 27.3052L30.2715 25.0042C30.1153 24.6792 30.1283 24.2979 30.3062 23.9859L31.1134 22.5905C31.8642 21.2905 30.9268 19.6655 29.421 19.6655H21.5272C20.03 19.6655 19.0883 21.2905 19.8434 22.5905Z" fill="#FF2A01"/>
<path d="M12.4095 14.4093L8.46478 7.57998C7.71403 6.27998 5.83497 6.27998 5.08421 7.57998L4.27704 8.97531C4.09478 9.28731 3.77365 9.49098 3.41346 9.51265L0.857422 9.69031L1.98138 11.9913C2.13761 12.3163 2.12459 12.6976 1.94667 13.0096L1.1395 14.405C0.388742 15.705 1.3261 17.33 2.83195 17.33H10.7257C12.2229 17.3343 13.1603 15.7093 12.4095 14.4093Z" fill="#FF2A01"/>
<path d="M10.7169 19.6658H2.82316C1.32165 19.6658 0.379953 21.2908 1.13071 22.5908L1.93788 23.9861C2.12014 24.2981 2.13316 24.6794 1.97259 25.0044L0.848633 27.3054L3.40467 27.4831C3.76486 27.5091 4.09033 27.7084 4.26826 28.0204L5.07543 29.4158C5.82618 30.7158 7.70524 30.7158 8.45599 29.4158L12.4007 22.5908C13.1601 21.2908 12.2228 19.6658 10.7169 19.6658Z" fill="#FF2A01"/>
<path d="M21.5315 17.3344H29.4253C30.9268 17.3344 31.8685 15.7094 31.1178 14.4094L30.3106 13.014C30.1283 12.702 30.1153 12.3207 30.2759 11.9957L31.3998 9.69471L28.8438 9.51704C28.4836 9.49104 28.1581 9.29171 27.9802 8.97971L27.173 7.58437C26.4223 6.28438 24.5432 6.28438 23.7925 7.58437L19.8478 14.4094C19.0883 15.7094 20.03 17.3344 21.5315 17.3344Z" fill="#FF2A01"/>
<path d="M14.436 23.7606L10.487 30.5856C9.73623 31.8856 10.6736 33.5106 12.1794 33.5106H13.7938C14.154 33.5106 14.4925 33.6883 14.6921 33.9873L16.1242 36.1106L17.5562 33.9873C17.7559 33.6883 18.0943 33.5106 18.4545 33.5106H20.0689C21.5704 33.5106 22.5121 31.8856 21.7613 30.5856L17.8123 23.7606C17.0659 22.4606 15.1868 22.4606 14.436 23.7606Z" fill="#FF2A01"/>
<path d="M17.8166 13.2394L21.7656 6.4144C22.5164 5.1144 21.579 3.4894 20.0732 3.4894H18.4588C18.0987 3.4894 17.7602 3.31174 17.5605 3.01274L16.1285 0.889404L14.6964 3.01274C14.4968 3.31174 14.1583 3.4894 13.7981 3.4894H12.1837C10.6822 3.4894 9.74054 5.1144 10.4913 6.4144L14.4403 13.2394C15.1868 14.5394 17.0658 14.5394 17.8166 13.2394Z" fill="#FF2A01"/>
</svg>
