<svg width="32" height="37" viewBox="0 0 32 37" fill="none" xmlns="http://www.w3.org/2000/svg">
<path d="M19.8432 22.5907L23.7879 29.4157C24.5387 30.7157 26.4178 30.7157 27.1685 29.4157L27.9757 28.0203C28.1579 27.7083 28.4791 27.5047 28.8393 27.483L31.3953 27.3053L30.2713 25.0043C30.1151 24.6793 30.1281 24.298 30.3061 23.986L31.1132 22.5907C31.864 21.2907 30.9266 19.6657 29.4208 19.6657H21.527C20.0298 19.6657 19.0881 21.2907 19.8432 22.5907Z" fill="#FF2A01"/>
<path d="M12.4095 14.4093L8.46478 7.58001C7.71403 6.28001 5.83497 6.28001 5.08421 7.58001L4.27704 8.97535C4.09478 9.28735 3.77365 9.49101 3.41346 9.51268L0.857422 9.69034L1.98138 11.9913C2.13761 12.3163 2.12459 12.6977 1.94667 13.0097L1.1395 14.405C0.388742 15.705 1.3261 17.33 2.83195 17.33H10.7257C12.2229 17.3343 13.1603 15.7093 12.4095 14.4093Z" fill="#FF2A01"/>
<path d="M10.717 19.6657H2.82322C1.32171 19.6657 0.380014 21.2907 1.13077 22.5907L1.93794 23.986C2.1202 24.298 2.13322 24.6793 1.97266 25.0043L0.848694 27.3053L3.40473 27.483C3.76492 27.509 4.09039 27.7083 4.26832 28.0203L5.07549 29.4157C5.82624 30.7157 7.7053 30.7157 8.45605 29.4157L12.4008 22.5907C13.1602 21.2907 12.2228 19.6657 10.717 19.6657Z" fill="#FF2A01"/>
<path d="M21.5313 17.3343H29.4251C30.9266 17.3343 31.8683 15.7093 31.1176 14.4093L30.3104 13.014C30.1281 12.702 30.1151 12.3207 30.2757 11.9957L31.3997 9.69468L28.8436 9.51701C28.4834 9.49101 28.1579 9.29168 27.98 8.97968L27.1729 7.58434C26.4221 6.28434 24.543 6.28434 23.7923 7.58434L19.8476 14.4093C19.0881 15.7093 20.0298 17.3343 21.5313 17.3343Z" fill="#FF2A01"/>
<path d="M14.436 23.7607L10.487 30.5857C9.73623 31.8857 10.6736 33.5107 12.1794 33.5107H13.7938C14.154 33.5107 14.4925 33.6883 14.6921 33.9873L16.1242 36.1107L17.5562 33.9873C17.7559 33.6883 18.0943 33.5107 18.4545 33.5107H20.0689C21.5704 33.5107 22.5121 31.8857 21.7613 30.5857L17.8123 23.7607C17.0659 22.4607 15.1868 22.4607 14.436 23.7607Z" fill="#FF2A01"/>
<path d="M17.8166 13.2393L21.7657 6.41434C22.5164 5.11434 21.5791 3.48934 20.0732 3.48934H18.4589C18.0987 3.48934 17.7602 3.31168 17.5606 3.01268L16.1285 0.889343L14.6964 3.01268C14.4968 3.31168 14.1583 3.48934 13.7981 3.48934H12.1838C10.6823 3.48934 9.7406 5.11434 10.4914 6.41434L14.4404 13.2393C15.1868 14.5393 17.0659 14.5393 17.8166 13.2393Z" fill="#FF2A01"/>
</svg>
