<svg width="408" height="462" viewBox="0 0 408 462" fill="none" xmlns="http://www.w3.org/2000/svg">
<path d="M130.876 241.001L30.054 241.615C7.80444 241.751 -5.95602 265.681 5.29098 284.693L16.1468 303.051C18.7581 307.461 18.7874 312.917 16.2348 317.361L0 345.605L32.8217 345.407C37.9855 345.378 42.7729 348.074 45.3792 352.485L56.235 370.842C67.4771 389.854 95.2915 389.685 106.299 370.537L156.172 283.783C167.179 264.626 153.126 240.865 130.876 241.001Z" fill="#F5F7FA"/>
<path d="M156.019 177.306L105.366 91.158C94.189 72.1458 66.5361 72.3153 55.5926 91.463L45.0283 109.952C42.4905 114.397 37.765 117.151 32.6312 117.185L0 117.384L16.4906 145.425C19.0867 149.836 19.1159 155.292 16.5781 159.736L6.01382 178.226C-4.92968 197.373 9.04261 221.135 31.163 220.999L131.4 220.385C153.52 220.249 167.196 196.318 156.019 177.306Z" fill="#F5F7FA"/>
<path d="M229.863 165.457L280.141 78.2078C291.238 58.9516 277.07 35.0555 254.639 35.1918L232.983 35.3233C227.777 35.3525 222.951 32.6405 220.319 28.205L203 0L187.23 28.4047C184.657 32.8742 179.865 35.6446 174.659 35.6787L153.003 35.8101C130.573 35.9465 116.7 60.013 128.039 79.1328L179.402 165.764C190.725 184.879 218.766 184.713 229.863 165.457Z" fill="#F5F7FA"/>
<path d="M277.124 220.999L377.946 220.385C400.196 220.249 413.956 196.319 402.709 177.307L391.853 158.949C389.242 154.539 389.213 149.083 391.765 144.639L408 116.395L375.178 116.593C370.014 116.622 365.227 113.926 362.621 109.515L351.765 91.1575C340.523 72.146 312.709 72.3155 301.701 91.4625L251.828 178.217C240.821 197.374 254.874 221.135 277.124 220.999Z" fill="#F5F7FA"/>
<path d="M251.981 284.699L302.634 370.842C313.811 389.854 341.464 389.685 352.407 370.537L362.972 352.048C365.509 347.603 370.235 344.849 375.369 344.815L408 344.616L391.509 316.575C388.913 312.164 388.884 306.708 391.422 302.264L401.986 283.774C412.93 264.627 398.957 240.865 376.837 241.001L276.6 241.615C254.48 241.756 240.804 265.687 251.981 284.699Z" fill="#F5F7FA"/>
<path d="M178.137 296.543L127.859 383.792C116.762 403.048 130.93 426.945 153.361 426.808L175.017 426.677C180.223 426.648 185.049 429.359 187.681 433.795L204 462L220.77 433.595C223.343 429.126 228.135 426.355 233.341 426.321L254.997 426.19C277.427 426.054 291.3 401.987 279.961 382.867L228.608 296.236C217.275 277.121 189.234 277.287 178.137 296.543Z" fill="#F5F7FA"/>
</svg>
