<svg width="24" height="24" viewBox="0 0 24 24" fill="none" xmlns="http://www.w3.org/2000/svg">
<path d="M20.657 14.8582C20.0794 14.3084 19.3121 14.0023 18.5146 14.0036C17.7172 14.0049 16.9509 14.3135 16.375 14.8652L14.4691 16.4712C12.9132 15.8271 11.4999 14.882 10.3103 13.6902C9.12071 12.4983 8.17826 11.0833 7.53706 9.5262L9.13706 7.6262C9.68834 7.05029 9.99656 6.28414 9.99768 5.4869C9.9988 4.68967 9.69273 3.92265 9.14306 3.3452C9.14306 3.3452 7.29206 0.9422 7.26106 0.9112C6.6906 0.336409 5.91677 0.00932636 5.107 0.000717698C4.29722 -0.00789096 3.51662 0.302666 2.93407 0.8652L1.78407 1.8652C-5.93592 10.0732 13.9841 30.0032 22.184 22.1652L23.096 21.1152C23.6749 20.5342 24 19.7474 24 18.9272C24 18.107 23.6749 17.3202 23.096 16.7392C23.064 16.7102 20.657 14.8582 20.657 14.8582ZM22.565 12.5752C27.556 5.2292 18.765 -3.5478 11.4271 1.4392C11.2096 1.59104 11.0613 1.82305 11.0149 2.08419C10.9685 2.34534 11.0277 2.61422 11.1796 2.8317C11.3314 3.04918 11.5634 3.19743 11.8245 3.24385C12.0857 3.29026 12.3546 3.23104 12.5721 3.0792C18.044 -0.6788 24.682 5.9622 20.925 11.4312C20.8467 11.5387 20.7906 11.6608 20.7601 11.7903C20.7295 11.9198 20.7251 12.0541 20.7471 12.1853C20.7691 12.3165 20.8171 12.442 20.8882 12.5544C20.9593 12.6669 21.0521 12.764 21.1613 12.8401C21.2704 12.9162 21.3936 12.9698 21.5237 12.9977C21.6537 13.0256 21.7881 13.0273 21.9188 13.0026C22.0495 12.9779 22.174 12.9274 22.285 12.854C22.396 12.7806 22.4912 12.6858 22.565 12.5752ZM18.707 10.7102C18.8945 10.5227 18.9998 10.2684 18.9998 10.0032C18.9998 9.73804 18.8945 9.48373 18.707 9.2962L17 7.5892V5.0002C17 4.73498 16.8947 4.48063 16.7072 4.29309C16.5196 4.10556 16.2653 4.0002 16 4.0002C15.7348 4.0002 15.4805 4.10556 15.2929 4.29309C15.1054 4.48063 15.0001 4.73498 15.0001 5.0002V8.0002C15.0001 8.2654 15.1055 8.51971 15.2931 8.7072L17.293 10.7072C17.4806 10.8947 17.7349 11 18 11C18.2652 11 18.5195 10.8947 18.707 10.7072V10.7102Z" fill="#5E6168"/>
</svg>
