<svg width="30" height="30" viewBox="0 0 30 30" fill="none" xmlns="http://www.w3.org/2000/svg">
<path fill-rule="evenodd" clip-rule="evenodd" d="M18.4224 3.45225H10.1062C7.50616 3.44225 5.37491 5.51475 5.31366 8.1135V21.5047C5.25616 24.146 7.34991 26.3347 9.99116 26.3935C10.0299 26.3935 10.0674 26.3947 10.1062 26.3935H20.0924C22.7099 26.2872 24.7724 24.1247 24.7537 21.5047V10.0472L18.4224 3.45225Z" stroke="#595959" stroke-width="1.5" stroke-linecap="round" stroke-linejoin="round"/>
<path d="M18.0942 3.4375V7.07375C18.0942 8.84875 19.5292 10.2875 21.3042 10.2925H24.748" stroke="#595959" stroke-width="1.5" stroke-linecap="round" stroke-linejoin="round"/>
<rect x="3" y="14" width="24" height="8" rx="1" fill="#01AC46"/>
<path d="M9.724 15.83V18.836C9.724 19.208 9.61 19.502 9.382 19.718C9.158 19.934 8.862 20.042 8.494 20.042C8.126 20.042 7.828 19.934 7.6 19.718C7.376 19.502 7.264 19.208 7.264 18.836H7.954C7.958 19.02 8.004 19.166 8.092 19.274C8.184 19.382 8.318 19.436 8.494 19.436C8.67 19.436 8.804 19.382 8.896 19.274C8.988 19.162 9.034 19.016 9.034 18.836V15.83H9.724ZM14.3527 17.072C14.3527 17.284 14.3027 17.484 14.2027 17.672C14.1027 17.86 13.9427 18.014 13.7227 18.134C13.5027 18.25 13.2207 18.308 12.8767 18.308H12.1207V20H11.4367V15.83H12.8767C13.1967 15.83 13.4667 15.886 13.6867 15.998C13.9107 16.106 14.0767 16.254 14.1847 16.442C14.2967 16.63 14.3527 16.84 14.3527 17.072ZM12.8767 17.75C13.1367 17.75 13.3307 17.692 13.4587 17.576C13.5867 17.456 13.6507 17.288 13.6507 17.072C13.6507 16.616 13.3927 16.388 12.8767 16.388H12.1207V17.75H12.8767ZM16.2891 16.382V17.606H17.7291V18.164H16.2891V19.442H17.9091V20H15.6051V15.824H17.9091V16.382H16.2891ZM22.3696 17.03C22.2616 16.822 22.1116 16.666 21.9196 16.562C21.7276 16.454 21.5056 16.4 21.2536 16.4C20.9776 16.4 20.7316 16.462 20.5156 16.586C20.2996 16.71 20.1296 16.886 20.0056 17.114C19.8856 17.342 19.8256 17.606 19.8256 17.906C19.8256 18.206 19.8856 18.472 20.0056 18.704C20.1296 18.932 20.2996 19.108 20.5156 19.232C20.7316 19.356 20.9776 19.418 21.2536 19.418C21.6256 19.418 21.9276 19.314 22.1596 19.106C22.3916 18.898 22.5336 18.616 22.5856 18.26H21.0196V17.714H23.3176V18.248C23.2736 18.572 23.1576 18.87 22.9696 19.142C22.7856 19.414 22.5436 19.632 22.2436 19.796C21.9476 19.956 21.6176 20.036 21.2536 20.036C20.8616 20.036 20.5036 19.946 20.1796 19.766C19.8556 19.582 19.5976 19.328 19.4056 19.004C19.2176 18.68 19.1236 18.314 19.1236 17.906C19.1236 17.498 19.2176 17.132 19.4056 16.808C19.5976 16.484 19.8556 16.232 20.1796 16.052C20.5076 15.868 20.8656 15.776 21.2536 15.776C21.6976 15.776 22.0916 15.886 22.4356 16.106C22.7836 16.322 23.0356 16.63 23.1916 17.03H22.3696Z" fill="white"/>
</svg>
