<svg width="156" height="50" viewBox="0 0 156 50" fill="none" xmlns="http://www.w3.org/2000/svg">
<path d="M87.3694 9.90006H92.1699L92.8258 10.5481V11.4416L92.343 11.9174H87.3694V9.90006ZM87.3694 7.47545H92.3079L92.7822 7.9416V8.68237L92.2646 9.19506H87.3694V7.47545ZM86.4622 6.7666V12.6412H92.7736L93.7326 11.6978V10.3812L92.9374 9.59314L93.6885 8.85545V7.68853L92.7564 6.7666H86.4622ZM95.3667 6.7666V7.40737H97.2496V11.9947H95.3667V12.6412H100.047V11.9947H98.1521V7.40737H100.047V6.7666H95.3667ZM102.929 7.45122H107.692L108.316 8.06083V8.7766L107.564 9.51699H102.929V7.45122ZM102.024 6.7666V12.6412H102.929V10.242H107.273L108.436 12.6412H109.41L108.151 10.0793L109.221 9.02622V7.81391L108.159 6.7666H102.024ZM112.3 7.45122H117.064L117.683 8.06083V8.7766L116.933 9.51699H112.3V7.45122ZM111.394 6.7666V12.6412H112.3V10.242H116.64L117.805 12.6412H118.777L117.518 10.0793L118.591 9.02622V7.81391L117.53 6.7666H111.394ZM124.059 7.27083L125.87 10.2858H122.245L124.059 7.27083ZM123.445 6.7666L119.856 12.6412H120.824L121.814 10.9901H126.3L127.294 12.6412H128.296L124.705 6.7666H123.445Z" fill="black"/>
<path d="M149.116 26.2355H151.566V25.1044H148.615L149.116 26.2355ZM141.877 25.0432H141.684L141.166 26.2855H141.633L143.827 31.6113H144.584L141.877 25.0432ZM83.49 25.1351H85.8098V26.2667H83.49V25.1351ZM111.699 25.1351H119.105V26.2655H111.699V25.1351ZM135.51 25.1044H132.807V26.2355H135.012L135.51 25.1044ZM146.583 38.1778H147.321L146.484 36.149H137.081L136.613 37.2817H146.211L146.583 38.1778ZM125.914 25.1351H128.233V26.2655H125.914V25.1351ZM128.233 42.7144H138.47V43.8463H128.233V42.7144ZM77.7566 35.2901H65.2899V36.4205H77.5187L81.253 32.7401V31.8432L77.9243 35.1244L77.7566 35.2901ZM56.16 42.7144H68.6673V43.8463H56.16V42.7144ZM83.4908 42.7144H107.227V43.8463H83.4908V42.7144ZM92.618 25.1351H101.739V26.2655H92.618V25.1351ZM121.918 42.5486L121.751 42.7144H110.179V43.8463H121.514L125.34 40.0721V39.1748L121.918 42.5486ZM145.187 42.7144H155.952V43.8463H145.187V42.7144ZM102.312 27.8044H107.195V28.9351H102.312V27.8044ZM56.16 25.1355H58.4801V26.2667H56.16V25.1355ZM92.6176 33.9094H104.24V35.0409H92.6176V33.9094ZM65.2899 25.1655V26.2978H74.3145L74.9857 26.9748V26.0874L74.0719 25.1655H65.2899Z" fill="#B9AD6B"/>
<path d="M62.0147 22.9143V32.8462H75.8129L78.2761 30.3289V25.3905L75.8258 22.9143H62.0147ZM75.5582 29.8151L74.2837 31.1047H64.7158V24.6001H74.3145L75.5582 25.8578V29.8151Z" fill="black"/>
<path d="M58.1022 22.5649H75.9755L78.6322 25.2491V30.4703L75.9642 33.1968H62.0151V40.1599H66.8242V40.5095H57.9275V40.1599H61.659V22.9145H58.1022V22.5649ZM56.16 20.9791V24.5695H59.0542V38.558H56.16V42.1484H68.6673V38.558H64.7154V34.7245H77.518L81.253 31.0418V24.6299L77.5492 20.9791H56.16ZM86.3834 38.5588H83.4912V42.1484H107.227V35.8595H102.311V38.5588H92.0459V33.3426H104.24V29.6003H92.0459V24.5695H102.312V27.2384H107.195V20.9803H83.4912V24.5695H86.3834V38.5588ZM85.4533 22.9141V22.5649H104.971V25.5407H104.618V22.9141H89.3092V31.188H102.621V31.538H89.3092V40.1584H104.658V37.5565H105.013V40.5099H85.2844V40.1584H88.9543V22.9141H85.4533ZM125.34 38.3745V24.5691H128.234V20.9788H111.699V24.5691H119.679V36.5034L118.03 38.1291H110.181V42.148H121.514L125.34 38.3745ZM111.795 40.5099V40.1584H119.831L122.334 37.3115V22.9141H113.502V22.5634H126.581V22.9141H122.69V37.4415L119.993 40.5103H111.795V40.5099ZM134.272 22.5649H150.065V22.9141H144.298L152.037 40.1595H154.114V40.508H146.911V40.1595H151.65L148.908 34.0503H135.104L132.42 40.1584L136.72 40.1511L136.721 40.5003L130.028 40.5126V40.1618L132.031 40.1591L139.61 22.9138H134.272V22.5649ZM132.807 20.9791V24.538H136.385L130.193 38.5899H128.234V42.1484H138.47V38.7434H135.388L136.696 35.5826H146.869L148.175 38.7434H145.188V42.1484H155.953V38.5899H153.961L147.741 24.538H151.565V20.9791H132.807Z" fill="black"/>
<path d="M143.909 22.9146H139.998L135.259 33.6988H148.75L143.909 22.9146ZM141.299 24.4765H142.263L145.437 32.1769H138.095L141.299 24.4765Z" fill="black"/>
<path d="M58.1022 22.565V22.9142H61.659V40.1596H57.9275V40.5092H66.8242V40.1596H62.0151V33.1969H75.9642L78.6322 30.4704V25.2492L75.9755 22.565H58.1022ZM78.2761 30.3285L75.8129 32.8458H62.0151V22.9142H75.8258L78.2761 25.3904V30.3285ZM88.9543 40.1585H85.2844V40.51H105.013V37.5566H104.658V40.1585H89.3092V31.5381H102.621V31.1881H89.3092V22.9142H104.618V25.5408H104.971V22.565H85.4533V22.9142H88.9543V40.1585ZM122.69 22.9142H126.581V22.5635H113.502V22.9142H122.335V37.3112L119.831 40.1585H111.795V40.51H119.993L122.69 37.4416V22.9142ZM136.72 40.1519L132.42 40.1589L135.104 34.0508H148.908L151.65 40.16H146.911V40.5085H154.114V40.16H152.038L144.298 22.9146H150.065V22.5654H134.272V22.9146H139.61L132.032 40.16L130.029 40.1627V40.5135L136.721 40.5012L136.72 40.1519ZM139.998 22.9142H143.909L148.75 33.6985H135.258L139.998 22.9142Z" fill="#D1D3D3"/>
<path d="M19.0437 35.3577H19.0398V39.1931C19.6552 38.6395 20.3102 38.1305 21 37.67V35.3581H20.9945C20.9807 35.1129 20.8721 34.8823 20.6911 34.7137C20.5101 34.5452 20.2704 34.4514 20.0214 34.4519C19.7718 34.4506 19.5312 34.5439 19.3493 34.7124C19.1674 34.881 19.058 35.1119 19.0437 35.3577ZM21.7269 35.3577H21.7242V37.2123C22.3536 36.8342 23.0073 36.4969 23.6812 36.2027V35.3581C23.6659 35.1122 23.5559 34.8815 23.3737 34.713C23.1915 34.5446 22.9509 34.4512 22.7011 34.4519C22.452 34.451 22.2119 34.5444 22.0306 34.713C21.8493 34.8815 21.7406 35.1123 21.7269 35.3577ZM24.4093 35.3577H24.4074V35.9077C25.0428 35.6667 25.6928 35.4647 26.3535 35.3027C26.3253 35.0635 26.2072 34.8434 26.0225 34.6858C25.8378 34.5282 25.6 34.4446 25.3559 34.4515C25.1117 34.4585 24.8791 34.5553 24.7039 34.7231C24.5287 34.8908 24.4236 35.1173 24.4093 35.3577ZM33.6531 35.3027C34.3141 35.465 34.9644 35.667 35.6004 35.9077V35.3577H35.5984C35.5831 35.1125 35.4737 34.8823 35.2923 34.714C35.111 34.5456 34.8713 34.4518 34.6223 34.4515C34.3828 34.4507 34.1514 34.5371 33.9725 34.6942C33.7937 34.8513 33.6799 35.068 33.6531 35.3027ZM25.2997 30.2738L25.0766 30.4981V30.8185L25.2174 30.9608H27.0017L27.1659 30.7981V30.4981L26.9385 30.2738H25.2997ZM6.75364 30.3258C6.67057 30.3312 6.59218 30.3342 6.49585 30.3473L6.15421 30.3558C6.22597 31.2512 6.46387 32.1908 6.84139 33.0788C6.87454 33.1596 6.91315 33.2396 6.94747 33.3162C7.37881 34.2592 7.89868 35.0296 8.40295 35.4988V30.0335C7.8636 30.1813 7.31144 30.2792 6.75364 30.3258ZM39.8955 35.4988C40.3997 35.0296 40.9184 34.2592 41.3505 33.3162C41.3856 33.2396 41.4239 33.1596 41.4547 33.0788C41.8341 32.1908 42.0724 31.2512 42.1438 30.3558C42.028 30.3523 41.9106 30.3504 41.8014 30.3473C41.7062 30.3342 41.6274 30.3312 41.5444 30.3258C40.9867 30.2795 40.4346 30.1816 39.8955 30.0335V35.4988ZM7.44394 23.7485C6.52042 24.1562 5.43739 25.5012 4.87384 26.9477L4.86058 26.9758C4.83625 27.0307 4.81592 27.0872 4.79974 27.145C4.69678 27.43 4.61254 27.6942 4.55248 27.9285L4.54351 27.9596C4.41832 28.4515 4.36372 28.9038 4.38829 29.2415L4.44718 29.2569C4.81261 29.3258 5.42725 29.4423 6.44905 29.3788C6.51301 29.3735 6.57424 29.3712 6.63508 29.3615L6.66823 29.3562C7.25712 29.3111 7.83894 29.2004 8.40256 29.0262V23.4608C8.06955 23.5058 7.74595 23.6029 7.44394 23.7485ZM39.8955 29.0254C40.4504 29.1969 41.0389 29.3115 41.6294 29.3554L41.6633 29.3608C41.7234 29.3704 41.7815 29.3727 41.8494 29.3781C42.87 29.4419 43.4862 29.325 43.8516 29.2562L43.9105 29.2408C43.9335 28.9031 43.8801 28.4512 43.7541 27.9588L43.7424 27.9277C43.6744 27.6627 43.5929 27.4012 43.4983 27.1442C43.4831 27.0827 43.4608 27.0319 43.437 26.975L43.4253 26.9469C42.861 25.5 41.7776 24.1554 40.8533 23.7477C40.5516 23.6024 40.2284 23.5051 39.8958 23.4596V29.0254H39.8955ZM23.2085 24.2596L26.3422 23.6808L27.6998 21.5396L23.2085 24.2596ZM18.9146 20.6254L17.0138 22.8996L20.8034 21.5088V20.3696L18.9146 20.6254ZM5.40463 16.0085L5.36563 16.0138C5.28802 16.0254 5.21392 16.0435 5.13592 16.0604C3.89611 16.3488 3.20581 16.7088 2.79436 16.9215L2.73001 16.9604C2.82634 17.3715 3.05605 17.8908 3.38755 18.4308L3.409 18.4654C3.56656 18.7238 3.76507 19.0088 3.99283 19.31C4.03378 19.3785 4.07863 19.4319 4.12816 19.4923L4.15351 19.5208C5.35627 21.0431 7.14247 22.2588 8.39242 22.4135C8.39671 22.4146 8.40061 22.4146 8.40256 22.4146V15.8104L8.14828 15.7973C7.94243 15.7829 7.73612 15.7758 7.52974 15.7762C6.81493 15.7773 6.10236 15.8552 5.40463 16.0085ZM40.1474 15.7973L39.8955 15.8104V22.4146H39.9013C41.1559 22.2588 42.9414 21.0431 44.1449 19.5208L44.171 19.4927C44.2202 19.4323 44.2638 19.3788 44.3021 19.3104C44.5126 19.039 44.7088 18.7571 44.8898 18.4658L44.9085 18.4312C45.2431 17.8912 45.4686 17.3719 45.568 16.9608L45.5033 16.9215C45.0918 16.7088 44.4031 16.3492 43.1621 16.0604C43.0833 16.0438 43.01 16.0254 42.9324 16.0138L42.8918 16.0085C42.1944 15.8553 41.482 15.7775 40.7675 15.7765C40.5585 15.7765 40.3529 15.7831 40.1474 15.7973ZM21.7242 29.9027H23.1219V31.8942H23.9437V32.2515H21.7242V31.8946H22.56V30.2569H21.7242V29.9027ZM24.5135 30.945V30.3688L24.9869 29.9027H27.2571L27.7294 30.3688V31.7854L27.2571 32.2515H24.9276L24.5302 31.8612V31.5785H25.0794V31.7238L25.2416 31.8835H26.9151L27.1659 31.6354V31.1388L26.9736 31.3288H24.9003L24.5135 30.945ZM28.3136 29.9027H31.2511V30.22L29.9118 31.5277V32.2515H29.3487V31.4208L30.498 30.2977H28.3132V29.9027H28.3136ZM31.8143 29.9027H33.2112V31.8942H34.0318V32.2515H31.8143V31.8946H32.6493V30.2569H31.8143V29.9027ZM15.7057 32.0054L15.6983 29.1388L15.7088 29.0535L16.4292 26.0281C16.4479 25.9494 16.44 25.8668 16.4065 25.7931L15.7802 24.4196C15.8781 24.0351 15.9594 23.6467 16.0239 23.2554L14.6024 20.4854L21.1002 16.6885L25.8991 19.0108L22.1329 20.7477V21.0419L28.7773 18.7515L32.1657 19.6496L29.7633 20.8515C29.6969 20.8832 29.6402 20.9316 29.5991 20.9919L29.2992 21.4715C29.1712 21.6077 29.0804 21.76 29.0129 21.9269L27.4143 24.4612C27.3865 24.5047 27.3499 24.5421 27.3068 24.571C27.2636 24.5999 27.2148 24.6196 27.1635 24.6288L24.4834 25.1127C24.3997 25.1275 24.3236 25.1701 24.2678 25.2335L23.329 26.2985C23.3125 26.324 23.2954 26.3492 23.2776 26.3738L22.8969 27.1115C22.8755 27.1525 22.8465 27.1891 22.8115 27.2196L19.7481 29.8973C19.7077 29.9325 19.6756 29.9759 19.6541 30.0246L18.6623 32.245C16.896 32.245 16.2615 32.2462 15.7954 32.2462C15.7376 32.1789 15.7058 32.0936 15.7057 32.0054ZM19.9969 16.3631L14.1964 19.6919L12.6976 16.7719V40.3227C12.6976 40.7069 12.9273 41.0608 13.2834 41.2204L18.2594 43.46L25.2373 41.9658C25.2373 41.0312 25.1905 41.0862 25.0622 40.9473L23.4351 39.2965C23.4351 39.2965 28.722 38.5154 33.7783 41.7769L35.0134 41.2204C35.1882 41.1419 35.3364 41.0156 35.4405 40.8565C35.5447 40.6973 35.6003 40.5121 35.6008 40.3227V37.1477C34.0045 36.5273 32.136 36.1088 30.0039 36.1088C22.7339 36.1088 18.5129 40.9508 17.8125 42.1665C17.3893 40.9681 17.9817 39.4908 17.6982 38.3173C17.6054 37.9462 17.153 37.7335 17.0025 37.2965C16.7809 36.6438 17.0239 36.0946 16.7727 35.715C16.3215 35.0235 15.9015 33.2812 15.9015 33.2812H35.6008V16.8285L32.5662 18.9065L32.5401 18.9054L28.8175 17.9335L28.4408 17.8419L26.8691 18.5654L21.0741 15.7085L19.9969 16.3631ZM33.0736 12.2842V13.7169H36.99V40.3227C36.9889 40.7791 36.8553 41.2256 36.605 41.6096C36.3548 41.9935 35.9983 42.2987 35.5778 42.4892L24.125 47.6438L12.6731 42.4892C12.2522 42.299 11.8954 41.9939 11.6448 41.6099C11.3943 41.226 11.2605 40.7793 11.2593 40.3227V13.7169H15.1769V12.2842H9.80734V40.3227C9.80854 41.0537 10.0222 41.7691 10.4231 42.384C10.8239 42.999 11.3951 43.4877 12.069 43.7923L24.1246 49.2181L36.1803 43.7923C36.8543 43.4878 37.4256 42.9991 37.8265 42.3841C38.2275 41.7692 38.4413 41.0538 38.4427 40.3227V12.2842H33.0736ZM18.1397 12.6488H19.9173L20.1248 12.8523V13.2365L19.9173 13.44H18.1397V12.6488ZM17.5785 12.2777V14.6219H18.1397V13.8108H20.2348L20.6895 13.3615V12.7262L20.2348 12.2777H17.5785ZM21.4418 12.2777V14.6219H24.1149V14.2519H22.003V13.6331H23.9534V13.2662H22.003V12.6454H24.1083V12.2773L21.4418 12.2777ZM26.091 12.2777V13.9665L25.8258 14.2288H24.7365V14.6219H26.1565L26.6522 14.1323V12.2777H26.091ZM28.9883 12.5669L29.6264 13.6673H28.3476L28.9883 12.5669ZM28.6026 12.2777L27.2138 14.6219H27.7969L28.1276 14.0519H29.8494L30.1809 14.6219H30.81L29.4228 12.2777H28.6026ZM9.80734 10.6692H12.7737V9.23731H9.80734V10.6692ZM35.5275 10.6692H38.4443V9.23731H35.5275V10.6692ZM15.7377 10.1277H17.529L17.7247 10.3212V10.6512L17.5664 10.8069H15.7373L15.7377 10.1277ZM15.7377 9.17962H17.5504L17.708 9.33539V9.61385L17.5465 9.77077H15.7377V9.17962ZM15.1765 8.82615V11.1708H17.9045L18.2871 10.7938V10.2835L17.9568 9.95769L18.2703 9.65192V9.19654L17.894 8.82654H15.1765V8.82615ZM19.0437 8.82615V9.17962H19.7804V10.8135H19.0437V11.1708H21.0822V10.8135H20.3416V9.17962H21.0822V8.82615H19.0437ZM22.5245 9.18654H24.288L24.4905 9.38731V9.67577L24.2565 9.91H22.5249L22.5245 9.18654ZM21.9621 8.82615V11.1708H22.5245V10.2865H24.0778L24.5318 11.1708H25.1324L24.6184 10.1819L25.0528 9.75423V9.24731L24.6258 8.82654L21.9621 8.82615ZM26.5282 9.18654H28.2918L28.495 9.38731V9.67577L28.2606 9.91H26.5278L26.5282 9.18654ZM25.967 8.82615V11.1708H26.5278V10.2865H28.0812L28.5363 11.1708H29.1357L28.6186 10.1819L29.057 9.75423V9.24731L28.6291 8.82654L25.967 8.82615ZM31.3907 9.11423L32.0264 10.2158H30.75L31.3907 9.11423ZM31.0046 8.82615L29.6162 11.1708H30.1981L30.5288 10.5996H32.2518L32.5822 11.1708H33.2136L31.824 8.82615H31.0046ZM4.28104 11.1881C4.26739 11.2923 4.25179 11.4015 4.24165 11.5096C4.11958 12.7027 4.18159 13.9085 4.42534 14.9996C4.56535 14.9635 4.70419 14.9235 4.83679 14.8877C4.95535 14.87 5.05051 14.8458 5.15035 14.8204C6.14466 14.6094 7.16342 14.5325 8.1787 14.5919L8.40295 14.6138V8.66308C7.27663 8.13269 6.16708 7.79461 5.41633 7.75346C4.89061 8.47308 4.47487 9.71577 4.28104 11.1881ZM39.8955 8.66308V14.6142L40.1197 14.5923C41.1025 14.5308 42.1446 14.6088 43.1481 14.8208C43.2475 14.8462 43.3427 14.8704 43.4608 14.8881C43.5934 14.9238 43.7323 14.9638 43.8727 15C44.1153 13.9088 44.1788 12.7031 44.0564 11.51C44.0466 11.4019 44.0291 11.2927 44.0158 11.1885C43.8231 9.71615 43.4074 8.47346 42.8813 7.75385C42.1317 7.79423 41.0214 8.13269 39.8955 8.66308ZM17.8694 6.19346L17.8764 6.195H17.8651L17.8694 6.19346ZM30.3093 6.16923L30.3171 6.18923L30.3354 6.19538H30.2406L30.2656 6.18615L30.2699 6.17654L30.2819 6.17962L30.3093 6.16923ZM26.6464 4.425C26.5905 4.48024 26.5321 4.53287 26.4713 4.58269C26.8301 4.84615 27.1857 5.14846 27.55 5.50692C27.6378 5.58923 27.7119 5.66231 27.7883 5.74962C27.9271 5.89308 28.0586 6.04385 28.1877 6.19538H26.6725C25.8418 5.40385 24.9144 4.79769 24.0349 4.48692C23.1996 4.82308 22.2838 5.44154 21.5089 6.19538H19.9992C20.1334 6.03615 20.2699 5.88154 20.4111 5.73577C20.4707 5.66038 20.5456 5.58962 20.6162 5.51462L20.6474 5.485C20.9818 5.15564 21.3393 4.84988 21.7172 4.57C21.6895 4.54462 21.6614 4.52462 21.6388 4.50038L21.5557 4.42962C20.7496 3.76654 19.8327 3.27846 18.9669 3.04538C18.2228 3.43769 17.4369 4.09538 16.7989 4.85154L16.7665 4.89038C16.7193 4.94115 16.6768 4.995 16.6343 5.05846C16.3505 5.41427 16.1004 5.79496 15.8871 6.19577H9.80695V7.62846H38.4423V6.19577H32.3154C32.105 5.79824 31.8594 5.41984 31.5814 5.065C31.5323 5.01423 31.4925 4.96346 31.4535 4.91731L31.402 4.85231C30.739 4.06154 29.9438 3.41962 29.1689 3.04308C28.3386 3.28577 27.4252 3.79077 26.6464 4.425ZM21.1743 1.94577C21.0961 2.02129 21.0213 2.10008 20.95 2.18192C20.8451 2.28923 20.7418 2.40192 20.64 2.52769C21.2224 2.82072 21.7701 3.17634 22.2733 3.58808C22.3349 3.64154 22.3985 3.69538 22.4648 3.75385L22.5042 3.78615C22.5681 3.84538 22.6263 3.90231 22.6855 3.96038L22.7245 3.99731C23.0081 3.76423 23.3981 3.56077 23.8941 3.38885L24.0197 3.35L24.2428 3.38885C24.673 3.53 25.1047 3.72423 25.5337 3.97077C25.5809 3.89192 25.6597 3.82038 25.7112 3.78077C25.7853 3.71231 25.8609 3.65115 25.9354 3.59038C26.4292 3.17766 26.9686 2.82117 27.5434 2.52769C27.4457 2.41437 27.3447 2.30394 27.2403 2.19654C27.1729 2.11677 27.1006 2.04112 27.0239 1.97C26.1265 1.07731 25.0427 0.361538 24.0349 0C23.0943 0.373846 22.0561 1.08077 21.1743 1.94577Z" fill="#B9AD6B"/>
</svg>
