<?xml version="1.0" encoding="UTF-8"?>
<svg xmlns="http://www.w3.org/2000/svg" xmlns:xlink="http://www.w3.org/1999/xlink" width="42px" height="42px" viewBox="0 0 42 42" version="1.1">
<g id="surface1">
<path style="fill-rule:nonzero;fill:rgb(34.901961%,34.901961%,34.901961%);fill-opacity:1;stroke-width:2;stroke-linecap:butt;stroke-linejoin:miter;stroke:rgb(34.901961%,34.901961%,34.901961%);stroke-opacity:1;stroke-miterlimit:4;" d="M 62.522321 43.705357 L 62.522321 43.697917 C 53.787202 34.955357 45.044643 26.212798 36.294643 17.470238 C 35.46131 16.636905 34.427083 16.168155 33.348214 16.316964 C 32.261905 16.458333 31.391369 17.1875 30.803571 18.206845 C 21.071429 35.037202 11.354167 51.875 1.636905 68.712798 C 1.197917 69.471726 0.915179 70.260417 1.026786 71.10119 C 1.130952 71.934524 1.607143 72.619048 2.224702 73.244048 C 2.403274 73.422619 2.581845 73.608631 2.760417 73.787202 C 4.002976 75.044643 5.260417 76.309524 6.540179 77.552083 C 6.837798 77.834821 7.150298 78.065476 7.440476 78.266369 C 7.559524 78.348214 7.671131 78.422619 7.775298 78.489583 C 7.938988 78.60119 8.080357 78.697917 8.236607 78.809524 L 8.497024 79.002976 L 10.111607 79.002976 L 10.334821 78.876488 C 10.409226 78.839286 10.491071 78.802083 10.572917 78.75 C 10.77381 78.645833 10.997024 78.526786 11.205357 78.407738 C 28.080357 68.660714 44.955357 58.91369 61.822917 49.159226 L 61.830357 49.159226 C 62.834821 48.578869 63.534226 47.700893 63.668155 46.622024 C 63.802083 45.558036 63.348214 44.52381 62.522321 43.705357 Z M 34.389881 25.044643 L 54.962798 45.602679 C 51.636905 47.559524 41.473214 53.541667 31.599702 59.322917 C 26.049107 62.581845 20.587798 65.77381 16.495536 68.154762 C 14.449405 69.345238 12.745536 70.327381 11.547619 71.004464 C 10.94494 71.346726 10.47619 71.614583 10.15625 71.793155 C 10.081845 71.830357 10.022321 71.86756 9.962798 71.897321 C 9.114583 71.688988 8.675595 71.25 8.4375 70.892857 C 8.325893 70.721726 8.251488 70.550595 8.206845 70.416667 L 8.266369 70.30506 L 8.266369 70.282738 C 8.876488 69.196429 9.508929 68.11756 10.15625 67.001488 C 10.238095 66.852679 10.327381 66.703869 10.416667 66.547619 L 10.424107 66.547619 L 10.714286 66.049107 L 12.983631 62.120536 L 13.846726 60.625 L 13.831845 60.625 L 18.050595 53.325893 L 18.058036 53.325893 L 18.348214 52.827381 L 20.63244 48.861607 L 25.982143 39.605655 L 28.251488 35.669643 L 32.514881 28.28869 Z M 34.389881 25.044643 " transform="matrix(0.525,0,0,0.525,0,0)"/>
<path style="fill-rule:nonzero;fill:rgb(34.901961%,34.901961%,34.901961%);fill-opacity:1;stroke-width:2;stroke-linecap:butt;stroke-linejoin:miter;stroke:rgb(34.901961%,34.901961%,34.901961%);stroke-opacity:1;stroke-miterlimit:4;" d="M 78.988095 33.504464 L 78.779762 33.772321 C 78.75744 33.802083 78.735119 33.839286 78.720238 33.869048 C 78.221726 34.873512 77.395833 35.580357 76.376488 35.796131 C 75.349702 36.011905 74.285714 35.684524 73.4375 34.910714 Z M 78.988095 33.504464 L 78.988095 33.169643 M 78.988095 33.504464 L 78.988095 33.169643 M 78.988095 33.169643 L 78.988095 31.979167 L 78.995536 31.584821 L 78.720238 31.294643 C 78.519345 31.078869 78.340774 30.877976 78.154762 30.654762 C 78.035714 30.513393 77.909226 30.372024 77.767857 30.215774 C 77.433036 29.83631 77.053571 29.441964 76.614583 29.084821 C 74.590774 27.477679 72.120536 26.55506 69.53869 26.443452 C 65.587798 26.212798 62.142857 27.50744 59.322917 30.30506 L 59.315476 30.3125 C 58.831845 30.803571 58.519345 31.428571 58.415179 32.105655 C 58.311012 32.782738 58.422619 33.474702 58.74256 34.077381 M 78.988095 33.169643 L 58.74256 34.077381 M 58.74256 34.077381 C 59.337798 35.252976 60.61756 36.071429 62.098214 35.77381 L 62.113095 35.766369 L 62.127976 35.766369 C 62.857143 35.587798 63.526786 35.238095 64.084821 34.747024 C 65.505952 33.519345 67.061012 32.909226 68.891369 32.96131 Z M 68.891369 32.96131 C 70.63244 33.005952 72.098214 33.690476 73.4375 34.910714 Z M 68.891369 32.96131 " transform="matrix(0.525,0,0,0.525,0,0)"/>
<path style="fill-rule:nonzero;fill:rgb(34.901961%,34.901961%,34.901961%);fill-opacity:1;stroke-width:2;stroke-linecap:butt;stroke-linejoin:miter;stroke:rgb(34.901961%,34.901961%,34.901961%);stroke-opacity:1;stroke-miterlimit:4;" d="M 53.578869 11.458333 L 53.578869 11.436012 C 53.59375 8.013393 52.299107 4.717262 49.947917 2.224702 C 49.300595 1.532738 48.489583 1.10119 47.619048 1.011905 C 46.741071 0.93006 45.877976 1.212798 45.193452 1.837798 C 43.75 3.139881 43.861607 5.186012 45.111607 6.607143 C 46.428571 8.110119 47.046131 9.747024 47.046131 11.324405 C 47.046131 12.909226 46.421131 14.53125 45.104167 16.011905 C 43.869048 17.403274 43.764881 19.419643 45.171131 20.721726 C 46.55506 22.008929 48.578869 21.830357 49.880952 20.46131 C 52.313988 17.909226 53.497024 14.828869 53.578869 11.458333 Z M 53.578869 11.458333 " transform="matrix(0.525,0,0,0.525,0,0)"/>
<path style="fill-rule:nonzero;fill:rgb(34.901961%,34.901961%,34.901961%);fill-opacity:1;stroke-width:2;stroke-linecap:butt;stroke-linejoin:miter;stroke:rgb(34.901961%,34.901961%,34.901961%);stroke-opacity:1;stroke-miterlimit:4;" d="M 69.36756 14.427083 L 69.22619 14.69494 C 69.203869 14.724702 69.174107 14.784226 69.129464 14.903274 C 69.122024 14.918155 69.114583 14.925595 69.107143 14.940476 C 69.0625 15.037202 69.010417 15.16369 68.950893 15.282738 C 68.816964 15.565476 68.616071 15.9375 68.303571 16.25744 L 68.296131 16.264881 C 65.684524 18.936012 63.035714 21.577381 60.379464 24.21131 Z M 69.36756 14.427083 L 69.345238 14.136905 M 69.36756 14.427083 L 69.345238 14.136905 M 69.345238 14.136905 C 69.293155 13.44494 69.151786 12.797619 68.824405 12.232143 C 68.489583 11.651786 67.998512 11.24256 67.388393 10.959821 C 66.078869 10.364583 64.717262 10.669643 63.690476 11.688988 C 61.056548 14.308036 58.43006 16.934524 55.811012 19.561012 L 55.811012 19.568452 M 69.345238 14.136905 L 55.811012 19.568452 M 55.811012 19.568452 C 54.486607 20.892857 54.404762 22.894345 55.706845 24.22619 C 56.994048 25.550595 59.040179 25.535714 60.379464 24.21131 Z M 55.811012 19.568452 " transform="matrix(0.525,0,0,0.525,0,0)"/>
<path style="fill-rule:nonzero;fill:rgb(34.901961%,34.901961%,34.901961%);fill-opacity:1;stroke-width:2;stroke-linecap:butt;stroke-linejoin:miter;stroke:rgb(34.901961%,34.901961%,34.901961%);stroke-opacity:1;stroke-miterlimit:4;" d="M 40.349702 14.449405 L 40.342262 14.449405 C 39.479167 14.412202 38.668155 14.040179 38.072917 13.407738 C 37.49256 12.782738 37.172619 11.949405 37.19494 11.09375 C 37.217262 9.337798 38.75744 7.946429 40.483631 7.953869 C 42.35119 7.953869 43.727679 9.53125 43.697917 11.354167 Z M 40.349702 14.449405 L 40.364583 14.449405 M 40.349702 14.449405 L 40.364583 14.449405 M 40.364583 14.449405 C 42.083333 14.479167 43.660714 13.125 43.697917 11.354167 Z M 40.364583 14.449405 " transform="matrix(0.525,0,0,0.525,0,0)"/>
<path style="fill-rule:nonzero;fill:rgb(34.901961%,34.901961%,34.901961%);fill-opacity:1;stroke-width:2;stroke-linecap:butt;stroke-linejoin:miter;stroke:rgb(34.901961%,34.901961%,34.901961%);stroke-opacity:1;stroke-miterlimit:4;" d="M 69.159226 43.497024 L 69.144345 43.497024 C 68.28125 43.459821 67.470238 43.087798 66.88244 42.455357 C 66.294643 41.830357 65.982143 40.997024 66.004464 40.133929 C 66.019345 38.385417 67.559524 36.994048 69.285714 37.001488 C 71.153274 37.001488 72.537202 38.578869 72.5 40.394345 Z M 69.159226 43.497024 L 69.166667 43.497024 M 69.159226 43.497024 L 69.166667 43.497024 M 69.166667 43.497024 C 70.885417 43.526786 72.462798 42.172619 72.5 40.401786 Z M 69.166667 43.497024 " transform="matrix(0.525,0,0,0.525,0,0)"/>
</g>
</svg>
