<svg width="14" height="18" viewBox="0 0 14 18" fill="none" xmlns="http://www.w3.org/2000/svg">
<mask id="mask0_1448_347" style="mask-type:alpha" maskUnits="userSpaceOnUse" x="0" y="10" width="14" height="8">
<path fill-rule="evenodd" clip-rule="evenodd" d="M0.333008 11.0801H13.5329V17.2251H0.333008V11.0801Z" fill="white" stroke="white" stroke-width="0.4"/>
</mask>
<g mask="url(#mask0_1448_347)">
<path fill-rule="evenodd" clip-rule="evenodd" d="M6.93384 12.3301C3.38301 12.3301 1.58301 12.9401 1.58301 14.1442C1.58301 15.3592 3.38301 15.9751 6.93384 15.9751C10.4838 15.9751 12.283 15.3651 12.283 14.1609C12.283 12.9459 10.4838 12.3301 6.93384 12.3301ZM6.93384 17.2251C5.30134 17.2251 0.333008 17.2251 0.333008 14.1442C0.333008 11.3976 4.10051 11.0801 6.93384 11.0801C8.56634 11.0801 13.533 11.0801 13.533 14.1609C13.533 16.9076 9.76634 17.2251 6.93384 17.2251Z" fill="#595959"/>
<path d="M6.93384 12.1301C5.15219 12.1301 3.78807 12.2825 2.86265 12.5962C1.94204 12.9083 1.38301 13.4104 1.38301 14.1442H1.78301C1.78301 13.6739 2.12397 13.269 2.99107 12.975C3.85337 12.6827 5.16465 12.5301 6.93384 12.5301V12.1301ZM1.38301 14.1442C1.38301 14.8824 1.94052 15.3892 2.86212 15.7045C3.78776 16.0212 5.15211 16.1751 6.93384 16.1751V15.7751C5.16473 15.7751 3.85367 15.621 2.99161 15.3261C2.1255 15.0297 1.78301 14.6211 1.78301 14.1442H1.38301ZM6.93384 16.1751C8.71507 16.1751 10.0788 16.0227 11.0039 15.709C11.9243 15.3969 12.483 14.8947 12.483 14.1609H12.083C12.083 14.6313 11.7422 15.0362 10.8754 15.3302C10.0135 15.6225 8.70261 15.7751 6.93384 15.7751V16.1751ZM12.483 14.1609C12.483 13.4228 11.9258 12.916 11.0044 12.6006C10.0791 12.2839 8.71515 12.1301 6.93384 12.1301V12.5301C8.70253 12.5301 10.0132 12.6841 10.8749 12.9791C11.7407 13.2754 12.083 13.684 12.083 14.1609H12.483ZM6.93384 17.0251C6.11474 17.0251 4.48991 17.0241 3.0727 16.6467C2.36434 16.4581 1.72569 16.1798 1.2671 15.7753C0.815155 15.3768 0.533008 14.8523 0.533008 14.1442H0.133008C0.133008 14.9766 0.471903 15.6074 1.00254 16.0754C1.52652 16.5374 2.23199 16.8368 2.96977 17.0332C4.44486 17.426 6.12044 17.4251 6.93384 17.4251V17.0251ZM0.533008 14.1442C0.533008 13.5088 0.748837 13.0235 1.11056 12.6449C1.47699 12.2614 2.00262 11.9779 2.63294 11.7723C3.89627 11.3603 5.51853 11.2801 6.93384 11.2801V10.8801C5.51582 10.8801 3.83766 10.9586 2.50891 11.392C1.84318 11.6091 1.24986 11.9201 0.821343 12.3686C0.388116 12.822 0.133008 13.4064 0.133008 14.1442H0.533008ZM6.93384 11.2801C7.75294 11.2801 9.37735 11.2811 10.7941 11.6584C11.5023 11.8471 12.1407 12.1254 12.5992 12.5298C13.0509 12.9283 13.333 13.4528 13.333 14.1609H13.733C13.733 13.3286 13.3942 12.6978 12.8638 12.2298C12.3399 11.7677 11.6347 11.4684 10.8971 11.2719C9.42241 10.8791 7.74724 10.8801 6.93384 10.8801V11.2801ZM13.333 14.1609C13.333 14.7964 13.1172 15.2817 12.7556 15.6603C12.3892 16.0438 11.8637 16.3273 11.2336 16.5329C9.97057 16.9449 8.34874 17.0251 6.93384 17.0251V17.4251C8.35145 17.4251 10.0292 17.3465 11.3576 16.9131C12.0232 16.696 12.6164 16.3851 13.0448 15.9366C13.478 15.4831 13.733 14.8987 13.733 14.1609H13.333Z" fill="#595959"/>
</g>
<mask id="mask1_1448_347" style="mask-type:alpha" maskUnits="userSpaceOnUse" x="2" y="0" width="10" height="10">
<path fill-rule="evenodd" clip-rule="evenodd" d="M2.50781 0.666992H11.3578V9.51583H2.50781V0.666992Z" fill="white" stroke="white" stroke-width="0.4"/>
</mask>
<g mask="url(#mask1_1448_347)">
<path fill-rule="evenodd" clip-rule="evenodd" d="M6.93367 1.85699C5.14951 1.85699 3.69784 3.30783 3.69784 5.09199C3.69201 6.87033 5.13284 8.32032 6.9095 8.32699L6.93367 8.92199V8.32699C8.717 8.32699 10.1678 6.87533 10.1678 5.09199C10.1678 3.30783 8.717 1.85699 6.93367 1.85699ZM6.93367 9.51616H6.90701C4.47201 9.50866 2.49951 7.52283 2.50784 5.08949C2.50784 2.65199 4.49284 0.666992 6.93367 0.666992C9.37367 0.666992 11.3578 2.65199 11.3578 5.09199C11.3578 7.53199 9.37367 9.51616 6.93367 9.51616Z" fill="#595959"/>
<path d="M3.69784 5.09199L3.89784 5.09265V5.09199H3.69784ZM6.9095 8.32699L7.10934 8.31888L7.10158 8.12771L6.91026 8.12699L6.9095 8.32699ZM6.93367 8.92199L6.73384 8.93011L7.13367 8.92199H6.93367ZM6.93367 8.32699V8.12699H6.73367V8.32699H6.93367ZM6.90701 9.51616L6.90639 9.71616H6.90701V9.51616ZM2.50784 5.08949L2.70784 5.09018V5.08949H2.50784ZM6.93367 1.65699C5.03912 1.65699 3.49784 3.1973 3.49784 5.09199H3.89784C3.89784 3.41835 5.2599 2.05699 6.93367 2.05699V1.65699ZM3.49784 5.09134C3.49164 6.9801 5.02168 8.51991 6.90875 8.52699L6.91026 8.12699C5.24399 8.12074 3.89237 6.76055 3.89784 5.09265L3.49784 5.09134ZM6.70967 8.33511L6.73384 8.93011L7.13351 8.91387L7.10934 8.31888L6.70967 8.33511ZM7.13367 8.92199V8.32699H6.73367V8.92199H7.13367ZM6.93367 8.52699C8.82753 8.52699 10.3678 6.98572 10.3678 5.09199H9.96784C9.96784 6.76494 8.60648 8.12699 6.93367 8.12699V8.52699ZM10.3678 5.09199C10.3678 3.1974 8.8275 1.65699 6.93367 1.65699V2.05699C8.60651 2.05699 9.96784 3.41825 9.96784 5.09199H10.3678ZM6.93367 9.31616H6.90701V9.71616H6.93367V9.31616ZM6.90762 9.31616C4.58308 9.309 2.69988 7.41301 2.70784 5.09018L2.30784 5.08881C2.29913 7.63265 4.36093 9.70832 6.90639 9.71616L6.90762 9.31616ZM2.70784 5.08949C2.70784 2.76255 4.6032 0.866992 6.93367 0.866992V0.466992C4.38248 0.466992 2.30784 2.54144 2.30784 5.08949H2.70784ZM6.93367 0.866992C9.26317 0.866992 11.1578 2.7624 11.1578 5.09199H11.5578C11.5578 2.54158 9.48418 0.466992 6.93367 0.466992V0.866992ZM11.1578 5.09199C11.1578 7.42154 9.26321 9.31616 6.93367 9.31616V9.71616C9.48413 9.71616 11.5578 7.64245 11.5578 5.09199H11.1578Z" fill="#595959"/>
</g>
</svg>
