<svg width="18" height="19" viewBox="0 0 18 19" fill="none" xmlns="http://www.w3.org/2000/svg">
<mask id="mask0_2894_56" style="mask-type:alpha" maskUnits="userSpaceOnUse" x="0" y="0" width="18" height="18">
<path fill-rule="evenodd" clip-rule="evenodd" d="M0.666504 0.666626H16.8972V16.8975H0.666504V0.666626Z" fill="white" stroke="white" stroke-width="0.5"/>
</mask>
<g mask="url(#mask0_2894_56)">
<path fill-rule="evenodd" clip-rule="evenodd" d="M8.78234 1.91663C4.9965 1.91663 1.9165 4.99579 1.9165 8.78163C1.9165 12.5675 4.9965 15.6475 8.78234 15.6475C12.5673 15.6475 15.6473 12.5675 15.6473 8.78163C15.6473 4.99579 12.5673 1.91663 8.78234 1.91663M8.78234 16.8975C4.30734 16.8975 0.666504 13.2566 0.666504 8.78163C0.666504 4.30663 4.30734 0.666626 8.78234 0.666626C13.2573 0.666626 16.8973 4.30663 16.8973 8.78163C16.8973 13.2566 13.2573 16.8975 8.78234 16.8975" fill="#717171"/>
<path d="M8.78234 1.66663C4.85847 1.66663 1.6665 4.85768 1.6665 8.78163H2.1665C2.1665 5.1339 5.13454 2.16663 8.78234 2.16663V1.66663ZM1.6665 8.78163C1.6665 12.7055 4.85843 15.8975 8.78234 15.8975V15.3975C5.13458 15.3975 2.1665 12.4294 2.1665 8.78163H1.6665ZM8.78234 15.8975C12.7054 15.8975 15.8973 12.7055 15.8973 8.78163H15.3973C15.3973 12.4294 12.4292 15.3975 8.78234 15.3975V15.8975ZM15.8973 8.78163C15.8973 4.8577 12.7054 1.66663 8.78234 1.66663V2.16663C12.4293 2.16663 15.3973 5.13388 15.3973 8.78163H15.8973ZM8.78234 16.6475C4.44541 16.6475 0.916504 13.1186 0.916504 8.78163H0.416504C0.416504 13.3947 4.16927 17.1475 8.78234 17.1475V16.6475ZM0.916504 8.78163C0.916504 4.44473 4.44538 0.916626 8.78234 0.916626V0.416626C4.1693 0.416626 0.416504 4.16852 0.416504 8.78163H0.916504ZM8.78234 0.916626C13.1193 0.916626 16.6473 4.4447 16.6473 8.78163H17.1473C17.1473 4.16856 13.3954 0.416626 8.78234 0.416626V0.916626ZM16.6473 8.78163C16.6473 13.1186 13.1192 16.6475 8.78234 16.6475V17.1475C13.3954 17.1475 17.1473 13.3947 17.1473 8.78163H16.6473Z" fill="#717171"/>
</g>
<mask id="mask1_2894_56" style="mask-type:alpha" maskUnits="userSpaceOnUse" x="13" y="13" width="5" height="6">
<path fill-rule="evenodd" clip-rule="evenodd" d="M13.3667 13.7557H17.5534V17.9347H13.3667V13.7557Z" fill="white" stroke="white" stroke-width="0.5"/>
</mask>
<g mask="url(#mask1_2894_56)">
<path fill-rule="evenodd" clip-rule="evenodd" d="M16.9286 17.9347C16.7694 17.9347 16.6094 17.8739 16.4869 17.7522L13.5502 14.8239C13.3061 14.5797 13.3052 14.1839 13.5494 13.9397C13.7927 13.6939 14.1886 13.6955 14.4336 13.938L17.3702 16.8672C17.6144 17.1114 17.6152 17.5064 17.3711 17.7505C17.2494 17.8739 17.0886 17.9347 16.9286 17.9347" fill="#717171"/>
<path d="M16.9286 17.9347C16.7694 17.9347 16.6094 17.8739 16.4869 17.7522L13.5502 14.8239C13.3061 14.5797 13.3052 14.1839 13.5494 13.9397C13.7927 13.6939 14.1886 13.6955 14.4336 13.938L17.3702 16.8672C17.6144 17.1114 17.6152 17.5064 17.3711 17.7505C17.2494 17.8739 17.0886 17.9347 16.9286 17.9347" stroke="#717171" stroke-width="0.5"/>
</g>
</svg>
