<svg width="40" height="40" viewBox="0 0 40 40" fill="none" xmlns="http://www.w3.org/2000/svg">
<rect width="40" height="40" rx="10" fill="#FF2A01"/>
<mask id="mask0_2617_1259" style="mask-type:alpha" maskUnits="userSpaceOnUse" x="11" y="11" width="18" height="18">
<path fill-rule="evenodd" clip-rule="evenodd" d="M11.6667 11.6667H27.8973V27.8976H11.6667V11.6667Z" fill="white" stroke="white" stroke-width="0.5"/>
</mask>
<g mask="url(#mask0_2617_1259)">
<path fill-rule="evenodd" clip-rule="evenodd" d="M19.7823 12.9167C15.9965 12.9167 12.9165 15.9959 12.9165 19.7817C12.9165 23.5676 15.9965 26.6476 19.7823 26.6476C23.5673 26.6476 26.6473 23.5676 26.6473 19.7817C26.6473 15.9959 23.5673 12.9167 19.7823 12.9167ZM19.7823 27.8976C15.3073 27.8976 11.6665 24.2567 11.6665 19.7817C11.6665 15.3067 15.3073 11.6667 19.7823 11.6667C24.2573 11.6667 27.8973 15.3067 27.8973 19.7817C27.8973 24.2567 24.2573 27.8976 19.7823 27.8976Z" fill="white"/>
<path d="M19.7823 12.6667C15.8585 12.6667 12.6665 15.8578 12.6665 19.7817H13.1665C13.1665 16.134 16.1345 13.1667 19.7823 13.1667V12.6667ZM12.6665 19.7817C12.6665 23.7057 15.8584 26.8976 19.7823 26.8976V26.3976C16.1346 26.3976 13.1665 23.4295 13.1665 19.7817H12.6665ZM19.7823 26.8976C23.7054 26.8976 26.8973 23.7056 26.8973 19.7817H26.3973C26.3973 23.4295 23.4292 26.3976 19.7823 26.3976V26.8976ZM26.8973 19.7817C26.8973 15.8578 23.7054 12.6667 19.7823 12.6667V13.1667C23.4293 13.1667 26.3973 16.134 26.3973 19.7817H26.8973ZM19.7823 27.6476C15.4454 27.6476 11.9165 24.1187 11.9165 19.7817H11.4165C11.4165 24.3948 15.1693 28.1476 19.7823 28.1476V27.6476ZM11.9165 19.7817C11.9165 15.4449 15.4454 11.9167 19.7823 11.9167V11.4167C15.1693 11.4167 11.4165 15.1686 11.4165 19.7817H11.9165ZM19.7823 11.9167C24.1193 11.9167 27.6473 15.4448 27.6473 19.7817H28.1473C28.1473 15.1687 24.3954 11.4167 19.7823 11.4167V11.9167ZM27.6473 19.7817C27.6473 24.1187 24.1192 27.6476 19.7823 27.6476V28.1476C24.3954 28.1476 28.1473 24.3948 28.1473 19.7817H27.6473Z" fill="white"/>
</g>
<mask id="mask1_2617_1259" style="mask-type:alpha" maskUnits="userSpaceOnUse" x="24" y="24" width="5" height="6">
<path fill-rule="evenodd" clip-rule="evenodd" d="M24.3666 24.7559H28.5533V28.9348H24.3666V24.7559Z" fill="white" stroke="white" stroke-width="0.5"/>
</mask>
<g mask="url(#mask1_2617_1259)">
<path fill-rule="evenodd" clip-rule="evenodd" d="M27.9285 28.9348C27.7693 28.9348 27.6093 28.874 27.4868 28.7523L24.5502 25.824C24.306 25.5798 24.3052 25.184 24.5493 24.9398C24.7927 24.694 25.1885 24.6957 25.4335 24.9382L28.3702 27.8673C28.6143 28.1115 28.6152 28.5065 28.371 28.7507C28.2493 28.874 28.0885 28.9348 27.9285 28.9348Z" fill="white"/>
<path d="M27.9285 28.9348C27.7693 28.9348 27.6093 28.874 27.4868 28.7523L24.5502 25.824C24.306 25.5798 24.3052 25.184 24.5493 24.9398C24.7927 24.694 25.1885 24.6957 25.4335 24.9382L28.3702 27.8673C28.6143 28.1115 28.6152 28.5065 28.371 28.7507C28.2493 28.874 28.0885 28.9348 27.9285 28.9348" stroke="white" stroke-width="0.5"/>
</g>
</svg>
