<svg width="18" height="19" viewBox="0 0 18 19" fill="none" xmlns="http://www.w3.org/2000/svg">
<path fill-rule="evenodd" clip-rule="evenodd" d="M16.3389 6.35293L15.8202 5.45285C15.3814 4.69125 14.409 4.42852 13.6463 4.86552V4.86552C13.2833 5.07937 12.8501 5.14005 12.4423 5.03416C12.0345 4.92827 11.6855 4.66452 11.4724 4.30106C11.3353 4.07004 11.2616 3.80691 11.2588 3.53829V3.53829C11.2712 3.1076 11.1087 2.69025 10.8084 2.38131C10.5081 2.07237 10.0955 1.89814 9.66463 1.89832H8.61962C8.19751 1.89831 7.7928 2.06651 7.49504 2.36571C7.19728 2.6649 7.03102 3.07041 7.03305 3.49252V3.49252C7.02054 4.36402 6.31044 5.06393 5.43885 5.06384C5.17022 5.06105 4.90709 4.98737 4.67607 4.85026V4.85026C3.91343 4.41326 2.94097 4.676 2.50216 5.4376L1.94533 6.35293C1.50705 7.11358 1.76621 8.08542 2.52504 8.52684V8.52684C3.01829 8.81162 3.32215 9.33791 3.32215 9.90747C3.32215 10.477 3.01829 11.0033 2.52504 11.2881V11.2881C1.76717 11.7265 1.50773 12.696 1.94533 13.4544V13.4544L2.47165 14.3621C2.67725 14.7331 3.02221 15.0068 3.4302 15.1228C3.83819 15.2387 4.27557 15.1873 4.64556 14.9799V14.9799C5.00927 14.7677 5.4427 14.7096 5.84949 14.8184C6.25628 14.9273 6.60274 15.1941 6.81184 15.5596C6.94896 15.7907 7.02263 16.0538 7.02542 16.3224V16.3224C7.02542 17.2029 7.73917 17.9166 8.61962 17.9166H9.66463C10.5421 17.9166 11.2546 17.2075 11.2588 16.33V16.33C11.2568 15.9066 11.4241 15.4999 11.7235 15.2005C12.0229 14.9011 12.4296 14.7338 12.853 14.7358C13.121 14.743 13.3831 14.8164 13.6158 14.9494V14.9494C14.3765 15.3877 15.3483 15.1285 15.7897 14.3697V14.3697L16.3389 13.4544C16.5515 13.0895 16.6099 12.6549 16.501 12.2469C16.3922 11.8389 16.1253 11.491 15.7592 11.2805V11.2805C15.3932 11.0699 15.1262 10.7221 15.0174 10.314C14.9086 9.90601 14.9669 9.47143 15.1795 9.10655C15.3177 8.8652 15.5179 8.66508 15.7592 8.52684V8.52684C16.5135 8.08566 16.772 7.1195 16.3389 6.36056V6.36056V6.35293Z" stroke="#595959" stroke-width="1.8" stroke-linecap="round" stroke-linejoin="round"/>
<ellipse cx="9.14602" cy="9.90749" rx="2.1968" ry="2.1968" stroke="#595959" stroke-width="1.8" stroke-linecap="round" stroke-linejoin="round"/>
</svg>
