<svg width="20" height="20" viewBox="0 0 20 20" fill="none" xmlns="http://www.w3.org/2000/svg">
<path fill-rule="evenodd" clip-rule="evenodd" d="M14.8809 17.0143C16.4417 17.0143 17.7076 15.7493 17.7084 14.1885V14.1868V11.9368C16.6776 11.9368 15.8426 11.1018 15.8417 10.071C15.8417 9.04096 16.6767 8.20512 17.7076 8.20512H17.7084V5.95512C17.7101 4.39346 16.4459 3.12679 14.8851 3.12512H14.8801H5.12008C3.55842 3.12512 2.29258 4.39012 2.29175 5.95179V5.95262V8.27762C3.28675 8.24262 4.12092 9.02096 4.15592 10.016C4.15675 10.0343 4.15758 10.0526 4.15758 10.071C4.15842 11.1001 3.32592 11.9351 2.29675 11.9368H2.29175V14.1868C2.29092 15.7476 3.55675 17.0143 5.11758 17.0143H5.11842H14.8809Z" stroke="#595959" stroke-width="1.8" stroke-linecap="round" stroke-linejoin="round"/>
<path fill-rule="evenodd" clip-rule="evenodd" d="M10.3093 7.55261L10.8227 8.59177C10.8727 8.69344 10.9693 8.76427 11.0818 8.78094L12.2293 8.94844C12.5135 8.99011 12.626 9.33844 12.421 9.53761L11.591 10.3459C11.5093 10.4251 11.4727 10.5393 11.491 10.6518L11.6868 11.7934C11.7352 12.0759 11.4393 12.2909 11.186 12.1576L10.1602 11.6184C10.0593 11.5651 9.93932 11.5651 9.83849 11.6184L8.81349 12.1576C8.55932 12.2909 8.26349 12.0759 8.31182 11.7934L8.50766 10.6518C8.52682 10.5393 8.48932 10.4251 8.40766 10.3459L7.57849 9.53761C7.37349 9.33844 7.48599 8.99011 7.76932 8.94844L8.91682 8.78094C9.02932 8.76427 9.12682 8.69344 9.17682 8.59177L9.68932 7.55261C9.81599 7.29594 10.1827 7.29594 10.3093 7.55261Z" stroke="#595959" stroke-width="1.4" stroke-linecap="round" stroke-linejoin="round"/>
</svg>
