<svg width="17" height="13" viewBox="0 0 17 13" fill="none" xmlns="http://www.w3.org/2000/svg">
<path d="M5.66817 12.9004C11.4561 12.9004 14.6218 8.10513 14.6218 3.94674C14.6218 3.81054 14.6218 3.67495 14.6126 3.53998C15.2284 3.09451 15.7601 2.54294 16.1826 1.9111C15.6083 2.16571 14.999 2.3326 14.3752 2.4062C15.0321 2.01297 15.5238 1.39441 15.7586 0.665666C15.1409 1.03225 14.4651 1.29057 13.7604 1.42949C13.286 0.924988 12.6585 0.59092 11.975 0.478981C11.2916 0.367043 10.5903 0.483474 9.97967 0.810259C9.36906 1.13704 8.88317 1.65596 8.5972 2.28671C8.31123 2.91747 8.24111 3.62489 8.39769 4.29951C7.14659 4.23675 5.92267 3.91161 4.80537 3.34519C3.68808 2.77877 2.70237 1.98374 1.91224 1.01169C1.50983 1.70444 1.38658 2.52453 1.56759 3.30496C1.74859 4.0854 2.22024 4.76751 2.8865 5.21241C2.38569 5.19774 1.89578 5.06264 1.45824 4.81854V4.85842C1.45844 5.58495 1.70994 6.28905 2.17009 6.85129C2.63024 7.41353 3.2707 7.7993 3.98285 7.94316C3.51957 8.06953 3.03348 8.088 2.56195 7.99715C2.76312 8.62238 3.15462 9.16912 3.68174 9.56093C4.20886 9.95275 4.84523 10.1701 5.50191 10.1825C4.84946 10.6953 4.1023 11.0745 3.30317 11.2983C2.50405 11.5221 1.66863 11.5862 0.844727 11.4868C2.28382 12.4103 3.95826 12.9001 5.66817 12.8979" fill="#AFAFAF"/>
</svg>
