<svg width="30" height="30" viewBox="0 0 30 30" fill="none" xmlns="http://www.w3.org/2000/svg">
<rect x="0.5" y="0.5" width="29" height="29" rx="14.5" stroke="#5E6168"/>
<path d="M8 18.8748C9.54942 18.9661 10.9387 18.6436 12.2034 17.8134C10.8757 17.707 10.003 17.1264 9.50986 16.053H10.7575L10.7644 16.013C9.36678 15.6321 8.61462 14.8127 8.50283 13.5096C8.92606 13.686 9.32584 13.808 9.7983 13.8124C9.06638 13.3003 8.61324 12.681 8.54009 11.8848C8.49408 11.3843 8.64774 10.9202 8.93619 10.4657C10.5003 12.0544 12.4527 12.9462 14.8247 13.0795C14.8247 12.7994 14.8049 12.5401 14.8284 12.2845C14.9471 10.9826 16.232 9.97874 17.7386 10.0003C18.4818 10.0035 19.194 10.2599 19.7223 10.7145C19.7494 10.7422 19.7854 10.7622 19.8256 10.772C19.8658 10.7818 19.9085 10.781 19.9482 10.7697C20.4848 10.6597 21.0024 10.489 21.488 10.262C21.5183 10.248 21.5487 10.234 21.58 10.222C21.5878 10.2192 21.6002 10.2252 21.632 10.2304C21.4176 10.7905 21.0155 11.221 20.4524 11.5443L20.4796 11.5943L22 11.227C21.9604 11.2786 21.9209 11.3339 21.8772 11.3871C21.5508 11.7802 21.1581 12.1284 20.7123 12.4197C20.6683 12.4448 20.6331 12.4801 20.6108 12.5215C20.5884 12.563 20.5798 12.6091 20.5858 12.6546C20.6889 15.46 18.7719 18.2271 15.863 19.3362C13.2408 20.3364 10.6521 20.2024 8.15457 18.9609C8.10075 18.9361 8.0506 18.904 8 18.8748Z" fill="#5E6168"/>
</svg>
