<svg width="10" height="10" viewBox="0 0 10 10" fill="none" xmlns="http://www.w3.org/2000/svg">
<g clip-path="url(#clip0_2472_832)">
<path d="M5 7.91208C5.99422 7.91098 6.94741 7.51554 7.65043 6.81252C8.35346 6.10949 8.7489 5.15631 8.75 4.16208V0.625C8.75 0.45924 8.68415 0.300269 8.56694 0.183058C8.44973 0.065848 8.29076 0 8.125 0C7.95924 0 7.80027 0.065848 7.68306 0.183058C7.56585 0.300269 7.5 0.45924 7.5 0.625V4.16208C7.5 4.82513 7.23661 5.46101 6.76777 5.92985C6.29893 6.39869 5.66304 6.66208 5 6.66208C4.33696 6.66208 3.70107 6.39869 3.23223 5.92985C2.76339 5.46101 2.5 4.82513 2.5 4.16208V0.625C2.5 0.45924 2.43415 0.300269 2.31694 0.183058C2.19973 0.065848 2.04076 0 1.875 0C1.70924 0 1.55027 0.065848 1.43306 0.183058C1.31585 0.300269 1.25 0.45924 1.25 0.625V4.16208C1.2511 5.15631 1.64655 6.10949 2.34957 6.81252C3.05259 7.51554 4.00578 7.91098 5 7.91208Z" fill="#374957"/>
<path d="M9.39333 8.75H0.625C0.45924 8.75 0.300269 8.81585 0.183058 8.93306C0.065848 9.05027 0 9.20924 0 9.375C0 9.54076 0.065848 9.69973 0.183058 9.81694C0.300269 9.93415 0.45924 10 0.625 10H9.39333C9.55909 10 9.71807 9.93415 9.83528 9.81694C9.95249 9.69973 10.0183 9.54076 10.0183 9.375C10.0183 9.20924 9.95249 9.05027 9.83528 8.93306C9.71807 8.81585 9.55909 8.75 9.39333 8.75Z" fill="#374957"/>
</g>
<defs>
<clipPath id="clip0_2472_832">
<rect width="10" height="10" fill="white"/>
</clipPath>
</defs>
</svg>
