<svg width="30" height="30" viewBox="0 0 30 30" fill="none" xmlns="http://www.w3.org/2000/svg">
<path fill-rule="evenodd" clip-rule="evenodd" d="M20.3788 3.43726H9.56375C5.79875 3.43726 3.4375 6.10476 3.4375 9.87976V20.0623C3.4375 23.8373 5.78875 26.5048 9.56375 26.5048H20.3725C24.1538 26.5048 26.5037 23.8373 26.5037 20.0623V9.87976C26.5087 6.10476 24.1575 3.43726 20.3788 3.43726Z" stroke="#FF2A01" stroke-width="2" stroke-linecap="round" stroke-linejoin="round"/>
<path d="M26.5088 18.6888C25.355 17.5013 23.1363 15.1025 20.7238 15.1025C18.31 15.1025 16.9187 20.3938 14.5975 20.3938C12.2762 20.3938 10.1675 18.0013 8.3075 19.535C6.4475 21.0675 4.6875 24.2013 4.6875 24.2013" stroke="#FF2A01" stroke-width="2" stroke-linecap="round" stroke-linejoin="round"/>
<path d="M12.9993 8.4517V13.5344" stroke="#FF2A01" stroke-width="1.5" stroke-linecap="round" stroke-linejoin="round"/>
<path d="M15.5435 10.9938L10.4561 10.9933" stroke="#FF2A01" stroke-width="1.5" stroke-linecap="round" stroke-linejoin="round"/>
</svg>
