<svg width="20" height="20" viewBox="0 0 20 20" fill="none" xmlns="http://www.w3.org/2000/svg">
<path d="M16.9307 3.57322C16.9306 3.57318 16.9306 3.57314 16.9305 3.57309L12.1211 0.796784C11.4758 0.425615 10.7444 0.230273 10 0.230273C9.25564 0.230273 8.52432 0.425578 7.87907 0.796678C7.87901 0.796713 7.87895 0.796749 7.87889 0.796784L3.0695 3.57309C3.06945 3.57313 3.06939 3.57316 3.06933 3.57319C2.42509 3.94686 1.89026 4.48314 1.51833 5.12838C1.14639 5.77366 0.950413 6.50529 0.95 7.25008C0.95 7.2501 0.95 7.25012 0.95 7.25013V12.8032C0.951304 13.5476 1.14786 14.2786 1.52004 14.9233C1.8922 15.5679 2.42694 16.1036 3.07087 16.4769C3.07096 16.4769 3.07104 16.477 3.07113 16.477L7.88057 19.2534C7.88064 19.2534 7.8807 19.2535 7.88076 19.2535C8.52598 19.6247 9.25731 19.82 10.0017 19.82C10.746 19.82 11.4774 19.6247 12.1226 19.2535C12.1226 19.2535 12.1227 19.2534 12.1228 19.2534L16.9321 16.4771L16.9307 3.57322ZM16.9307 3.57322C17.5749 3.94688 18.1098 4.48315 18.4817 5.12838C18.8536 5.77369 19.0496 6.50536 19.05 7.25019V12.7992C19.05 12.7992 19.05 12.7992 19.05 12.7992C19.0497 13.544 18.854 14.2757 18.4823 14.9211C18.1108 15.5663 17.5763 16.1028 16.9325 16.4769L16.9307 3.57322ZM8.93118 2.61501L8.93086 2.6152L4.40003 5.2302L4.10003 5.40334L4.39996 5.5766L8.71913 8.0716L8.71973 8.07194C9.10945 8.29527 9.55082 8.41277 10 8.41277C10.4492 8.41277 10.8905 8.29527 11.2803 8.07194L11.2809 8.0716L15.6 5.5766L15.8999 5.40341L15.6 5.23023L11.0725 2.61523L11.0722 2.61501C10.7464 2.42782 10.3773 2.32931 10.0017 2.32931C9.62599 2.32931 9.25689 2.42782 8.93118 2.61501ZM4.11865 14.6538L4.1192 14.6541L8.6517 17.27L8.95167 17.4431V17.0967V10.5492V10.3951L8.80256 10.3558C8.40626 10.2516 8.02569 10.0947 7.671 9.88947L7.67082 9.88937L3.34999 7.3952L3.05 7.22204V7.56842L3.05 12.7992L3.05 12.7995C3.05053 13.175 3.14948 13.5439 3.33698 13.8692C3.52449 14.1946 3.794 14.4651 4.11865 14.6538ZM15.8808 14.6541L15.8813 14.6538C16.206 14.4651 16.4755 14.1946 16.663 13.8692C16.8505 13.5439 16.9495 13.175 16.95 12.7995V12.7992V7.56842V7.22197L16.65 7.39522L12.3308 9.88939L12.3307 9.88947C11.976 10.0947 11.5954 10.2516 11.1991 10.3558L11.05 10.3951V10.5492V17.0967V17.4432L11.35 17.27L15.8808 14.6541Z" fill="#595959" stroke="white" stroke-width="0.4"/>
</svg>
