<svg width="22" height="18" viewBox="0 0 22 18" fill="none" xmlns="http://www.w3.org/2000/svg">
<path d="M0.718578 12.5532C0.758617 12.7097 0.794497 12.8678 0.838177 13.0233C1.19802 14.2994 2.3649 15.2005 3.6883 15.2094C4.2629 15.213 4.84322 15.2317 5.41158 15.1647C6.78281 15.0035 7.91173 13.7222 7.94449 12.3411C7.94657 12.2449 7.92213 12.1419 7.88521 12.0525C7.03345 9.96102 6.17805 7.87114 5.32317 5.78074C5.29873 5.72042 5.27794 5.65906 5.25038 5.58418H9.30637C9.50917 6.10314 9.87317 6.4661 10.3911 6.6689V15.2645C9.22993 15.6784 8.38858 16.4184 8.14886 17.1984C8.08542 17.4053 8.23933 17.6149 8.45617 17.6149H13.5501C13.7617 17.6149 13.9198 17.4126 13.86 17.2093C13.6307 16.4309 12.7488 15.6493 11.6032 15.2645C11.6032 15.1979 11.6032 15.1251 11.6032 15.0529C11.6032 12.3286 11.6043 9.60482 11.6001 6.88054C11.5996 6.72766 11.636 6.64862 11.7852 6.58258C12.1789 6.40734 12.4581 6.1047 12.6375 5.71418C12.6755 5.6315 12.7041 5.57118 12.8185 5.5717C14.1034 5.57638 15.3883 5.57482 16.6737 5.57534C16.6982 5.57534 16.734 5.6185 16.7403 5.65646C16.6306 5.92686 16.5536 6.11926 16.4475 6.37718C15.6987 8.2003 14.9562 10.0265 14.1933 11.8434C14.0639 12.1523 14.0431 12.4435 14.1039 12.7581C14.3785 14.1751 15.6051 15.2016 17.0492 15.2094C17.5905 15.2125 18.1375 15.2364 18.6726 15.1719C20.0038 15.0118 21.0292 13.9905 21.2445 12.6707C21.2508 12.6333 21.2695 12.5974 21.282 12.561V12.1596C21.2653 12.1315 21.245 12.105 21.2331 12.0748C20.3647 9.95426 19.4609 7.77286 18.5936 5.65178C18.5774 5.61174 18.566 5.59043 18.5899 5.56494H19.6325C19.8691 5.56494 20.061 5.37306 20.061 5.13647V4.79639C20.061 4.55979 19.8696 4.36843 19.6336 4.36843C18.3965 4.36843 14.7908 4.3679 12.8788 4.37155C12.7483 4.37155 12.6838 4.33879 12.6271 4.21243C12.4529 3.82295 12.1435 3.51251 11.7525 3.34195C11.6292 3.28839 11.6001 3.22547 11.6011 3.10275C11.6053 2.44911 11.6043 1.79547 11.6037 1.14183C11.6037 0.905227 11.4119 0.713867 11.1753 0.713867H10.8269C10.5903 0.713867 10.3989 0.905747 10.3984 1.14183C10.3979 1.79547 10.3968 2.44859 10.4015 3.10223C10.4025 3.23275 10.3672 3.29515 10.2283 3.34975C9.85549 3.49691 9.54817 3.77875 9.40309 4.15263C9.33653 4.32371 9.26633 4.37207 9.10461 4.37155C7.19569 4.36738 3.60042 4.36739 2.36594 4.36791C2.12986 4.36791 1.9385 4.55979 1.9385 4.79587V5.15311C1.9385 5.38971 2.13038 5.58158 2.36698 5.58158H3.43298C3.40334 5.6627 3.38566 5.71938 3.36278 5.7745C2.75594 7.25078 2.15014 8.72758 1.5407 10.2033C1.2807 10.8325 1.01498 11.4597 0.751858 12.0873C0.741459 12.2241 0.727938 12.4185 0.718578 12.5532ZM15.5625 11.5907C16.2645 9.9059 16.9556 8.24762 17.6674 6.5389C18.3814 8.25334 19.073 9.91318 19.7714 11.5907C18.3601 11.5907 16.9779 11.5907 15.5625 11.5907ZM2.23022 11.5902C2.93014 9.91058 3.62278 8.24866 4.33517 6.53838C5.0507 8.25646 5.74178 9.91682 6.43857 11.5902C5.02418 11.5902 3.64202 11.5902 2.23022 11.5902Z" fill="#5E6168"/>
</svg>
