<svg width="50" height="50" viewBox="0 0 50 50" fill="none" xmlns="http://www.w3.org/2000/svg">
<g clip-path="url(#clip0_2223_733)">
<path d="M43.4782 19.5655L25 31.522L6.52173 19.5655V1.08721C6.51862 0.943612 6.54461 0.800873 6.59813 0.66759C6.65165 0.534306 6.7316 0.413237 6.83316 0.311677C6.93472 0.210116 7.05579 0.130166 7.18907 0.0766442C7.32236 0.0231222 7.4651 -0.00286441 7.60869 0.00025026H42.3913C42.5349 -0.00286441 42.6776 0.0231222 42.8109 0.0766442C42.9442 0.130166 43.0653 0.210116 43.1668 0.311677C43.2684 0.413237 43.3483 0.534306 43.4019 0.66759C43.4554 0.800873 43.4814 0.943612 43.4782 1.08721V19.5655Z" fill="#F1F2F2"/>
<path d="M6.52174 14.0332V19.5659L0 15.218L6.52174 8.69629V14.0332Z" fill="#D62503"/>
<path d="M50.0003 15.218L43.4785 19.5659V14.0767V8.69629L50.0003 15.218Z" fill="#D62503"/>
<path d="M43.4778 19.4678L49.9995 15.2178V45.6526C49.9974 46.8054 49.5404 47.9109 48.7278 48.7286L41.3038 41.3047L29.3473 29.3482L29.043 28.8808L43.4778 19.4678Z" fill="#FF2A01"/>
<path d="M41.3041 41.3048L48.728 48.7287C47.9103 49.5413 46.8048 49.9984 45.6519 50.0004H4.34757C3.1947 49.9984 2.08924 49.5413 1.27148 48.7287L8.6954 41.3048L20.6519 29.3483L20.9563 28.8809L24.9997 31.5222L29.0432 28.8809L29.3476 29.3483L41.3041 41.3048Z" fill="#D62503"/>
<path d="M20.9565 28.8808L20.6522 29.3482L8.69565 41.3047L1.27174 48.7286C0.459088 47.9109 0.00205889 46.8054 0 45.6526V15.2178L20.9565 28.8808Z" fill="#FF2A01"/>
<path d="M37 26C44.1797 26 50 20.1797 50 13C50 5.8203 44.1797 0 37 0C29.8203 0 24 5.8203 24 13C24 20.1797 29.8203 26 37 26Z" fill="#49AAEE"/>
<path d="M37.6113 18C37.35 18 37.1353 17.9207 36.9673 17.762C36.7993 17.594 36.7153 17.3887 36.7153 17.146V10.09L36.9113 10.398L35.8893 11.154C35.7586 11.2567 35.5953 11.308 35.3993 11.308C35.1753 11.308 34.9793 11.224 34.8113 11.056C34.6433 10.888 34.5593 10.6873 34.5593 10.454C34.5593 10.1553 34.704 9.91267 34.9933 9.726L37.0093 8.382C37.1026 8.31667 37.2053 8.27 37.3173 8.242C37.4386 8.214 37.5506 8.2 37.6533 8.2C37.924 8.2 38.1386 8.284 38.2973 8.452C38.456 8.61067 38.5353 8.81133 38.5353 9.054V17.146C38.5353 17.3887 38.4466 17.594 38.2693 17.762C38.1013 17.9207 37.882 18 37.6113 18Z" fill="white"/>
</g>
<defs>
<clipPath id="clip0_2223_733">
<rect width="50" height="50" fill="white"/>
</clipPath>
</defs>
</svg>
