<svg width="153" height="151" viewBox="0 0 153 151" fill="none" xmlns="http://www.w3.org/2000/svg">
<path d="M58.7562 74.5212L33.3859 78.9538C28.5548 79.7997 24.6012 75.0881 26.2732 70.4772L28.0649 65.5248C28.4618 64.413 28.2955 63.1803 27.5919 62.2317L22.6583 55.4497L30.7784 53.4388C31.9199 53.1484 32.8463 52.3155 33.2523 51.2145L35.044 46.2621C36.716 41.6513 42.7526 40.5912 45.9209 44.3671L62.5294 64.1604C65.6795 67.9144 63.5964 73.6862 58.7562 74.5212Z" fill="#FF2A01" fill-opacity="0.1"/>
<path d="M94.8599 75.9913L120.241 71.5495C125.072 70.7037 129.026 75.4153 127.354 80.0261L125.562 84.9785C125.165 86.0904 125.331 87.323 126.035 88.2717L130.969 95.0537L122.849 97.0646C121.707 97.3549 120.781 98.1879 120.375 99.2889L118.583 104.241C116.911 108.852 110.874 109.912 107.706 106.136L91.0974 86.343C87.9366 82.598 90.0288 76.8372 94.8599 75.9913Z" fill="#FF2A01" fill-opacity="0.7"/>
<path d="M85.2737 91.2667L101.882 111.06C105.041 114.825 102.958 120.597 98.1272 121.443L92.9389 122.347C91.7751 122.545 90.7939 123.312 90.3188 124.397L86.9285 132.045L81.1062 126.008C80.2833 125.16 79.0999 124.762 77.9452 124.971L72.7569 125.875C67.9258 126.721 63.9723 122.009 65.6442 117.399L74.4151 93.1835C76.0687 88.5509 82.1054 87.4908 85.2737 91.2667Z" fill="#FF2A01" fill-opacity="0.9"/>
<path d="M68.3531 59.2573L51.7445 39.4641C48.5854 35.6991 50.6684 29.9274 55.4996 29.0815L60.6878 28.177C61.8517 27.9792 62.8329 27.2115 63.3079 26.1268L66.6983 18.4794L72.5206 24.5156C73.3435 25.3642 74.5268 25.762 75.6815 25.5533L80.8698 24.6488C85.7009 23.8029 89.6545 28.5146 87.9825 33.1254L79.2117 57.3405C77.558 61.9731 71.5123 63.0223 68.3531 59.2573Z" fill="#FF2A01" fill-opacity="0.3"/>
<path d="M67.2061 90.5353L58.4444 114.761C56.7725 119.372 50.7359 120.432 47.5675 116.656L44.171 112.608C43.4131 111.705 42.2566 111.229 41.0887 111.356L32.7648 112.222L35.0625 104.175C35.3904 103.047 35.1226 101.825 34.3647 100.922L30.9681 96.874C27.809 93.109 29.892 87.3373 34.7232 86.4914L60.1025 82.0696C64.9245 81.2129 68.8781 85.9245 67.2061 90.5353Z" fill="#FF2A01"/>
<path d="M86.4097 59.9771L95.1714 35.7512C96.8433 31.1403 102.88 30.0803 106.048 33.8561L109.445 37.904C110.203 38.8072 111.359 39.283 112.527 39.1561L120.851 38.2906L118.553 46.3378C118.225 47.4659 118.493 48.6875 119.251 49.5906L122.648 53.6385C125.807 57.4035 123.724 63.1752 118.893 64.0211L93.5133 68.4429C88.6913 69.2996 84.7377 64.588 86.4097 59.9771Z" fill="#FF2A01" fill-opacity="0.5"/>
</svg>
