<svg width="142" height="90" viewBox="0 0 142 90" fill="none" xmlns="http://www.w3.org/2000/svg">
<g clip-path="url(#clip0_1486_398)">
<path d="M43.3613 -6.53704e-06C47.1867 0.0149241 52.7151 3.12215 54.3098 5.53095C56.7719 9.24204 57.9871 14.5723 63.4722 15.2159C63.8168 15.274 64.1098 15.274 64.4094 15.274C66.1806 15.2856 67.4707 14.6453 68.676 13.1787C69.8363 11.7703 70.6519 9.93216 72.255 9.33328C72.5996 9.1989 72.9076 9.14748 73.1839 9.14748C74.3908 9.14084 75.363 10.2689 76.8961 11.0287C78.3644 11.757 79.8343 12.5434 81.5223 12.55C82.1349 12.5583 82.7658 12.4554 83.4266 12.2199C84.7001 11.7504 84.82 11.0553 85.8854 11.0785C87.5151 11.1001 89.8007 12.5732 91.3288 13.4176C95.076 15.498 97.4798 19.6171 99.6189 23.3365C101.137 25.9709 102.011 28.257 105.226 28.2852C105.633 28.2852 106.046 28.2802 106.556 28.1724C108.929 27.7792 110.518 26.0937 112.677 25.8681C112.843 25.8714 113.04 25.8382 113.209 25.8415C115.347 25.8465 116.755 27.4391 118.075 29.2258C119.072 30.5862 120.181 31.2116 121.365 31.2166C124.577 31.205 127.794 26.6495 131.011 22.2482C134.203 17.9648 137.36 13.6897 140.104 13.7262C140.517 13.7262 140.926 13.8241 141.341 14.0314C144.608 15.4183 134.808 25.0237 132.813 26.4288C128.901 29.191 121.628 33.3782 126.414 40.3143C128.809 39.5213 129.625 37.2751 131.098 36.9881C131.406 36.9566 131.73 36.8836 131.974 36.8869C133.65 36.8354 133.453 38.8113 133.818 40.6278C134.171 42.5522 135.035 43.0582 136.15 43.0615C136.511 43.0648 136.873 43.0267 137.256 42.9669C137.617 42.9238 137.988 42.879 138.373 42.879C138.666 42.8823 138.967 42.9089 139.278 42.9852C141.341 43.3999 140.442 46.1007 138.97 47.8476C136.908 50.2746 133.903 52.6055 135.315 56.6384C136.333 59.5233 137.084 60.0791 136.177 63.11C135.464 65.4956 134.569 67.8811 132.535 69.0988C131.138 69.9615 127.73 68.8649 126.149 70.5073C124.266 72.6224 127.371 76.7035 127.522 78.5598C127.895 83.4687 123.467 85.6701 119.272 87.3224C114.799 89.1655 109.915 90.0249 105.006 90.0033C98.3421 89.9718 91.6318 88.3079 85.8471 85.267C83.2768 83.8834 81.0611 82.5994 78.1796 82.5811C77.4099 82.5619 76.6411 82.6461 75.894 82.8316C72.1268 83.5483 72.3083 86.5942 70.016 87.5033C69.7107 87.6573 69.3727 87.7359 69.0305 87.7322C65.9559 87.7438 61.4696 82.3074 58.2451 81.4746C56.6657 81.0892 55.0454 80.8948 53.4192 80.8957C49.5489 80.8774 45.6885 81.7683 41.8031 82.6973C37.9594 83.5964 34.114 84.4906 30.2769 84.469C28.915 84.4534 27.5571 84.3196 26.2185 84.0692C14.7755 81.9872 16.069 73.797 13.562 64.6462C12.4683 60.386 9.7998 58.8232 6.80006 56.6616C3.64883 54.2777 4.33801 54.2727 5.73966 51.3795C7.67901 47.4544 5.90113 47.3964 2.6467 44.7653C0.455988 42.9454 -1.38015 40.1185 1.42982 37.7329C2.53849 36.8039 6.59031 36.4489 9.64332 35.3789C12.9044 34.2607 15.1035 32.1522 11.5843 27.8904C10.7337 26.9182 7.09637 25.1431 4.77249 23.4576C2.71329 21.8833 1.69451 20.8265 5.33015 20.4599C5.4034 20.4665 5.54157 20.445 5.66475 20.445C7.47592 20.4483 9.40194 21.7655 11.4279 22.58C12.7145 23.1709 14.1146 23.476 15.5313 23.4742C17.1993 23.4825 18.8423 23.0346 20.805 22.1935C24.5089 20.4582 27.1557 16.5132 26.9376 12.3808C26.8011 9.84424 25.5742 9.48092 24.8484 7.97128C24.369 6.99581 24.5971 5.59233 24.662 4.36471C24.7752 2.38225 25.1697 1.14467 26.8927 0.696755C27.3488 0.57731 27.9414 0.559062 28.4591 0.520906C30.1355 0.5292 32.0265 1.0667 33.0669 2.02724C33.7578 2.75386 33.052 3.04584 34.7982 3.78573C35.2443 3.96324 35.7437 4.05116 36.2365 4.05448C36.6743 4.0578 37.1154 3.98978 37.5199 3.85872C39.729 3.11219 40.2816 0.670212 41.7898 0.220635C42.2509 0.0646928 42.7853 -0.00332445 43.3613 -6.53704e-06Z" fill="#F6F9FB"/>
<path fill-rule="evenodd" clip-rule="evenodd" d="M47.4332 33.9556V32.7993C49.3409 32.7263 49.9885 32.2386 51.1205 31.2747C52.647 29.9725 50.909 25.9113 50.909 25.9113C50.6094 25.8715 49.6272 26.2464 49.6272 26.2464C50.3597 24.8247 51.8396 25.2527 52.3174 25.631C52.7885 25.981 52.3556 26.5301 52.1675 26.414C52.0159 26.3315 51.8584 26.26 51.6964 26.2C52.2424 27.5753 53.1064 29.936 52.3257 31.424C51.0639 33.1228 49.241 33.798 47.4332 33.9556ZM47.4332 30.7256C47.5164 30.7505 47.603 30.7605 47.6879 30.7605C48.1041 30.7605 48.3171 30.4038 48.1773 29.9708C48.1156 29.7994 48.017 29.6434 47.8884 29.5139C47.7599 29.3844 47.6045 29.2844 47.4332 29.2209V30.7256ZM47.4332 22.1588V21.7623C49.6572 22.9186 53.2296 22.8638 53.2296 22.8638C52.597 20.5977 49.3959 19.2987 47.4332 19.2987V18.6965H47.5164C54.831 18.6965 54.9459 23.7348 54.9459 23.7348C54.6113 23.8808 52.3889 24.2043 49.4425 23.1492C48.7318 22.9089 48.0561 22.5759 47.4332 22.1588ZM47.4332 18.6965V19.2987C47.1153 19.2987 46.8422 19.3286 46.6159 19.3833C46.0085 19.5485 45.4031 19.7205 44.7997 19.8993V18.9968C45.6646 18.8056 46.5473 18.7049 47.4332 18.6965ZM47.4332 21.7623V22.1588C46.3195 21.4156 46.1647 20.7487 46.1647 20.7487C46.4827 21.1551 46.9122 21.4852 47.4332 21.7623ZM47.4332 29.2209V30.724C47.2589 30.6638 47.1007 30.5647 46.9709 30.4341C46.841 30.3035 46.7429 30.145 46.6841 29.9708C46.5426 29.5262 46.754 29.1745 47.1669 29.1745C47.2567 29.1745 47.3433 29.1927 47.4332 29.2209ZM47.4332 32.7993V33.9556C46.5548 34.0215 45.6717 33.9921 44.7997 33.8677V32.7114L44.863 32.7263C45.9217 32.7993 46.754 32.8225 47.4332 32.7993ZM44.7997 22.6913V21.9564C45.0927 21.9564 45.3324 22.1206 45.3324 22.3164C45.3324 22.5188 45.0927 22.6913 44.7997 22.6913ZM44.7997 18.9968V19.8993C44.3419 20.027 43.9141 20.1564 43.5545 20.2709V19.2987C43.9524 19.1959 44.3536 19.0963 44.7997 18.9968ZM44.7997 21.9547V22.6896C44.5001 22.6896 44.2553 22.5171 44.2553 22.3131C44.2553 22.119 44.5001 21.9547 44.7997 21.9547ZM44.7997 32.7114V33.8677C44.3823 33.8046 43.967 33.7283 43.5545 33.6387V32.4659C43.9224 32.5687 44.3402 32.6533 44.7997 32.7114ZM43.5545 23.69V22.7908H43.6095C43.8075 22.7908 43.9424 22.9916 43.9141 23.2487C43.8991 23.4793 43.7393 23.6618 43.5545 23.69ZM42.3876 30.7339C42.4681 30.7352 42.5482 30.7206 42.623 30.6909C42.6979 30.6612 42.7661 30.617 42.8237 30.5608C42.8813 30.5046 42.9271 30.4376 42.9586 30.3637C42.99 30.2898 43.0064 30.2104 43.0068 30.1301C43.0042 29.9686 42.9376 29.8147 42.8217 29.7019C42.7057 29.5891 42.5496 29.5265 42.3876 29.5279V30.7339ZM43.5545 19.2987V20.2709C42.9486 20.46 42.5341 20.5828 42.5341 20.5828C42.5041 21.4421 42.4625 22.2268 42.3892 22.9484V19.5691C42.7771 19.4961 43.165 19.3966 43.5545 19.2987ZM43.5545 22.7908C43.3814 22.8306 43.2232 23.0181 43.1933 23.2487C43.165 23.4926 43.3065 23.69 43.5112 23.69H43.5529V22.7908H43.5545ZM43.5545 32.4659V33.6387C43.1629 33.5463 42.7743 33.4418 42.3892 33.3252V32.0511C42.7338 32.212 43.12 32.3547 43.5545 32.4659ZM41.7683 30.1301C41.7683 30.4652 42.0463 30.7339 42.3876 30.7339V29.5262C42.2256 29.5262 42.0701 29.5893 41.9543 29.7022C41.8386 29.8151 41.7718 29.9687 41.7683 30.1301ZM42.3876 19.5691V22.9484C41.9548 27.4459 40.8245 29.3437 40.8245 29.3437C40.5664 29.8928 40.0903 30.359 40.7895 31.0226C41.2601 31.4528 41.8005 31.8006 42.3876 32.0511V33.3252C41.5969 33.0847 41.0958 32.8673 41.0642 32.8375C40.936 32.7114 38.8119 31.3494 39.6475 29.9924C40.0204 29.2724 40.3284 28.559 40.5781 27.8606C40.254 28.1479 39.9114 28.4139 39.5526 28.6569C39.3602 28.7742 39.1606 28.8795 38.955 28.9721V28.1277C40.0787 27.5719 40.9227 26.6496 40.956 26.6263C41.1823 25.6908 41.3244 24.737 41.3805 23.7763C40.3816 23.8343 39.5843 24.0749 38.955 24.4067V23.1724C39.7237 22.7923 40.5391 22.5145 41.3805 22.3462C41.3656 21.8283 41.3173 21.3118 41.2356 20.8001C40.4762 20.8548 39.7135 20.8487 38.955 20.7818V19.6106C39.7724 19.682 40.5115 19.682 41.0359 19.667C40.6294 17.7929 39.927 15.9949 38.955 14.3401V13.7728C41.8699 15.7005 42.3876 19.5691 42.3876 19.5691ZM38.955 13.7728V14.3434C38.5905 13.7611 38.3491 13.4343 38.3491 13.4343C38.5705 13.5239 38.7686 13.6417 38.955 13.7728ZM38.955 19.6123V20.7835C35.391 20.4451 34.6502 18.5821 34.6502 18.5821C35.9286 19.2407 37.5617 19.5144 38.955 19.6123ZM38.955 23.1741V24.4083C36.6694 25.6525 36.5296 28.2289 36.5296 28.2289C36.6012 28.3019 37.1455 28.5889 37.9496 28.486C38.2975 28.418 38.6387 28.287 38.955 28.1294V28.9738C37.2587 29.7203 36.0785 29.2044 35.9536 28.7747C35.8002 28.1835 35.7658 27.5679 35.8524 26.9634C35.939 26.359 36.1448 25.7775 36.458 25.2527C37.0889 24.2839 38.0511 23.6203 38.955 23.1741Z" fill="#FCBD57"/>
<path fill-rule="evenodd" clip-rule="evenodd" d="M93.1368 73.9943V72.1628C93.2217 72.1811 93.3266 72.1811 93.4365 72.1811C94.4003 72.1811 94.9896 71.5557 95.4491 71.5557C95.8919 71.5557 96.2664 71.9024 96.2664 72.4051C96.2664 73.3639 94.675 73.9943 93.1784 73.9943H93.1368ZM93.1368 71.0713V69.7242H94.4003C94.4003 69.2796 93.8959 68.538 93.1368 68.538V66.8758H93.1768C95.1194 66.8758 96.3713 68.4999 96.3713 70.2119C96.3713 70.9153 96.04 71.0713 95.4058 71.0713H93.1368ZM95.4957 65.0609C95.4968 65.1901 95.4722 65.3183 95.4235 65.4381C95.3748 65.5579 95.3028 65.6669 95.2117 65.7589C95.1206 65.8509 95.0122 65.9241 94.8927 65.9743C94.7732 66.0244 94.6449 66.0506 94.5152 66.0513C94.3855 66.0506 94.2572 66.0244 94.1376 65.9743C94.0181 65.9241 93.9097 65.8509 93.8186 65.7589C93.7275 65.6669 93.6555 65.5579 93.6068 65.4381C93.5581 65.3183 93.5336 65.1901 93.5347 65.0609C93.5347 64.52 93.9692 64.0754 94.5152 64.0754C95.0595 64.0754 95.4957 64.52 95.4957 65.0609ZM97.718 71.6867C98.3356 71.6867 98.7684 72.2441 99.6191 72.2441C100.02 72.2441 100.158 72.0616 100.158 71.8626C100.158 71.4628 99.7289 71.4147 98.6402 70.9568C97.6331 70.5454 97.1021 70.1738 97.1021 69.112C97.1021 67.979 98.0493 66.8774 99.6274 66.8774C100.423 66.8774 101.885 67.2523 101.885 68.2825C101.885 68.7703 101.537 69.112 101.064 69.112C100.678 69.112 100.103 68.6127 99.5025 68.6127C99.2279 68.6127 98.9832 68.7404 98.9832 69.039C98.9832 69.7988 102.058 69.628 102.058 71.7896C102.058 73.1798 100.879 73.9943 99.5258 73.9943C98.3123 73.9943 96.9123 73.5099 96.9123 72.6373C96.9106 72.0716 97.2852 71.6867 97.718 71.6867ZM102.864 65.104C102.864 64.5283 103.265 64.0754 103.851 64.0754C104.428 64.0754 104.829 64.53 104.829 65.104V67.3668H104.859C105.261 67.1196 105.76 66.8758 106.509 66.8758C107.873 66.8758 108.958 67.5825 108.958 69.1966V72.8463C108.958 73.4021 108.552 73.86 107.977 73.86C107.403 73.86 107 73.4021 107 72.8463V69.7225C107 69.0357 106.597 68.5364 105.907 68.5364C105.236 68.5364 104.831 69.0357 104.831 69.7225V72.8463C104.831 73.4021 104.43 73.86 103.852 73.86C103.266 73.86 102.865 73.4021 102.865 72.8463V65.104H102.864ZM113.391 72.4051H113.113C112.773 72.4051 112.614 72.2441 112.614 71.9604V68.8035H113.16C113.664 68.8035 114.093 68.4982 114.093 67.9242C114.093 67.3519 113.662 67.0068 113.16 67.0068H112.614V65.7195C112.614 65.1355 112.214 64.7291 111.64 64.7291C111.079 64.7291 110.677 65.1355 110.677 65.7195V67.0068H110.24C109.754 67.0068 109.292 67.4365 109.292 67.8761C109.292 68.3821 109.717 68.8035 110.24 68.8035H110.677V72.206C110.677 73.3191 111.25 73.8799 112.655 73.8799C113.589 73.8799 114.062 73.5895 114.062 73.0355C114.062 72.6356 113.822 72.4051 113.391 72.4051ZM70.7003 75.5654C70.7003 76.141 70.2992 76.584 69.7065 76.584C69.1339 76.584 68.7277 76.1394 68.7277 75.5654V73.4369C68.3575 73.7685 67.8818 73.9594 67.3843 73.9761V72.1048C68.2549 72.1048 68.7277 71.3483 68.7277 70.4309C68.7277 69.5284 68.2549 68.7686 67.3843 68.7686V66.8907C67.9803 66.9338 68.4131 67.1628 68.786 67.6356C68.9891 67.2507 69.2438 67.0068 69.7065 67.0068C70.2975 67.0068 70.7003 67.4514 70.7003 68.0204V75.5654ZM93.1368 66.8774V68.5397C92.3594 68.5397 91.8567 69.2812 91.8567 69.7258H93.1368V71.0729H91.8567C91.8567 71.4628 92.1347 72.0633 93.1368 72.1645V73.996C91.0527 73.9661 89.7509 72.4067 89.7509 70.4326C89.7509 68.5579 91.1409 66.9056 93.1368 66.8774ZM77.8834 71.3748C77.8834 73.1947 76.4701 73.9943 74.8537 73.9943C73.2157 73.9943 71.8157 73.1931 71.8157 71.3748V68.0221C71.8157 67.4514 72.2052 67.0085 72.7829 67.0085C73.3572 67.0085 73.7584 67.4531 73.7584 68.0221V71.0862C73.7584 71.8294 74.3343 72.1811 74.8537 72.1811C74.9975 72.1835 75.1402 72.1566 75.2732 72.1021C75.4062 72.0476 75.5267 71.9666 75.6272 71.8641C75.7277 71.7616 75.8062 71.6397 75.8578 71.506C75.9094 71.3722 75.9331 71.2294 75.9274 71.0862V68.0221C75.9274 67.4514 76.3319 67.0085 76.9079 67.0085C77.4839 67.0085 77.8851 67.4531 77.8851 68.0221V71.3748H77.8834ZM79.047 68.0221C79.047 67.4514 79.4482 67.0085 80.0259 67.0085C80.5519 67.0085 80.8848 67.3353 81.0147 67.6372C81.3293 67.1312 81.9902 66.8774 82.6927 66.8774C83.252 66.8774 84.0444 67.0815 84.5221 67.6803C84.9783 67.3353 85.5842 66.8774 86.4149 66.8774C87.7782 66.8774 88.8569 67.5841 88.8569 69.1983V72.848C88.8569 73.4037 88.4591 73.8616 87.8831 73.8616C87.75 73.8632 87.618 73.838 87.4949 73.7874C87.3719 73.7368 87.2604 73.6618 87.1672 73.5671C87.074 73.4724 87.0011 73.3598 86.9527 73.2362C86.9044 73.1126 86.8817 72.9806 86.886 72.848V69.7242C86.886 69.1104 86.5564 68.538 85.9138 68.538C85.2612 68.538 84.94 69.1104 84.94 69.7242V72.848C84.94 73.4037 84.5371 73.8616 83.9478 73.8616C83.3702 73.8616 82.964 73.4037 82.964 72.848V69.7242C82.964 69.1104 82.6377 68.538 81.9902 68.538C81.3476 68.538 81.0147 69.1104 81.0147 69.7242V72.848C81.0147 73.4037 80.6035 73.8616 80.0259 73.8616C79.4482 73.8616 79.047 73.4037 79.047 72.848V68.0221ZM92.5758 65.0609C92.5758 65.6067 92.143 66.0513 91.5953 66.0513C91.4662 66.0502 91.3386 66.0237 91.2198 65.9732C91.101 65.9228 90.9935 65.8494 90.9032 65.7573C90.813 65.6653 90.742 65.5564 90.6942 65.4368C90.6464 65.3173 90.6228 65.1895 90.6248 65.0609C90.6248 64.52 91.0526 64.0754 91.5953 64.0754C91.7247 64.0757 91.8528 64.1014 91.9722 64.1511C92.0916 64.2008 92.2 64.2735 92.2911 64.365C92.3822 64.4566 92.4543 64.5652 92.5031 64.6846C92.552 64.804 92.5767 64.9319 92.5758 65.0609ZM67.386 73.9761C67.2944 73.9943 67.2079 73.9943 67.1047 73.9943C65.4 73.9943 64.0816 72.4183 64.0816 70.4309C64.0816 68.4567 65.4 66.8758 67.1047 66.8758C67.2079 66.8758 67.2944 66.8758 67.386 66.8907V68.7686C66.5187 68.7686 66.0443 69.5284 66.0443 70.4309C66.0443 71.3483 66.5187 72.1048 67.386 72.1048V73.9761Z" fill="#28AAE1"/>
<path fill-rule="evenodd" clip-rule="evenodd" d="M37.9063 68.0221C37.9063 67.4547 38.3091 67.0118 38.9018 67.0118C39.4178 67.0118 39.7441 67.3353 39.8789 67.6372C40.1919 67.1346 40.8461 66.8774 41.5586 66.8774C42.1262 66.8774 42.9103 67.0815 43.3847 67.6804C43.8558 67.3353 44.4418 66.8774 45.2758 66.8774C46.6408 66.8774 47.7195 67.5841 47.7195 69.1983V72.848C47.7195 73.4037 47.3217 73.8616 46.744 73.8616C46.1664 73.8616 45.7619 73.4037 45.7619 72.848V69.7242C45.7619 69.1104 45.4223 68.5347 44.7747 68.5347C44.1438 68.5347 43.7992 69.1104 43.7992 69.7242V72.848C43.7992 73.4037 43.3964 73.8616 42.8187 73.8616C42.2444 73.8616 41.8432 73.4037 41.8432 72.848V69.7242C41.8432 69.1104 41.497 68.5347 40.8461 68.5347C40.2202 68.5347 39.8789 69.1104 39.8789 69.7242V72.848C39.8789 73.4037 39.4777 73.8616 38.9018 73.8616C38.3108 73.8616 37.9063 73.4037 37.9063 72.848V68.0221ZM48.6517 65.2433C48.6517 65.9053 49.1844 66.4212 49.8253 66.4212C50.1375 66.4212 50.4368 66.2976 50.6576 66.0777C50.8783 65.8577 51.0023 65.5594 51.0023 65.2483C51.0023 64.9373 50.8783 64.6389 50.6576 64.419C50.4368 64.199 50.1375 64.0754 49.8253 64.0754C49.6713 64.0752 49.5187 64.1053 49.3764 64.1639C49.234 64.2225 49.1046 64.3085 48.9956 64.4169C48.8866 64.5254 48.8001 64.6542 48.7411 64.796C48.6821 64.9378 48.6517 65.0898 48.6517 65.2433ZM48.8382 72.848C48.8382 73.4037 49.241 73.8616 49.827 73.8616C50.4063 73.8616 50.8108 73.4037 50.8108 72.848V68.0221C50.8108 67.4547 50.4063 67.0118 49.827 67.0118C49.241 67.0118 48.8382 67.4564 48.8382 68.0221V72.848ZM51.8845 65.104C51.8845 64.5283 52.2857 64.0754 52.86 64.0754C53.4493 64.0754 53.8555 64.53 53.8555 65.104V72.848C53.8555 73.4037 53.451 73.8616 52.86 73.8616C52.2857 73.8616 51.8845 73.4037 51.8845 72.848V65.104ZM54.9692 65.104C54.9692 64.5283 55.377 64.0754 55.9513 64.0754C56.524 64.0754 56.9235 64.53 56.9235 65.104V69.2796L58.5216 67.6787C58.8612 67.3336 59.1525 67.0101 59.6436 67.0101C60.2162 67.0101 60.5908 67.4365 60.5908 67.9093C60.5908 68.266 60.3611 68.4932 59.895 68.9378L58.8346 70.0012L60.4859 72.0899C60.6923 72.3321 60.9603 72.6622 60.9603 72.9674C60.9559 73.0904 60.9269 73.2111 60.8753 73.3228C60.8236 73.4345 60.7501 73.5348 60.6592 73.618C60.5683 73.7012 60.4618 73.7656 60.3457 73.8074C60.2297 73.8492 60.1064 73.8676 59.9832 73.8616C59.5237 73.8616 59.3173 73.7156 58.9211 73.1964L56.9485 70.6267H56.9202V72.848C56.9202 73.4037 56.5207 73.8616 55.948 73.8616C55.3737 73.8616 54.9659 73.4037 54.9659 72.848V65.104H54.9692Z" fill="#FCBD57"/>
<path fill-rule="evenodd" clip-rule="evenodd" d="M110.271 36.1204C108.407 36.1204 106.795 37.3182 106.581 39.0087C105.061 37.0893 102.7 36.0872 100.217 35.8716C99.8873 35.8436 99.5568 35.8298 99.2262 35.8301C92.143 35.8301 86.4582 41.663 86.4582 49.2295C86.4582 57.0116 91.9732 62.5426 99.2262 62.5426C99.5575 62.5426 99.8854 62.5277 100.217 62.4995C102.714 62.2855 104.816 61.1972 106.581 59.3193C107.108 61.1524 108.017 62.2573 110.271 62.2573C113.979 62.2573 113.979 59.525 113.979 57.7482V40.6427C113.977 38.8643 113.977 36.1204 110.271 36.1204ZM100.305 56.2004H100.217C96.08 56.1573 94.1856 52.5192 94.1856 49.2295C94.1856 45.9381 96.04 42.2287 100.217 42.1856C100.248 42.1706 100.272 42.1706 100.305 42.1706C104.37 42.1706 106.248 45.9083 106.248 49.2295C106.248 52.5524 104.328 56.2004 100.305 56.2004ZM82.165 42.4775C84.1426 42.4775 85.8639 41.6016 85.8639 39.44C85.8639 37.2186 84.1443 36.4008 82.165 36.4008H79.9643V32.2833C79.9643 29.9624 78.3562 28.4345 76.1055 28.4345C73.8499 28.4345 72.2352 29.9624 72.2352 32.2833V36.4008H70.5272C68.6045 36.4008 67.1546 37.7064 67.1546 39.44C67.1546 41.3163 68.4464 42.4775 70.5272 42.4775H72.2352V56.0163C72.2352 60.3097 74.5607 62.4995 80.1657 62.4995C83.8729 62.4995 85.7856 61.3581 85.7856 59.2645C85.7856 57.715 84.7785 56.8159 83.0839 56.8159H81.9802C80.6018 56.8159 79.9659 56.2153 79.9659 55.1304V42.4759H82.165V42.4775ZM61.22 25.7437C58.9145 25.7437 56.8819 27.5552 56.8819 29.531C56.8819 31.6512 58.9161 33.5258 61.22 33.5258C63.6321 33.5258 65.5715 31.6943 65.5715 29.531C65.5715 27.5104 63.5306 25.7437 61.22 25.7437ZM61.22 36.1204C58.9627 36.1204 57.3563 37.6632 57.3563 39.9692V58.4201C57.3563 60.7244 58.9627 62.2573 61.22 62.2573C63.474 62.2573 65.0854 60.7244 65.0854 58.4201V39.9692C65.0854 37.6616 63.474 36.1204 61.22 36.1204ZM50.979 36.1204C48.8232 36.1204 47.9176 37.5222 47.5447 38.579L42.6057 52.2023H42.4891L37.5617 38.579C37.1871 37.5206 36.2716 36.1204 34.1325 36.1204C32.0283 36.1204 30.094 37.2767 30.094 39.4781C30.094 40.1086 30.2072 40.6427 30.5834 41.4988L38.3674 59.3806C39.1165 61.1524 39.9155 62.2556 42.5507 62.2556C45.1776 62.2556 45.9816 61.1524 46.7374 59.3806L54.5147 41.4988C54.8926 40.6427 55.0041 40.1086 55.0041 39.4781C55.0025 37.2767 53.0598 36.1204 50.979 36.1204Z" fill="#134B8C"/>
<path fill-rule="evenodd" clip-rule="evenodd" d="M47.4332 29.2176C47.3485 29.1889 47.2596 29.1743 47.1702 29.1744C46.7573 29.1744 46.5426 29.5311 46.6841 29.9707C46.7973 30.3191 47.0986 30.6177 47.4332 30.7239C47.517 30.7482 47.604 30.76 47.6912 30.7587C48.1074 30.7587 48.3171 30.4021 48.1773 29.9691C48.1143 29.7981 48.0153 29.6426 47.8869 29.513C47.7586 29.3834 47.6039 29.2827 47.4332 29.2176ZM54.9442 23.7347C54.9442 23.7347 54.8293 18.6965 47.5114 18.6965H47.4315C46.5455 18.7051 45.6629 18.8063 44.798 18.9984C44.3569 19.0979 43.954 19.1975 43.5545 19.297C43.165 19.3982 42.7754 19.4978 42.3859 19.5708C42.3859 19.5708 41.8715 15.7021 38.9533 13.7744C38.7632 13.6407 38.5603 13.5262 38.3474 13.4326C38.3474 13.4326 38.5971 13.7627 38.9533 14.345C39.5693 15.4084 40.5331 17.2797 41.0342 19.6719C40.5098 19.6869 39.774 19.6869 38.9533 19.6155C37.56 19.516 35.927 19.2423 34.6485 18.5853C34.6485 18.5853 35.3893 20.4483 38.9533 20.7901C39.6176 20.8481 40.3733 20.8631 41.2389 20.8083C41.3072 21.3077 41.3705 21.8203 41.3788 22.3512C40.5375 22.5194 39.722 22.7972 38.9533 23.1773C38.0494 23.6236 37.0872 24.2838 36.4563 25.256C35.5508 26.7441 35.8054 28.3052 35.9553 28.778C36.0768 29.2109 37.257 29.7236 38.9533 28.977C39.1431 28.8891 39.3396 28.7929 39.5543 28.6618C39.9124 28.4193 40.2538 28.1533 40.5764 27.8655C40.3173 28.5972 40.0063 29.3096 39.6459 29.9973C38.8085 31.3543 40.9326 32.7163 41.0625 32.8424C41.0925 32.8706 41.5935 33.0896 42.3842 33.3301C42.7305 33.433 43.1167 33.5458 43.5528 33.6437C43.939 33.7299 44.3552 33.8079 44.7964 33.8726C45.6154 33.9887 46.5226 34.0368 47.4299 33.9638C49.2377 33.8079 51.0655 33.1277 52.3223 31.4256C53.1031 29.9392 52.2391 27.5802 51.6931 26.2033C51.6931 26.2033 51.9927 26.3144 52.1675 26.4173C52.3506 26.5334 52.7851 25.9843 52.314 25.6309C51.8363 25.256 50.358 24.828 49.6272 26.2464C49.6272 26.2464 50.6061 25.8698 50.9057 25.9146C50.9057 25.9146 52.6436 29.9757 51.1171 31.2813C49.9851 32.2419 49.3392 32.7296 47.4299 32.8026C46.754 32.8275 45.9183 32.8026 44.8596 32.7296L44.7964 32.7147C44.3767 32.6615 43.9612 32.5794 43.5528 32.4691C43.1512 32.3675 42.7599 32.2286 42.3842 32.0544C41.7958 31.805 41.2556 31.4553 40.7878 31.0209C40.087 30.3689 40.5631 29.8961 40.8228 29.347C40.8228 29.347 41.9581 27.4491 42.3842 22.9517C42.4558 22.2317 42.5008 21.4421 42.5307 20.586L43.5528 20.2741C43.9024 20.1613 44.3386 20.0336 44.7964 19.9025C45.4 19.7245 46.0054 19.5525 46.6125 19.3866C46.8389 19.3319 47.1086 19.2987 47.4299 19.2987C49.3942 19.2987 52.597 20.601 53.2263 22.8671C53.2263 22.8671 49.6539 22.9218 47.4299 21.7655C46.9426 21.5196 46.5109 21.1769 46.1614 20.7586C46.1614 20.7586 46.3162 21.4188 47.4299 22.1637C47.8976 22.4905 48.5469 22.8356 49.4391 23.1541C52.3823 24.2042 54.6146 23.8724 54.9442 23.7347ZM40.9559 26.6279C40.921 26.6578 40.072 27.5736 38.955 28.1293C38.6387 28.2869 38.2958 28.4213 37.9495 28.486C37.1455 28.5855 36.6012 28.3018 36.5296 28.2288C36.5296 28.2288 36.6761 25.6525 38.955 24.4083C39.5843 24.0765 40.375 23.8359 41.3804 23.7779C41.3235 24.7385 41.1815 25.6923 40.9559 26.6279ZM44.257 22.318C44.257 22.5187 44.5017 22.6863 44.7997 22.6863C45.0927 22.6863 45.329 22.5187 45.329 22.318C45.329 22.1189 45.0927 21.9547 44.7997 21.9547C44.5 21.9547 44.257 22.1189 44.257 22.318ZM43.5562 22.7908C43.383 22.8306 43.2232 23.0181 43.1933 23.2487C43.165 23.4925 43.3065 23.6899 43.5112 23.6899H43.5545C43.736 23.6634 43.8974 23.4759 43.9041 23.2487C43.9407 22.9915 43.8125 22.7908 43.6128 22.7908H43.5562ZM41.7683 30.13C41.7683 30.4651 42.0463 30.7339 42.3859 30.7339C42.4666 30.7352 42.5467 30.7206 42.6216 30.6909C42.6966 30.6612 42.7649 30.617 42.8226 30.5608C42.8803 30.5047 42.9263 30.4377 42.9579 30.3638C42.9896 30.2898 43.0062 30.2104 43.0068 30.13C43.0055 30.05 42.9884 29.9711 42.9565 29.8978C42.9246 29.8244 42.8785 29.758 42.8208 29.7024C42.7632 29.6468 42.6951 29.603 42.6205 29.5736C42.5458 29.5442 42.4661 29.5298 42.3859 29.5311C42.2246 29.5298 42.0692 29.5919 41.9536 29.7041C41.8379 29.8162 41.7714 29.9692 41.7683 30.13Z" fill="#FCBD57"/>
<path fill-rule="evenodd" clip-rule="evenodd" d="M96.3713 70.212C96.3713 68.4999 95.1194 66.8758 93.1768 66.8758H93.1368C91.1409 66.9057 89.7509 68.553 89.7509 70.4309C89.7509 72.4051 91.0527 73.9645 93.1368 73.9944H93.1768C94.6733 73.9944 96.2647 73.364 96.2647 72.4051C96.2685 72.2956 96.2502 72.1865 96.2109 72.0842C96.1716 71.9819 96.112 71.8886 96.0358 71.8096C95.9595 71.7307 95.8682 71.6679 95.7671 71.6248C95.666 71.5818 95.5573 71.5594 95.4474 71.559C94.9879 71.559 94.3986 72.1778 93.4398 72.1778C93.3266 72.1778 93.2201 72.1778 93.1352 72.1596C92.133 72.06 91.855 71.4611 91.855 71.0713H95.4058C96.0417 71.0713 96.3713 70.9154 96.3713 70.212ZM91.855 69.7242C91.855 69.2796 92.3594 68.5381 93.1352 68.5381C93.8943 68.5381 94.3986 69.2796 94.3986 69.7242H91.855ZM94.5135 66.0513C95.0595 66.0513 95.4957 65.6067 95.4957 65.0609C95.5035 64.9278 95.4839 64.7945 95.4381 64.6692C95.3924 64.5439 95.3214 64.4293 95.2296 64.3323C95.1378 64.2353 95.027 64.158 94.9042 64.1052C94.7813 64.0524 94.649 64.0251 94.5152 64.0251C94.3814 64.0251 94.249 64.0524 94.1261 64.1052C94.0033 64.158 93.8926 64.2353 93.8008 64.3323C93.7089 64.4293 93.638 64.5439 93.5922 64.6692C93.5465 64.7945 93.5269 64.9278 93.5347 65.0609C93.5347 65.6067 93.9692 66.0513 94.5135 66.0513ZM98.9815 69.0374C98.9815 68.7388 99.2262 68.6111 99.5009 68.6111C100.102 68.6111 100.676 69.1104 101.062 69.1104C101.172 69.1137 101.281 69.0944 101.383 69.0538C101.485 69.0131 101.577 68.9519 101.654 68.874C101.731 68.7962 101.791 68.7033 101.831 68.6013C101.87 68.4992 101.888 68.3902 101.883 68.2809C101.883 67.2507 100.42 66.8758 99.6257 66.8758C98.0493 66.8758 97.1004 67.9773 97.1004 69.1104C97.1004 70.1738 97.6298 70.5437 98.6386 70.9552C99.7273 71.413 100.16 71.4611 100.16 71.861C100.16 72.06 100.019 72.2425 99.6174 72.2425C98.7667 72.2425 98.3339 71.6851 97.7163 71.6851C97.2835 71.6851 96.9106 72.07 96.9106 72.6274C96.9106 73.5066 98.3106 73.9911 99.5242 73.9911C100.878 73.9911 102.056 73.1765 102.056 71.7863C102.056 69.628 98.9815 69.7972 98.9815 69.0374ZM106.507 66.8775C105.758 66.8775 105.259 67.1246 104.858 67.3685H104.828V65.1057C104.828 64.535 104.427 64.0771 103.849 64.0771C103.263 64.0771 102.862 64.535 102.862 65.1057V72.8497C102.862 73.4054 103.263 73.8633 103.849 73.8633C104.427 73.8633 104.828 73.4054 104.828 72.8497V69.7259C104.828 69.0391 105.229 68.5397 105.903 68.5397C106.592 68.5397 106.997 69.0391 106.997 69.7259V72.8497C106.997 73.4054 107.4 73.8633 107.974 73.8633C108.548 73.8633 108.95 73.4054 108.95 72.8497V69.2033C108.951 67.5825 107.871 66.8775 106.507 66.8775ZM113.391 72.4051H113.116C112.773 72.4051 112.614 72.2442 112.614 71.9605V68.8052H113.161C113.664 68.8052 114.093 68.4999 114.093 67.9259C114.093 67.3503 113.662 67.0085 113.161 67.0085H112.614V65.7212C112.614 65.1372 112.214 64.7308 111.636 64.7308C111.079 64.7308 110.677 65.1372 110.677 65.7212V67.0085H110.241C109.754 67.0085 109.292 67.4382 109.292 67.8778C109.292 68.3838 109.717 68.8052 110.241 68.8052H110.677V72.2044C110.677 73.3208 111.25 73.8782 112.655 73.8782C113.589 73.8782 114.062 73.5912 114.062 73.0305C114.062 72.6291 113.822 72.4051 113.391 72.4051ZM69.7082 67.0085C69.2471 67.0085 68.9924 67.2507 68.791 67.6456C68.6296 67.4219 68.4192 67.2378 68.1757 67.1073C67.9323 66.9768 67.6622 66.9033 67.386 66.8924C67.2944 66.8774 67.2079 66.8775 67.1047 66.8775C65.4 66.8775 64.0816 68.4568 64.0816 70.4326C64.0816 72.4184 65.4 73.996 67.1047 73.996C67.2079 73.996 67.2944 73.996 67.386 73.9778C68.0568 73.9413 68.4147 73.6941 68.7294 73.4386V75.5671C68.7294 76.1427 69.1356 76.5857 69.7082 76.5857C70.2992 76.5857 70.702 76.1411 70.702 75.5671V68.0238C70.7003 67.4548 70.2992 67.0085 69.7082 67.0085ZM67.386 72.1048C66.5187 72.1048 66.0443 71.3483 66.0443 70.4309C66.0443 69.5285 66.5187 68.7687 67.386 68.7687C68.2566 68.7687 68.7294 69.5285 68.7294 70.4309C68.7294 71.3483 68.2566 72.1048 67.386 72.1048ZM76.9013 67.0085C76.3303 67.0085 75.9258 67.4564 75.9258 68.0221V71.0829C75.9258 71.8328 75.3498 72.1778 74.852 72.1778C74.3327 72.1778 73.7567 71.8328 73.7567 71.0829V68.0221C73.7567 67.4548 73.3555 67.0085 72.7812 67.0085C72.2035 67.0085 71.814 67.4564 71.814 68.0221V71.3749C71.814 73.1948 73.214 73.9944 74.852 73.9944C76.4701 73.9944 77.8818 73.1931 77.8818 71.3749V68.0221C77.8834 67.4548 77.4822 67.0085 76.9013 67.0085ZM86.4132 66.8775C85.5825 66.8775 84.9783 67.3353 84.5205 67.6804C84.0427 67.0815 83.2503 66.8775 82.691 66.8775C81.9935 66.8775 81.3293 67.1313 81.013 67.6456C80.9313 67.4528 80.7933 67.289 80.617 67.1754C80.4406 67.0618 80.2341 67.0036 80.0242 67.0085C79.4465 67.0085 79.0454 67.4564 79.0454 68.0221V72.848C79.0454 73.4038 79.4465 73.8617 80.0242 73.8617C80.6018 73.8617 81.013 73.4038 81.013 72.848V69.7242C81.013 69.1104 81.3426 68.5381 81.9935 68.5381C82.6361 68.5381 82.9623 69.1104 82.9623 69.7242V72.848C82.9623 73.4038 83.3685 73.8617 83.9445 73.8617C84.5338 73.8617 84.9383 73.4038 84.9383 72.848V69.7242C84.9383 69.1104 85.2596 68.5381 85.9121 68.5381C86.558 68.5381 86.8843 69.1104 86.8843 69.7242V72.848C86.8843 73.4038 87.2905 73.8617 87.8814 73.8617C88.4574 73.8617 88.8553 73.4038 88.8553 72.848V69.2017C88.8536 67.5825 87.7766 66.8775 86.4132 66.8775ZM91.5953 66.0513C91.7251 66.0509 91.8535 66.0249 91.9731 65.9748C92.0928 65.9247 92.2013 65.8515 92.2924 65.7594C92.3835 65.6674 92.4555 65.5583 92.5041 65.4384C92.5528 65.3185 92.5771 65.1902 92.5758 65.0609C92.5758 64.8031 92.4731 64.5558 92.2901 64.3735C92.1072 64.1912 91.859 64.0887 91.6003 64.0887C91.3416 64.0887 91.0935 64.1912 90.9105 64.3735C90.7276 64.5558 90.6248 64.8031 90.6248 65.0609C90.6248 65.6067 91.0526 66.0513 91.5953 66.0513Z" fill="#28AAE1"/>
<path fill-rule="evenodd" clip-rule="evenodd" d="M45.2741 66.8774C44.4401 66.8774 43.8525 67.3386 43.3797 67.6804C42.9053 67.0815 42.1295 66.8774 41.5569 66.8774C40.8527 66.8774 40.1902 67.1312 39.8739 67.6372C39.7919 67.448 39.6555 67.2873 39.4819 67.1754C39.3082 67.0635 39.1052 67.0054 38.8984 67.0085C38.3091 67.0085 37.9046 67.4564 37.9046 68.0221V72.848C37.9046 73.4037 38.3075 73.8616 38.8984 73.8616C39.4761 73.8616 39.8739 73.4037 39.8739 72.848V69.7242C39.8739 69.1104 40.2185 68.538 40.8527 68.538C41.502 68.538 41.8416 69.1104 41.8416 69.7242V72.848C41.8416 73.4037 42.2427 73.8616 42.8171 73.8616C43.3914 73.8616 43.7975 73.4037 43.7975 72.848V69.7242C43.7975 69.1104 44.1421 68.538 44.773 68.538C45.4206 68.538 45.7635 69.1104 45.7635 69.7242V72.848C45.7635 73.4037 46.1647 73.8616 46.7357 73.8616C47.32 73.8616 47.7179 73.4037 47.7179 72.848V69.2016C47.7179 67.5825 46.6391 66.8774 45.2741 66.8774ZM49.8303 64.0754C49.5182 64.0754 49.2188 64.199 48.9981 64.419C48.7774 64.6389 48.6534 64.9373 48.6534 65.2483C48.6534 65.5594 48.7774 65.8577 48.9981 66.0777C49.2188 66.2976 49.5182 66.4212 49.8303 66.4212C50.4629 66.4212 50.9956 65.9053 50.9956 65.2433C50.9956 64.9347 50.873 64.6387 50.6547 64.4198C50.4364 64.201 50.14 64.0772 49.8303 64.0754ZM49.8303 67.0085C49.2427 67.0085 48.8365 67.4564 48.8365 68.0221V72.848C48.8365 73.4037 49.2427 73.8616 49.8303 73.8616C50.4046 73.8616 50.8092 73.4037 50.8092 72.848V68.0221C50.8092 67.4547 50.4046 67.0085 49.8303 67.0085ZM52.8634 64.0754C52.2841 64.0754 51.8862 64.53 51.8862 65.104V72.848C51.8862 73.4037 52.2841 73.8616 52.8634 73.8616C53.4493 73.8616 53.8505 73.4037 53.8505 72.848V65.104C53.8505 64.53 53.4493 64.0754 52.8634 64.0754ZM60.4876 72.0899L58.8362 70.0012L59.8966 68.9428C60.3577 68.4982 60.5874 68.266 60.5874 67.9093C60.5871 67.7878 60.5622 67.6676 60.5142 67.5558C60.4663 67.4441 60.3963 67.3431 60.3084 67.2589C60.2205 67.1747 60.1164 67.109 60.0025 67.0657C59.8886 67.0224 59.7671 67.0024 59.6452 67.0068C59.1542 67.0068 58.8662 67.3369 58.5183 67.6787L56.9268 69.2879V65.104C56.9268 64.5283 56.5256 64.0754 55.948 64.0754C55.3754 64.0754 54.9708 64.53 54.9708 65.104V72.848C54.9708 73.4037 55.3754 73.8616 55.948 73.8616C56.5256 73.8616 56.9268 73.4037 56.9268 72.848V70.6267H56.9535L58.9178 73.1931C59.3223 73.7206 59.527 73.8616 59.9882 73.8616C60.1114 73.8676 60.2347 73.8492 60.3507 73.8074C60.4668 73.7656 60.5733 73.7012 60.6642 73.618C60.7551 73.5348 60.8285 73.4345 60.8802 73.3228C60.9319 73.2111 60.9608 73.0904 60.9653 72.9674C60.962 72.6622 60.6857 72.3321 60.4876 72.0899Z" fill="#FCBD57"/>
</g>
<defs>
<clipPath id="clip0_1486_398">
<rect width="142" height="90" fill="white"/>
</clipPath>
</defs>
</svg>
