<?xml version="1.0" encoding="utf-8"?>
<!-- Generator: Adobe Illustrator 25.3.1, SVG Export Plug-In . SVG Version: 6.00 Build 0)  -->
<svg version="1.1" id="Layer_1" xmlns="http://www.w3.org/2000/svg" xmlns:xlink="http://www.w3.org/1999/xlink" x="0px" y="0px"
	 viewBox="0 0 550 200" style="enable-background:new 0 0 550 200;" xml:space="preserve">
<style type="text/css">
	.st0{fill:#FFFFFF;}
</style>
<g>
	<g>
		<path d="M222.05,133V85c0-12.8,4.1-20.5,22.6-20.5h6c6.1,0,10.8,2,14.3,6h1.3c3.6-4,8-6,14.1-6h6c18.5,0,22.7,7.7,22.7,20.5v48
			c0,1.3-0.7,2-2,2h-7.4c-1.3,0-2-0.7-2-2V85.2c0-9.6-4.3-10.4-12.1-10.4h-3.1c-6.9,0-11.2,1.6-11.2,10.2v48c0,1.3-0.7,2-2,2h-7.4
			c-1.3,0-2-0.7-2-2V85.2c0-8.8-4.3-10.4-11.2-10.4h-3.2c-7.8,0-12,0.8-12,10.4V133c0,1.3-0.7,2-2,2h-7.4
			C222.75,135,222.05,134.3,222.05,133z"/>
		<path d="M319.45,114.5v-29c0-12.8,6.1-20.5,23.6-20.5h22.6c1.3,0,2,0.7,2,2v6c0,1.3-0.7,2-2,2h-21.8c-8.8,0-13,2.8-13,10.7v9h32.8
			c1.3,0,2,0.7,2,2v6c0,1.3-0.7,2-2,2h-32.8v9.6c0,8,4.2,10.7,13,10.7h21.8c1.3,0,2,0.7,2,2v6c0,1.3-0.7,2-2,2h-22.6
			C325.55,135,319.45,127.3,319.45,114.5z"/>
		<path d="M391.96,133V75h-19.1c-1.3,0-2-0.7-2-2v-6c0-1.3,0.7-2,2-2h49.6c1.3,0,2,0.7,2,2v6c0,1.3-0.7,2-2,2h-19.1v58
			c0,1.3-0.7,2-2,2h-7.4C392.66,135,391.96,134.3,391.96,133z"/>
		<path d="M423.55,133l8.1-48c3.1-18.1,6.1-20.5,19.3-20.5h3.9c13.4,0,16.6,2.4,19.6,20.5l8,48c0.3,1.9-0.7,2-2,2h-5.7
			c-0.9,0-1.6-0.1-2.5-0.6l-31.3-15.5c-1.1-0.6-1.5-1-1.2-2.5l1-5.4c0.3-1.5,1.3-2,2.6-1.3l26,12.9l-6.2-37.4
			c-1.9-11.3-4.3-11.4-9.1-11.4h-2.3c-4.6,0-6.9,0.1-8.8,11.4l-8,47.8c-0.3,2-0.7,2-2,2h-7.4C424.25,135,423.25,135,423.55,133z"/>
		<path d="M489.95,115V67c0-1.3,0.7-2,2-2h7.4c1.3,0,2,0.7,2,2v47.8c0,8,4.2,10.7,13,10.7h19.8c1.3,0,2,0.7,2,2v6c0,1.3-0.7,2-2,2
			h-20.6C496.05,135.5,489.95,127.8,489.95,115z"/>
	</g>
	<circle cx="103.85" cy="100" r="90"/>
	<g>
		<path class="st0" d="M45.87,133l8.1-48c3.1-18.1,6.1-20.5,19.3-20.5h3.9c13.4,0,16.6,2.4,19.6,20.5l8,48c0.3,1.9-0.7,2-2,2h-5.7
			c-0.9,0-1.6-0.1-2.5-0.6l-31.3-15.5c-1.1-0.6-1.5-1-1.2-2.5l1-5.4c0.3-1.5,1.3-2,2.6-1.3l26,12.9l-6.2-37.4
			c-1.9-11.3-4.3-11.4-9.1-11.4h-2.3c-4.6,0-6.9,0.1-8.8,11.4l-8,47.8c-0.3,2-0.7,2-2,2h-7.4C46.57,135,45.57,135,45.87,133z"/>
		<path class="st0" d="M106.87,117.3c0-1.3,0.7-2,2-2h7.1c1.3,0,2.3,0.7,2.3,2c0,6.8,4.8,8.9,12.9,8.9h6.5c8,0,12.8-2.3,12.8-10.9
			c0-6.7-2.1-7.6-13.4-9l-5.4-0.7c-20-2.6-23.8-10.1-23.8-20.7c0-12.5,7.9-20.4,22.8-20.4h7.3c14.6,0,22.3,6.5,22.3,18.4
			c0,1.3-0.7,2-2,2h-7.1c-1.3,0-2.3-0.7-2.3-2c0-6.6-4.3-9.1-11.9-9.1h-5.5c-7.7,0-12.2,2.6-12.2,11.1c0,6.5,1.8,8.9,12.4,10.3
			l5.4,0.7c17.5,2.3,24.8,4.4,24.8,19.4c0,13.8-7.4,20.2-22.7,20.2h-9.6C114.27,135.5,106.87,129.2,106.87,117.3z"/>
	</g>
</g>
</svg>
