<?xml version="1.0" encoding="utf-8"?>
<!-- Generator: Adobe Illustrator 25.3.1, SVG Export Plug-In . SVG Version: 6.00 Build 0)  -->
<svg version="1.1" id="Layer_1" xmlns="http://www.w3.org/2000/svg" xmlns:xlink="http://www.w3.org/1999/xlink" x="0px" y="0px"
	 viewBox="0 0 550 150" style="enable-background:new 0 0 550 150;" xml:space="preserve">
<g>
	<g>
		<path d="M12.38,68.12V34.33c0-14.42,6.87-23.09,25.46-23.09h11.15c16.45,0,24.33,8.22,24.33,22.19c0,1.46-0.79,2.25-2.25,2.25
			h-8.22c-1.35,0-2.37-0.79-2.37-2.25c0-7.66-5.41-10.59-12.39-10.59h-9.35c-8.79,0-13.52,3.15-13.52,11.71V67.9
			c0,8.67,4.73,11.71,13.52,11.71h9.35c6.98,0,12.39-2.7,12.39-10.36c0-1.46,1.01-2.25,2.37-2.25h8.22c1.46,0,2.25,0.79,2.25,2.25
			c0,13.86-7.89,21.97-24.33,21.97H37.84C19.25,91.22,12.38,82.54,12.38,68.12z"/>
		<path d="M80.3,68.12V34.33c0-14.42,6.87-23.09,26.58-23.09h11.15c19.71,0,26.7,8.67,26.7,23.09v33.79
			c0,14.42-6.98,23.09-26.7,23.09h-11.15C87.17,91.22,80.3,82.54,80.3,68.12z M107.79,79.61h9.35c9.91,0,14.76-3.04,14.76-11.71
			V34.56c0-8.56-4.84-11.71-14.76-11.71h-9.35c-9.91,0-14.64,3.15-14.64,11.71V67.9C93.14,76.57,97.88,79.61,107.79,79.61z"/>
		<path d="M155.32,88.4V34.33c0-14.42,4.62-23.09,25.46-23.09h6.76c6.87,0,12.17,2.25,16.11,6.76h1.46
			c4.06-4.51,9.01-6.76,15.88-6.76h6.76c20.84,0,25.57,8.67,25.57,23.09V88.4c0,1.46-0.79,2.25-2.25,2.25h-8.34
			c-1.46,0-2.25-0.79-2.25-2.25V34.56c0-10.81-4.84-11.71-13.63-11.71h-3.49c-7.77,0-12.62,1.8-12.62,11.49V88.4
			c0,1.46-0.79,2.25-2.25,2.25h-8.34c-1.46,0-2.25-0.79-2.25-2.25V34.56c0-9.91-4.84-11.71-12.62-11.71h-3.6
			c-8.79,0-13.52,0.9-13.52,11.71V88.4c0,1.46-0.79,2.25-2.25,2.25h-8.34C156.11,90.65,155.32,89.86,155.32,88.4z"/>
		<path d="M267.73,88.4V14.05c0-1.46,0.79-2.25,2.25-2.25h8.34c0.11,0,0.11,0,0.11,0h23.54c19.71,0,26.58,8.67,26.58,23.09v12.84
			c0,14.42-6.87,23.09-26.58,23.09h-21.4V88.4c0,1.46-0.79,2.25-2.25,2.25h-8.34C268.52,90.65,267.73,89.86,267.73,88.4z
			 M301.08,60.35c9.91,0,14.64-3.15,14.64-12.05V34.33c0-8.79-4.73-12.05-14.64-12.05h-20.5v38.07H301.08z"/>
		<path d="M328.89,88.4l9.12-54.07c3.38-20.39,6.87-23.09,21.74-23.09h4.39c15.09,0,18.7,2.7,22.08,23.09l9.12,54.07
			c0.34,2.14-0.79,2.25-2.25,2.25h-8.34c-1.46,0-1.92-0.23-2.25-2.25l-2.48-14.98h-35.82l-2.48,14.98
			c-0.34,2.25-0.79,2.25-2.25,2.25h-8.34C329.68,90.65,328.56,90.65,328.89,88.4z M378.35,63.17l-4.84-28.61
			c-2.14-12.73-4.84-12.84-10.25-12.84h-2.59c-5.18,0-7.77,0.11-9.91,12.84l-4.84,28.61H378.35z"/>
		<path d="M402.67,88.4V34.33c0-14.42,6.87-23.09,25.46-23.09h11.15c18.59,0,25.57,8.67,25.57,23.09V88.4
			c0,1.46-0.79,2.25-2.25,2.25h-8.34c-1.46,0-2.25-0.79-2.25-2.25V34.56c0-8.56-4.84-11.71-13.63-11.71h-9.35
			c-8.79,0-13.52,3.15-13.52,11.71V88.4c0,1.46-0.79,2.25-2.25,2.25h-8.34C403.46,90.65,402.67,89.86,402.67,88.4z"/>
		<path d="M472.06,46.72V14.05c0-1.46,0.79-2.25,2.25-2.25h8.34c1.46,0,2.25,0.79,2.25,2.25V46.5c0,10.81,4.73,11.72,15.21,11.72
			h9.35c10.48,0,15.32-0.9,15.32-11.72V14.05c0-1.46,0.79-2.25,2.25-2.25h8.34c1.46,0,2.25,0.79,2.25,2.25v32.67
			c0,19.15-12.84,23.09-23.88,23.09h-2.48V88.4c0,1.46-0.79,2.25-2.25,2.25h-8.34c-1.46,0-2.25-0.79-2.25-2.25V69.81h-2.59
			C484.9,69.81,472.06,65.87,472.06,46.72z"/>
	</g>
	<g>
		<path d="M33.27,114.67l-8.38,14.09v9.56h-3.14v-9.6l-8.35-14.06h3.51l6.43,11.1l6.41-11.1H33.27z"/>
		<path d="M64.17,135.18c-2.38,2.39-5.28,3.58-8.7,3.58c-3.42,0-6.32-1.19-8.68-3.58c-2.37-2.39-3.55-5.28-3.55-8.68
			c0-3.42,1.18-6.32,3.55-8.7c2.37-2.38,5.26-3.57,8.68-3.57c3.42,0,6.32,1.19,8.7,3.57c2.38,2.38,3.57,5.28,3.57,8.7
			C67.74,129.9,66.55,132.79,64.17,135.18z M48.97,133.03c1.75,1.77,3.91,2.65,6.5,2.65c2.59,0,4.76-0.88,6.5-2.65
			c1.75-1.77,2.62-3.95,2.62-6.54c0-2.61-0.87-4.8-2.62-6.57c-1.75-1.77-3.91-2.65-6.5-2.65c-2.59,0-4.76,0.88-6.5,2.65
			c-1.75,1.77-2.62,3.96-2.62,6.57C46.35,129.09,47.22,131.27,48.97,133.03z"/>
		<path d="M96.46,136.48c-1.64,1.52-3.77,2.28-6.39,2.28c-2.61,0-4.75-0.76-6.4-2.28c-1.66-1.52-2.48-3.55-2.48-6.1v-15.71h3.14
			v15.58c0,1.67,0.49,2.99,1.49,3.97c0.99,0.98,2.41,1.47,4.26,1.47c1.85,0,3.27-0.49,4.26-1.47c0.99-0.98,1.49-2.3,1.49-3.97
			v-15.58h3.11v15.71C98.93,132.93,98.11,134.96,96.46,136.48z"/>
		<path d="M127.89,138.32l-5.3-9.06h-5.58v9.06h-3.14v-23.65h9.46c2.03,0,3.76,0.71,5.2,2.15c1.44,1.43,2.16,3.16,2.16,5.19
			c0,1.53-0.46,2.93-1.37,4.19c-0.91,1.26-2.09,2.15-3.53,2.67l5.58,9.46H127.89z M117.01,117.61v8.82h6.32
			c1.17,0,2.17-0.43,2.99-1.3c0.82-0.87,1.23-1.91,1.23-3.13c0-1.22-0.41-2.25-1.23-3.11c-0.82-0.86-1.82-1.28-2.99-1.28H117.01z"/>
		<path d="M174.35,138.76c-3.58,0-6.54-1.18-8.87-3.55c-2.33-2.37-3.5-5.27-3.5-8.72c0-3.45,1.17-6.35,3.5-8.72
			c2.33-2.36,5.29-3.55,8.87-3.55c2.16,0,4.15,0.52,5.96,1.55c1.81,1.04,3.23,2.43,4.24,4.19l-2.74,1.59
			c-0.68-1.31-1.68-2.35-3.02-3.13c-1.34-0.78-2.82-1.17-4.44-1.17c-2.73,0-4.95,0.88-6.67,2.64c-1.72,1.76-2.58,3.95-2.58,6.59
			c0,2.61,0.86,4.8,2.58,6.56c1.72,1.76,3.95,2.64,6.67,2.64c1.62,0,3.1-0.39,4.44-1.17c1.34-0.78,2.35-1.81,3.02-3.09l2.74,1.55
			c-0.99,1.76-2.4,3.16-4.22,4.21C178.51,138.24,176.51,138.76,174.35,138.76z"/>
		<path d="M217.86,135.18c-2.38,2.39-5.28,3.58-8.7,3.58c-3.42,0-6.32-1.19-8.68-3.58c-2.37-2.39-3.55-5.28-3.55-8.68
			c0-3.42,1.18-6.32,3.55-8.7c2.37-2.38,5.26-3.57,8.68-3.57c3.42,0,6.32,1.19,8.7,3.57c2.38,2.38,3.57,5.28,3.57,8.7
			C221.42,129.9,220.24,132.79,217.86,135.18z M202.65,133.03c1.75,1.77,3.91,2.65,6.5,2.65c2.59,0,4.76-0.88,6.5-2.65
			c1.75-1.77,2.62-3.95,2.62-6.54c0-2.61-0.87-4.8-2.62-6.57c-1.75-1.77-3.91-2.65-6.5-2.65c-2.59,0-4.76,0.88-6.5,2.65
			c-1.75,1.77-2.62,3.96-2.62,6.57C200.03,129.09,200.91,131.27,202.65,133.03z"/>
		<path d="M257.48,114.67v23.65h-3.11v-18.48l-7.74,12.88l-0.38-0.01l-7.76-12.88v18.5h-3.14v-23.65h3.55l7.57,12.56l7.51-12.56
			H257.48z"/>
		<path d="M281.27,114.67c2.19,0,4,0.73,5.46,2.18c1.45,1.45,2.18,3.26,2.18,5.42c0,2.14-0.73,3.94-2.18,5.41
			c-1.45,1.47-3.27,2.2-5.46,2.2h-5.44v8.45h-3.14v-23.65H281.27z M281.27,126.94c1.31,0,2.39-0.44,3.24-1.33
			c0.86-0.89,1.28-2,1.28-3.33c0-1.35-0.43-2.47-1.28-3.35c-0.86-0.88-1.94-1.32-3.24-1.32h-5.44v9.33H281.27z"/>
		<path d="M315.94,138.32l-1.93-5.31h-10.64l-1.93,5.31h-3.35l8.82-23.65h3.55l8.82,23.65H315.94z M304.44,130.08h8.5l-4.25-11.68
			L304.44,130.08z"/>
		<path d="M346.92,114.67h3.14v23.65h-2.53l-12.16-17.67v17.67h-3.14v-23.65h2.43l12.27,17.76V114.67z"/>
		<path d="M382.88,114.67l-8.38,14.09v9.56h-3.14v-9.6l-8.35-14.06h3.51l6.43,11.1l6.41-11.1H382.88z"/>
		<path d="M417.55,135.35h10.2v2.97h-13.35v-23.65h3.14V135.35z"/>
		<path d="M459.1,135.18c-2.38,2.39-5.28,3.58-8.7,3.58c-3.43,0-6.32-1.19-8.68-3.58c-2.37-2.39-3.55-5.28-3.55-8.68
			c0-3.42,1.18-6.32,3.55-8.7c2.36-2.38,5.26-3.57,8.68-3.57c3.42,0,6.32,1.19,8.7,3.57c2.38,2.38,3.57,5.28,3.57,8.7
			C462.66,129.9,461.47,132.79,459.1,135.18z M443.89,133.03c1.75,1.77,3.91,2.65,6.51,2.65c2.59,0,4.76-0.88,6.5-2.65
			c1.75-1.77,2.62-3.95,2.62-6.54c0-2.61-0.87-4.8-2.62-6.57c-1.75-1.77-3.91-2.65-6.5-2.65c-2.59,0-4.76,0.88-6.51,2.65
			s-2.62,3.96-2.62,6.57C441.27,129.09,442.14,131.27,443.89,133.03z"/>
		<path d="M499.39,126.6v1.42c0,3.09-1.06,5.65-3.18,7.69c-2.12,2.04-4.92,3.06-8.41,3.06c-3.6,0-6.58-1.19-8.94-3.57
			c-2.35-2.38-3.53-5.28-3.53-8.7c0-3.42,1.18-6.32,3.53-8.7c2.35-2.38,5.31-3.57,8.87-3.57c2.18,0,4.19,0.52,6.01,1.57
			c1.82,1.05,3.23,2.43,4.23,4.14l-2.7,1.59c-0.68-1.28-1.7-2.31-3.06-3.09c-1.36-0.78-2.87-1.17-4.51-1.17
			c-2.7,0-4.92,0.88-6.66,2.65s-2.6,3.96-2.6,6.57s0.87,4.8,2.62,6.56c1.75,1.76,4,2.64,6.77,2.64c2.36,0,4.28-0.58,5.74-1.74
			s2.35-2.66,2.67-4.51h-8.68v-2.84H499.39z"/>
		<path d="M533.03,135.18c-2.38,2.39-5.28,3.58-8.7,3.58c-3.42,0-6.32-1.19-8.68-3.58s-3.55-5.28-3.55-8.68
			c0-3.42,1.18-6.32,3.55-8.7c2.36-2.38,5.26-3.57,8.68-3.57c3.42,0,6.32,1.19,8.7,3.57c2.38,2.38,3.57,5.28,3.57,8.7
			C536.6,129.9,535.41,132.79,533.03,135.18z M517.83,133.03c1.75,1.77,3.91,2.65,6.51,2.65c2.59,0,4.76-0.88,6.51-2.65
			c1.74-1.77,2.62-3.95,2.62-6.54c0-2.61-0.87-4.8-2.62-6.57c-1.75-1.77-3.91-2.65-6.51-2.65c-2.59,0-4.76,0.88-6.51,2.65
			s-2.62,3.96-2.62,6.57C515.21,129.09,516.08,131.27,517.83,133.03z"/>
	</g>
</g>
</svg>
