<?xml version="1.0" encoding="utf-8"?>
<!-- Generator: Adobe Illustrator 25.3.1, SVG Export Plug-In . SVG Version: 6.00 Build 0)  -->
<svg version="1.1" id="Layer_1" xmlns="http://www.w3.org/2000/svg" xmlns:xlink="http://www.w3.org/1999/xlink" x="0px" y="0px"
	 viewBox="0 0 1250 220" style="enable-background:new 0 0 1250 220;" xml:space="preserve">
<g>
	<g>
		<path d="M39.27,203.93c-1.21,1.99-0.38,4.6,1.76,5.52c1.6,0.69,3.46,0.22,4.54-1.15c0.74-0.93,10.44-13.16,11.65-14.69l-8.34-4.93
			C46.69,192.12,40.31,202.22,39.27,203.93z"/>
		<path d="M191.38,69.17c-0.14-2.43-0.96-6.49-1.66-8.4c-1.23-3.36-2.89-6.17-4.93-9.1c-1.98-2.85-3.98-5.32-6.64-7.97
			c-2.8-2.79-8.03-7.22-9.19-7.97c-0.5-0.32,0.58-1.14,0.87-1.75c0.87-1.82,0.32-3.55-1.51-4.78c-1.29-0.87-3.26-0.52-4.39,0.9
			c-2.27,2.85-4.38,5.82-6.33,8.9c-0.99,1.56-0.55,3.4,0.95,4.6c1.39,1.11,3.1,1.04,4.47-0.22c0.44-0.4,0.82-0.87,1.18-1.34
			c0.24-0.31,0.38-0.32,0.7-0.07c0.05,0.04,7.96,7.51,8.14,7.68c2.44,2.46,4.61,5.14,6.48,8.06c1.61,2.52,2.85,5.29,3.47,8.21
			c0.9,4.25,0.94,8.55,0.44,12.86c-0.56,4.82-2.69,8.81-6.41,11.92c-2.32,1.94-5.04,3.18-7.88,4.16c-1.06,0.36-1.81,1.05-2.31,2
			c-0.66,1.25-0.66,2.55,0.14,3.75c0.69,1.04,1.66,1.75,2.98,1.68c0.83-0.04,1.68-0.16,2.47-0.41c4.64-1.46,8.75-3.84,12.07-7.43
			c4.54-4.91,6.48-10.9,6.97-17.46C191.65,74.45,191.59,71.69,191.38,69.17z"/>
		<path d="M170.23,135.72c-4.06-4.24-8.96-7.3-14.11-10c-6.72-3.52-22.83-9.83-22.83-9.83c-2.02-0.74-4.26,0.29-5,2.31
			c-0.51,1.37-0.18,2.83,0.71,3.87c0.32,0.38,0.72,0.69,1.18,0.93c0.64,0.25,6.16,2.42,8.27,3.26c6.33,2.51,12.53,5.27,18.37,8.83
			c2.88,1.76,5.58,3.81,7.96,6.19c1.72,1.71,2.7,3.47,3.54,5.74c0.35,0.96,0.63,2.24,0.78,3.37c0.26,1.91,0.35,3.57,0.1,5.37
			c-0.65,4.85-2.38,9.26-5.28,13.24c-2.24,3.07-4.82,5.78-7.8,8.09c-3.89,3.02-8.18,5.35-12.7,7.3c-4.36,1.88-8.85,3.36-13.41,4.62
			c-0.13,0.04-0.27,0.07-0.4,0.11c-1.39,0.38-2.79,0.73-4.19,1.08c-8.33,1.92-17.44,2.7-26.26,2.21
			c-12.16-0.66-23.61-3.82-33.9-8.94c1.61-2.03,99.95-125.89,103.6-130.36c0-0.02,0-0.03,0-0.04l-5.52-5.3
			c-8.76,11.07-73.97,93.1-76.9,96.76c-0.12,0.16-0.38,0.5-0.52,0.42c-0.14-0.09,0.18-0.6,0.32-0.83
			C94.4,131.47,159.12,31.27,164,24.05c1.66-2.46,3.84-3.4,6.63-3.09c2.89,0.32,4.79,2.13,5.87,4.67c0.73,1.72,0.83,3.63-0.19,5.36
			c-0.53,0.9-1.12,1.75-1.73,2.6l5.75,4.93c0.25-0.34,0.52-0.67,0.76-1.02c0.26-0.38,0.51-0.75,0.75-1.13
			c2.07-3.26,2.82-7.18,2.2-10.99c-0.11-0.65-0.25-1.28-0.44-1.91c-0.17-0.56-0.27-1.14-0.53-1.68c-1.22-2.45-2.89-4.5-5.22-5.98
			c-2.91-1.85-6.01-2.86-9.49-2.2c-0.53,0.09-1.05,0.17-1.58,0.26c-3.68,0.58-6.69,2.19-8.77,5.41c-1.51,2.33-3.27,4.48-4.74,6.84
			c-0.66,1.06-0.74,1.04-1.9,0.7c-5.37-1.55-10.77-2.89-16.33-3.58c-8.63-1.07-17.25-1.05-25.86,0.19c-1.26,0.18-7.85,1.15-9.49,1.4
			c-1.64,0.25-5.63,1.1-5.83,1.15c-3.65,0.92-7.22,2.07-10.6,3.73c-11.25,5.53-17.77,14.42-18.76,27.03
			c-0.88,11.13,2.36,21.18,8.72,30.23c4.55,6.47,10.38,11.72,16.66,16.49c2.69,2.04,5.55,3.83,8.46,5.54
			c1.26,0.74,1.26,0.87,0.5,2.06c-3.38,5.28-32.1,49.85-43.03,66.89c-25.24-16.83-41.26-46.41-39.47-79.12
			c2.13-39.1,31.3-71.95,70.92-79.9c5.19-1.04,10.48-1.62,15.81-1.75c1.33-0.03,2.53-0.79,3.09-1.99v0
			c1.09-2.34-0.67-4.99-3.25-4.93c-22.63,0.52-44.13,8.6-61.24,23.19C22.19,49.99,10.74,73.08,9.36,98.44
			C6.48,151.23,46.6,196.5,98.8,199.34c7.56,0.41,15.11-0.06,22.47-1.37c0.09-0.01,0.18,0,0.27-0.02
			c3.91-0.65,13.58-2.72,18.88-4.33c6.72-2.03,12.86-5.14,18.59-9.22c5.06-3.61,9.38-7.91,12.67-13.22
			c3.36-5.43,5.22-11.29,5.37-17.69c0.07-3.23-0.4-6.39-1.36-9.44C174.66,140.78,172.57,138.15,170.23,135.72z M77.02,79.37
			c-3.32-5.47-4.81-11.43-5.28-17.74c-0.36-4.75,0.31-9.28,2.37-13.57c2.65-5.51,7.09-9.15,12.46-11.84
			c4.52-2.27,9.4-3.21,14.33-3.99c0.65-0.1,13.09-2.02,18.75-2.17c8.77-0.23,17.42,0.51,25.88,2.98c0.68,0.2,1.35,0.47,2.03,0.69
			c0.6,0.2,0.68,0.46,0.32,1.02c-2.86,4.44-43.52,67.78-43.98,68.51c-0.18,0.28-0.32,0.35-0.63,0.16
			C92.84,97.23,83.44,89.95,77.02,79.37z"/>
	</g>
	<g>
		<g>
			<path d="M289.44,113.65l11.02-8.55c5.7,8.81,13.35,13.61,23.2,13.61c11.02,0,18.4-6.87,18.4-16.2c0-10.37-10.5-13.87-21.9-17.37
				c-12.83-4.15-26.57-9.33-26.57-26.44c0-14.26,12.7-25.4,29.81-25.4c14,0,22.81,5.44,29.94,13.74l-10.24,7.65
				c-4.54-6.87-11.02-10.24-19.7-10.24c-10.24,0-16.98,5.83-16.98,14c0,9.98,10.5,12.83,21.51,16.59
				c13.09,4.53,27.09,9.85,27.09,27.48c0,14.52-12.05,28-31.24,28C307.84,130.5,297.21,123.89,289.44,113.65z"/>
			<path d="M372.51,91.35c0-22.68,17.11-39.53,38.62-39.53c10.76,0,21.77,5.18,27.87,14.13V53.38h12.18v75.82h-12.18v-12.83
				c-2.98,4.54-7.13,8.16-12.31,10.63c-5.05,2.46-10.24,3.76-15.55,3.76C389.87,130.76,372.51,113.91,372.51,91.35z M439.9,91.23
				c0-15.55-12.05-28.12-27.61-28.12c-15.16,0-27.35,12.57-27.35,28.12c0,15.68,12.18,28.12,27.35,28.12
				C427.85,119.35,439.9,106.91,439.9,91.23z"/>
			<path d="M469.96,91.35c0-22.68,17.11-39.53,38.62-39.53c10.5,0,21.64,5.05,27.74,14V33.29h12.18v95.91h-12.05v-12.83
				c-2.98,4.54-7.13,8.16-12.31,10.63c-5.05,2.46-10.24,3.76-15.55,3.76C487.33,130.76,469.96,113.91,469.96,91.35z M537.36,91.23
				c0-15.55-12.05-28.12-27.61-28.12c-15.16,0-27.35,12.57-27.35,28.12c0,15.68,12.18,28.12,27.35,28.12
				C525.3,119.35,537.36,106.91,537.36,91.23z"/>
			<path d="M567.29,91.74c0-22.55,16.85-39.92,39.4-39.92c22.16,0,38.88,15.68,38.88,38.49v5.19h-66.23
				c1.68,14.39,12.7,24.24,27.99,24.24c12.05,0,20.74-6.22,25.27-16.07l10.5,5.57c-6.87,13.48-18.27,21.51-35.77,21.51
				C583.1,130.76,567.29,113.91,567.29,91.74z M579.99,84.48H633c-2.2-13.48-11.66-21.64-26.31-21.64
				C593.21,62.84,582.84,71.91,579.99,84.48z"/>
			<path d="M658,53.38h13.22V33.29h12.18v20.09h17.76v11.15H683.4v35.25c0,15.16,2.72,17.76,17.76,17.76v11.66h-1.81
				c-22.16,0-28.12-6.48-28.12-29.29V64.53H658V53.38z"/>
			<path d="M714.51,91.74c0-22.55,16.85-39.92,39.4-39.92c22.16,0,38.88,15.68,38.88,38.49v5.19h-66.23
				c1.68,14.39,12.7,24.24,27.99,24.24c12.05,0,20.74-6.22,25.27-16.07l10.5,5.57c-6.87,13.48-18.27,21.51-35.77,21.51
				C730.32,130.76,714.51,113.91,714.51,91.74z M727.21,84.48h53.01c-2.2-13.48-11.66-21.64-26.31-21.64
				C740.43,62.84,730.06,71.91,727.21,84.48z"/>
			<path d="M846.04,81.89c0-26.96,20.74-48.6,49.12-48.6c18.79,0,33.96,9.72,42.25,24.24l-10.89,6.61
				c-6.35-11.79-17.37-18.79-31.36-18.79c-21.38,0-36.42,16.59-36.42,36.55c0,20.09,15.16,36.42,36.42,36.42
				c19.31,0,31.24-11.92,33.96-28.51h-35.51V77.88h48.6v4.41c0,25.92-17.5,48.21-47.05,48.21
				C866.78,130.5,846.04,108.33,846.04,81.89z"/>
			<path d="M959.05,91.35c0-22.68,17.11-39.53,38.62-39.53c10.76,0,21.77,5.18,27.87,14.13V53.38h12.18v75.82h-12.18v-12.83
				c-2.98,4.54-7.13,8.16-12.31,10.63c-5.05,2.46-10.24,3.76-15.55,3.76C976.42,130.76,959.05,113.91,959.05,91.35z M1026.44,91.23
				c0-15.55-12.05-28.12-27.61-28.12c-15.16,0-27.35,12.57-27.35,28.12c0,15.68,12.18,28.12,27.35,28.12
				C1014.39,119.35,1026.44,106.91,1026.44,91.23z"/>
			<path d="M1053.52,115.07l10.5-6.87c4.8,7.13,12.44,11.66,21.77,11.66c11.28,0,16.85-5.83,16.85-12.57
				c0-7.78-9.85-9.33-20.09-11.66c-12.44-3.11-25.53-7-25.53-21.9c0-11.53,10.76-22.03,27.87-22.03c12.31,0,22.81,4.67,28.9,12.57
				l-9.72,6.74c-4.67-5.57-10.89-8.81-19.18-8.81c-10.24,0-15.55,5.05-15.55,11.28c0,7.52,8.81,8.94,19.57,11.66
				c12.18,3.11,25.92,6.61,25.92,22.03c0,9.98-8.68,23.59-29.42,23.59C1071.02,130.76,1060.39,124.92,1053.52,115.07z"/>
			<path d="M1133.87,33.29h12.18v31.49c5.31-7.78,14.26-12.96,25.66-12.96c19.83,0,32.4,12.96,32.4,34.35v43.03h-12.57V86.82
				c0-14.9-7.26-23.98-22.16-23.98c-13.09,0-23.07,10.24-23.07,24.37v41.99h-12.44V33.29z"/>
			<path d="M1231.84,26.16c5.7,0,8.94,3.5,8.94,8.68c0,5.31-3.24,8.81-8.94,8.81c-5.57,0-8.81-3.5-8.81-8.81
				C1223.03,29.66,1226.53,26.16,1231.84,26.16z M1225.62,53.38h12.44v75.82h-12.44V53.38z"/>
		</g>
		<g>
			<path d="M392.35,170.25v7.52h11.95v3.24h-11.95v12.71h-3.24v-26.72h17.93v3.24H392.35z"/>
			<path d="M460.46,167.01l11.99,26.72h-3.56l-2.77-6.19h-14.94l-2.77,6.19h-3.56l11.95-26.72H460.46z M464.67,184.3l-6.05-13.47
				l-6.01,13.47H464.67z"/>
			<path d="M513.3,191.6c-0.94-0.68-1.69-1.51-2.2-2.45c-0.58-1.01-0.86-2.09-0.86-3.17h3.24c0,1.12,0.61,2.2,1.76,3.02
				c1.26,0.94,2.99,1.48,4.83,1.48c1.84,0,3.56-0.54,4.86-1.48c1.12-0.83,1.73-1.91,1.73-3.02c0-1.23-0.5-2.2-1.51-2.99
				c-0.83-0.65-2.38-1.4-5.15-1.55h-0.04c-2.27-0.18-4.32-0.9-5.87-2.09c-1.73-1.33-2.66-3.13-2.66-5.11c0-1.04,0.22-2.02,0.72-2.95
				c0.47-0.86,1.12-1.66,1.94-2.3c1.62-1.26,3.74-1.98,5.98-1.98c2.27,0,4.39,0.72,5.98,1.98c0.83,0.65,1.48,1.44,1.94,2.3
				c0.5,0.94,0.76,1.91,0.76,2.95h-3.24c0-1.01-0.54-1.98-1.48-2.7c-1.04-0.83-2.45-1.3-3.96-1.3c-1.51,0-2.92,0.47-3.96,1.3
				c-0.94,0.72-1.44,1.69-1.44,2.7c0,1.19,0.76,2.05,1.4,2.56c1.04,0.79,2.48,1.3,4.11,1.4c2.84,0.14,5.26,0.9,6.95,2.23
				c1.8,1.37,2.77,3.35,2.77,5.55c0,1.08-0.29,2.16-0.83,3.17c-0.54,0.94-1.3,1.76-2.23,2.45c-1.8,1.37-4.21,2.13-6.77,2.13
				C517.55,193.73,515.14,192.97,513.3,191.6z"/>
			<path d="M588.86,167.12v26.72h-3.24v-12.71h-14.69v12.6h-3.24v-26.61h3.24v10.77h14.69v-10.77H588.86z"/>
			<path d="M627.56,167.01h3.24v26.72h-3.24V167.01z"/>
			<path d="M677.67,192.69c-1.62-0.68-3.02-1.66-4.25-2.88c-1.22-1.23-2.2-2.63-2.88-4.25c-0.68-1.62-1.04-3.39-1.04-5.19
				c0-1.8,0.36-3.56,1.04-5.19c0.68-1.62,1.66-3.02,2.88-4.25c1.22-1.22,2.63-2.2,4.25-2.88c1.62-0.68,3.38-1.04,5.19-1.04
				c1.8,0,3.56,0.36,5.18,1.04c1.62,0.69,3.03,1.66,4.25,2.88c1.22,1.23,2.2,2.63,2.88,4.25c0.68,1.62,1.04,3.39,1.04,5.19
				c0,1.8-0.36,3.56-1.04,5.19c-0.68,1.62-1.66,3.02-2.88,4.25c-1.22,1.22-2.63,2.2-4.25,2.88c-1.62,0.68-3.38,1.04-5.18,1.04
				C681.05,193.73,679.29,193.37,677.67,192.69z M675.69,173.21c-1.91,1.91-2.95,4.46-2.95,7.16s1.04,5.26,2.95,7.16
				c1.91,1.91,4.46,2.95,7.17,2.95c2.7,0,5.26-1.04,7.16-2.95c1.91-1.91,2.95-4.46,2.95-7.16s-1.04-5.26-2.95-7.16
				c-1.91-1.91-4.46-2.95-7.16-2.95C680.15,170.25,677.6,171.3,675.69,173.21z"/>
			<path d="M752.48,167.01h3.24v26.72h-3.56l-14.91-21.53v21.53h-3.24v-26.72h3.6l14.87,21.53V167.01z"/>
			<path d="M861.48,180.37c0,3.49-1.04,6.77-2.92,9.29c-0.94,1.22-2.05,2.23-3.28,2.95c-1.33,0.72-2.77,1.12-4.25,1.12h-10.73
				v-26.72h10.73c1.48,0,2.92,0.4,4.25,1.12c1.22,0.72,2.34,1.73,3.28,2.95C860.44,173.6,861.48,176.88,861.48,180.37z
				 M858.24,180.37c0-2.77-0.79-5.4-2.27-7.35c-1.33-1.76-3.1-2.77-4.93-2.77h-7.49v20.24h7.49c1.84,0,3.6-1.01,4.93-2.77
				C857.45,185.77,858.24,183.14,858.24,180.37z"/>
			<path d="M916.09,190.49v3.24H900.9h-1.62v-26.72h15.99v3.24h-12.75v7.52h10.84v3.24h-10.84v9.47H916.09z"/>
			<path d="M956.95,191.6c-0.94-0.68-1.69-1.51-2.2-2.45c-0.58-1.01-0.86-2.09-0.86-3.17h3.24c0,1.12,0.61,2.2,1.76,3.02
				c1.26,0.94,2.99,1.48,4.83,1.48s3.56-0.54,4.86-1.48c1.12-0.83,1.73-1.91,1.73-3.02c0-1.23-0.51-2.2-1.51-2.99
				c-0.83-0.65-2.38-1.4-5.15-1.55h-0.04c-2.27-0.18-4.32-0.9-5.87-2.09c-1.73-1.33-2.66-3.13-2.66-5.11c0-1.04,0.22-2.02,0.72-2.95
				c0.47-0.86,1.12-1.66,1.94-2.3c1.62-1.26,3.75-1.98,5.98-1.98c2.27,0,4.39,0.72,5.98,1.98c0.83,0.65,1.47,1.44,1.94,2.3
				c0.5,0.94,0.76,1.91,0.76,2.95h-3.24c0-1.01-0.54-1.98-1.48-2.7c-1.04-0.83-2.45-1.3-3.96-1.3c-1.51,0-2.92,0.47-3.96,1.3
				c-0.94,0.72-1.44,1.69-1.44,2.7c0,1.19,0.76,2.05,1.4,2.56c1.04,0.79,2.48,1.3,4.1,1.4c2.84,0.14,5.26,0.9,6.95,2.23
				c1.8,1.37,2.77,3.35,2.77,5.55c0,1.08-0.29,2.16-0.83,3.17c-0.54,0.94-1.3,1.76-2.23,2.45c-1.8,1.37-4.21,2.13-6.77,2.13
				C961.19,193.73,958.78,192.97,956.95,191.6z"/>
			<path d="M1012.24,167.01h3.24v26.72h-3.24V167.01z"/>
			<path d="M1081.25,178.75v1.62v13.36h-3.24v-4.65c-0.22,0.25-0.43,0.5-0.69,0.72c-1.22,1.22-2.63,2.2-4.25,2.88
				c-1.62,0.68-3.39,1.04-5.19,1.04s-3.56-0.36-5.19-1.04c-1.62-0.68-3.03-1.66-4.25-2.88c-1.22-1.23-2.2-2.63-2.88-4.25
				c-0.68-1.62-1.04-3.39-1.04-5.19c0-1.8,0.36-3.56,1.04-5.19c0.68-1.62,1.66-3.02,2.88-4.25c1.23-1.22,2.63-2.2,4.25-2.88
				c1.62-0.68,3.39-1.04,5.19-1.04s3.56,0.36,5.19,1.04c1.62,0.69,3.02,1.66,4.25,2.88l-2.27,2.27c-1.91-1.91-4.46-2.95-7.16-2.95
				c-2.7,0-5.26,1.04-7.16,2.95c-1.91,1.91-2.95,4.46-2.95,7.16s1.04,5.26,2.95,7.16c1.91,1.91,4.46,2.95,7.16,2.95
				c2.7,0,5.26-1.04,7.16-2.95c1.51-1.55,2.49-3.46,2.81-5.54h-9.97v-3.24H1081.25z"/>
			<path d="M1137.88,167.01h3.24v26.72h-3.56l-14.91-21.53v21.53h-3.24v-26.72h3.6l14.87,21.53V167.01z"/>
		</g>
	</g>
</g>
</svg>
