<?xml version="1.0" encoding="utf-8"?>
<!-- Generator: Adobe Illustrator 25.3.1, SVG Export Plug-In . SVG Version: 6.00 Build 0)  -->
<svg version="1.1" id="Layer_1" xmlns="http://www.w3.org/2000/svg" xmlns:xlink="http://www.w3.org/1999/xlink" x="0px" y="0px"
	 viewBox="0 0 232.44 62.36" style="enable-background:new 0 0 232.44 62.36;" xml:space="preserve">
<style type="text/css">
	.st0{fill:#26AAE1;}
</style>
<g id="Logo_Print_Logo">
	<path class="st0" d="M51.23,55.33H27.45V4.44H3.74v53.55h1.33h22.39h23.77c0.73,0,1.33-0.59,1.33-1.33
		C52.55,55.93,51.96,55.33,51.23,55.33z"/>
	<path class="st0" d="M78.45,2.48c-15.85,0-28.71,12.85-28.71,28.71s12.85,28.71,28.71,28.71s28.71-12.85,28.71-28.71
		S94.3,2.48,78.45,2.48z M78.45,57.09c-6.02,0-11.57-2.07-15.97-5.53L89.44,7.73c8.8,4.14,14.91,13.1,14.91,23.46
		C104.35,45.47,92.73,57.09,78.45,57.09z"/>
	<path class="st0" d="M183.01,42.79c-0.08-0.19-0.22-0.34-0.41-0.45c-0.23-0.14-0.47-0.19-0.7-0.14c-0.23,0.05-0.43,0.16-0.6,0.35
		c-0.12,0.14-0.33,0.44-0.61,0.91l-0.38,0.63l1.83,1.1l0.43-0.71c0.3-0.51,0.48-0.87,0.51-1.09
		C183.12,43.17,183.1,42.97,183.01,42.79z M183.01,42.79c-0.08-0.19-0.22-0.34-0.41-0.45c-0.23-0.14-0.47-0.19-0.7-0.14
		c-0.23,0.05-0.43,0.16-0.6,0.35c-0.12,0.14-0.33,0.44-0.61,0.91l-0.38,0.63l1.83,1.1l0.43-0.71c0.3-0.51,0.48-0.87,0.51-1.09
		C183.12,43.17,183.1,42.97,183.01,42.79z M183.01,42.79c-0.08-0.19-0.22-0.34-0.41-0.45c-0.23-0.14-0.47-0.19-0.7-0.14
		c-0.23,0.05-0.43,0.16-0.6,0.35c-0.12,0.14-0.33,0.44-0.61,0.91l-0.38,0.63l1.83,1.1l0.43-0.71c0.3-0.51,0.48-0.87,0.51-1.09
		C183.12,43.17,183.1,42.97,183.01,42.79z M183.01,42.79c-0.08-0.19-0.22-0.34-0.41-0.45c-0.23-0.14-0.47-0.19-0.7-0.14
		c-0.23,0.05-0.43,0.16-0.6,0.35c-0.12,0.14-0.33,0.44-0.61,0.91l-0.38,0.63l1.83,1.1l0.43-0.71c0.3-0.51,0.48-0.87,0.51-1.09
		C183.12,43.17,183.1,42.97,183.01,42.79z M183.01,42.79c-0.08-0.19-0.22-0.34-0.41-0.45c-0.23-0.14-0.47-0.19-0.7-0.14
		c-0.23,0.05-0.43,0.16-0.6,0.35c-0.12,0.14-0.33,0.44-0.61,0.91l-0.38,0.63l1.83,1.1l0.43-0.71c0.3-0.51,0.48-0.87,0.51-1.09
		C183.12,43.17,183.1,42.97,183.01,42.79z M183.01,42.79c-0.08-0.19-0.22-0.34-0.41-0.45c-0.23-0.14-0.47-0.19-0.7-0.14
		c-0.23,0.05-0.43,0.16-0.6,0.35c-0.12,0.14-0.33,0.44-0.61,0.91l-0.38,0.63l1.83,1.1l0.43-0.71c0.3-0.51,0.48-0.87,0.51-1.09
		C183.12,43.17,183.1,42.97,183.01,42.79z M200,2.48c-15.85,0-28.71,12.85-28.71,28.71c0,15.85,12.85,28.71,28.71,28.71
		c15.85,0,28.7-12.85,28.7-28.71C228.7,15.33,215.85,2.48,200,2.48z M201.3,6.92l1.65,0.99l0.5-0.84l0.99,0.59l-0.51,0.84l1.88,1.13
		c0.38,0.23,0.61,0.35,0.68,0.37c0.07,0.02,0.15,0.02,0.22-0.01c0.07-0.03,0.14-0.09,0.19-0.17c0.07-0.12,0.13-0.3,0.18-0.57
		l1.02,0.47c-0.05,0.36-0.18,0.72-0.4,1.09c-0.13,0.22-0.29,0.4-0.47,0.54c-0.18,0.13-0.36,0.21-0.53,0.22
		c-0.17,0.01-0.36-0.03-0.58-0.12c-0.16-0.06-0.46-0.22-0.9-0.48l-2.03-1.22l-0.34,0.57l-0.99-0.59l0.34-0.57l-0.93-0.56L201.3,6.92
		z M196.69,18.34l0.69,0.41c-0.28-0.72-0.24-1.4,0.13-2.02c0.16-0.27,0.36-0.49,0.6-0.66c0.23-0.17,0.46-0.26,0.68-0.29
		c0.22-0.02,0.44,0,0.66,0.07c0.22,0.07,0.51,0.21,0.87,0.43l2.9,1.74l-0.74,1.24l-2.38-1.43c-0.51-0.3-0.85-0.47-1.03-0.51
		c-0.18-0.03-0.34-0.02-0.5,0.05c-0.15,0.07-0.28,0.19-0.38,0.36c-0.13,0.21-0.19,0.44-0.17,0.68c0.01,0.24,0.1,0.45,0.26,0.63
		c0.15,0.18,0.49,0.42,1.01,0.74l2.12,1.27l-0.74,1.24l-4.67-2.8L196.69,18.34z M197.05,28.32l-0.74,1.24l-4.67-2.8l0.74-1.24
		L197.05,28.32z M190.61,24.46l1.14,0.68l-0.74,1.24l-1.14-0.68L190.61,24.46z M187.33,33.94l0.66,0.4c-0.2-0.38-0.3-0.69-0.3-0.9
		c0-0.22,0.05-0.42,0.17-0.62c0.17-0.28,0.41-0.51,0.72-0.68l0.85,1.03c-0.26,0.13-0.44,0.28-0.55,0.46
		c-0.1,0.17-0.14,0.35-0.12,0.53c0.02,0.17,0.14,0.37,0.35,0.59c0.21,0.22,0.71,0.57,1.5,1.04l1.44,0.86l-0.74,1.24l-4.67-2.8
		L187.33,33.94z M178.44,44.73l1.25-2.09c0.48-0.79,0.82-1.29,1.03-1.49c0.32-0.31,0.71-0.49,1.19-0.55
		c0.48-0.06,0.97,0.07,1.48,0.38c0.4,0.24,0.69,0.51,0.87,0.82c0.19,0.3,0.29,0.62,0.31,0.93c0.02,0.31-0.01,0.6-0.1,0.86
		c-0.13,0.35-0.36,0.82-0.72,1.41l-0.51,0.85l2.43,1.46l-0.78,1.3L178.44,44.73z M200,57.09c-6.02,0-11.57-2.07-15.97-5.53
		l26.96-43.83c8.81,4.14,14.91,13.1,14.91,23.46C225.9,45.47,214.28,57.09,200,57.09z M182.6,42.34c-0.23-0.14-0.47-0.19-0.7-0.14
		c-0.23,0.05-0.43,0.16-0.6,0.35c-0.12,0.14-0.33,0.44-0.61,0.91l-0.38,0.63l1.83,1.1l0.43-0.71c0.3-0.51,0.48-0.87,0.51-1.09
		c0.04-0.21,0.01-0.41-0.07-0.59C182.93,42.6,182.79,42.45,182.6,42.34z M183.01,42.79c-0.08-0.19-0.22-0.34-0.41-0.45
		c-0.23-0.14-0.47-0.19-0.7-0.14c-0.23,0.05-0.43,0.16-0.6,0.35c-0.12,0.14-0.33,0.44-0.61,0.91l-0.38,0.63l1.83,1.1l0.43-0.71
		c0.3-0.51,0.48-0.87,0.51-1.09C183.12,43.17,183.1,42.97,183.01,42.79z M183.01,42.79c-0.08-0.19-0.22-0.34-0.41-0.45
		c-0.23-0.14-0.47-0.19-0.7-0.14c-0.23,0.05-0.43,0.16-0.6,0.35c-0.12,0.14-0.33,0.44-0.61,0.91l-0.38,0.63l1.83,1.1l0.43-0.71
		c0.3-0.51,0.48-0.87,0.51-1.09C183.12,43.17,183.1,42.97,183.01,42.79z M183.01,42.79c-0.08-0.19-0.22-0.34-0.41-0.45
		c-0.23-0.14-0.47-0.19-0.7-0.14c-0.23,0.05-0.43,0.16-0.6,0.35c-0.12,0.14-0.33,0.44-0.61,0.91l-0.38,0.63l1.83,1.1l0.43-0.71
		c0.3-0.51,0.48-0.87,0.51-1.09C183.12,43.17,183.1,42.97,183.01,42.79z M183.01,42.79c-0.08-0.19-0.22-0.34-0.41-0.45
		c-0.23-0.14-0.47-0.19-0.7-0.14c-0.23,0.05-0.43,0.16-0.6,0.35c-0.12,0.14-0.33,0.44-0.61,0.91l-0.38,0.63l1.83,1.1l0.43-0.71
		c0.3-0.51,0.48-0.87,0.51-1.09C183.12,43.17,183.1,42.97,183.01,42.79z"/>
	<path class="st0" d="M165.12,30.94C165.12,30.94,165.12,30.94,165.12,30.94l-23.26,0c-0.7,0-1.26,0.57-1.26,1.26
		c0,0.7,0.57,1.26,1.26,1.26h23.16c-0.71,7.87-4.99,15.33-12.22,19.78c-5.13,3.15-10.94,4.29-16.5,3.65l0-51.46
		c9.24-1.04,18.68,2.96,24.24,11.01c0.41,0.6,1.22,0.79,1.85,0.43c0.71-0.4,0.93-1.33,0.47-2c-8.61-12.5-25.59-16.19-38.67-8.15
		c-13.5,8.31-17.72,25.98-9.41,39.49c8.31,13.5,25.99,17.72,39.49,9.41c8.88-5.46,13.74-14.98,13.67-24.69H165.12z"/>
</g>
</svg>
