<svg width="19" height="19" viewBox="0 0 19 19" fill="none" xmlns="http://www.w3.org/2000/svg">
<g clip-path="url(#clip0_3889_2902)">
<path d="M16.7479 2.59033L14.9397 0.722792C14.7176 0.494764 14.4523 0.313373 14.1592 0.189257C13.8661 0.0651402 13.5512 0.000796758 13.2329 0L9.50016 0C8.588 0.0011515 7.70412 0.316738 6.99751 0.893568C6.29089 1.4704 5.80474 2.2732 5.621 3.16667H5.54183C4.4924 3.16792 3.48631 3.58536 2.74425 4.32742C2.00219 5.06948 1.58475 6.07557 1.5835 7.125V15.0417C1.58475 16.0911 2.00219 17.0972 2.74425 17.8392C3.48631 18.5813 4.4924 18.9987 5.54183 19H10.2918C11.3413 18.9987 12.3473 18.5813 13.0894 17.8392C13.8315 17.0972 14.2489 16.0911 14.2502 15.0417V14.9625C15.1436 14.7788 15.9464 14.2926 16.5233 13.586C17.1001 12.8794 17.4157 11.9955 17.4168 11.0833V4.24333C17.418 3.62616 17.178 3.03297 16.7479 2.59033V2.59033ZM10.2918 17.4167H5.54183C4.91194 17.4167 4.30785 17.1664 3.86245 16.721C3.41705 16.2756 3.16683 15.6716 3.16683 15.0417V7.125C3.16683 6.49511 3.41705 5.89102 3.86245 5.44562C4.30785 5.00022 4.91194 4.75 5.54183 4.75V11.0833C5.54309 12.1328 5.96053 13.1389 6.70259 13.8809C7.44465 14.623 8.45073 15.0404 9.50016 15.0417H12.6668C12.6668 15.6716 12.4166 16.2756 11.9712 16.721C11.5258 17.1664 10.9217 17.4167 10.2918 17.4167ZM13.4585 13.4583H9.50016C8.87027 13.4583 8.26618 13.2081 7.82078 12.7627C7.37539 12.3173 7.12516 11.7132 7.12516 11.0833V3.95833C7.12516 3.32844 7.37539 2.72435 7.82078 2.27895C8.26618 1.83356 8.87027 1.58333 9.50016 1.58333H12.6668V3.16667C12.6668 3.58659 12.8336 3.98932 13.1306 4.28625C13.4275 4.58319 13.8302 4.75 14.2502 4.75H15.8335V11.0833C15.8335 11.7132 15.5833 12.3173 15.1379 12.7627C14.6925 13.2081 14.0884 13.4583 13.4585 13.4583V13.4583Z" fill="#A4A4A4"/>
</g>
<defs>
<clipPath id="clip0_3889_2902">
<rect width="19" height="19" fill="white"/>
</clipPath>
</defs>
</svg>
