<svg width="160" height="26" viewBox="0 0 160 26" fill="none" xmlns="http://www.w3.org/2000/svg">
<path d="M16.078 6.07361C14.7504 5.54711 12.8238 5.29231 10.1858 5.29231H3.37057V20.7766H10.9778C14.1276 20.7766 16.6479 20.0395 18.4701 18.5848C20.3293 17.1015 21.2707 15.2217 21.2707 12.9974C21.2707 11.2268 20.722 9.73441 19.639 8.56181C18.5983 7.43471 17.4003 6.59751 16.078 6.07361ZM14.1302 10.6119C14.5375 11.3022 14.7359 12.0315 14.7359 12.8401C14.7359 14.001 14.3855 14.9851 13.6648 15.847C12.9679 16.679 11.8559 17.1015 10.3564 17.1015H9.44661V8.76851H10.4C11.2846 8.76851 12.045 8.91151 12.6598 9.19491C13.2456 9.46401 13.7269 9.92811 14.1302 10.6119Z" fill="black"/>
<path d="M39.5425 9.9853C39.5107 8.9986 39.1735 8.0925 38.4463 7.2969C37.7415 6.5247 36.8423 5.9878 35.7752 5.7005C34.7663 5.4288 33.4254 5.291 31.7897 5.291H21.8182V20.7753H27.9392V14.7446H29.7878L32.6532 20.7753H39.6126L35.8307 14.0387C37.9121 13.2158 39.6099 12.1069 39.5425 9.9853ZM32.8807 10.1088C32.8807 10.3597 32.7802 10.5742 32.5646 10.7809C32.3147 11.0214 32.0397 11.1709 31.7263 11.2398C31.3507 11.3217 30.7174 11.3633 29.8433 11.3633H27.9365V8.5995H29.7428C31.0069 8.5995 31.557 8.6515 31.795 8.6957C32.0701 8.7464 32.324 8.8829 32.5712 9.1117C32.8489 9.3704 32.8807 9.9658 32.8807 10.1088Z" fill="black"/>
<path d="M46.5362 5.29231H40.4165V20.7766H46.5362V5.29231Z" fill="black"/>
<path d="M56.6849 14.95L52.7537 5.29231H46.4092L52.9811 20.7766H59.0704L65.4889 5.29231H60.3795L56.6849 14.95Z" fill="black"/>
<path d="M80.2036 8.85951V5.29231H65.2205V20.7766H80.2036V16.9195H71.044V14.4729H78.396V10.9356H71.044V8.85951H80.2036Z" fill="black"/>
<path d="M103.812 8.48121V5.29231H88.1706V8.83871H96.3041L87.5094 17.4291V20.7766H104.13V17.0105L95.1444 17.0066L103.812 8.48121Z" fill="black"/>
<path d="M112.938 5.0791C109.884 5.0791 107.483 5.8344 105.801 7.3216C104.108 8.8205 103.249 10.7146 103.249 12.9519C103.249 15.1489 104.094 17.0469 105.759 18.5939C107.421 20.137 109.779 20.9196 112.767 20.9196C115.876 20.9196 118.29 20.1487 119.942 18.6264C121.599 17.1002 122.438 15.2022 122.438 12.9831C122.438 10.9252 121.626 9.0753 120.028 7.4854C118.421 5.8903 116.036 5.0791 112.938 5.0791ZM115.857 12.9233C115.857 16.8298 114.219 17.2822 112.985 17.2822C111.704 17.2822 110.001 16.8298 110.001 12.9116C110.001 9.0051 111.704 8.5527 112.985 8.5527C114.219 8.5527 115.857 9.0064 115.857 12.9233Z" fill="black"/>
<path d="M135.045 12.8518L128.725 5.29231H123.11V20.7766H127.84V11.8404L135.249 20.7766H139.938V5.29231H135.045V12.8518Z" fill="black"/>
<path d="M156.629 8.85951V5.29231H141.645V20.7766H156.629V16.9195H147.47V14.4729H154.822V10.9356H147.47V8.85951H156.629Z" fill="black"/>
<path d="M84.4456 2.03191H91.3349L83.6403 23.9681H76.7894L84.4456 2.03191Z" fill="url(#paint0_linear_2358_431)"/>
<defs>
<linearGradient id="paint0_linear_2358_431" x1="84.0615" y1="23.9682" x2="84.0615" y2="2.03184" gradientUnits="userSpaceOnUse">
<stop stop-color="#FB962A"/>
<stop offset="1" stop-color="#FBC81F"/>
</linearGradient>
</defs>
</svg>
