<svg width="60" height="80" viewBox="0 0 60 80" fill="none" xmlns="http://www.w3.org/2000/svg">
<g clip-path="url(#clip0_2312_422)">
<path d="M59.7986 0.0827179C59.7986 21.1715 59.7986 42.2313 59.7986 63.2828C49.3346 52.7405 38.8707 42.2023 28.4273 31.6807C38.8501 21.188 49.3141 10.6457 59.7986 0.0827179Z" fill="#133D67"/>
<path d="M-0.0533752 31.6683C-0.0533752 21.1136 -0.0533752 10.563 -0.0533752 0C10.4393 0 20.932 0 31.3836 0C20.9279 10.5382 10.4393 21.097 -0.0533752 31.6683Z" fill="#133D67"/>
<path d="M-0.0575562 63.3945C-0.0575562 52.8439 -0.0575562 42.2975 -0.0575562 31.7552C10.4228 42.314 20.8991 52.8729 31.3424 63.3945C20.9443 63.3945 10.4516 63.3945 -0.0575562 63.3945Z" fill="#133D67"/>
<path d="M11.1053 79.6857C10.5338 79.6857 10.0075 79.6857 9.48126 79.6857C8.87686 79.6857 8.27657 79.6774 7.67217 79.6898C7.49949 79.6939 7.39259 79.6443 7.2898 79.4954C6.25779 78.0024 5.21757 76.5217 4.18146 75.0328C4.14445 74.979 4.10334 74.9211 4.04989 74.8467C3.71685 75.1817 3.38381 75.5084 3.06311 75.8476C3.022 75.8931 3.01789 75.9882 3.01789 76.0585C3.01377 77.1876 3.01789 78.3167 3.01789 79.4458C3.01789 79.5202 3.01789 79.5947 3.01789 79.6774C2.00233 79.6774 1.00733 79.6774 0 79.6774C0 75.6573 0 71.6414 0 67.6131C0.999109 67.6131 2.00233 67.6131 3.01789 67.6131C3.01789 69.1268 3.01789 70.6405 3.01789 72.2163C3.10012 72.1253 3.14534 72.0715 3.19468 72.0178C4.51038 70.5992 5.83019 69.1764 7.14178 67.7537C7.24868 67.6379 7.35558 67.5924 7.51182 67.5924C8.58494 67.6007 9.66217 67.5965 10.7353 67.5965C10.8011 67.5965 10.8669 67.5965 10.9861 67.5965C9.34558 69.3129 7.73796 70.9879 6.12211 72.6795C7.77907 75.0039 9.42781 77.3282 11.1053 79.6857Z" fill="#133D67"/>
<path d="M40.8936 75.2107C40.873 75.9717 40.7744 76.712 40.4783 77.4109C39.9438 78.6765 38.994 79.4665 37.6825 79.8015C36.6381 80.0662 35.5773 80.062 34.5371 79.7725C33.1063 79.3755 32.1524 78.4573 31.7207 77.0346C31.3466 75.8021 31.3466 74.5448 31.7454 73.3164C32.1853 71.964 33.1022 71.0789 34.459 70.6778C35.6143 70.3345 36.7903 70.3345 37.9374 70.6984C39.5861 71.2237 40.4948 72.4107 40.7826 74.1023C40.8442 74.4703 40.8566 74.8426 40.8936 75.2107ZM37.8921 75.1983C37.8798 74.702 37.8428 74.1808 37.6249 73.6928C37.3289 73.0187 36.8273 72.6919 36.1201 72.7002C35.4047 72.7085 34.9195 73.0766 34.6851 73.7259C34.3233 74.7226 34.3233 75.7359 34.6975 76.7285C34.9442 77.382 35.4376 77.7377 36.1447 77.7418C36.8519 77.7459 37.3289 77.3903 37.6167 76.7533C37.8387 76.2694 37.8839 75.7525 37.8921 75.1983Z" fill="#133D67"/>
<path d="M15.9159 70.4172C16.7382 70.4544 17.5399 70.5661 18.2882 70.9342C19.3572 71.4594 20.0603 72.3073 20.3892 73.4447C20.7305 74.6192 20.7428 75.8186 20.3851 76.9891C19.8712 78.6641 18.6953 79.6071 16.9972 79.9007C16.105 80.0538 15.2087 80.0331 14.3329 79.7891C12.6266 79.3176 11.6522 78.1595 11.3315 76.439C11.1382 75.4133 11.1588 74.3794 11.4836 73.3785C11.9934 71.7986 13.0953 70.8846 14.6947 70.5661C15.0977 70.4834 15.5088 70.4627 15.9159 70.4172ZM17.6509 75.2148C17.655 74.702 17.6016 74.1974 17.4001 73.7218C17.1123 73.0352 16.6025 72.6919 15.8912 72.7002C15.1922 72.7085 14.6865 73.0476 14.4357 73.7548C14.0903 74.7268 14.0903 75.7152 14.4398 76.683C14.6947 77.3903 15.2251 77.7459 15.9159 77.7459C16.6107 77.7459 17.1205 77.382 17.4042 76.6913C17.6016 76.2157 17.6509 75.7194 17.6509 75.2148Z" fill="#133D67"/>
<path d="M54.1534 73.5232C53.2899 73.5232 52.406 73.5232 51.5261 73.5232C51.7481 71.8937 52.7226 70.9094 54.4001 70.6488C55.4773 70.4834 56.5586 70.4751 57.6112 70.8101C58.7665 71.1741 59.4367 72.0012 59.4778 73.2213C59.5313 74.7475 59.5148 76.2777 59.5395 77.808C59.5436 78.1017 59.5724 78.3994 59.6094 78.6931C59.6382 78.933 59.7369 79.148 59.926 79.3217C59.9959 79.3879 59.9795 79.5409 60.0041 79.6733C58.9968 79.6733 58.0182 79.6733 57.015 79.6733C56.9657 79.3879 56.9122 79.0943 56.8588 78.7758C56.4394 79.1811 55.9954 79.5078 55.4691 79.7105C54.692 80.0083 53.8944 80.0579 53.0926 79.847C51.8632 79.5244 51.1519 78.4077 51.2917 77.0677C51.4356 75.6904 52.1881 74.8839 53.6477 74.5696C54.4042 74.4083 55.1648 74.2718 55.9172 74.1147C56.0817 74.0816 56.2462 74.0195 56.3983 73.9492C56.8588 73.7383 56.9246 73.0931 56.534 72.7622C56.168 72.4521 54.877 72.3941 54.4494 72.9814C54.3302 73.1386 54.2562 73.3289 54.1534 73.5232ZM56.7683 75.5581C56.2708 75.6863 55.7857 75.8062 55.3005 75.9386C55.0209 76.0172 54.7413 76.1082 54.4741 76.224C54.2521 76.3191 54.1123 76.5135 54.0588 76.7575C53.9026 77.4937 54.3836 78.081 55.1319 78.0603C55.2265 78.0562 55.3252 78.0479 55.4197 78.0396C56.1516 77.9569 56.7354 77.3779 56.7683 76.683C56.7848 76.2984 56.7683 75.9138 56.7683 75.5581Z" fill="#133D67"/>
<path d="M30.0679 73.0724C29.1469 73.0724 28.23 73.0724 27.3008 73.0724C27.2884 73.0476 27.2761 73.0187 27.2679 72.9856C27.161 72.5803 26.8978 72.3363 26.4949 72.2494C26.1413 72.175 25.7877 72.1667 25.4423 72.2784C25.1587 72.3693 24.9736 72.5555 24.9284 72.8615C24.8873 73.1676 25.0723 73.3495 25.3067 73.4612C25.6315 73.6142 25.9686 73.7507 26.314 73.8583C27.1075 74.1147 27.9093 74.3422 28.6987 74.5986C29.5662 74.884 30.1871 75.4299 30.3392 76.3687C30.5119 77.4358 30.2323 78.3622 29.3689 79.0612C28.7809 79.5327 28.0902 79.7643 27.3583 79.8718C26.2564 80.0331 25.1628 80.0124 24.0855 79.6898C23.403 79.4831 22.8027 79.1398 22.3505 78.5732C21.9804 78.1099 21.7995 77.5723 21.7502 76.9684C22.7164 76.9684 23.6744 76.9684 24.6324 76.9684C24.6406 76.9767 24.657 76.9891 24.657 76.9974C24.7393 77.7377 25.2203 78.0603 25.9275 78.1182C26.2852 78.1472 26.6511 78.1637 26.9718 77.99C27.1569 77.8907 27.3337 77.7377 27.4447 77.5599C27.6091 77.2952 27.5434 77.0181 27.272 76.8609C26.9554 76.6789 26.6141 76.5259 26.2647 76.4266C25.3971 76.1785 24.5255 75.9469 23.7073 75.554C23.5181 75.463 23.329 75.3637 23.1481 75.2521C22.2723 74.7268 21.9804 73.9203 22.1079 72.9442C22.2559 71.7779 22.9795 71.0748 24.0321 70.7357C25.4876 70.2642 26.9636 70.3138 28.3986 70.8473C29.3689 71.2072 29.9404 71.9268 30.0679 72.9815C30.072 73.0145 30.0679 73.0394 30.0679 73.0724Z" fill="#133D67"/>
<path d="M46.0577 76.9643C46.6416 74.8591 47.209 72.8119 47.7764 70.7687C48.8001 70.7687 49.8033 70.7687 50.8354 70.7687C50.6873 71.1658 50.5475 71.5504 50.4077 71.9351C49.4785 74.4579 48.5452 76.9808 47.6201 79.5037C47.5708 79.6402 47.5091 79.6898 47.3611 79.6898C46.436 79.6815 45.515 79.6857 44.5734 79.6857C43.4798 76.7202 42.3861 73.7548 41.2883 70.777C42.3203 70.777 43.3318 70.777 44.3638 70.777C44.9188 72.816 45.4821 74.8632 46.0577 76.9643Z" fill="#133D67"/>
</g>
<defs>
<clipPath id="clip0_2312_422">
<rect width="60" height="80" fill="white"/>
</clipPath>
</defs>
</svg>
