<svg width="162" height="60" viewBox="0 0 162 60" fill="none" xmlns="http://www.w3.org/2000/svg">
<path d="M127.152 52.5576H131.003V50.7996C131.003 50.754 130.986 50.7144 130.954 50.6808C130.92 50.6472 130.882 50.6316 130.835 50.6316H127.32C127.274 50.6316 127.235 50.6484 127.201 50.6808C127.168 50.7144 127.152 50.7528 127.152 50.7996V52.5576ZM127.32 49.8072H130.835C131.11 49.8072 131.345 49.9044 131.538 50.0976C131.731 50.2908 131.828 50.526 131.828 50.8008V55.3092H131.003V53.3832H127.152V55.3092H126.326V50.8008C126.326 50.526 126.424 50.292 126.617 50.0976C126.81 49.9044 127.044 49.8072 127.32 49.8072ZM107.44 54.3768L110.076 49.8072H111.023L107.852 55.308H107.027L103.848 49.8072H104.803L107.44 54.3768ZM84.1524 54.4836H87.6672C87.7128 54.4836 87.7524 54.4668 87.786 54.4344C87.8196 54.4008 87.8352 54.3624 87.8352 54.3156V50.8008C87.8352 50.7552 87.8184 50.7156 87.786 50.682C87.7524 50.6484 87.714 50.6328 87.6672 50.6328H84.1524C84.1068 50.6328 84.0672 50.6496 84.0336 50.682C84 50.7156 83.9844 50.754 83.9844 50.8008V54.3156C83.9844 54.3612 84.0012 54.4008 84.0336 54.4344C84.066 54.4668 84.1056 54.4836 84.1524 54.4836ZM84.1524 49.8072H87.6672C87.942 49.8072 88.176 49.9044 88.3704 50.0976C88.5636 50.2908 88.6608 50.526 88.6608 50.8008V54.3156C88.6608 54.5904 88.5636 54.8256 88.3704 55.0188C88.1772 55.212 87.942 55.3092 87.6672 55.3092H84.1524C83.8776 55.3092 83.6436 55.212 83.4492 55.0188C83.256 54.8256 83.1588 54.5904 83.1588 54.3156V50.8008C83.1588 50.526 83.256 50.292 83.4492 50.0976C83.6424 49.9044 83.8764 49.8072 84.1524 49.8072ZM67.5648 50.8008V51.1224H66.7392V50.8008C66.7392 50.7552 66.7224 50.7156 66.69 50.682C66.6564 50.6484 66.618 50.6328 66.5712 50.6328H63.0564C63.0108 50.6328 62.9712 50.6496 62.9376 50.682C62.904 50.7156 62.8884 50.754 62.8884 50.8008V51.978C62.8884 52.0236 62.9052 52.0632 62.9376 52.0968C62.9712 52.1304 63.0108 52.146 63.0564 52.146H66.5712C66.846 52.146 67.0812 52.2432 67.2744 52.4364C67.4676 52.6296 67.5648 52.8648 67.5648 53.1396V54.3168C67.5648 54.5916 67.4676 54.8268 67.2744 55.02C67.0812 55.2132 66.846 55.3104 66.5712 55.3104H63.0564C62.7816 55.3104 62.5476 55.2132 62.3532 55.02C62.16 54.8268 62.0628 54.5916 62.0628 54.3168V53.9964H62.8884V54.3168C62.8884 54.3624 62.9052 54.402 62.9376 54.4356C62.9712 54.4692 63.0108 54.4848 63.0564 54.4848H66.5712C66.6168 54.4848 66.6564 54.468 66.69 54.4356C66.7236 54.402 66.7392 54.3636 66.7392 54.3168V53.1396C66.7392 53.094 66.7224 53.0544 66.69 53.0208C66.6564 52.9872 66.618 52.9716 66.5712 52.9716H63.0564C62.7816 52.9716 62.5476 52.8744 62.3532 52.6812C62.16 52.488 62.0628 52.2528 62.0628 51.978V50.8008C62.0628 50.526 62.16 50.292 62.3532 50.0976C62.5464 49.9044 62.7816 49.8072 63.0564 49.8072H66.5712C66.846 49.8072 67.0812 49.9044 67.2744 50.0976C67.4688 50.2908 67.5648 50.526 67.5648 50.8008ZM41.9628 54.4836H45.4776C45.5232 54.4836 45.5628 54.4668 45.5964 54.4344C45.63 54.4008 45.6456 54.3624 45.6456 54.3156V50.8008C45.6456 50.7552 45.6288 50.7156 45.5964 50.682C45.5628 50.6484 45.5244 50.6328 45.4776 50.6328H41.9628C41.9172 50.6328 41.8776 50.6496 41.844 50.682C41.8104 50.7156 41.7948 50.754 41.7948 50.8008V54.3156C41.7948 54.3612 41.8116 54.4008 41.844 54.4344C41.8764 54.4668 41.916 54.4836 41.9628 54.4836ZM41.9628 49.8072H45.4776C45.7524 49.8072 45.9864 49.9044 46.1808 50.0976C46.374 50.2908 46.4712 50.526 46.4712 50.8008V54.3156C46.4712 54.5904 46.374 54.8256 46.1808 55.0188C45.9876 55.212 45.7524 55.3092 45.4776 55.3092H41.9628C41.688 55.3092 41.454 55.212 41.2596 55.0188C41.0664 54.8256 40.9692 54.5904 40.9692 54.3156V50.8008C40.9692 50.526 41.0664 50.292 41.2596 50.0976C41.4528 49.9044 41.6868 49.8072 41.9628 49.8072ZM24.4284 49.8072H25.4064V49.9212L23.1984 52.5576L25.4064 55.194V55.308H24.4284L22.4652 52.9704H20.9376V55.308H20.112V49.8072H20.9376V52.1448H22.4652L24.4284 49.8072Z" fill="#141414"/>
<path d="M150.66 18.7428V13.5156C150.66 12.228 151.471 11.1 152.779 11.1C154.086 11.1 154.621 12.1884 154.621 13.476V18.7428H157.037V13.476C157.037 10.5456 155.67 8.84279 152.898 8.84279C151.631 8.84279 150.502 9.23879 149.63 10.6248C149.076 9.27839 147.907 8.80319 146.74 8.80319C145.808 8.80319 144.68 9.15959 144.166 10.1496L143.988 8.96159H141.75V18.744H144.166V13.5168C144.166 12.2292 144.938 11.0616 146.245 11.0616C147.572 11.0616 148.246 12.2292 148.246 13.5168V18.744H150.66V18.7428Z" fill="#67B32E"/>
<path d="M136.98 8.46359V9.08639H139.846V11.2392H136.98V18.744H134.562V11.2392H102.102V9.08639H134.561V8.46359C134.561 5.85239 136.322 4.64639 138.282 4.64639C139.138 4.64639 140.027 4.92359 140.819 5.43359L139.924 7.24079C139.414 6.90119 138.938 6.72479 138.439 6.72479C137.609 6.72479 136.98 7.28039 136.98 8.46359Z" fill="#67B32E"/>
<path d="M16.2432 49.6524H7.3932V55.3536H16.2432V49.6524Z" fill="#67B32E"/>
<path d="M35.226 14.0244V13.4844H24.558C21.9024 16.8156 18.9768 20.5068 16.2756 23.8368V13.4844H7.3632V44.994H16.2756V34.506L25.278 44.994H36.306V44.454C31.9404 39.4572 26.8536 33.786 22.4424 28.9248L35.226 14.0244Z" fill="#141414"/>
<path d="M122.716 13.4844V30.3744L109.662 13.4844H102.1V44.9928H111.102V28.1976L124.111 44.9928H131.674V13.4844H122.716Z" fill="#141414"/>
<path d="M76.7172 13.4844L62.7696 44.5788V37.4304H47.6892V13.4844H38.7768V44.994H62.5836H62.7696H72.0372L74.1084 39.8172H88.1976L90.2688 44.994H99.8112L85.7208 13.4844H76.7172ZM77.1228 32.3448L81.174 22.3068L85.1796 32.3448H77.1228Z" fill="#141414"/>
</svg>
